<svg xmlns="http://www.w3.org/2000/svg" xmlns:xlink="http://www.w3.org/1999/xlink" width="72" height="68">
  <defs>
    <path id="a" fill="#ad3c05" d="M47 20v-3l-1-3-1-3-1-3-2-2-3-4h-4l-2-1-7-1-3 1h-3l-3 2-3 1-1 1h-1l-2 3-2 6-4 2-2 1-2 1 1 4 4 1 4-2 1-2 1 2 1 1 4 1 4 1h3l2 1 2-1 4-1 4-2 4-1 2 1h4l1 2 1-1zm-37-3-3 3-4 1-1-1q-1-1 1-1l4-2 7-4 10-2h-2l-4 2zm35 2h-8l-3 1-2 1h-2l-4 2-2-1h-5l-3-1h-2l-1-1-1-1h-1v-1l2-1 3 2q2 2 3 1v-1h-1l-2-1-2-2 4-2 2 3 1 1 2 1v-1l-2-2-2-2 3-1 2 2 1 1 1 1v-2l-1-1-2-2 4-1 1 2 2 3h1l-1-3-1-2h3l1 3q0 2 1 1l1-1h-1v-1l-1-2 2 1h1v2l1 2 1-1v-2l1 1 3 3 1-1-2-2-1-1h-1v-1l-2-1h1l1-1h1l-1-1-2 1-1 1-1-1h-2l1-1 1-1h1l-1-2-2 2-2 1h-3l1-1 1-1 1-1-1-1-2 2-1 2h-4l1-1V7l1-1V4l-1 1-1 2-1 1-1 1-3 1 1-2 1-1V6q1-2-1-1l-1 3-1 2-4 2 1-2 1-2 1-1-1-1-1 2h-1v1l-1 2v1h-1v1l-2 1 1-2 1-3 1-2 1-1h1l3-1 2-1 2-1h4l3-1h3l2 1 3 1h2l1 1 3 3 1 2 1 3 1 1v6z"/>
  </defs>
  <use x="12" href="#a"/>
  <use x="-1.3" y="14.1" href="#a" transform="rotate(120 35 48)"/>
  <use x="-6.7" y="-5.1" href="#a" transform="rotate(240 29 29)"/>
</svg>