<svg xmlns="http://www.w3.org/2000/svg" width="71" height="63" fill="none" viewBox="0 0 71 63">
  <path fill="#29261f" fill-rule="evenodd" d="M50.4 28.4c-.3-1-.2-1.9-.6-2.8-1-.8-.8-.4-1.2-.5l-.2.1-.1.1v.2l-.1.2H48v.9l-.3.8v.4L48 29l.1.5.1.2h.1l.1.3.1.1q.2 0 .3.2c.4.1 1.2-.3 1.3-.4.4-.2.4-1 .4-1.4m9.6 0c-.4-1.1 0-3.3-1.6-3.3h-.1c-.5 0 0 .1-.4.2v.2l-.1.2v.2c-.2 1.1-.5 2.6 0 3.7s2.6.5 2.2-1.2m8.5 22.2c0 1.8.3 7.7-.2 9.5-.2.6-2.8.3-3.3.4l-10.4.2c.5-14.9 1.2-30.3-.1-45.3 4.5-.3 9.5.3 14-.8zM54.1 13.2c3-.1 7.6.2 10.8.2h.3c1 .2 2.4.1 3.3.3V3.5c0-.4-.2-1-.7-1l-17.4-.1C36.3 2.3 39.5.3 39.1 13.8c4.9-.8 10-.6 15-.6m-.2 47.5c-4.5.1-9 0-13.4.6 0-1.6 0-3.8-.4-5.4 1.4-1.2 4.6-7.9 5.6-9.5 8.3-1.2 4.2-13-3-9a6 6 0 0 0-4-3.9q.3-9.3.4-18.7c4.4 1.4 9.8.7 14.5.7-1.7 7.7-.7 15.8-.8 23.7.4 7-.2 14.7 1 21.5m-12-22.5c-1-2.7-4.4-3.3-7-3-2.2.1-6.8 0-9 .2l-12 .2c-2.5-.3-5.2.9-5.9 3.3 1.7 3.4 2.7 7.9 6.1 10 1.4 1.2 13.4.3 15.2.6 2.2-.1 5.6.4 7.2-1.4q2.1-2.2 3.4-5.2c.7-1.6.9-3.2 2-4.7m-3.6-4.7h.2V33q0 .4-.2-.1zm0 23.5a6 6 0 0 1-2.2.2c.6 1 1 2.5 1.5 3.5h.6zm-24.3-.4q-1.4 0-2.6-.8.5 2.2.4 4.7c.6 0 .5 0 .6-.3l1-2.4zM71 46.3v13.2c0 1.5-1.3 3-2.9 3.2-8.8-.1-19 .2-27.6-1.3.2 2.2-2.5 1.5-3.9 1.5-1 0-1-1.3-1.2-2-.3-1-.9-2.7-.9-3.7q-9.7.1-19.6-.5c.4 1.7-.6 3.6-1 5.3-.4 1-1.1.6-1.6.7l-1.8.1c-1.8 0-1.1-3.5-1.2-4.7 0-1 .1-2.5 1.2-3l-.7-1.4c.9 1 2 1.9 3.7 1.7l22.7-.5c2.4 0 2.9-1.5 3.8-3.3l4-7q.4-.8 1.2-.6c1.8.1 3.3-1.7 2.4-3.6-.7-1.6-3.5-2-4.2 0C39 56.3 29 50.7 15.9 51.4c-5-.6-7.4-6-8.8-10-.8-3.8-5.1-3.4-5.5.1q.1 1.8 1.8 2.6c1.1.4 1.8-.1 2.1.6 1.5 3 3.5 5.9 4.5 8.9l-.7-1c.2.3 0 0-.2 0l.3.5c-1-1.2-3.9-6-4.8-7.4-8.2-.3-4.2-12 2.4-8 1.4-5.7 7.4-4.4 12-4.6q9.8 0 19.2.3c-.4-9.3-1.5-21.9-.6-31.4Q38.3.5 40 .4L67.8.3a3 3 0 0 1 3 2.8zM5 13.6v-.2l.2-.1v.2c1-2 2-4.8 2.7-7h3.7l1.8 6.2q-4.3.1-8.4 1c.8.8 3 1 4.4 1.1-2.8 6.6 6.2 11.1 10.2 5.3 3.6 5.6 12.5 1.3 10.3-4.9 5.3.2 6.7 1.2 4.6-4.6L33 5.4q-.5-1-1.7-.7h-4.9c-1.4-.3-2.2 8.1-2 9.2v-.2l.2-.1v.2c1-2 2-4.8 2.7-7H31l1.8 6.2a52 52 0 0 0-8.4 1c.3.7 3 1 4.1 1.1-.4.8-.4 2.1-.7 2.8-1.2 3.4-5.6 3.3-7.3.4.3-1.3.2-1.4.1-2.4-.2-4.3.2-9.2-.8-13.4 1-.1 2.3.1 3.4-.3h.1l.5-.2h.3c0-.3.1-.1.2-.3l.1-.2c-.7-2.6-5.5-1-7.6-1q-1-.1-1.8.7c-.4.2 0 .2-.1.3v.2q-.2.1 0 .2h.2c1 .5 2.7.4 3.8.6q-.4 5.4-.5 10.7c-.1 1.3.2 4.3-.5 5.4-2.4 3.7-7.6.9-7.2-3l-.1-.7c1.7-.1 6.1 1.2 5.7-1.4L13.6 5c-.2-.8-1-.8-1.6-.7H7c-1 .2-1 2.5-1.3 3.2q-.8 3-.8 6m49.7-2h-1c-.2 0 0 .2-.8 0l-1.5-.2-.3-.1q-.2-.1-.2 0c-.1-.3-.2 0-.3-.2v-.5l.1-.2q.4-.7 1.1-.8c1.2 0 2.5-.5 3.7-.3.8 0 1.5 1.2 1 1.9h-.3l-.2.2h-.1l-.2.1z" clip-rule="evenodd"/>
</svg>