<svg xmlns="http://www.w3.org/2000/svg" width="61" height="70" fill="none" viewBox="0 0 61 70">
  <path fill="#29261f" d="M60.3 23v-.1q-.1-.6-.8-.7l-4 .2q-.3 0-.5.4l-.4 2.7-1.6-.1a17 17 0 0 0 .6-4h1.7q1.3-.3 1.5-1.6l-.1-4.5q-.2-1.3-1.4-1.4l-2 .1a10 10 0 0 0-7.2-7.5c-1.3-.4-2.8-.2-4.1-.2l-5 .2c1-1 1-2.5.4-3.6l.4-.1 2.6-.7q.4-.3 0-.7a37 37 0 0 0-20.4 0q-.5.3 0 .7l2.5.7h.5q-1 2 .2 3.7l-4.8-.2H17A9.4 9.4 0 0 0 7.1 14h-2Q4 14 3.9 15.2l-.1 4.5q.1 1.4 1.4 1.5H7v.5q0 1.8.6 3.6H5.8l-.2-1-.2-1.6q-.1-.4-.5-.4l-4-.2q-.7 0-.7.8L0 26.7q0 .8 1 .9l7.4.4q2.6 5.3 7.8 8.3l-1.6 7.1a519 519 0 0 0-5 25.8.3.3 0 0 0 .7.1l.7-2 4.7-16.1q7.3 1.2 14.5 1.1a80 80 0 0 0 14.6-1.1q2.1 8 4.7 16l.6 2.1q.5.6.7-.1l-.7-4.4a585 585 0 0 0-5.9-28.5 17 17 0 0 0 7.9-8.3l7.4-.4q.9 0 1-1zM5 25.5l-3.2.2-.1-2 2.7-.2zm44.8-.2L44 25q1-1.7 1.1-3.6h5.4q-.1 1.8-.8 3.8m-3.6 5.4-2.5-2.4h1.7l1.6 1.6zM44.8 32l-3.4-3.4.3-.3h1l3 3zm-7.3 6.3q-.5 2-.6 4l-5.6-.2v-3.9h6.2zm1.7-8.2 3.3 3.2-1.2.5-3.2-3.2zm-1.8.8 3.2 3.2-1.4.3-3.2-3.2q.8 0 1.4-.3m-2.3.4 3.3 3.3-1.4.1h-.1l-3.4-3.3zm-3.8 1.5 1.9 2h-1.9zm1.2-1.4 3.4 3.3h-1.7L31.4 32q.2-.5.9-.5zM43.1 33 40 29.7l1-.7 3.3 3.4zM6.6 18.3v-1.6h1.7l18.8-.8 3.1-.2 7.9.4 6.5.3v1.7a1360 1360 0 0 0-38 .2m47.2-1.6v1.6l-8.5-.1v-1.8zM25.4 6.5q1.2-1.5.5-3.2a42 42 0 0 0 8.6 0 3 3 0 0 0 .6 3.3q-2.5 0-4.9.3zM12 10.1q2-1.7 4.6-2h2l7.8-.3 4-.3 3.8.3L42 8c1 0 2.7 0 3.6.4a7 7 0 0 1 5 5.6H49l-4.2.2a6 6 0 0 0-5.7-3.7h-4a1 1 0 0 1-1-.6l-.7-1.4a.4.4 0 1 0-.6.3l.7 1.5q.5 1 1.5 1h4.1a6 6 0 0 1 5 2.9l-13.9.7-3.1-.2-15.7-.7H9.8a7 7 0 0 1 2.1-4m-2 11.3h34.6q-.3 2-1.2 3.7a576 576 0 0 0-32.6.2 14 14 0 0 1-.9-3.9M12 28q14.2.5 28.5.2a11 11 0 0 1-6.6 2.4h-1.7q-1.6.1-1.7 1.6v2.4h-6.3q-2.6 0-5.1-.8Q14.6 32 12 28m30.8 16 1.5 5.8H44a85 85 0 0 0-28 0l3.3-12.4q2.4.7 5 .7h6.3v4h-.4l-7 .4-.6-3a.4.4 0 0 0-.7 0L21 44q0 .8.8 1.1a70 70 0 0 0 16.6.4q1.2-.3 1.2-1.5l-.2-1.9q-.1-2-.6-4l2.2-.5zm4.6-14.8-1.2-1.1h2zm8.5-5.8 2.8.2-.1 2-3.3-.2z"/>
</svg>