<svg xmlns="http://www.w3.org/2000/svg" width="72" height="72" fill="none" viewBox="0 0 72 72"><path fill="#29261f" d="M34.954 62.225a82 82 0 0 0 4.24-2.005c1.775-.916 3.529-1.853 5.616-1.965.363-.02.705-.012 1.051.103.725.242 1.459.441 2.245.275.144-.03.304.005.456.01.839.029 1.678.09 2.516.079 1.24-.016 2.408-.354 3.564-.761 1.3-.459 2.362-1.215 3.27-2.19.076-.082.52-1.973.81-3.316.105-.906.009-1.82-.095-2.717-.027-.115-.058-.23-.083-.346-.314-1.5-.862-2.919-1.56-4.291-.431-.846-.82-1.713-1.294-2.536-.849-1.468-2.002-2.721-3.202-3.942-1.793-1.825-3.903-3.239-6.246-4.345a42 42 0 0 0-3.352-1.4c-.717-.264-1.428-.68-2.269-.42-.085.027-.204-.01-.297-.042-.636-.225-1.305-.213-1.964-.223a10.8 10.8 0 0 0-4.66.97c-.75.339-1.37.814-2.013 1.292a10 10 0 0 0-2.314 2.373c-.745 1.071-1.443 2.162-2.048 3.306-.216.408-.432.83-.546 1.268-.13.504-.372.946-.617 1.395-.116.214-.249.422-.341.645-.466 1.123-.957 2.238-1.372 3.378-.43 1.185-.852 2.39-.892 3.654-.036 1.152.05 2.308.068 2.949.376 2.012.726 3.505 1.477 4.856.54.974 1.247 1.869 1.918 2.774.264.356.673.576 1.122.72.385.124.774.255 1.13.438 1.27.655 2.618.764 4.007.505.571-.106 1.15-.258 1.675-.491m-1.127-28.312c.016-.01.031-.027.049-.03.017-.003.036.008.055.013-.016.01-.031.027-.049.03-.017.002-.036-.009-.055-.013M34.938 60.5c-.153.052-.28.095-.41.132a1 1 0 0 1-.042-.112q.163-.07.334-.118c.02-.005.055.044.118.098m16.427-2.999c-.152.139-.195.21-.25.22-.09.018-.187-.005-.282-.011.045-.049.08-.118.136-.142.08-.033.174-.032.396-.067m2.147-.367-.062-.016.059-.028zm-1.528.235c-.044-.02-.082-.035-.116-.056-.003-.001.013-.047.03-.06.062-.04.124-.086.193-.107.068-.02.145-.012.218-.017-.044.044-.084.095-.134.13-.06.044-.13.075-.19.11m2.203-.574c-.023.035-.043.08-.073.089-.05.013-.11-.008-.165-.014.04-.02.078-.047.121-.06.037-.011.077-.012.117-.015m.922-.4c-.015.027-.023.07-.044.076-.08.024-.163.039-.245.056q.107-.064.216-.123c.02-.01.048-.006.073-.008m-3.44.42-.042.103-.112-.03c.03-.029.056-.061.09-.084.012-.008.042.007.064.012m-.73.254c.019.028-.05.108-.102.21-.094-.072-.198-.113-.217-.178-.015-.049.077-.127.122-.192.069.052.154.093.197.16m-1.247-.017a.62.62 0 0 1 .263.315c.016.041-.135.172-.233.214-.137.057-.296.07-.588.132-.11-.005-.363-.006-.611-.038-.076-.01-.139-.106-.207-.163.088-.043.171-.105.265-.123.093-.018.218-.025.292.019.31.184.457.11.525-.225.013-.064.235-.162.294-.131m-14.583 2.092c.007-.316.34-.303.543-.415.15-.084.32-.141.486-.195.325-.106.439-.06.62.215.1.149.088.275-.09.346-.252.102-.512.188-.768.28-.518.04-.796-.023-.791-.231m-1.215.538c-.037.002-.075-.038-.112-.06.024-.037.04-.095.074-.109.25-.101.502-.2.76-.282.037-.012.135.067.153.12.016.044-.03.148-.072.163-.163.058-.336.09-.423.112-.183.029-.281.051-.38.056m-1.881-2.144c.007-.074.103-.17.183-.202.256-.1.519-.19.788-.25.099-.02.278.026.323.097.137.213.227.454.335.684l-.67.33c-.45.071-.987-.366-.96-.66m-.315.263c-.186-.023-.371-.043-.556-.069-.043-.006-.082-.029-.122-.044.043-.021.085-.047.13-.063.236-.08.427-.041.548.176m13.241-2.113c-.033.079-.062.16-.101.236-.122.236-.328.374-.6.324-.117-.021-.208-.169-.311-.259.079-.076.145-.18.24-.222.158-.068.335-.095.552-.152zm.524-.297c.202-.06.57.13.521.252-.036.091-.166.15-.315.273-.122-.115-.243-.206-.324-.322-.023-.032.058-.185.118-.203m7.923-.315c.022.035-.032.155-.08.177-.298.13-.604.243-.86.343-.132.003-.215.024-.28 0a.3.3 0 0 1-.147-.143c-.016-.028.016-.112.047-.125.368-.144.738-.288 1.115-.41.048-.014.162.088.206.158m.314-.432c-.04-.173.065-.266.233-.29.28-.04.343.163.354.347.007.105-.1.215-.144.3-.328.007-.399-.17-.443-.357m-2.306.884c.083.018.149.105.263.192-.079.087-.125.169-.197.212-.19.117-.398.212-.613.057-.053-.037-.1-.129-.09-.186.029-.159.404-.325.637-.275m-1.73.787c.17-.168.247-.31.35-.328.109-.02.298.044.352.128.11.172-.069.252-.21.27-.122.016-.254-.032-.492-.07m-.58.406c.005.02-.049.054-.076.082-.012-.02-.037-.04-.035-.059.007-.065.022-.128.035-.192.028.055.06.11.076.169m-11.673 2.068c-.186.034-.507-.216-.516-.421-.002-.043.02-.113.052-.126.303-.12.6-.271.918-.334.233-.046.342.19.388.372.017.069-.103.207-.195.255-.2.103-.422.168-.647.254m4.172-.746c.039-.014.092.01.138.016-.032.033-.06.077-.1.096q-.333.161-.675.306c-.028.012-.081-.029-.123-.045.022-.037.034-.094.067-.107q.343-.142.693-.266m-2.564.14c-.272.111-.428-.017-.553-.22-.09-.145-.081-.276.095-.352.274-.119.553-.226.87-.355.116.033.272.044.382.117.111.075.2.204.247.327.012.03-.165.148-.27.192-.253.107-.517.188-.77.291m5.281-.846c.044-.006.092.009.139.015l-.039.1-.137-.03c.012-.03.02-.082.037-.085m-8.32.896c-.314.154-.638.29-.914.414-.273.06-.48-.078-.604-.364-.095-.217.053-.306.23-.37.284-.101.573-.189.853-.297.235-.09.381-.003.515.169.176.226.17.324-.08.448m9.587-.965q-.4-.107-.793-.238c-.036-.012-.075-.068-.078-.106-.003-.034.032-.091.066-.105q.174-.069.358-.115c.506-.13.531-.115.665.432l.063.143c-.094-.002-.194.012-.282-.011m.405-.593c-.075-.138-.183-.311-.149-.439.055-.204.549-.29.718-.15.093.078.164.18.232.279.206.297.17.393-.182.514q-.071.023-.143.044c-.25.075-.381-.076-.476-.248m3.065-.33c.036-.037.132-.022.202-.03-.033.062-.055.132-.102.183-.023.026-.08.025-.127.032.004-.066-.01-.147.027-.185m-1.349.117c-.162.097-.333.076-.427-.12-.071-.15.02-.21.151-.25-.065-.072-.144-.136-.19-.216-.026-.045 0-.17.009-.171.142-.01.32-.054.419.01.156.1.339.265.075.46-.01.099.018.254-.037.287m-4.057-.249c.05.055.027.247-.036.308-.155.148-.355.319-.59.19-.134-.074-.318-.308-.283-.367.085-.146.284-.232.484-.377.161.088.326.14.425.246m-1.424.268c.097.063.213.168.224.264.01.08-.103.207-.195.257-.245.131-.512.233-.784.058-.117-.075-.217-.175-.324-.264.117-.074.226-.164.353-.218.137-.058.29-.083.49-.137.046.006.163-.007.236.04m-1.218.854c-.095.057-.204.152-.331.19-.185.056-.56-.22-.52-.386.022-.087.164-.181.27-.207.235-.059.553.15.581.403m-3.55.344c-.136.062-.278.113-.418.166-.07.026-.143.045-.208.065-.257.037-.511-.14-.532-.391-.006-.075.057-.198.123-.228.249-.112.507-.21.771-.285.193-.055.41.123.48.355.058.187-.08.256-.217.318m-2.104-.336c-.33.118-.666.22-.992.328-.412.04-.485-.286-.641-.515-.123-.18-.066-.314.136-.399.161-.068.322-.138.486-.2.662-.245.8-.195 1.13.384.102.18.1.324-.119.402m-3.624.476c.156.234.565.389.237.77-.098.115.04.136.142.155.087.015.168.056.252.086-.064.037-.123.086-.192.108-.497.16-.836-.016-.939-.498-.015-.072.04-.179.096-.241.123-.137.266-.257.402-.383zm1.962.88c-.018-.035-.072-.064-.115-.075-.047-.012-.104.011-.151 0-.153-.034-.319.202-.46-.02.146-.081.288-.17.44-.24.114-.052.24-.078.325-.105.32-.043.708.34.627.584a.3.3 0 0 1-.138.158c-.18.088-.363.178-.557.23-.105.028-.233-.019-.35-.031.058-.085.109-.175.179-.25.048-.053.13-.077.182-.128.026-.025.034-.09.018-.123m13.507-1.26a.45.45 0 0 1-.218.025c-.175-.026-.431.035-.455-.2-.007-.069.254-.163.373-.235.14.019.253.005.322.051.07.047.113.151.128.236.006.033-.09.098-.15.122m.502-.468c-.016-.06.12-.174.21-.233.075-.052.204-.106.273-.078.123.051.22.162.327.248-.072.077-.136.164-.22.228-.054.042-.139.048-.13.046-.306.091-.42-.05-.46-.21m3.962-.364c-.036 0-.113.014-.184-.002-.064-.014-.15-.049-.17-.096-.018-.041.025-.136.07-.166.102-.065.225-.148.332-.14.126.01.32.087.35.175.064.199-.151.184-.285.217-.024.006-.05.005-.113.012m2.028-.455c-.234.084-.473.159-.703.236-.113-.004-.234.025-.307-.019a.53.53 0 0 1-.222-.264c-.018-.053.073-.184.145-.211.301-.116.609-.228.925-.29.093-.017.258.116.327.218.1.15-.003.271-.165.33m.52-.585c-.06-.18.082-.26.24-.254.102.004.2.082.3.128l-.271.433c-.133-.148-.238-.216-.269-.307m1.999-.368c-.18.122-.396.198-.583.285-.064-.024-.127-.03-.143-.06-.018-.032-.013-.1.013-.128q.224-.238.468-.46c.122-.108.252-.06.296.066.03.088.012.255-.051.297m1.289-1.183c.034.008.054.067.081.102-.01.045-.004.107-.033.132a10 10 0 0 1-.623.487c-.038.027-.152-.002-.196-.04-.045-.04-.079-.13-.063-.186.055-.198.64-.54.834-.495m-1.77.348a6 6 0 0 1-.551.245c-.302.116-.412.071-.543-.18-.12-.228-.023-.363.192-.46.138-.06.274-.127.416-.18.324-.123.6.035.648.424-.033.033-.086.111-.162.15m-1.093-1.714c.212-.118.373-.038.508.156.298.428.283.504-.214.75l-.339.166c-.218.105-.374.073-.498-.15-.076-.135-.209-.243-.32-.362h.004c.166-.349.558-.394.858-.56m-.874.557c.03.207.065.414.085.622.02.187-.118.255-.28.245-.192-.011-.466-.36-.42-.597.023-.119.208-.228.345-.301.063-.035.176.014.27.031m2.307.327c-.038-.2.506-.473.707-.374.02.01.05.033.05.049-.01.11.01.243-.047.328-.104.153-.255.278-.431.463-.12-.193-.251-.32-.279-.466m.986.169-.08.096c-.019-.029-.045-.055-.055-.087-.004-.012.03-.05.041-.049.033.006.063.025.094.04m.872-1.129q-.07.381-.163.758c-.008.031-.077.049-.164.1-.065-.116-.207-.254-.178-.338.07-.198.216-.374.344-.55.012-.018.162.028.161.03m-2.035.492c-.148.008-.468-.356-.505-.574-.027-.162.268-.389.542-.417.18-.018.47.31.495.558.015.16-.305.421-.532.433m1.635-1.346c.066.332-.126.607-.486.696-.195.048-.43-.151-.503-.427-.052-.198.222-.424.613-.513.226-.051.326.06.376.244m-.026-2.109c.116.359.19.73.267 1.098.007.037-.091.093-.134.133-.068-.02-.136-.02-.158-.051-.214-.294-.445-.581-.62-.896-.118-.21.121-.272.267-.354.15-.082.323-.102.378.07m-.504-.9c.202.309.188.396-.042.533-.287.172-.438.155-.638-.098-.15-.19-.277-.397-.439-.631.113-.108.196-.235.315-.288.116-.052.321-.086.394-.027.168.137.29.328.41.51m.137-.659c.005.008-.036.045-.056.07-.038-.035-.075-.062-.1-.096-.005-.006.04-.044.06-.066.034.03.072.057.096.092m-.565-.803c.05.039.077.102.114.155-.057-.021-.121-.034-.17-.066-.033-.023-.052-.066-.075-.103.047.001.102-.008.13.014m-2.32-.498c-.04.012-.156-.111-.186-.19a8 8 0 0 1-.295-.897.37.37 0 0 1 .096-.31c.12-.114.273-.102.394.038.059.07.13.13.196.192h-.004c.126.18.28.347.365.542.05.112.044.322-.034.39-.137.122-.343.183-.531.235m.268-1.465.206.152c-.044.052-.08.114-.134.151-.027.018-.078.003-.123-.003-.003-.042-.01-.085-.003-.125.011-.06.035-.117.054-.175m.895.87c-.079-.003-.157-.026-.272-.05l.112-.219c.072.054.149.103.212.164.011.01-.035.106-.052.105m.551-.483c.018.032-.014.087-.024.132-.045-.015-.11-.018-.133-.048-.22-.291-.44-.584-.645-.884-.03-.043.012-.13.02-.197.087.016.222.005.251.053.191.307.362.626.532.944m-.19-1.239q.201.33.394.666c.006.01-.024.039-.036.058-.05-.022-.112-.03-.132-.062a9 9 0 0 1-.308-.554c-.016-.032.014-.085.023-.128.02.006.052.007.06.02m-1.385-.454c-.062-.033-.131-.057-.184-.1-.054-.044-.126-.104-.132-.162-.008-.094.032-.191.052-.287.097.036.208.057.286.116.045.034.037.13.064.249zm.468-.216.017.045-.037-.004zm.584-.189c.033.056-.019.158-.031.239-.062-.031-.149-.047-.182-.095-.349-.507-.68-1.021-.724-1.647.315.5.633.998.937 1.503m-1.927-.809-.056-.25.122-.349c.14.086.307.149.413.262.145.154.212.291-.1.425-.34.146-.317.196-.379-.088m-.326-2.399q.525.661 1.04 1.33.132.174.261.35v.001c-.116.147-.22.34-.44.093-.323-.36-.736-.657-.795-1.188-.019-.165-.193-.311-.275-.475-.027-.054.01-.137.018-.206.065.03.152.046.19.095m-.357 1.66-.208-.15.023-.15c.072.04.16.067.209.125.027.032-.014.115-.024.175m-.341-.991c-.074-.131-.146-.238-.193-.354-.012-.03.054-.088.084-.133.078.113.16.224.23.342.008.014-.052.064-.121.145m-.208-1.624q.236.273.433.57c.026.04-.014.154-.061.189-.039.028-.162.013-.196-.024-.16-.174-.302-.362-.416-.503l.04-.292c.069.019.163.017.2.06m-.385 1.24c.003.045-.013.092-.02.139-.064-.027-.146-.038-.19-.083-.404-.417-.677-.887-.628-1.477.594.306.799.82.838 1.42m-.403-1.97c.07.083.075.22.09.335.006.048-.041.102-.065.157-.08-.036-.131-.048-.167-.076a2 2 0 0 1-.217-.195c-.234-.245-.47-.489-.503-.841-.002-.017.031-.054.04-.051.392.093.595.4.822.67m-1.064.582c-.325-.225-.636-.463-.747-.855-.032-.115-.06-.232-.06-.232-.058-.184-.093-.252-.098-.321-.004-.063.024-.128.038-.193.065.022.15.026.191.068.151.16.285.335.43.5.26.294.295.648.306 1.008 0 .008-.05.031-.06.025m-.173-1.55c.004.013-.027.034-.042.051l-.577-.63c.253.148.527.275.62.58m-.752-.71c.032.021.053.059.077.092-.042.006-.09.02-.116.004-.041-.027-.06-.084-.09-.128.044.01.094.01.129.032m-.83-.037c.133.146.263.295.408.46l-.165.241c-.056-.04-.145-.07-.163-.123-.064-.188-.104-.383-.153-.575.025-.002.063-.014.072-.003m.056-.297-.01-.007-.017-.021zm-2.828-1.716c.64.434 1.278.87 1.907 1.318.059.041.055.163.076.248.002.008-.033.024-.075.053-.074-.044-.164-.087-.24-.145-.371-.283-.732-.58-1.11-.854-.215-.155-.465-.266-.681-.419-.061-.043-.061-.163-.089-.247.071.014.157.01.212.046m-.817.453-.103-.065c.025-.024.047-.052.076-.069.009-.005.055.022.054.034-.001.034-.017.067-.027.1m-.63-.148c-.008.05-.091.087-.124.116-.247-.005-.517-.262-.492-.46.005-.042.103-.109.156-.107.266.01.499.239.46.451m-1.31-.396c.297.023.368.31.42.538.013.059-.18.159-.216.19-.685.085-.888.011-1.03-.354-.029-.076-.005-.248.025-.255.264-.06.539-.14.802-.12m1.739-.336c-.018-.001-.037.003-.052-.004q-.012-.006-.022-.014zm-.645-.22c.166.047.326.114.488.176-.18-.004-.36-.005-.538-.021-.052-.005-.098-.064-.147-.099.066-.02.142-.072.197-.056m-3.325 2.138c.002.022-.06.048-.092.072-.036-.03-.087-.052-.108-.09-.279-.503-.559-1.006-.822-1.516-.03-.058.025-.223.063-.23.108-.021.298-.024.333.034.325.536.577 1.102.626 1.73m1.77-2.068c.087 0 .174.035.26.054q-.109.057-.22.11c-.02.009-.049.002-.098.004-.073.006-.17.026-.267.02-.056-.004-.108-.05-.162-.076.041-.022.08-.057.124-.065.12-.023.241-.046.362-.047m-1.233.209c-.11.074-.217.152-.332.218a.2.2 0 0 1-.142.014c-.062-.025-.142-.068-.156-.118-.012-.044.047-.116.092-.16.03-.028.092-.028.21-.06zm-.443-.547c.027-.001.056.059.083.09-.02.015-.04.038-.062.042q-.224.038-.448.071l.001.022c-.251.01-.502.022-.754.023-.03 0-.081-.058-.087-.095-.006-.032.037-.103.061-.104q.603-.035 1.206-.05m-2.059-.426c-.064.055-.126.112-.192.163-.017.013-.049.01-.074.013-.075.007-.15.021-.224.015-.03-.003-.059-.049-.078-.08-.005-.008.02-.044.04-.054.087-.044.175-.105.268-.117.083-.01.173.038.26.06m-1.13.012-.157.235-.171-.17c.072-.043.14-.095.219-.126.023-.01.072.04.11.061m-3.886.725c.042-.022.083-.047.127-.062.02-.007.047.005.07.009l-.065.08zm1.302-.064c-.08-.016-.306-.022-.485-.112-.102-.052.2-.246.588-.281.05-.005.111-.023.145-.002.076.045.172.103.19.172.013.044-.093.126-.158.176-.034.026-.095.019-.28.047m1.175-.117c-.1-.045-.182-.124-.272-.19.068-.078.125-.17.208-.231.052-.038.144-.028.378-.065.028.009.246.018.349.126.11.116-.11.293-.443.35-.073.011-.161.036-.22.01m-3.41.608c.016-.01.031-.026.048-.027.016-.001.033.013.05.021l-.049.03zm6.771-1.085c-.064-.002-.127-.056-.19-.087.054-.034.107-.096.161-.097q.448-.01.897.011c.08.004.156.06.234.091l-.2.078c-.304.002-.603.01-.902.004m-8.536 2.442c-.032-.006-.08-.127-.062-.145.134-.135.27-.273.43-.378.113-.073.263-.096.395-.14.034.109.081.216.097.328.028.19-.13.228-.276.266-.096.024-.193.04-.34.072-.049 0-.15.016-.244-.003m-.981 1.137c-.058-.249.213-.67.424-.68.156-.007.36.27.408.551.035.202-.1.31-.453.368-.229.067-.337-.055-.38-.239m.732.566c.112-.034.323.004.383.083.129.168.187.383.223.463.096.328.014.434-.213.454-.443.04-.855-.319-.769-.722.025-.116.23-.233.376-.278m-1.609 1.002c-.062-.38.108-.607.494-.66.287-.038.516.18.557.532.025.21-.145.316-.625.39-.287.043-.386-.017-.426-.261m-1.012 1.122-.009.029-.006.007zm.571.02c-.05-.01-.095-.074-.124-.124-.007-.01.057-.07.098-.092.042-.023.095-.03.167-.051.051.007.129.008.196.034.037.015.088.08.08.104-.02.052-.068.122-.116.132a.8.8 0 0 1-.3-.002m-1.15 1.07q.002-.003.009-.006l-.01.022zm.142.501c.03-.028.06-.058.095-.081.006-.005.052.026.05.03-.013.036-.034.069-.052.102zm-.96 2.642c-.085-.036-.112-.198-.19-.348.072-.155.119-.35.242-.481.066-.072.348-.089.384-.037.1.141.136.33.155.505.003.03-.227.059-.319.125-.098.072-.044.33-.271.236m.89-.752c-.1-.22-.12-.407.12-.57.238-.16.197-.313-.058-.426-.068-.03-.146-.052-.203-.096-.135-.102-.11-.232.03-.28.446-.155.592-.091.732.237.555 1.296 1.131 2.582 1.71 3.868.104.231.11.53.42.643.24-.306-.07-.524-.166-.754-.513-1.232-1.066-2.45-1.596-3.677-.076-.174-.195-.402-.134-.545.15-.356.033-.51-.291-.684-.23-.124-.16-.382.091-.514q.136-.067.28-.116c.715-.258.737-.266 1.03.396.452 1.022.861 2.06 1.31 3.084.1.23.088.54.411.65.204-.28-.054-.485-.142-.708-.526-1.331-1.069-2.656-1.598-3.986-.135-.339-.101-.405.174-.515.42-.168.677-.153.804.092.169.323.31.66.44 1 .252.656.484 1.318.733 1.975.05.133.136.255.218.375.018.026.099.035.136.02.034-.014.074-.077.067-.11-.044-.186-.086-.376-.155-.555q-.513-1.324-1.04-2.642c-.086-.215-.073-.375.184-.46.286-.093.473-.047.565.192.315.815.611 1.636.919 2.453q.127.342.283.67c.025.052.114.076.174.112.022-.077.081-.166.06-.23-.126-.366-.275-.725-.407-1.09a513 513 0 0 1-1.104-3.079c-.17-.479-.164-.478.333-.622.088-.026.165-.088.248-.133-.096-.051-.186-.126-.289-.148-.121-.026-.264.024-.378-.013-.129-.042-.273-.12-.345-.224-.236-.339-.182-.451.22-.556.56-.145.657-.112.834.411.326.963.618 1.937.944 2.9.124.364.296.715.465 1.063.028.058.16.07.244.103.021-.087.045-.173.063-.26a.1.1 0 0 0-.016-.07c-.537-.62-.625-1.41-.884-2.133-.212-.592-.38-1.2-.552-1.804a.57.57 0 0 1 .028-.34c.057-.151.439.03.345-.246-.032-.095-.344-.078-.465-.18-.136-.114-.21-.301-.288-.467-.015-.032.058-.133.113-.16.5-.245 1.171-.009 1.333.48.32.966.624 1.936.93 2.905.028.089.065.22.02.277-.4.513.108.831.28 1.218.017.038.153.075.178.053.046-.04.082-.13.067-.186-.03-.114-.094-.22-.147-.327-.032-.065-.12-.159-.1-.187.275-.383-.002-.717-.095-1.062-.101-.373-.236-.738-.344-1.11q-.259-.908-.506-1.818c-.043-.158-.141-.333.088-.44.22-.104.444-.038.566.206.316.631.61 1.272.915 1.908q.394.821.797 1.638c.018.037.08.055.12.082.017-.053.061-.117.044-.159q-.553-1.308-1.116-2.613c-.067-.156-.15-.307-.217-.463-.252-.587-.237-.564.393-.883.226-.115.302-.095.393.093.347.723.684 1.452 1.046 2.17.277.548.451 1.094.422 1.726-.022.465.158.94.263 1.408.01.046.117.073.179.11.029-.062.093-.129.082-.182-.068-.33-.158-.656-.231-.986-.042-.188-.097-.401.25-.347.01-.1.06-.218.023-.3-.481-1.062-.976-2.119-1.468-3.177-.03-.066-.069-.13-.099-.196-.193-.432-.189-.547.02-.622.404-.145.74-.058.916.262.399.726.768 1.467 1.182 2.185.253.437.564.843.849 1.263.22-.154.262-.317.07-.536-.755-.862-1.221-1.881-1.713-2.883-.162-.33-.11-.384.305-.47.173-.037.349-.068.522-.107.141-.033.296-.13.417-.1.193.049.068.242.103.362.048.17.212.308.304.471.228.404.432.82.666 1.22.307.525.53 1.02.46 1.682-.062.57.216 1.17.351 1.757.008.032.075.053.114.079.036-.054.108-.11.103-.16-.017-.167-.061-.33-.096-.495-.074-.355-.153-.71-.22-1.065a.5.5 0 0 1 .02-.28c.404-.874.414-.938.195-1.793a6 6 0 0 0-.142-.489c-.073-.21.008-.315.23-.36.41-.08.512-.041.75.306.208.302.398.618.635.898.188.222.378.191.492-.089.089-.22.218-.308.443-.32q.037-.002.076-.005c1.286-.017 1.03-.26 1.42.875.017.046.028.096.057.134.026.035.093.086.106.078.054-.033.138-.093.132-.132-.045-.285-.115-.566-.162-.85-.009-.056.052-.173.08-.173.085 0 .217.02.248.075.206.357.393.725.578 1.093.03.061.05.15.026.21-.214.557.108 1.04.249 1.54.188.67.515 1.307.486 2.026-.003.061.052.132.098.186.027.033.095.066.13.055.062-.02.157-.071.16-.113.008-.14.004-.288-.035-.423-.188-.65-.398-1.296-.581-1.948-.05-.176-.117-.476-.034-.533.38-.26.161-.496.049-.756a29 29 0 0 1-.442-1.075c-.024-.06.005-.138.01-.208.092.008.213-.017.271.03.17.137.377.278.459.462.176.397.319.815.41 1.237.184.85.327 1.708.481 2.564.039.213.077.429.077.644.001.173-.029.407.184.4.299-.009.196-.285.172-.45-.063-.429-.17-.852-.242-1.28-.037-.225-.147-.455.106-.67.075-.065.01-.313-.038-.464-.138-.438-.302-.87-.45-1.305-.013-.039 0-.113.026-.128.034-.02.116-.011.141.016.163.176.375.338.461.546.223.538.393 1.095.575 1.648.037.111.036.235.05.354.04.331.067.665.12.995.077.466.36.9.189 1.407-.043.127.099.295.284.244.078-.021.175-.185.161-.269-.073-.427-.17-.852-.276-1.273-.112-.443-.3-.872-.173-1.345.024-.088-.03-.191-.024-.286.013-.188-.247-.38.008-.564.1.186.222.365.297.56.112.294.182.603.294.897.025.066.151.096.23.143.038-.058.092-.112.106-.174.015-.068-.017-.144-.012-.215.003-.058.03-.114.048-.17.044.021.103.032.13.066.197.246.423.48.57.751.136.254.2.442.58.54.386.1.643.536.722.959.061.33.07.67.095 1.006.049.649.085 1.299.142 1.947.017.19.08.378.142.56.017.05.107.077.163.114.018-.062.058-.128.05-.187-.073-.527-.136-1.055-.237-1.577-.067-.345-.044-.667.113-.982.027-.054.068-.101.103-.152.06.04.135.069.177.121.2.249.387.498.432.83.029.21.129.413.216.612.019.044.126.083.184.074.378-.056.515-.012.641.242.016.032-.01.083-.016.126-.048-.01-.103-.007-.143-.03-.253-.146-.287-.114-.225.17.07.322-.107.454-.429.312-.205-.091-.269-.12-.24.11.02.158.08.313.13.468.116.37.247.735.35 1.107.028.105-.01.232-.038.345-.023.097-.074.188-.113.281.126.005.269.05.373.008.399-.159.783-.35 1.177-.521.411-.178.413-.173.661.19.556.817.553.828-.35 1.27-.589.29-1.18.574-1.764.871-.096.05-.159.158-.237.239.124-.006.259.015.37-.024.31-.11.612-.242.915-.37.14-.059.273-.131.412-.192.215-.094.377-.07.506.149.415.702.747.66-.315 1.203-.897.46-1.766.968-2.644 1.46-.043.024-.051.103-.075.156.048.004.106.025.145.008.232-.1.463-.202.687-.317.786-.402 1.564-.819 2.354-1.213.526-.262.533-.248.853.19.058.078.128.152.173.237.102.192.42.368.092.61-.386.285-.73.279-1-.001-.07-.07-.121-.155-.193-.222-.027-.026-.108-.043-.128-.026-.03.027-.048.09-.038.13.021.092.044.193.1.268.189.261-.01.355-.181.52-.22.211-.56-.003-.77.307-.143.213-.507.297-.778.427-.273.131-.556.244-.83.372a35 35 0 0 0-.881.432c-.04.02-.069.063-.103.095.06.019.119.053.18.055.455.02.584.114.662.496.053.26-.292.636-.743.81-.391.151-.592.11-.79-.18-.083-.121-.133-.261-.218-.38-.03-.044-.118-.05-.18-.074-.012.046-.041.095-.032.138.029.14.057.284.113.416.065.156.19.298-.036.434-.311.188-.58.204-.752-.003-.221-.264-.409-.553-.62-.825-.037-.046-.122-.06-.185-.088.001.068-.02.146.006.204.124.264.26.522.394.782.07.14.117.278-.07.368-.162.08-.34.143-.49-.012a2.5 2.5 0 0 1-.27-.349c-.151-.223-.29-.453-.443-.674-.034-.05-.11-.072-.167-.107.015.066.018.136.046.196q.21.466.436.924c.073.147.093.266-.08.367-.17.1-.33.14-.481-.013-.086-.088-.205-.182-.224-.288-.081-.454-.51-.676-.732-1.033a42 42 0 0 0-.712-1.11c-.03-.045-.118-.055-.178-.08-.005.07-.037.151-.01.208.179.372.372.737.557 1.106.084.166.258.34.044.517-.221.18-.535.142-.733-.1a51 51 0 0 1-1.132-1.455c-.034-.046-.038-.137-.015-.192.045-.105.119-.2.18-.298-.13.032-.263.058-.393.095-.844.24-1.607.708-2.507.797-.108.01-.21.109-.306.176-.059.04-.103.099-.153.149.068.015.141.02.201.049.127.062.267.12.364.213.103.102.17.24.24.368.096.177.36.348.108.564-.314.269-.707.272-.931-.01-.52-.654-1.008-1.331-1.516-1.994-.044-.057-.143-.077-.216-.115-.001.07-.028.152.001.209.144.28.288.563.46.83.185.287.412.55.598.837.137.212.518.4.329.655-.128.171-.497.194-.764.258-.309.074-.457-.146-.61-.34l-1.872-2.357c-.089.31.07.552.249.787.445.586.898 1.166 1.335 1.758.087.118.316.229.13.422a.426.426 0 0 1-.66-.02c-.462-.542-.902-1.102-1.352-1.654-.092-.114-.184-.228-.286-.332-.024-.025-.11-.035-.13-.015-.03.026-.048.098-.03.13.127.234.243.478.405.69.328.428.683.837 1.026 1.255.133.162.149.31-.084.4-.212.081-.424.167-.645.225-.302.079-.486-.022-.593-.294-.088-.224.079-.295.246-.372a.7.7 0 0 0 .184-.123c.03-.03.05-.09.037-.127-.01-.033-.086-.081-.104-.072-.746.37-.964-.189-1.268-.626-.56-.802-1.134-1.594-1.708-2.388-.035-.05-.117-.07-.177-.104.007.066-.007.145.025.197q.675 1.09 1.36 2.17c.104.166.24.314.334.483.1.183.165.382.246.574-.318.138-.632.286-.958.403-.054.02-.181-.08-.24-.15-.124-.152-.222-.323-.339-.48-.113-.153-.072-.267.083-.36.129-.076.263-.146.388-.228.02-.014.012-.074.006-.111-.002-.011-.044-.019-.068-.022s-.056-.006-.075.005c-.61.34-.904-.018-1.203-.45-.613-.887-1.248-1.76-1.883-2.632-.127-.174-.291-.324-.438-.486l-.002.005c-.819-.696-1.317-1.618-1.933-2.457-.117-.16-.22-.305-.046-.516.062-.074-.004-.276-.06-.4-.692-1.527-1.393-3.051-2.09-4.577-.11-.243-.205-.493-.315-.736m16.418 10.9c.1.165.195.337.272.513.068.156.008.28-.166.342-.213.077-.428.15-.693.243-.075-.032-.223-.05-.283-.13-.19-.249-.51-.543-.474-.78.048-.312.529-.29.834-.39.234-.076.397.018.51.202m.304-.451c.07-.041.235-.056.27-.015.252.294.481.606.754.96-.106.066-.181.153-.243.145-.377-.048-.86-.51-.905-.867-.009-.072.057-.184.124-.223m-17.868-9.05c.133.029.226.215.287.279.036.231-.37.576-.551.547-.046-.008-.11-.096-.109-.147.001-.116.023-.237.062-.348.052-.153.092-.38.311-.331m-1.753 1.657c-.015-.037-.043-.084-.03-.116q.153-.402.322-.8c.012-.03.06-.046.093-.07l.083.132c-.12.252-.26.549-.404.844-.005.01-.062.014-.064.01m1.084.208c.115.235.234.468.341.707.015.031-.016.112-.048.127-.2.094-.407.177-.637.274-.039-.08-.096-.14-.086-.188.031-.14.076-.28.14-.41.085-.174.192-.34.29-.51m-1.653 1.17c.013-.04.062-.069.095-.102.021.063.075.136.06.189-.21.695-.43 1.388-.648 2.082-.06-.767.26-1.46.493-2.17m1.43 1.116c-.118-.117-.198-.273-.275-.422-.076-.149-.035-.282.135-.35.161-.066.328-.12.494-.175.458-.152.84.094.839.548 0 .082-.055.2-.124.24-.213.123-.445.216-.708.338-.119-.056-.271-.09-.361-.179m-.384.55c-.103-.102-.185-.147-.182-.187.007-.086.058-.168.09-.252.054.047.14.086.152.141.016.07-.027.153-.06.297m-1.665 2.397c-.016-.61-.098-1.228.123-1.826.262.598.03 1.216.065 1.823.012.21-.053.423-.083.635-.036-.21-.099-.42-.104-.632m2.035-2.08c.017.01.037.038.034.055-.008.04-.018.099-.046.112-.087.038-.183.058-.278.086-.072.003-.145.014-.215.003-.025-.004-.064-.068-.056-.093.047-.15.403-.252.56-.164m-.042.557c.364-.051.513.028.646.314.066.143-.002.253-.15.245a4 4 0 0 1-.737-.112c-.08-.02-.135-.123-.202-.188.07-.062.133-.139.214-.184.085-.047.188-.062.229-.075m-.497 1.03c-.062.075-.093.156-.146.171-.172.052-.233-.066-.23-.194.003-.077.073-.151.113-.227zm.43-.194c.084.018.167.044.251.067l-.062.109-.237-.16c.017-.01.034-.02.047-.016m.342 1.726c-.02.055-.105.09-.149.125-.07-.006-.147.006-.165-.018-.206-.293-.404-.592-.604-.89.122-.056.253-.171.365-.157.241.03.63.72.553.94m.489-.185.114-.014.007.042q-.056.012-.113.02zm-.005-.272c-.114-.016-.268-.054-.32-.132-.103-.15-.249-.439-.194-.488.173-.155.422-.248.656-.321.214-.067.318.112.393.26.127.25.231.51.344.767-.293-.027-.588-.046-.88-.086m-1.553.483c.064.056.143.147.133.213-.01.065-.122.116-.267.238-.02-.193-.044-.295-.032-.394.003-.027.145-.076.166-.057m-1.064.792v-.492c.036.16.085.317.106.478.03.214.037.43.054.646zm1.651 1.132c-.25-.356-.475-.729-.733-1.13.066-.07.116-.175.182-.185.292-.042.553.025.71.29q.2.345.394.694c.07.125.164.27-.013.373-.178.104-.397.16-.54-.042m.87-1.422c.144.192.3.406.34.63.035.19.01.363.227.467.021.01-.027.147-.054.28-.165-.07-.318-.087-.367-.164-.21-.327-.397-.667-.57-1.013-.028-.054.039-.213.092-.228.103-.029.287-.03.331.028m.6 1.7c.07-.044.21-.056.28-.017.279.156.383.623.213.89-.021.033-.083.043-.126.063-.042-.022-.103-.035-.123-.069-.121-.209-.247-.418-.34-.638-.025-.059.034-.191.097-.23m-1.758.896c.048.042.099.081.142.127.008.008.006.025.003.042zm.175.213q.04.022.073.048c.008.006-.005.034-.009.051zm.436-.64c.092-.128.13-.244.196-.26.13-.032.353-.062.4 0 .172.225.295.485.41.742.012.028-.2.189-.214.178-.264-.203-.513-.422-.792-.66m2.497.218c-.227-.184-.492-.308-.612-.591-.086-.201-.043-.345.105-.521.22-.26.177-.38-.182-.4-.385-.024-.536-.236-.669-.502-.084-.17-.207-.36-.188-.527.013-.117.258-.197.362-.322.096-.117.15-.265.22-.401.622 1.011 1.334 1.978 1.666 3.129.06.207.178.398.265.599.062.144.247.295.037.443a.68.68 0 0 1-.822-.056c-.275-.267.028-.68-.182-.851m-.51.567c.194-.033.416.21.376.433-.021.114-.151.21-.206.282-.227.01-.435-.226-.46-.453-.021-.198.153-.238.29-.262m-.508.581c.02.024-.007.085-.013.13l-.319-.255.048-.151c.096.09.197.178.284.276m-1.323.417c-.06-.153-.112-.309-.165-.464.105.134.212.266.31.405.016.022-.02.076-.032.116-.039-.019-.101-.029-.113-.057m4.019-.863a.615.615 0 0 1-.493-.652c.019-.246-.088-.404-.194-.594-.864-1.557-1.718-3.119-2.582-4.676-.11-.198-.121-.343.084-.498.115-.088.096-.22-.086-.25-.125-.021-.259-.002-.377-.035-.142-.04-.178-.271-.056-.356.164-.114.338-.218.52-.303.35-.163.425-.154.607.171.298.532.563 1.08.843 1.62q.487.943.977 1.882c.067.13.135.261.226.375.056.07.157.108.237.16-.017-.1-.011-.21-.056-.299a668 668 0 0 0-2.372-4.696c-.198-.386-.376-.744.118-1.06.057-.036.045-.171.064-.26-.113-.02-.241-.08-.337-.05-.455.147-.453.157-.644-.2a5 5 0 0 1-.195-.391c-.067-.155-.035-.282.143-.353.118-.046.233-.1.353-.14.472-.162.522-.148.752.307.627 1.239 1.231 2.488 1.876 3.718.14.267.145.67.589.733-.116-.284-.216-.575-.35-.85-.782-1.597-1.575-3.189-2.358-4.785-.178-.363-.151-.444.129-.6.356-.197.457-.173.624.194q.847 1.858 1.678 3.723c.057.13.064.28.094.42l.004.003c-.145.225-.123.44.034.658.172.239.326.489.5.726.536.732 1.08 1.46 1.618 2.19.115.156.194.33.44.363.099.014.2.135.266.229q.925 1.327 1.832 2.664c.215.318.188.372-.182.532-.07.03-.143.05-.213.078-.794.317-.802.322-1.278-.37-.625-.908-1.225-1.831-1.856-2.735-.272-.39-.59-.75-.89-1.123.109.23.199.47.334.684.745 1.178 1.506 2.347 2.253 3.525.24.38.196.476-.234.63-.119.042-.247.059-.369.095-.34.102-.575-.005-.776-.282-.59-.816-1.197-1.619-1.799-2.426q-.151-.209-.315-.407c-.027-.033-.083-.043-.126-.063-.006.045-.033.1-.015.135.098.195.19.395.316.575.546.785 1.108 1.56 1.65 2.347.068.099.053.249.077.375-.22.033-.443.097-.66.081-.068-.005-.203-.264-.164-.336.172-.313.023-.34-.261-.403m-.678.613c.447-.113.603.017.687.247.032.085.003.221.06.26.21.148.273.294.03.442-.278.17-.505.144-.666-.044a3 3 0 0 1-.214-.289c-.087-.135-.27-.346-.228-.4.104-.137.31-.204.33-.216m-1.183.37c.065-.035.223-.026.26.02.177.225.342.462.478.71.032.058-.066.18-.125.321-.173-.076-.344-.1-.409-.191a2.7 2.7 0 0 1-.312-.636c-.022-.06.045-.189.108-.223m-2.183.732c-.001-.001.03-.024.047-.036l.372.625zm.8.492q-.167-.283-.315-.574c-.014-.028.02-.08.04-.117.004-.008.064-.004.07.008q.18.351.351.705c.005.01-.022.035-.04.062-.037-.028-.086-.048-.106-.084m.915-.044c-.207-.238-.432-.47-.422-.81 0-.012.046-.036.046-.035.205.231.411.461.603.702.022.027-.04.114-.06.169-.075-.01-.144 0-.167-.026m2.092-.016c.273-.1.57-.29.82-.247.194.035.335.361.485.568.017.023-.047.136-.1.163-.153.078-.319.133-.413.17-.384.065-.784-.221-.825-.529-.005-.041.008-.116.033-.125m-.442.19c.095.073.169.172.244.266.222.28.136.473-.232.529-.26.039-.68-.431-.595-.667.057-.161.426-.25.583-.128m-2.412.856a.1.1 0 0 1-.013-.036l.063.063c-.017-.009-.041-.014-.05-.027m.242-.384c-.002-.003.028-.025.043-.039l.287.54q-.166-.25-.33-.5m1.233.513c-.17-.15-.325-.318-.501-.497.08-.12.113-.228.178-.25.073-.026.23 0 .255.049.106.199.177.415.25.628.002.006-.161.089-.182.07m3.727-.652c.095-.032.195-.051.252-.066.411-.064.456-.026.562.385.02.073.092.133.135.201.023.035.062.093.048.11-.17.226-.761.26-.938.053-.079-.093-.138-.2-.208-.3-.133-.19-.056-.312.15-.383m-.242.901a.2.2 0 0 1-.04.131c-.128.164-.664.242-.835.123a.6.6 0 0 1-.155-.155c-.098-.154-.296-.356-.25-.463.055-.134.314-.193.381-.23.436-.075.86.26.899.594m-2.3-.162c.282-.17.468-.154.675.04a.3.3 0 0 1 .048.055l.34.532-.47.202c-.355.06-.583.089-.597-.191-.01-.211-.332-.435.004-.638m-.956.342c.024-.054.23-.1.239-.086q.204.324.367.668c.011.023-.088.093-.126.13-.27-.016-.583-.483-.48-.712m4.822-.144c-.056.07-.067.098-.087.105-.222.082-.34.364-.636.299-.013-.003-.03-.047-.023-.059.163-.25.44-.26.746-.345m-1.837.602c.137-.053.277-.104.421-.13.046-.01.108.06.162.093-.041.051-.073.12-.127.149-.06.032-.142.027-.215.038l-.001-.008c-.073.012-.146.033-.219.03-.036 0-.07-.044-.106-.068.028-.036.048-.09.085-.104m-1.478.687c-.115 0-.23-.073-.345-.113.093-.068.177-.16.282-.198.164-.06.343-.085.643-.154.043.008.331.02.34.072.042.259-.242.237-.402.302a1.4 1.4 0 0 1-.518.091m3.096-.466c-.008 0-.02-.093-.014-.095q.38-.115.763-.218c.009-.003.043.034.04.043-.02.04-.037.1-.072.112-.162.059-.33.104-.495.155-.076.002-.15.008-.222.003m1.363.193.065.017-.062.029zm-2.713 1.214-.009-.048q.06-.008.12-.012c.003 0 .006.03.009.047z"/><path fill="#29261f" d="m30.082 52.025.021.012.023.028-.014-.031zM55.132 19.135c-1.608 1.301-2.566 2.982-3.117 4.882a22 22 0 0 0-.512 2.262 38 38 0 0 0-.352 2.507c-.114 1.042.03 2.07.203 3.101.217.817.372 1.654.672 2.442.229.603.593 1.174.982 1.703.569.775 1.226 1.48 2.224 1.803 1.458.471 2.91.46 4.337-.086.753-.289 1.524-.59 2.12-1.132 1.224-1.112 2.282-2.342 2.928-3.852.384-.899.691-1.815.868-2.77.105-.57.172-1.152.344-1.705.23-.74.439-1.483.498-2.251.071-.925.31-1.87-.293-2.736-.08-.114-.101-.274-.12-.416a2.8 2.8 0 0 0-.702-1.497c-.242-.276-.418-.604-.642-.895-.209-.272-.415-.555-.67-.784-.822-.736-1.833-1.205-2.815-1.71a1.6 1.6 0 0 0-.585-.146c-1.209-.096-2.397.058-3.556.365a4.9 4.9 0 0 0-1.812.915m2.805-.212c.01-.007.033.005.05.009l-.02.051-.053-.01c.007-.018.01-.04.023-.05m-.972.216.052-.02v.038zm-.53.805c.01-.032.056-.054.087-.08.022.028.068.065.061.081-.015.035-.057.06-.089.088-.022-.03-.066-.066-.059-.09m-.946.416c.135-.127.331-.217.473-.081.127.12.264.347.226.486-.107.39-.3.758-.47 1.13-.005.01-.197-.018-.212-.058-.117-.316-.213-.64-.316-.96-.081-.259.144-.372.299-.517m-.71.836c.007-.01.197.039.21.084.082.275.137.558.2.838h.072c-.002.327 0 .654-.015.98-.002.047-.093.123-.146.125s-.135-.062-.158-.114c-.152-.354-.286-.714-.436-1.068-.15-.353.11-.586.273-.845m-.632 1.224c.033-.015.147.043.165.09.19.471.37.947.549 1.414-.015.084-.018.157-.042.223-.014.042-.052.09-.092.105-.031.01-.109-.02-.119-.046q-.302-.807-.58-1.622c-.014-.041.062-.137.12-.164m-.383.877c.126.282.258.562.375.848.092.222.176.45.241.68.045.159.094.336.061.49-.04.188.02.481-.27.506-.073.006-.199-.295-.258-.467-.11-.317-.188-.644-.24-.83-.02-.19-.03-.239-.028-.286.006-.317-.214-.66.119-.94m-.64 1.293c.009-.032.082-.073.117-.067.04.007.078.059.1.1q.047.096.075.203l.559 1.97c-.003.022-.01.141-.034.258-.009.04-.058.073-.09.11-.033-.028-.084-.048-.098-.083-.26-.625-.54-1.244-.757-1.883-.058-.172.073-.405.128-.608m-.977 1.05c0 .014.005.035-.002.041q-.012.007-.027.01zm-.294 1.012c-.045-.194-.03-.366.183-.462q.001.026-.004.051-.067.234-.135.466c-.016-.018-.04-.034-.044-.055m1.673 1.919c-.275-.595-.546-1.191-.796-1.738.013-.21.016-.354.034-.496.006-.04.048-.09.088-.108.023-.01.093.027.11.059.352.642.626 1.312.754 2.03.012.067-.01.144-.027.214-.01.044-.042.083-.065.125-.033-.029-.082-.05-.098-.086m-.823.372a.1.1 0 0 1-.018-.062c.002-.02.02-.039.03-.058l.037.12c-.017 0-.044.007-.049 0m-.19.897c-.004-.003.022-.036.034-.055q.063.075.123.152a.1.1 0 0 1 .015.043q-.088-.068-.173-.14m1.113.275a2 2 0 0 1-.15-.358c-.01-.03.032-.075.05-.114.043.02.116.031.123.058.033.132.05.267.069.4 0 .002-.082.03-.092.014m-1.193 1.012c0-.045.042-.09.067-.135.024.04.063.078.067.12.004.036-.032.076-.05.114-.031-.033-.085-.067-.084-.099m.901-.247c-.032-.073.073-.2.117-.303.096.092.212.172.281.28.037.056-.005.16-.019.347-.186-.15-.332-.218-.379-.324m.679.602c.15.051.43.6.41.794-.001.023-.016.044-.025.067-.025-.002-.058.005-.074-.008-.055-.046-.126-.09-.152-.15-.098-.225-.427-.362-.293-.673.01-.024.096-.043.134-.03m-1.32 1.134a3 3 0 0 1-.199-.36c-.014-.03.022-.082.042-.12.003-.007.06-.002.067.01q.133.234.257.472c.003.006-.03.03-.046.046-.042-.015-.103-.02-.122-.048m.305-.476c-.12-.164-.011-.268.123-.343.071-.04.19-.075.25-.045.245.122.49.533.419.695-.033.075-.13.127-.176.17-.405.023-.467-.274-.616-.477m2.032.054a5 5 0 0 1-.316-.486c-.158-.28-.105-.37.228-.42.392-.058.828.265.806.642-.008.137-.135.308-.261.39-.157.1-.344.033-.458-.126m.659.924c-.216-.296-.164-.42.196-.49.292-.057.619.147.643.436.007.086-.096.222-.186.266a.63.63 0 0 1-.408.05c-.101-.03-.174-.165-.245-.262m-.323.297c-.05-.046-.104-.089-.149-.139-.031-.036-.049-.082-.072-.123q0-.036-.003-.07c.034.008.077.007.101.026.038.03.076.069.091.112.022.06.022.129.032.194m-1.803.541c-.34-.135-.366-.47-.522-.707.025-.062.03-.124.06-.137.035-.015.114-.004.133.022.179.245.458.447.395.798-.003.012-.05.03-.066.024m.458-.267a1 1 0 0 1-.258-.348c-.049-.098-.045-.218-.065-.328.164-.023.4-.12.48-.053.197.167.337.403.465.628.023.041-.117.166-.203.28-.165-.068-.316-.097-.42-.18m-.342.843c.122-.09.212-.167.22-.16.115.1.22.212.326.32-.033.029-.082.087-.096.08-.139-.066-.271-.142-.45-.24m-.396.51c-.003-.04.002-.082.004-.123.018.007.05.013.051.021.004.04-.001.082-.003.123-.019-.006-.052-.012-.052-.02m1.195-.746c.048-.1.364-.203.426-.155.179.142.303.353.415.553.019.033-.137.152-.18.198-.337.02-.764-.382-.66-.596m1.366-.263q.156.196.289.41c.014.022-.022.079-.046.114-.007.011-.06.015-.07.005-.124-.145-.244-.294-.349-.422.029-.067.035-.105.048-.108.042-.007.112-.02.128 0m3.503.426c.15-.082.331-.112.486-.16.062.014.126.01.15.037.02.023.01.096-.015.122-.12.123-.242.246-.377.353-.15.119-.302.082-.358-.084-.026-.074.041-.228.114-.268m1.636-.432c.252-.042.54.198.49.41-.019.081-.166.174-.268.191-.287.05-.535-.132-.55-.429.09-.05.202-.152.328-.172m-6.528 1.512c-.007-.013.098-.075.15-.114q.136.193.264.39c.002.003-.075.05-.18.116-.083-.132-.167-.258-.234-.392m4.3.185c.088-.072.164-.176.265-.209.096-.03.218.014.324.025-.01.098-.004.175-.02.18a4 4 0 0 1-.474.1c-.026.004-.062-.062-.094-.096m-3.567.815c-.032-.026-.056-.062-.083-.095l.133-.034c.006.037.016.074.014.111 0 .008-.054.026-.064.018m.401.473.046-.062c.015.012.037.022.04.037.004.011-.016.028-.026.042zm.943-.108c-.018-.022-.002-.071 0-.108l.18.043c-.03.054-.046.11-.064.111a.16.16 0 0 1-.116-.046m.524-.101c.18-.13.252-.226.322-.224.1.003.197.077.296.12-.048.048-.091.129-.145.135-.11.014-.228-.011-.473-.031m1.508-.316-.165.14-.177-.103c.04-.05.087-.146.119-.142.078.011.149.067.223.105m-2.48-.031c-.038.012-.092-.016-.139-.026l.103-.166c.085.038.144.063.202.09-.054.035-.105.082-.166.102m1.012-.279-.045-.013.054-.02zm3.708-.69c-.115.046-.242.064-.47.12-.092-.015-.433-.025-.442-.081-.05-.317.293-.228.468-.315a.65.65 0 0 1 .367-.047c.077.012.149.107.196.18.012.02-.064.12-.119.142m.912-.555-.199.313-.186-.138c.064-.062.12-.14.195-.182.047-.025.126.003.19.007m-6.118.866c-.194.021-.35-.036-.392-.305.044-.033.109-.121.181-.127.198-.017.443-.031.507.196.052.183-.15.22-.296.236m1.908-.764c.18-.056.296.048.315.206.005.047-.122.154-.188.154-.132 0-.263-.054-.508-.114.191-.127.277-.213.381-.246m.752.017c.105-.081.197-.202.317-.236.16-.045.32.046.305.216-.006.081-.155.152-.275.26zm1.841-.084c-.046.017-.121-.038-.183-.06.133-.113.263-.228.403-.332.009-.006.095.08.21.18-.168.086-.293.163-.43.212m2.378-1.044c.095.13-.225.615-.348.558a.78.78 0 0 1-.376-.396c-.095-.263.19-.209.392-.29.086.03.267.041.332.128m-6.147.057c.001-.052.068-.124.123-.15.37-.165.695-.01.808.425-.026.039-.056.138-.124.176-.335.183-.816-.087-.807-.451m1.133-.235c.03-.097.21-.193.335-.213.182-.028.458.236.419.42-.028.134-.192.241-.262.322-.233.002-.547-.353-.492-.53m2.841-.113c.059-.032.114-.081.177-.092.052-.01.112.026.17.041-.022.039-.034.096-.068.112-.053.026-.12.024-.182.033zm1.453-.083c-.032 0-.092.02-.13.001a.6.6 0 0 1-.21-.16c-.015-.019.058-.132.113-.156.113-.05.245-.102.362-.09.103.01.196.107.293.165-.086.071-.168.148-.261.21-.037.025-.098.019-.167.03m1.326-.586c-.08.113-.141.25-.25.325-.045.031-.194-.074-.382-.154.15-.138.23-.26.34-.293.076-.023.193.077.292.122m-3.365-.13c-.08-.162-.02-.29.163-.323.19-.034.405-.098.524.108.064.164-.086.393-.294.457-.227.07-.318-.088-.393-.242m1.39-.287c.054-.1.165-.174.26-.248.03-.023.099-.025.135-.008.038.017.059.068.112.138-.066.102-.121.238-.222.328-.072.064-.206.066-.313.096.007-.103-.017-.222.029-.306m1.353.065c-.125-.055-.274-.087-.277-.13-.011-.148.022-.301.052-.45.006-.028.11-.064.112-.062.085.129.183.255.235.397.02.053-.067.141-.122.245m1.24-.991c.064.174-.178.394-.463.445-.061-.018-.205-.023-.28-.094-.054-.051-.054-.207-.011-.282.038-.066.166-.096.261-.119.171-.04.394-.224.494.05m-2.234-1.243c.165.232.311.485.402.75.03.09-.122.237-.202.379-.096-.041-.183-.052-.216-.097a10 10 0 0 1-.532-.788c-.102-.172.018-.276.195-.292.12-.01.308-.016.353.048m.891-.285c.054.024.187.044.204.097.023.072-.02.186-.075.252-.071.087-.181.145-.275.215-.074-.092-.186-.173-.216-.276-.078-.265.178-.215.362-.288m.62 1.178c-.036-.017-.125-.031-.148-.076-.073-.139.163-.502.314-.476.077.013.163.11.197.187.074.168-.06.305-.363.364m1.638-1.676c.046.05.032.182-.001.261-.12.288-.236.583-.4.848-.136.218-.397.192-.556-.018q-.526-.696.318-.99c.118-.04.24-.072.437-.131.02.002.153-.02.202.03m-2.304.074c-.456.215-.692.218-.853-.105-.054-.108-.126-.208-.186-.314-.18-.32-.179-.32.285-.35.24-.038.535-.08.675.235.074.168.4.383.079.534m.462-.392c-.368-.476-.304-.613.347-.71.189-.041.281.036.232.227a3 3 0 0 1-.165.474c-.113.25-.228.25-.415.01m1.232-.913c.025-.016.08.01.121.017-.013.038-.015.093-.042.108-.028.017-.08-.006-.123-.012.013-.04.016-.095.044-.113m-.398.698.085.077-.064.112c-.029-.025-.082-.05-.081-.075.001-.038.038-.076.06-.114m1.493-.954c-.041.232-.053.474-.139.69-.053.133-.209.253-.35.32-.078.037-.242-.022-.325-.087-.05-.038-.047-.178-.02-.259.128-.386.34-.69.834-.664m.012-.945c.053.07.13.158.121.233-.025.23-.082.457-.128.686-.075-.216-.159-.43-.213-.652-.018-.071.043-.167.088-.242.015-.026.12-.04.132-.026m-.925.702c-.023.018-.185-.05-.21-.108-.08-.177.03-.38.189-.368.08.006.153.081.281.155-.1.13-.166.241-.26.32m1.01-1.742c.066.09.16.187.166.286.005.095-.083.196-.127.287-.085-.017-.169-.026-.169-.036a6 6 0 0 1 .018-.52c0-.01.103-.03.113-.017m-.49.255c-.018.125-.064.247-.138.52-.163-.289-.26-.44-.324-.603-.007-.016.176-.131.28-.147.172-.027.202.105.183.23m.618-1.363c.006.02-.047.055-.125.14-.027-.155-.051-.26-.06-.366-.001-.027.05-.057.076-.086.038.104.081.206.11.312m-.831-.145c.06.179.054.378.115.556.105.306-.166.314-.326.349-.081.018-.203-.132-.305-.205.02-.261.02-.478.065-.686.013-.065.143-.148.223-.15.077-.004.205.07.228.136m-.42-.615c.008.012-.015.04-.024.06l-.163-.09.081-.115c.037.048.076.094.107.145m.345-.994c.07.151.138.304.192.461.023.064.006.14.007.21-.038-.049-.086-.094-.114-.148-.077-.15-.145-.305-.22-.466l.042-.167c.032.036.074.068.093.11m.618-1.247c-.016-.01-.037-.018-.047-.032q-.006-.01-.01-.023zm-.23-.394c.048.086.085.179.125.27-.077-.07-.156-.137-.227-.212-.02-.021-.01-.07-.014-.107.04.015.1.02.115.049m-1.616-.557c.01.016 0 .046-.004.07l-.067.412q-.073-.18-.142-.363c-.017-.045-.024-.092-.054-.21l.046-.236c.074.109.15.216.22.327m-3.702 1.007c-.105-.296-.25-.58-.359-.875q-.277-.75-.523-1.511c-.08-.252.014-.36.286-.376.446-.027.564.052.708.477.21.62.411 1.242.636 1.856.083.224.216.433.343.639.024.038.146.061.193.038.051-.026.105-.123.092-.173-.05-.186-.126-.365-.194-.546-.24-.634-.492-1.264-.72-1.903-.081-.23.007-.29.272-.265.368.035.578.187.693.55.239.762.541 1.505.824 2.254.077.204.171.403.273.597.023.044.11.059.168.087.03-.061.1-.133.085-.183a26 26 0 0 0-.396-1.244c-.12-.343-.267-.677-.388-1.02-.037-.108-.028-.23-.04-.346.123.07.297.11.362.212.329.514.72 1.015.92 1.575.365 1.02.61 2.079.901 3.122.012.04-.021.09-.033.136-.053-.038-.124-.065-.156-.115-.265-.411-.522-.827-.782-1.24-.065-.104-.128-.209-.203-.306-.024-.031-.08-.04-.122-.06-.01.045-.043.1-.028.136.115.292.218.591.365.869.263.495.554.977.834 1.464.213.371.338.752.15 1.17-.02.043-.067.1-.053.126.115.213.143.435-.096.552-.05.024-.293-.23-.393-.387-.382-.597-.743-1.206-1.108-1.813-.076-.125-.122-.268-.207-.386-.08-.107-.194-.192-.292-.287.017.117.004.247.055.348q.525 1.043 1.07 2.077c.068.129.17.241.241.368.088.157.309.314.086.503-.225.192-.658.194-.831.006a4 4 0 0 1-.437-.59c-.29-.453-.566-.914-.853-1.37-.022-.035-.08-.05-.123-.076-.018.055-.067.122-.049.162q.229.496.482.982c.124.238.274.463.398.701.092.177.324.38.017.551-.359.2-.651.136-.856-.167-.22-.324-.416-.662-.633-.989-.026-.04-.111-.044-.17-.064.002.046-.013.099.006.137.17.35.338.702.525 1.044s.399.672.592 1.012c.08.14.246.314.036.44-.198.12-.444.128-.627-.068q-.15-.164-.27-.35c-.186-.288-.352-.588-.547-.87-.135-.194-.303-.367-.456-.55-.112.29.112.493.233.703.416.717.866 1.415 1.305 2.12.104.166.218.326.32.492.074.122.185.248.029.385-.17.149-.489.176-.621.03-.131-.145-.232-.316-.335-.482-.442-.704-.875-1.414-1.325-2.114-.094-.145-.235-.263-.36-.39.132.319.242.648.409.95.352.638.742 1.258 1.107 1.89.077.134.255.284.06.445-.17.14-.567.124-.695-.037-.182-.23-.338-.478-.496-.724q-1.02-1.582-2.036-3.165c.18.462.32.945.558 1.38.398.726.864 1.419 1.301 2.125q.42.68.845 1.357c.09.144.108.266-.068.363-.066.036-.135.072-.19.12-.488.438-.49.435-.845-.12a487 487 0 0 0-2.147-3.33c-.07-.108-.181-.19-.278-.283.175.41.323.833.538 1.224.305.554.67 1.078.992 1.625.062.104.04.253.056.38-.17-.004-.377.046-.5-.028-.16-.096-.268-.283-.376-.444-.6-.89-1.187-1.788-1.792-2.674-.083-.121-.23-.203-.354-.298l.556 1.065c.092.176.02.272-.168.307-.338.062-.513 0-.586-.297-.114-.466-.218-.942-.243-1.418-.025-.474.045-.953.09-1.428.02-.23-.008-.498.35-.562.04-.007.063-.204.058-.31-.012-.21-.07-.418-.067-.627.002-.104.083-.264.248-.184.39.19.378-.035.343-.282-.042-.31-.121-.616-.135-.927-.008-.156.052-.366.325-.177.142.1.25.03.232-.132-.019-.166-.08-.328-.113-.493-.029-.14-.06-.281-.061-.422 0-.169.135-.215.29-.111.4.268.502.235.532-.218.015-.226.195-.544-.252-.631-.052-.01-.127-.178-.101-.238.144-.334.312-.658.486-.979.01-.017.205.01.216.045.108.347.191.7.29 1.05q.068.243.165.48c.012.03.095.068.12.056.059-.028.144-.084.144-.129 0-.142-.02-.287-.058-.425-.12-.442-.255-.881-.375-1.324-.044-.163-.097-.333-.087-.497.009-.157.068-.427.15-.443.242-.048.224.2.266.347.151.538.298 1.077.666 1.525.052.064.267.104.306.066.16-.16.05-.846-.169-.882-.26-.043-.274-.207-.32-.339a11 11 0 0 1-.334-1.186c-.066-.286.018-.376.334-.457.376-.097.523-.06.62.207.233.638.442 1.283.676 1.92.083.225.206.438.327.647.026.045.123.054.188.08.032-.08.11-.175.088-.238m-.392-3.296c.057.006.107.072.16.11l-.129.045c-.216.008-.363.024-.508.014-.052-.004-.098-.07-.147-.108.038-.026.075-.073.113-.075.17-.004.343-.005.511.014M22.556 34.428c.145.04.285.107.417.178.53.288 1.101.338 1.7.308 1.16-.057 2.267-.328 3.343-.714.46-.165 1.39-.561 1.644-.736.843-.582 1.397-1.393 1.535-2.341.186-1.29.153-2.6-.3-3.86-.352-.98-.723-1.953-1.086-2.929l.014.017v-.005q-.003 0-.004-.003l-.235-.412.014.014-.002-.016-.01.002c-.441-.48-.827-.991-1.054-1.597l.016.014-.01-.015.144-.022a.6.6 0 0 0-.382-.502l.047.277-.015-.018.011.014c-.25-.23-.531-.437-.741-.696a9.5 9.5 0 0 0-1.877-1.777 4 4 0 0 1-.341-.287c-.026-.023-.023-.075-.032-.113.046.005.1-.004.138.017q.442.248.88.5c-.062-.094-.11-.203-.196-.271-1.074-.862-2.311-1.487-3.532-2.13-.763-.402-1.628-.543-2.48-.7-.95-.174-1.871-.117-2.768.254-.373.155-.768.261-1.144.409-.281.11-.551.246-.822.378-.674.328-.981.952-1.378 1.512-.959 1.353-1.233 2.833-.982 4.414.106.669.276 1.322.76 1.861.093.104.116.265.177.397.438.947.845 1.909 1.325 2.837.638 1.232 1.594 2.23 2.735 3.066.644.472 1.327.896 1.958 1.381.762.585 1.59 1.033 2.533 1.294m1.678.024-.025.06q-.163-.06-.326-.123zm-.496-.104q.009.003.018.007l-.067-.008c.017 0 .034-.004.05 0m1.463-1.704c.04-.006.126.136.147.22.013.05-.044.151-.097.173-.161.067-.335.107-.495.155-.114-.002-.218.01-.314-.008-.13-.026-.213-.324-.103-.36.278-.088.57-.14.862-.18m.604-.165c.096.044.215.07.28.141.03.034-.043.152-.09.297-.13-.093-.24-.132-.26-.196-.02-.068.043-.16.07-.242m2.135.199c.024.001.052-.004.071.006s.028.035.042.053q-.056.027-.111.055zm-5.35.566c-.014-.007-.003-.105.006-.106.143-.025.29-.064.43-.046.055.007.1.141.132.224.007.018-.073.12-.117.111-.148-.031-.3-.11-.45-.183m.944-.072c-.029-.046.046-.149.074-.226.095.048.212.079.276.152.04.044-.003.152-.015.328-.17-.122-.284-.17-.335-.254m1.704.314-.262.122-.201-.048c.064-.031.125-.08.192-.089.088-.011.18.008.271.015m.947-.273c.004-.013.006-.035.013-.037.016-.003.035.003.053.006-.004.013-.006.036-.012.037-.017.003-.036-.003-.054-.006m.89-.141c-.032.005-.079-.075-.12-.116.09-.033.18-.073.273-.096.022-.005.06.048.124.103-.106.045-.188.095-.276.109m2.172-.653c-.031.056-.05.127-.098.163-.055.04-.136.047-.211.07-.068.001-.143.011-.213 0-.039-.007-.088-.047-.098-.08-.009-.028.027-.092.056-.1q.21-.056.427-.087c.043-.006.091.022.137.034m-2.755-.026c.109-.078.21-.195.33-.219.083-.016.194.099.292.155l-.268.35zm.995-.247c-.012-.026.074-.094.115-.142.08.068.169.13.233.21.013.016-.068.1-.142.202-.088-.11-.164-.182-.206-.27m.952.014c-.083-.03-.201-.095-.21-.156-.008-.064.085-.155.155-.208.055-.041.143-.047.217-.058.237-.037.46.07.399.188-.057.106-.203.17-.269.22-.143.01-.228.037-.292.014m-4.346.04c.075-.142.274-.224.371-.297.192.008.3-.006.39.024.061.02.125.098.137.16.012.055-.023.15-.072.181a.8.8 0 0 1-.283.099c-.375.075-.624-.014-.543-.168m-.641.331c-.099-.017-.185-.097-.341-.19.13-.087.22-.186.264-.17.096.035.17.128.252.197-.06.058-.13.171-.175.163m2.05-.784c.102.01.2.064.37.128-.118.11-.177.212-.242.216-.072.004-.19-.066-.215-.129-.022-.057.062-.217.086-.215m4.533-.239c-.17.161-.251.272-.363.328-.049.024-.21-.044-.234-.102-.078-.187.086-.249.234-.28.077-.015.167.023.363.054m-3.506.456-.351-.268c.11-.074.212-.188.332-.209.089-.015.201.089.303.14zm.672-.478c.018-.067.083-.122.129-.181.04.048.106.092.116.145.008.045-.049.1-.091.179-.072-.064-.162-.116-.154-.143m1.03-.005c-.16.026-.313-.005-.361-.175-.015-.051.03-.146.078-.178.08-.052.185-.069.306-.11.077.014.181.014.264.054.053.026.108.113.104.17-.018.229-.229.213-.392.24m1.512-.582c.014.088-.12.242-.226.295-.226.111-.422.034-.504-.176.012-.038.01-.123.055-.158a.7.7 0 0 1 .261-.12c.179-.047.38-.05.414.159m-.114-1.295c.05.012.111.095.119.153.062.457-.077.611-.623.708l-.15.023c-.247.034-.401-.085-.447-.294-.02-.093.03-.257.104-.3.182-.103.419-.256.53.099.005.015.182.018.209-.019.054-.074.046-.187.092-.27.028-.05.12-.11.165-.1m-5.33.685c.023.206-.125.323-.463.368-.303.041-.413-.079-.5-.492-.065-.303.171-.294.348-.343q.56-.078.616.467m.34-.623c.077-.022.224.008.263.064.08.115.131.26.15.397.008.067-.074.198-.132.208-.074.012-.192-.05-.243-.114-.074-.093-.104-.216-.174-.373.036-.052.07-.164.136-.182m-1.672.595c.097.15.213.34.027.512-.046.043-.175.079-.202.054-.133-.117-.243-.256-.386-.414l.224-.362c.116.068.273.112.337.21m-.765.428c.053.254-.1.342-.313.388-.293.063-.452-.076-.523-.446-.068-.253.103-.34.312-.388.284-.065.45.09.524.446m3.675-.485c-.292.03-.486-.132-.54-.455-.04-.231.13-.281.31-.313.317-.056.465.074.514.424.042.236-.078.323-.284.345m.645-.875c.192-.046.253.108.299.248.014.045.017.094.036.207-.014.027-.071.172-.096.167a.9.9 0 0 1-.297-.137c-.034-.022-.042-.085-.052-.131-.026-.136-.1-.304.11-.354m2.53-3.437c.175.471.393.924.396 1.45.003.5.122 1 .176 1.502.009.079-.05.164-.079.246-.055-.061-.145-.116-.159-.185-.096-.497-.178-.996-.264-1.494h.004q-.13-.748-.256-1.495c-.008-.045.01-.094.016-.14.057.038.147.065.166.116m-4.482-6.049c.099.375.116.77.162 1.158-.307-.292-.377-.689-.51-1.056-.047-.129-.064-.267-.094-.401.153.098.408.172.442.3m-8.013-1.702c.16-.107.334-.194.508-.28.022-.012.07.026.105.04l-.447.53c-.082-.045-.147-.06-.157-.092-.02-.063-.041-.176-.009-.198m-.619.265c.089-.094.3.137.31.381a.55.55 0 0 1-.066.266.25.25 0 0 1-.164.117c-.041.005-.105-.071-.134-.124-.033-.06-.04-.135-.085-.309.021-.057.041-.227.14-.33M14.89 19.49l.084-.14q0 .088.003.175zm.418-.256c-.05-.037-.117-.054-.178-.078l.2-.248c.057.066.138.124.166.2.04.107.04.226.057.34-.081-.072-.157-.15-.245-.214m.914.464c.02-.073.115-.137.191-.18.017-.01.118.072.147.127.067.128.146.262.162.4.055.467.086.938.125 1.408l-.669-1.226c.017-.249.006-.395.044-.529m-1.205 2.43c-.03-.112-.043-.229-.065-.354.057-.164-.216-.386.085-.527.076.187.164.37.224.562a.5.5 0 0 1-.008.277c-.016.054-.09.095-.145.13-.007.005-.081-.052-.09-.088m.534 1.454c-.019-.042-.018-.092-.017-.088-.01-.098-.02-.145-.018-.192.002-.045.015-.09.024-.136.026.032.064.06.075.096.027.09.05.183.06.276.009.09-.002.182-.004.273-.04-.076-.086-.15-.12-.229m.538.19c-.12-.651-.23-1.304-.343-1.957l.063-.01c.161.652.325 1.304.479 1.958.01.046-.048.107-.074.16-.043-.05-.115-.095-.125-.151m-.28.96c-.011-.018-.01-.042-.013-.063l.08.021-.02.06c-.016-.006-.04-.007-.048-.018m.006.885c-.002-.01.017-.023.026-.034q.023.06.038.12c.002.01-.02.023-.03.034q-.02-.06-.034-.12m.6-.069c-.05-.13-.054-.276-.078-.416l-.013.002c-.02-.116-.054-.232-.055-.349 0-.082.043-.166.067-.248.059.056.15.104.17.17.078.25.145.502.186.757.015.1-.05.21-.077.316-.069-.077-.166-.143-.2-.232m.699.047a3.5 3.5 0 0 1-.185-.547c-.212-.865-.417-1.731-.642-2.673.039-.329-.335-.706-.084-1.128.165.367.346.728.49 1.102q.433 1.147.835 2.304c.087.25.14.51.195.769.03.144.025.295-.168.348s-.362.01-.441-.175m.513-1.808c-.016-.06.006-.13.01-.196.04.055.076.111.119.163.06.075.12.153.192.216.024.021.09.005.134-.005.015-.004.035-.044.03-.063-.034-.14-.062-.28-.113-.415-.212-.568-.447-1.128-.641-1.7-.088-.26-.238-.534.002-.824.065-.079 0-.278-.044-.41-.123-.368-.274-.727-.4-1.093-.054-.159-.116-.335-.09-.491.018-.118.159-.233.274-.31.025-.018.207.107.256.196.2.363.374.737.56 1.106.087.173.157.36.277.51.056.072.21.075.319.109.01-.091.059-.199.025-.27-.2-.416-.415-.823-.63-1.232-.091-.172-.203-.334-.29-.508-.16-.314-.109-.46.208-.648.13-.077.247-.065.307.077.191.447.366.9.564 1.343.118.263.263.517.41.766.024.04.148.066.193.042.045-.023.085-.13.066-.178-.22-.539-.452-1.073-.681-1.61-.048-.111-.102-.22-.142-.335-.119-.342-.082-.468.148-.533.33-.094.566-.014.677.267.213.541.394 1.095.615 1.634.074.182.228.335.346.501.237-.198.052-.393-.014-.58-.183-.527-.384-1.048-.568-1.575-.083-.236-.016-.317.238-.31.153.005.305.026.457.041.338.034.565.192.667.508q.12.382.273.752c.094.223.2.443.326.65.038.061.163.075.249.11.013-.083.059-.176.034-.247-.137-.387-.296-.768-.435-1.155-.018-.05.017-.156.058-.174.054-.024.162-.01.205.029.107.097.213.207.28.33.23.43.443.867.664 1.3.078.151.151.306.245.448.032.048.12.062.183.092.034-.078.116-.168.096-.23-.065-.207-.174-.4-.253-.602-.093-.24-.173-.484-.258-.727.423.026.646.295.81.622.062.126.104.27.117.41.078.848.498 1.545 1.04 2.192v.004c.034.139.04.29.11.411.05.09.182.137.278.203.046-.099.139-.2.131-.294-.029-.359-.088-.715-.14-1.072-.028-.19-.075-.38-.091-.57-.004-.05.074-.14.124-.148.059-.008.15.041.188.091.057.075.096.17.117.262.219.916.429 1.834.65 2.75q.084.352.219.689c.025.063.136.096.208.143.028-.085.094-.178.077-.254-.16-.73-.34-1.458-.502-2.19-.035-.154-.019-.32-.026-.48.13.132.323.243.38.4.198.545.362 1.103.516 1.662.147.537.283 1.077.39 1.622.055.275.034.564.052.846.006.093.008.192.045.274.025.056.109.117.168.118.05.002.142-.08.144-.126.007-.19.004-.385-.028-.573-.137-.785-.286-1.568-.427-2.352-.012-.067.009-.139.014-.209.063.036.153.057.185.11.177.288.418.568.493.881.352 1.48.66 2.97.978 4.457q.06.286.082.574c.026.35-.078.462-.452.54-.229.049-.403-.005-.51-.207-.058-.107-.09-.227-.156-.33-.095-.15-.21-.29-.316-.436.02.188.033.377.063.563.015.093.06.184.095.274.057.144.093.292-.101.36-.189.068-.412.153-.534-.084a.96.96 0 0 1-.11-.472c.005-.1.134-.193.207-.29-.168-.035-.41-.156-.493-.092-.307.238-.685.057-1.018.243-.457.255-.712.105-.912-.406-.204-.519-.384-1.047-.582-1.568-.022-.06-.092-.102-.14-.153-.008.069-.038.142-.021.205.14.538.289 1.074.436 1.61.031.117.083.231.092.349.004.05-.066.134-.12.152-.059.02-.172.004-.204-.037a1.5 1.5 0 0 1-.217-.373c-.194-.498-.372-1-.563-1.499-.069-.18-.154-.354-.236-.528-.02-.043-.06-.077-.091-.115-.008.052-.028.107-.02.157.017.095.05.188.077.28.177.603.36 1.205.531 1.81.11.382.06.489-.234.565-.348.09-.51.022-.634-.331-.258-.732-.492-1.47-.734-2.207-.053-.16-.09-.326-.155-.482-.02-.048-.107-.07-.164-.104-.004.047-.02.097-.011.142q.13.638.268 1.276c.026.118.083.235.078.351-.002.08-.077.216-.135.223a.45.45 0 0 1-.325-.088c-.083-.078-.115-.212-.15-.327a275 275 0 0 1-.693-2.293c-.048-.162-.067-.332-.121-.492-.028-.082-.102-.148-.156-.222-.024.078-.084.163-.067.231.198.846.407 1.69.617 2.534.046.187.116.37.157.558.035.16-.028.308-.216.31-.13.002-.318-.045-.38-.133-.11-.154-.146-.357-.208-.54-.474-1.403-.859-2.826-1.08-4.286a1.2 1.2 0 0 0-.05-.212c-.014-.037-.048-.068-.073-.102-.025.04-.07.079-.07.118.003.288-.005.58.028.866.14 1.203.454 2.37.842 3.521.077.229.138.464.174.7.01.065-.084.186-.156.209-.068.021-.23-.034-.246-.085-.104-.317-.24-.642-.241-.965a.83.83 0 0 0-.149-.508 2.9 2.9 0 0 1-.349-.874c-.216-.893-.402-1.792-.6-2.689-.037-.165-.073-.33-.117-.493-.012-.044-.052-.08-.08-.12-.024.039-.07.078-.068.116.018.36.002.727.076 1.076.195.922.431 1.835.651 2.752.034.137.108.299-.1.36-.21.06-.344-.05-.398-.238-.106-.372-.201-.747-.302-1.12q-.294-1.086-.584-2.172m7.1-2.11c.006.015.016.031.017.047q.001.012 0 .024zm-3.117 7.452c.05.136.093.274.153.406.088.193.03.325-.17.404-.212.084-.402.073-.5-.158-.067-.155-.115-.317-.14-.39-.076-.295.028-.402.233-.45.197-.047.35-.013.424.188m.527-.41c.037-.024.25.084.276.164.08.242.112.5.148.752.002.015-.173.082-.188.064-.169-.191-.322-.395-.498-.619.107-.16.16-.292.262-.36m-1.548.66c.045.186.099.373.111.562.005.067-.088.18-.16.2-.07.02-.216-.027-.247-.085-.091-.169-.14-.358-.23-.604.05-.074.095-.228.195-.27.157-.069.291.028.331.196m-.836.155c.09.159.128.357.134.54.003.086-.1.216-.188.255-.148.064-.293.005-.355-.156-.042-.11-.074-.223-.107-.324-.01-.083-.044-.163-.02-.22.043-.098.124-.255.186-.253.122.002.299.067.35.158m-1.234-1.272c.054.185.09.375.12.566.032.2-.072.316-.28.358-.23.047-.406.009-.472-.233-.038-.14-.073-.28-.118-.45-.003-.018-.014-.065-.019-.113-.017-.163-.079-.346.183-.396.35-.067.507-.002.586.268m.524-.41c.047-.018.17.029.187.072.11.264.217.532.283.807.016.07-.107.23-.19.247-.092.02-.259-.047-.31-.125-.09-.137-.116-.31-.167-.46-.004-.132-.033-.257-.002-.367.02-.072.119-.143.2-.174m-2.912-.76a.6.6 0 0 1-.052-.209c-.011-.145-.203-.304.03-.435.068.14.141.279.203.421.028.066.034.14.078.326l-.03.373c-.076-.158-.158-.315-.229-.475m.656-.73.173.079c-.045.048-.074.1-.095.097-.042-.005-.094-.033-.113-.067-.013-.023.022-.071.035-.108m.188 1.27a5 5 0 0 1-.273-.385c-.024-.038-.019-.093-.04-.213.01-.018.044-.096.078-.174.085.04.174.076.252.125.038.025.077.075.081.117q.027.24.025.48c0 .017-.116.058-.123.05m.52-.442c-.094-.217-.134-.46-.166-.695-.03-.211.154-.284.328-.334.192-.055.284.073.334.211.074.204.121.416.21.734-.02.076-.018.286-.127.401-.127.134-.458-.036-.58-.317m-1.11.964c-.014-.034.015-.084.024-.127l.215.15-.111.183c-.044-.068-.097-.133-.127-.206m1.225 1.91c-.359-.303-.459-.727-.577-1.14-.026-.093-.045-.187-.072-.3-.014-.123-.051-.267-.04-.407.007-.074.09-.19.153-.199.077-.012.204.048.246.113.077.119.117.262.156.4q.195.69.37 1.385c.018.072-.027.159-.044.24-.064-.03-.14-.048-.192-.092m1.538 1.32a1.87 1.87 0 0 1-.965-1.373c-.1-.281-.111-.458.164-.53.288-.077.463-.023.543.228.166.52.306 1.049.45 1.575.01.034-.02.102-.05.115-.037.017-.103.008-.142-.014m.543-.114c-.075-.086-.095-.216-.16-.38.05-.063.1-.195.184-.218.092-.025.258.02.312.09a.68.68 0 0 1 .136.396c0 .087-.1.23-.182.248-.083.02-.225-.06-.29-.136m.723-.46c-.039-.208.076-.311.278-.332.215-.023.38.164.437.478.036.191-.075.322-.279.33-.243.008-.396-.16-.436-.475m7.403-.7c.222-.032.368.096.392.322.02.186-.142.324-.387.33-.203.006-.358-.15-.359-.366 0-.226.181-.262.354-.286m-.746.776-.333-.265.167-.225c.08.066.203.118.231.2s-.04.192-.065.29m-.558-.017c.048.222-.102.285-.338.324-.215.044-.302-.11-.35-.312-.048-.195.026-.318.236-.36.234-.046.393.076.452.348m-1.161-.024c.082.079.129.21.144.324.009.07-.07.152-.102.212-.329.008-.359-.213-.42-.382-.025-.07.038-.169.062-.254.108.03.246.033.316.1m-.685.447c.034.233-.075.333-.416.385-.358.054-.52-.058-.571-.39-.035-.228.113-.344.504-.397.302-.04.434.07.483.402m-1.42.565c-.28-.013-.497-.366-.37-.596.03-.055.236-.093.245-.078q.159.271.271.564c.008.019-.104.08-.145.11m-2.878.361c-.137-.101-.282-.2-.39-.327-.038-.045-.006-.21.046-.24.065-.038.226-.026.27.025.111.125.18.284.26.417-.017.062-.016.129-.044.143-.035.018-.107.007-.142-.018m1.122.578c-.347-.12-.754-.7-.746-1.082.002-.067.102-.171.176-.191.187-.05.36.01.44.188.139.307.258.622.378.915-.015.068-.013.142-.038.151-.064.023-.149.04-.21.02m.546-.254c-.088-.196-.159-.4-.236-.6q-.035-.101-.068-.204c-.064-.196.007-.329.215-.383.193-.05.416-.129.535.095.107.2.27.425-.05.62-.14.087-.046.13.07.164.11.031.251.078.296.158s.027.256-.038.31a.448.448 0 0 1-.724-.16M32.677 19.465c.057.624.119 1.248.213 1.868.098.644.225 1.284.365 1.921.125.573.3 1.11.657 1.628.337.489.44 1.122.65 1.691a7.9 7.9 0 0 0 1.142 2.118c.372.483.768.96 1.433 1.118.58.495 1.266.63 2.03.573.478-.036.91-.35 1.417-.191.044.014.156-.048.173-.096.162-.45.614-.376.959-.47.438-.12.907-.146 1.335-.288 1.928-.641 3.402-1.802 4.08-3.65.93-2.538 1.346-5.146.774-7.83-.35-1.643-.905-3.202-1.812-4.655-.62-.994-1.476-1.78-2.344-2.552-.834-.742-1.849-1.092-3.018-.947-.151.019-.307.039-.457.024-1.313-.13-2.388.343-3.353 1.14-.245.202-.532.37-.824.507a2.6 2.6 0 0 0-1.163 1.013c-.578.936-1.15 1.866-1.535 2.903-.507 1.36-.854 2.727-.722 4.175m2.688-3.994c-.25-.112.084-.454.167-.688.063-.175.195-.328.304-.486.012-.016.084 0 .125.011.017.005.025.038.049.076-.005.052.004.127-.022.188-.056.133-.112.27-.2.384-.143.186-.118.653-.423.515m-1.837.702-.294.871c-.084-.345-.003-.64.294-.871m1.251.047-.128.02q.046-.126.093-.25zm.326-.096c.02.085.062.173.053.256a1 1 0 0 1-.1.337c-.047.09-.135.16-.205.238-.038-.082-.105-.165-.107-.248-.003-.158.028-.317.047-.476zm-2.048 1.316c.01-.116.103-.225.167-.336-.042.729-.082 1.458-.13 2.187-.005.084-.051.165-.083.247-.133-.701-.015-1.4.046-2.098m1.302-.326c.355.08.313.397.367.62.066.27.031.562.032.845 0 .04-.05.081-.075.122-.044-.022-.106-.034-.125-.067-.131-.231-.33-.459-.358-.703-.031-.263.1-.544.16-.817m-1.352 3.216.007-.703.12.694zm1.317-.179c-.16-.269-.312-.543-.404-.704-.014-.186-.029-.236-.02-.282q.06-.28.127-.557c.11.145.232.283.327.437.2.324.277.671.16 1.042-.014.045-.04.087-.06.13-.044-.021-.109-.031-.13-.066m.022 1.837c-.194-.296-.385-.595-.529-.821.004-.293.003-.485.011-.676.002-.038.038-.075.058-.113.038.031.09.055.11.094.087.172.162.35.245.523.146.308.266.62.17.965-.005.015-.063.031-.065.028m-.211.81c-.023-.06-.02-.129-.028-.193.028.055.06.11.084.167.014.035.021.073.03.11-.034-.027-.073-.05-.086-.084m.15.301c-.02-.056-.028-.115-.04-.173.045.044.097.085.12.138.024.053.007.123.008.186-.03-.05-.068-.097-.087-.151m.764.592c-.164-.259-.22-.579-.326-.87l.05-.017c-.015-.144-.036-.287-.041-.43-.003-.068.027-.136.042-.204.046.052.107.097.135.156.206.438.336.924.623 1.306.35.468.309 1.1.91 1.492.469.307.723.909 1.073 1.38.088.117.198.226.257.355.041.092.057.271.005.306-.083.057-.24.054-.35.023-.084-.023-.157-.119-.209-.197-.728-1.097-1.464-2.19-2.169-3.3m8.276.736c.072.037.138.159.13.235-.007.068-.11.154-.19.181-.142.048-.306.099-.444.073a.49.49 0 0 1-.315-.238c-.073-.174.103-.24.248-.29.048-.016.098-.023.222-.052.074.017.226.029.349.091m.605-.296c.213-.052.437-.094.653-.086.086.004.21.144.231.24.014.06-.114.172-.202.227-.08.049-.19.051-.35.088-.061-.002-.201.025-.301-.022a.48.48 0 0 1-.216-.262c-.014-.041.107-.165.185-.184m-2.448.45c.047-.013.102-.001.15-.01.288-.059.569.221.514.388-.045.14-.256.23-.329.29-.189.007-.298.041-.333.007-.149-.144-.356-.295-.39-.47-.047-.235.238-.16.388-.204m3.44.177c.06.013.226.005.273.071.051.074.003.218-.02.328a.5.5 0 0 1-.095.192c-.095.133-.199.26-.3.39-.117-.11-.258-.203-.349-.33-.274-.382-.237-.466.211-.585.073-.02.146-.034.28-.066m.568.382c.001-.003.077.032.19.079-.111.158-.213.307-.324.45-.007.01-.079-.024-.12-.038q.123-.248.254-.491m-1.362.347q.062.088.114.183c.124.236.076.327-.212.4-.048.013-.097.02-.146.03a.776.776 0 0 1-.891-.643c-.012-.065.06-.182.127-.218.444-.234.725-.16 1.008.248m-1.382.246c.028.04.05.083.076.124.19.31.14.402-.247.464-.406.066-.772-.169-.825-.54-.008-.058.035-.145.084-.182.312-.228.693-.169.912.134m-3.255.929c-.303-.247-.238-.437.144-.555q.145-.046.296-.072c.342-.056.69.157.699.487.008.316-.34.202-.602.337-.146-.05-.386-.074-.537-.197m-.681.382c-.392.04-.71-.157-.756-.421-.009-.05.045-.138.095-.162.313-.152.635-.112.81.107.07.09.17.254.133.307-.07.099-.23.14-.282.169m2-1.082c.018-.077.29-.185.357-.145.182.108.316.287.505.474-.1.095-.152.185-.226.207-.272.082-.704-.268-.637-.537m-5.565-.874c-.035-.043-.001-.134 0-.203.055.029.132.044.158.088.19.32.372.643.555.966-.24-.282-.482-.562-.713-.85m.404 1.293.043-.047.067.127zm5.325 2.07c.089-.277.362-.182.555-.236.115-.032.25-.012.373 0 .032.004.076.068.078.106.003.035-.034.096-.068.107-.12.038-.246.058-.475.11zm-.924.267c-.115-.01-.228-.046-.342-.072q.139-.08.28-.156c.02-.011.049-.01.083-.015.041-.002.098-.02.14-.004.06.022.106.07.158.107-.033.031-.06.076-.1.091a.5.5 0 0 1-.219.05m2.852-.61-.235.21-.2-.197c.074-.049.145-.132.222-.137.068-.004.142.08.213.124m-4.13 1.773c.069.03.149.05.201.096.05.044.07.118.102.178-.067.03-.138.093-.2.085-.25-.03-.5-.066-.742-.13-.338-.089-.669-.205-1.003-.31-.763-.601-1.41-1.291-1.826-2.156-.04-.083-.069-.17-.14-.352.252.211.458.326.58.495.75 1.038 1.858 1.604 3.028 2.094m.035-2.348c.005-.09.178-.173.309-.29.17.062.34.093.466.179.107.073.113.215-.042.276a1.2 1.2 0 0 1-.361.064c-.182.012-.384-.015-.372-.229m-.549.294c-.118.012-.244.01-.359-.017-.052-.012-.119-.097-.117-.147.002-.048.086-.132.132-.131.15.004.3.039.45.062l.069.135c-.058.034-.114.092-.175.098m.197.326c.081.006.159.065.238.1-.074.041-.145.108-.222.116-.08.009-.167-.04-.39-.102.216-.07.297-.12.374-.114m.959.015c.086-.035.17-.084.259-.1.063-.01.135.027.203.043l-.258.119zm1.706-.193c-.032.004-.13.016-.227.024-.024.002-.048-.008-.071-.013.02-.03.032-.077.06-.087.114-.041.232-.082.352-.102.057-.009.123.031.185.049-.053.035-.105.074-.161.106-.02.011-.048.01-.138.023m1.018-.344c.072-.02.139-.048.206-.051.02-.001.044.066.066.102-.062.026-.123.06-.19.072-.015.003-.046-.068-.082-.123m1.139-.057c-.056 0-.112-.061-.168-.094.033-.029.062-.072.101-.083.095-.029.195-.043.322-.069l.135.095c-.033.032-.06.08-.1.092a1 1 0 0 1-.29.059m1.897-.496a.6.6 0 0 1-.128.154c-.03.022-.078.021-.12.027.002-.042-.003-.09.019-.119a.6.6 0 0 1 .155-.133c.005-.003.079.063.074.07m-4.54.468c-.356.044-.669-.092-.585-.248.072-.136.285-.205.36-.254.21-.018.325-.06.407-.027.123.05.285.132.319.234.06.182-.14.214-.28.255-.07.021-.147.03-.222.04m.897-.536c-.014-.048.129-.187.216-.202.203-.037.41.129.398.305-.005.067-.097.13-.12.159-.306.063-.44-.072-.494-.262m1.211.1a.8.8 0 0 1-.268-.296c-.014-.026.144-.154.24-.2.085-.042.194-.037.293-.05.228-.031.413.045.452.264.045.251-.205.207-.354.257-.023.008-.048.008-.175.028.004 0-.12.039-.188-.003m1.433-.774.232.152c-.1.123-.184.266-.311.356-.03.02-.268-.122-.296-.22-.07-.245.186-.208.375-.288m1.493.275c-.032.034-.129.026-.19.015-.02-.004-.044-.086-.034-.123.027-.091.05-.198.114-.262.436-.441.64-1.012.966-1.514.019-.03.066-.043.107-.061-.066.76-.446 1.384-.963 1.945m.416-2.653c.08.05.144.119.193.16.005.062.018.09.008.106q-.185.3-.381.59c-.007.01-.101-.012-.124-.04-.096-.121.019-.645.173-.793.027-.026.104-.04.131-.023m-.422.027c-.017.098-.108.184-.197.328-.128-.127-.261-.2-.266-.282-.004-.068.13-.175.224-.209.126-.045.266.003.239.163m.87-.325-.028.05q-.046-.023-.087-.052c-.003-.003.017-.032.026-.049zm-4.022.438c-.354.054-.778-.257-.835-.622-.007-.045.06-.134.11-.15.494-.15.87-.02 1.086.361.131.231.081.322-.213.387-.049.011-.099.016-.148.024m.667-.5c-.178-.265-.14-.39.179-.463q.149-.035.302-.047c.305-.023.547.142.613.414.039.16-.117.256-.523.316-.237.059-.425-.004-.571-.22m1.978-.072c-.075.004-.153.018-.227.01-.194-.02-.487-.284-.425-.435.047-.117.25-.182.387-.262.04-.024.099-.025.149-.029.248-.017.514.165.54.406.03.289-.248.244-.424.31m1.633-.64c.074.207-.126.287-.306.294-.095.003-.192-.076-.373-.156l.337-.463c.119.107.296.195.342.325M46 22.72c.013.055-.034.12-.065.21-.072-.069-.147-.11-.16-.163-.01-.044.055-.104.086-.157.05.036.13.066.14.11m.983-.342-.074.025c0-.018-.005-.04.003-.055.005-.01.029-.012.044-.017zm-2.412.172c-.369.1-.482.055-.697-.249-.185-.26-.142-.366.187-.453.073-.02.148-.032.157-.035.115-.017.165-.03.215-.032a.5.5 0 0 1 .52.42c.045.274-.196.299-.382.35m1.233-.304c-.22.048-.41.011-.518-.195-.072-.137-.246-.29-.005-.428.175-.1.365-.203.549-.012.068.07.124.152.177.233.137.214.065.355-.203.402m1.293-1.087c.043.01.067.162.071.251.014.254-.02.488-.426.56-.047-.028-.208-.07-.223-.142-.051-.239-.024-.489.23-.63a.55.55 0 0 1 .348-.039m-3.793.287c-.14-.136-.253-.297-.37-.453-.298-.402-.277-.446.223-.506l.15-.017c.559-.055.9.18 1.004.7a.27.27 0 0 1-.04.2c-.153.203-.781.258-.967.076m1.677-.165c-.05-.03-.171-.07-.238-.15a2 2 0 0 1-.303-.485c-.038-.09-.022-.293.023-.308.147-.052.368-.107.469-.039.173.117.293.316.405.497.161.26.04.45-.356.485m1.075-.255c-.102-.058-.204-.087-.261-.152-.095-.109-.168-.237-.24-.361-.093-.162-.255-.336.006-.488.288-.167.566-.11.718.127.144.225.148.453.005.674-.047.073-.136.122-.228.2m1.138-1.452c.043.009.087.115.09.18.005.118 0 .243-.036.356-.046.148-.126.287-.191.43l-.431-.437c.107-.187.18-.354.293-.49.044-.052.187-.056.275-.039m-1.641.069c-.05.012-.1.02-.226.048-.072-.016-.23-.02-.35-.085-.183-.1-.272-.405-.18-.493.144-.138.635-.179.78-.058.056.046.095.112.137.172.157.224.11.346-.161.415m-1.158.238c-.324.054-.61-.146-.638-.412-.006-.058.044-.167.087-.176.14-.03.34-.085.42-.021.14.112.217.3.291.468.012.027-.127.114-.16.141m1.614-.926c-.021-.042.06-.177.124-.202.14-.055.245.022.255.166.005.077-.035.156-.075.32-.152-.135-.26-.195-.304-.284m1.264-.2c.021.27-.072.37-.389.37-.045-.035-.183-.09-.206-.174-.046-.169.192-.48.353-.489.208-.01.23.15.242.294m-1.472-.378c-.066-.018-.136-.016-.158-.046a11 11 0 0 1-.5-.704c-.022-.034.036-.128.08-.177.022-.026.122-.034.136-.016q.298.395.572.805c.01.015-.088.094-.13.138m.078-1.05c-.002-.004.03-.018.047-.029.017.037.036.073.048.11.002.005-.03.02-.046.03q-.027-.055-.05-.11m.651-.223c.19.11.387.227.527.385.155.175.066.448-.13.55-.25.13-.435.065-.523-.19-.039-.113-.06-.232-.1-.395 0-.047-.03-.155.01-.232.03-.062.18-.14.216-.118m-3.333-2.107c.325.6.657 1.197.985 1.796.057.104.142.22.133.324-.008.102-.12.196-.187.293.145.043.342.044.427.137.228.249.413.534.601.814.023.034-.02.144-.066.177a.685.685 0 0 1-.979-.165c-.24-.34-.462-.693-.686-1.044-.197-.31-.38-.627-.583-.933-.042-.063-.14-.093-.212-.138.018.067.024.139.056.198q.362.677.733 1.35c.13.235.267.466.398.7.075.135.132.298-.055.366-.12.044-.32.035-.412-.035-.15-.118-.254-.297-.358-.461-.38-.6-.748-1.205-1.127-1.805-.048-.076-.133-.13-.2-.195.002.083-.019.175.014.246.11.244.223.488.362.716.466.764.83 1.58 1.371 2.305.244.328.18.455-.23.549-.646.147-.68.168-1.04-.4-.166-.262-.241-.612-.597-.746.136.306.248.624.412.916.263.468.538.933.852 1.37.145.202-.04.388.017.492.075.139.362.16.496.288.133.127.19.326.28.493-.169.082-.332.18-.51.241-.282.1-.486-.019-.644-.245q-.632-.906-1.277-1.802c-.112-.156-.246-.298-.373-.444.326.595.65 1.19.981 1.784.059.105.164.189.214.297.074.162.2.362.151.498-.057.16-.685.162-.844.03-.094-.078-.166-.181-.24-.278q-.966-1.253-1.928-2.508c-.06-.078-.098-.172-.167-.24-.058-.06-.145-.093-.22-.137.006.068-.01.146.02.203.146.28.28.57.466.826.646.891 1.312 1.77 1.97 2.655.06.079.123.154.177.236.102.153.314.3.17.496-.133.179-.753.163-.909-.01a5 5 0 0 1-.438-.59c-.626-.934-1.244-1.873-1.871-2.806-.09-.134-.21-.25-.317-.372.373.701.732 1.41 1.125 2.1.373.655.774 1.296 1.18 1.932.154.24.371.445.527.684.043.067.003.25-.062.293-.084.055-.273.07-.343.017-.154-.117-.275-.28-.388-.439q-1.492-2.099-2.978-4.202c-.071-.1-.125-.213-.207-.303-.054-.059-.145-.087-.22-.128.007.07-.01.151.022.206.349.588.68 1.187 1.065 1.754.62.912 1.275 1.802 1.917 2.701.411.577.422.617-.384.82-.33.082-.46-.141-.602-.337-.676-.935-1.344-1.875-2.021-2.81-.096-.131-.226-.241-.34-.362.044.172.047.367.14.51.507.78 1.035 1.547 1.557 2.319.082.121.188.232.25.362.065.14.164.324.117.442-.068.173-.586.183-.76.035a2 2 0 0 1-.293-.332c-1.036-1.383-1.912-2.845-2.486-4.459-.032-.091-.106-.181-.102-.27.008-.202.052-.403.081-.604q.127.219.25.44c.013.02.017.045.029.066.089.155.057.408.357.39-.017-.183-.003-.375-.057-.548-.102-.322-.274-.626-.358-.952-.07-.271-.066-.563-.072-.846-.002-.08.075-.163.116-.245.059.064.121.125.177.192.062.074.111.159.18.226.023.022.1.02.135 0s.074-.084.064-.113a10 10 0 0 0-.269-.674c-.197-.438-.255-.882-.072-1.337a.18.18 0 0 1 .102-.093c.027-.008.087.032.104.063.081.15.143.309.233.452.03.047.131.089.186.077.048-.011.117-.108.107-.153-.044-.21-.069-.44-.181-.618-.3-.474-.225-.9.058-1.35.314-.5.3-.51.659-.036.044.058.079.13.138.17.052.037.15.07.194.047.044-.022.078-.13.058-.179-.098-.247-.23-.483-.321-.732-.047-.127-.095-.301-.04-.406.084-.162.257-.281.392-.419.083.133.172.264.248.4.082.148.143.308.235.451.026.042.14.074.187.054s.093-.12.08-.17c-.07-.254-.155-.506-.245-.755-.1-.274-.091-.507.173-.712.268-.209.332-.216.525.06.07.101.107.227.192.311.072.072.192.1.291.148.021-.11.072-.226.056-.331-.018-.114-.094-.222-.151-.328-.273-.506-.267-.545.16-.907.292-.246.401-.23.547.112.114.268.193.549.313.813.026.057.163.086.252.092.03.002.093-.102.099-.162.025-.274-.078-.5-.24-.736-.234-.344-.157-.559.153-.728.245-.134.367-.112.491.12.137.259.248.53.38.79.065.13.136.263.234.371.072.08.191.124.29.184.007-.106.056-.228.017-.315-.17-.376-.37-.74-.543-1.115-.034-.074-.031-.215.02-.26.057-.05.193-.05.284-.03.391.089.71.27.829.666q.113.381.215.767c.043.163.055.338.125.49.043.092.169.15.257.223.035-.103.115-.213.097-.307-.052-.284-.152-.56-.211-.843-.016-.074.05-.163.08-.245.087.037.193.055.258.114.09.08.174.183.215.291.171.454.392.904.47 1.373.097.591.329 1.108.657 1.602.325.49.657.976.969 1.473.047.076.004.203.003.307-.11-.04-.267-.051-.321-.127-.285-.399-.545-.813-.812-1.223-.173-.267-.34-.537-.517-.802-.023-.036-.082-.05-.125-.075-.007.056-.04.124-.017.166m3.524 1.198c.017.052-.03.122-.047.184l-.145-.216.043-.223c.052.085.12.164.149.255m-.663.314c-.013-.02-.034-.039-.039-.06q-.02-.099-.035-.198c.044.05.092.1.122.157.012.02-.03.067-.048.101m-.698-.53c.16.166.285.361.425.548-.064.126-.087.25-.145.266-.07.02-.196-.027-.249-.086a2.5 2.5 0 0 1-.334-.47c-.035-.064-.026-.214.02-.243.072-.044.24-.06.283-.015m-.264-.347c-.11.056-.308.083-.4.025-.307-.193-.804-1.155-.86-1.668-.006-.024-.045-.162-.076-.302-.042-.189-.274-.347-.1-.57.13.138.29.26.389.417.259.41.488.835.738 1.25.111.184.264.348.357.54.04.084.012.277-.048.308m.493-1.892q.186.345.355.699c.015.033-.02.087-.03.131-.035-.033-.08-.061-.1-.101a17 17 0 0 1-.303-.653c-.023-.053-.02-.116-.03-.175.037.033.087.06.108.1m-1.345-1.655c.514.335.641.524.66 1.051q.166.436.335.87c.07.181.153.358.213.54.025.076.005.163.005.245-.059-.042-.136-.074-.174-.13-.166-.24-.35-.476-.473-.737-.268-.57-.502-1.153-.747-1.732-.017-.04-.003-.093-.004-.14.062.01.138.002.185.033m-1.21-1.1c.129.108.297.206.36.345.19.412.339.84.498 1.265.014.038-.01.09-.016.135-.043-.018-.101-.024-.13-.054-.415-.453-.764-.942-.915-1.583.009-.019.024-.085.067-.127.019-.019.105-.006.136.02m-.92-.4c.17.02.243.144.345.567.01.046.031.092.028.137-.002.04-.02.102-.05.114-.035.014-.094-.004-.136-.023-.043-.02-.098-.05-.11-.088a10 10 0 0 1-.195-.654c-.003-.009.08-.057.118-.053m-.667.056c.02.043.05.115.032.133-.043.042-.115.087-.17.082a4 4 0 0 1-.52-.087c-.111-.027-.215-.082-.323-.124l.25-.197c.322-.015.594-.108.73.194m-2.07.15a1.8 1.8 0 0 1 .488-.129c.045-.006.105.078.166.126-.031.072-.04.159-.088.19-.12.08-.253.167-.39.186-.086.011-.21-.081-.275-.158-.026-.03.039-.188.099-.215m-1.45.724c.22-.182.503-.297.771-.418.039-.017.142.094.235.16-.048.113-.063.215-.123.28a2.3 2.3 0 0 1-.442.395c-.082.052-.256.064-.333.015-.156-.098-.255-.31-.107-.432m-.528.487c.159-.046.446.285.353.452a1.03 1.03 0 0 1-.418.375c-.05.027-.211-.134-.282-.182-.045-.244.172-.595.347-.645m-1.401.987c.07-.18.143-.359.234-.529.026-.05.115-.07.175-.103.016.064.063.142.04.19-.072.152-.168.295-.261.438-.026.038-.075.062-.113.092-.027-.03-.083-.07-.075-.088m.579-.002c.017-.025.187.042.258.059.063.3-.217.735-.477.789-.044.009-.18-.139-.167-.17.11-.234.238-.463.386-.678m-1.033.89.08.045-.116.116zm-.059.22c-.001.167-.04.317-.212.402zm-.389.733c.02-.066.04-.132.07-.194.02-.037.054-.067.083-.1.014.041.035.084.023.116-.03.076-.084.144-.127.216-.017-.013-.05-.03-.049-.038M19.686 48.523c.894-.3 1.743-.71 2.446-1.317.632-.547 1.14-1.178.922-2.091-.047-.197.023-.433.09-.636.206-.618.162-1.232.06-1.86-.204-1.266-.882-2.352-1.418-3.492a1.6 1.6 0 0 0-.355-.466c-1.03-.975-2.129-1.866-3.467-2.45q-1.317-.576-2.648-1.123a4 4 0 0 0-.871-.264c-1.155-.183-2.309-.402-3.473-.494-1.493-.118-2.894.181-4.052 1.174-.092.08-.24.21-.31.186-.635-.223-.826.265-1.023.61-.399.698-.9 1.34-1.17 2.11-.3.857-.288 1.7-.07 2.552.096.373.27.727.406 1.09.326.87.732 1.693 1.462 2.337.353.312.694.636 1.04.955.107.1.253.218.093.355-.16.135-.225.176.05.222.189.031.415.092.534.217.561.583 1.28.95 1.977 1.346 1.298.734 2.709 1.087 4.224 1.08.226 0 .46.023.678.077 1.092.272 2.183.513 3.33.271.516-.127 1.045-.22 1.545-.389m-1.008-1.786c.043.002.083.043.127.068-.023.034-.036.081-.068.098-.107.056-.217.126-.333.142-.073.01-.159-.066-.239-.104.05-.065.087-.166.152-.186.111-.034.24-.023.361-.018m3.33-2.01c-.085.241-.162.486-.273.717-.033.07-.161.098-.225.134-.082-.023-.149-.023-.17-.053-.024-.03-.018-.097.001-.136.043-.087.091-.175.157-.247.145-.157.302-.304.457-.454.002-.002.056.032.053.04m-.021-3.4c.005.01-.02.033-.03.05l-.035-.055.004-.062c.021.022.048.04.06.066m-6.675-4.633c.024.1.039.203.056.305q-.08-.137-.155-.277c-.01-.016.004-.043.006-.065.033.012.088.019.093.037m-5.674-1.38c.036-.013.09.017.136.027l-.186.19-.115-.105c.054-.038.104-.088.165-.111m-.663.234c.052-.009.115.046.16.066 0 .2-.284.464-.436.42-.052-.015-.111-.102-.114-.158-.014-.251.193-.297.39-.328m-.96.876c-.014-.13 0-.264.005-.397.077.036.21.06.221.11.029.118 0 .248-.009.452-.125-.092-.212-.124-.216-.165m-2.353 2.248.04-.126c.04.023.108.041.113.07.044.24.077.483.112.725zm.765.936c.002-.02.017-.04.026-.061.004.02.012.04.011.061 0 .02-.01.038-.016.057-.007-.02-.022-.039-.02-.057m-.201.672c-.004-.02.008-.042.014-.064.012.019.03.036.034.056s-.009.043-.014.064c-.012-.019-.03-.036-.034-.056m.76-.379c-.07-.124-.097-.27-.143-.407l.063-.015c-.105-.486-.217-.971-.312-1.46a2.8 2.8 0 0 1-.058-.642c.004-.102.104-.201.16-.302.062.086.157.165.18.26.205.817.406 1.635.585 2.458.04.186.162.462-.154.528-.073.015-.23-.262-.32-.42m1.288-2.88c.09.13.215.248.26.39.157.481.255.981.432 1.454.355.949.748 1.886 1.127 2.826.1.246.226.485.303.737.026.085-.06.2-.096.302-.1-.044-.254-.063-.293-.137-.252-.47-.503-.943-.708-1.433-.457-1.092-.887-2.194-1.31-3.248.011-.203-.01-.35.035-.477.053-.148.164-.276.25-.413m-.226 2.83c-.172-.425-.319-.86-.477-1.29l.035-.01c-.016-.094-.056-.192-.043-.283.015-.105.076-.204.117-.306.05.074.118.142.147.223.149.409.267.828.434 1.23.391.938.805 1.867 1.21 2.8.066.155.152.306.19.467.016.061-.063.162-.127.21-.031.024-.161-.015-.191-.06a2.6 2.6 0 0 1-.242-.445c-.356-.843-.71-1.687-1.053-2.535m-.494 1.085c-.004-.01.024-.03.038-.045.018.035.04.068.052.105.003.01-.024.029-.037.044-.019-.034-.042-.068-.053-.104m.013.9.006-.066c.027.02.057.04.079.065.004.005-.024.035-.037.054zm.585-.197c-.063-.152-.09-.317-.129-.46-.03-.083-.07-.149-.072-.216-.002-.053.043-.107.066-.16.035.025.088.043.102.077.106.237.215.474.298.72.02.06-.048.148-.076.223-.065-.06-.16-.11-.19-.184m.422.681c.036-.011.11.006.128.034q.11.18.191.371c.014.033-.017.084-.028.127-.042-.023-.096-.038-.123-.072-.087-.11-.165-.227-.24-.333.03-.057.042-.117.072-.127m-.464.71a1.8 1.8 0 0 1-.216-.375c-.024-.054.007-.13.013-.197.066.02.157.022.195.065q.168.194.296.413c.02.034-.036.107-.063.179-.098-.035-.19-.04-.225-.085m2.498.08c.124.14.233.29.359.455-.06.103-.09.221-.15.238-.072.019-.222-.03-.245-.085a2.3 2.3 0 0 1-.137-.527c-.003-.019.162-.093.173-.08m-.501.873c-.161-.125-.316-.211-.417-.337-.049-.061.003-.195.01-.296.114.015.273-.008.335.054.095.096.137.248.178.383.012.042-.054.104-.106.196m-1.594-.072c-.033-.121-.055-.32.013-.371.096-.072.288-.073.422-.04.11.025.205.134.285.224.06.068.143.192.115.243-.048.088-.173.14-.21.168-.317.054-.55.052-.625-.224m.114 1.304c-.001-.005.03-.016.048-.024l-.008.107c-.022-.042-.036-.061-.04-.083m.287-.56c.01-.087.195-.158.243-.194.418-.036.798.367.717.684-.017.065-.138.141-.22.151-.345.043-.775-.316-.74-.64m2.069-.39c.016-.031.17-.042.18-.024.094.187.174.38.25.575.005.012-.063.05-.098.076-.219-.02-.44-.423-.332-.628m-.248.732c-.052.04-.104.082-.138.11-.288.03-.51-.177-.527-.47-.001-.032.042-.066.064-.1zm1.93-.523c-.41-.099-.406-.518-.583-.793-.17-.267-.297-.56-.447-.84-.886-1.66-1.627-3.374-2.172-5.163-.021-.071-.102-.126-.156-.189-.011.07-.05.147-.03.208.24.76.428 1.543.75 2.272.616 1.4 1.309 2.769 1.97 4.15.063.132.145.26.174.398.015.068-.05.193-.115.225-.069.033-.225.018-.266-.032a2 2 0 0 1-.25-.442c-.59-1.307-1.204-2.606-1.752-3.928-.343-.827-.592-1.69-.87-2.542-.042-.13-.075-.319-.007-.413.173-.239.112-.454.028-.685-.016-.045-.06-.103-.043-.134.052-.1.107-.226.2-.273.05-.026.226.065.265.14.145.281.25.58.388.864.019.04.127.05.195.055.015.002.06-.08.053-.115a8 8 0 0 0-.158-.63c-.042-.139-.12-.267-.164-.404-.058-.177-.032-.352.161-.434.242-.103.296.095.375.245q.234.45.482.894c.013.024.095.035.133.021.037-.013.09-.075.082-.099-.07-.204-.154-.404-.229-.607-.08-.218-.328-.549-.1-.646.343-.147.367.29.499.488.174.263.28.565.446.833.08.13.315.326.338.31.215-.15-.004-.287-.062-.422-.116-.267-.264-.521-.389-.785a.85.85 0 0 1-.103-.342c0-.07.084-.182.153-.203.351-.105.618.037.773.373.224.486.449.971.686 1.451.035.07.144.11.218.163.035-.099.117-.208.097-.295-.093-.394-.15-.808-.505-1.1-.05-.042-.102-.142-.083-.19.027-.065.163-.16.18-.148.135.093.301.186.365.319.273.57.513 1.153.768 1.73.058.132.115.267.196.388.028.042.14.075.186.055.049-.02.104-.124.088-.167a30 30 0 0 0-.464-1.147c-.056-.134-.154-.255-.196-.391-.048-.154-.132-.413-.064-.463.212-.159.459-.018.604.137.217.23.42.492.545.774.177.397.271.825.415 1.236.04.112.131.208.199.31.035-.13.096-.26.099-.39.003-.142-.05-.285-.074-.427q-.052-.303-.101-.606l.492.683c.099.138.183.289.302.41.05.05.17.04.259.057.006-.068.042-.15.014-.202-.15-.277-.315-.546-.477-.817-.074-.124-.165-.242-.226-.372-.02-.04.022-.15.06-.161.265-.085.692.142.77.407.157.53.303 1.063.463 1.593a1 1 0 0 0 .172.305c.014.018.16-.013.17-.043a.5.5 0 0 0 .018-.278c-.096-.347-.219-.687-.308-1.035-.039-.148-.02-.31-.028-.465.167.035.342.054.5.113.133.05.25.14.372.217.547.045.807.291.949.837.198.765.58 1.487.891 2.224.022.052.115.077.175.115.031-.076.11-.167.088-.225-.232-.612-.479-1.218-.722-1.826-.036-.09-.076-.179-.103-.271-.012-.043-.012-.104.013-.137.018-.024.094-.035.128-.02.381.167.722.368.746.827.045.847.565 1.539.85 2.307.017.048.114.069.173.102.028-.077.1-.17.078-.23-.133-.365-.286-.723-.436-1.081s-.305-.714-.452-1.073c-.015-.035.007-.082.011-.124.048.012.114.01.142.04.471.505.941 1 1.01 1.732.04.426.182.845.292 1.263.08.304.188.602.269.905.013.05-.047.118-.074.177-.04-.022-.085-.037-.116-.066q-.194-.19-.383-.38c.09.235.174.472.27.705.064.156.163.3.21.46.02.066-.058.157-.091.237-.061-.033-.148-.05-.179-.1-.286-.455-.56-.916-.844-1.371-.085-.137-.195-.26-.293-.39.01.176-.035.378.04.524.257.497.55.977.84 1.458.212.35.091.847-.284 1.036-.062.031-.216-.004-.26-.057a4 4 0 0 1-.415-.606c-.154-.276-.258-.578-.425-.846-.134-.214-.126-.529-.45-.62.059.228.085.47.183.682.244.53.511 1.05.79 1.564.11.206.242.387-.032.556-.22.136-.398.074-.589-.261-.324-.573-.616-1.161-.932-1.738-.1-.182-.233-.348-.352-.522-.197.248.028.455.104.652.164.428.397.833.602 1.247.097.196.2.39.282.592.022.052-.016.131-.045.19-.007.014-.092 0-.137-.012-.643-.173-.654-.168-1.01-.735-.31-.496-.592-1.01-.894-1.512-.047-.08-.13-.138-.197-.206.003.108-.029.232.014.324.204.441.428.874.644 1.31.151.307.12.385-.185.474-.464.134-.608.085-.854-.344-.363-.636-.71-1.28-1.068-1.919-.033-.06-.097-.103-.147-.155-.008.082-.045.174-.018.243q.164.404.36.797c.193.394.398.782.592 1.175.07.141.244.31 0 .429-.206.1-.455.152-.62-.075a5 5 0 0 1-.375-.626c-.385-.733-.761-1.47-1.146-2.203-.024-.045-.096-.068-.145-.1-.006.046-.028.097-.015.138.06.183.116.369.197.544.203.442.422.878.626 1.32.037.08.075.239.042.259a2.6 2.6 0 0 1-.59.28c-.198.062-.405.053-.526-.165-.13-.234-.286-.457-.4-.698-.616-1.296-1.221-2.596-1.83-3.894-.052-.11-.099-.222-.157-.33-.02-.038-.067-.065-.101-.097-.013.042-.044.088-.035.125.055.21.094.428.184.625.554 1.216 1.12 2.428 1.684 3.64.082.176.191.34.276.516.072.15.178.333-.024.45-.2.117-.44.163-.638-.014-.09-.08-.118-.23-.215-.29-.318-.198.334-.633-.232-.768m-.503.674c.115-.013.295-.048.338.005.113.14.166.324.24.49.002.007-.033.035-.054.041-.197.055-.62-.242-.61-.43.027-.036.053-.102.086-.106m-.346.73-.256-.17.028-.159c.095.054.197.1.279.168.018.015-.033.105-.051.16m-1.755-.197c.02.003.044 0 .058.01.012.008.014.03.02.047l-.053.02zm.572.303c-.15-.123-.13-.42.01-.499.19-.106.39-.121.528.068.08.11.153.251.152.378 0 .062-.177.123-.297.2-.137-.048-.294-.066-.393-.147m4.188-.364c.093-.035.19-.063.276-.11.362-.192.507-.06.656.308.023.057-.038.192-.098.222-.13.064-.284.083-.272.08-.233.036-.307.05-.381.059-.2.024-.342-.038-.39-.237-.041-.171.055-.263.209-.322m-1.004.26c.185-.04.365-.015.427.191.013.043-.05.107-.076.159-.107-.02-.186-.023-.255-.05-.112-.045-.216-.105-.324-.159.076-.049.145-.124.228-.141m-.612.593c-.013.07-.119.125-.145.15-.317.067-.45-.066-.498-.272-.014-.059.078-.193.138-.203.226-.038.533.165.505.325m-1.176.31c-.142-.027-.276-.107-.4-.182-.048-.029-.07-.107-.084-.166-.003-.015.074-.056.119-.066.046-.01.098.002.148.004.096-.025.247-.097.278-.065.107.11.172.257.253.39-.105.031-.219.102-.314.084m5.866-.864c.085-.044.189-.058.305-.09l.16.078c-.046.047-.084.114-.142.136-.09.036-.193.047-.292.058-.046.004-.094-.018-.141-.027.035-.054.058-.128.11-.155m-1.127.273c.067-.013.141.011.282.027-.13.054-.193.097-.26.104-.068.007-.14-.022-.209-.036.063-.033.121-.082.187-.095m-2.24.586c-.107.048-.21.11-.323.14-.057.014-.13-.03-.197-.048l.272-.198zm-4.035.665.032.011.002.003zm2.493-.376c.158-.066.233-.116.314-.123.05-.005.108.056.162.087-.072.044-.14.104-.218.125-.047.012-.112-.036-.258-.09m2.59-.11c.184-.046.374-.07.562-.1 0 0 .016.055.011.057-.173.077-.348.15-.48.206l-.197-.03c.034-.046.06-.123.104-.134m-1.178.368c.1-.057.194-.13.303-.165.05-.016.126.041.19.065l-.25.224zm1.67.167c-.021-.002-.057-.024-.056-.036.002-.035.008-.091.03-.101.113-.049.228-.103.347-.12.082-.011.172.036.259.057l-.168.231c-.17-.012-.291-.019-.412-.03m1.285-.115c-.098-.002-.229-.09-.278-.175-.073-.123.24-.326.489-.29.1.014.185.12.266.176-.071.285-.29.293-.477.289M30.195 24.675c-.078-.285-.167-.564-.442-.744l.07.415zM29.753 23.93l-.004-.024-.017.003.006.01z"/><path fill="#29261f" d="M26.922 20.229c-.1-.235-.237-.435-.53-.483a.76.76 0 0 0 .53.483M26.393 19.746l-.005-.01-.018-.01.011.018zM28.3 21.809l-.003-.021-.026-.034q.006.023.01.045zM27.92 21.295l.351.46c-.038-.208-.133-.376-.351-.46M27.308 20.632l.375.377.201.269.006-.008-.006.008c.014.004.023.012.036.017l-.025-.033-.2-.263-.377-.38-.377-.383-.019-.007.008.018zM30.44 25.22l-.222-.484c.019.185.04.369.223.485M30.218 24.736l-.005-.045-.018-.016.008.03zM29.732 23.909l-.201-.366.065.386zM30.468 25.27l-.003-.032q-.014-.009-.024-.017l.013.03zM30.492 25.435c.006.021.057.03.088.044-.001-.022.005-.048-.006-.064q-.05-.074-.106-.145c.005.056.008.112.024.165M28.684 22.319l.2.266.204.265.005-.007-.005.008.425.66.018.032-.007-.04-.425-.667-.201-.262-.201-.265-.015.002zM33.366 52.445c.022.024.108.03.128.011.026-.025.038-.097.018-.126-.081-.121-.174-.235-.266-.35a17 17 0 0 1-1.988-3.069c-.107-.217-.232-.426-.357-.635-.021-.037-.078-.055-.119-.082l-.08.148c.028.088.044.16.076.225.514 1.075 1.092 2.117 1.837 3.068.225.287.495.544.75.81M33.082 47.616c-.674-.99-1.356-1.973-2.038-2.958-.027-.04-.053-.084-.09-.115-.035-.028-.084-.041-.127-.06l-.037.134c.055.123.106.26.177.386.216.382.414.775.667 1.134.394.56.825 1.096 1.247 1.637.036.046.13.052.197.077.003-.08.041-.18.004-.235M44.516 40.032a292 292 0 0 0-.859-2.677c-.016-.05-.093-.08-.142-.12-.027.06-.07.12-.077.182-.008.07.02.142.032.213h.003c.012.07.017.143.038.212q.368 1.243.742 2.484c.02.068.051.14.098.192.041.047.112.069.17.102.031-.056.094-.115.088-.168a2 2 0 0 0-.093-.42M51.318 44.233c.05-.046.133-.087.141-.138.022-.14.047-.293.01-.426-.254-.92-.524-1.835-.789-2.752-.186.244-.074.502-.017.75.188.82.39 1.638.588 2.457.01.04.044.073.067.11M45.414 40.465c.011-.117.029-.242-.003-.35-.239-.812-.488-1.62-.735-2.43a.15.15 0 0 0-.04-.06c-.014-.014-.045-.033-.056-.027-.04.021-.107.055-.104.078.017.141.04.284.08.42q.269.904.544 1.806l-.034.008c.032.188.06.377.102.564.006.026.081.054.122.052.044-.003.121-.036.124-.061M42.817 40.098c.004-.426-.008-.852-.015-1.225-.154-.52-.286-.98-.43-1.436-.017-.057-.097-.096-.149-.142-.009.065-.037.134-.023.194.195.863.447 1.718.409 2.614-.002.04.041.08.063.12.05-.042.145-.084.145-.125M38.768 39.74c.021-.088 0-.188-.018-.281-.062-.34-.13-.68-.196-1.02-.397.324-.075.757-.192 1.124-.006.02.004.046.006.07.013.045.013.102.042.134.062.066.14.118.211.176.051-.067.129-.129.147-.203M39.494 38.242l.003-.012-.008-.011-.007.005zM39.747 39.878c.004.03.07.054.106.08.026-.036.08-.076.075-.108-.093-.548-.084-1.123-.434-1.608-.216.586.176 1.09.253 1.636M37.123 39.719c-.02-.178-.026-.321-.056-.46-.011-.054-.076-.097-.117-.145-.036.057-.095.11-.103.17-.017.141-.03.288-.008.426.046.276.116.549.176.823.34-.252.032-.57.108-.814M33.48 43.847c.01-.075-.088-.233-.1-.23-.403.114-.372-.21-.471-.404-.02-.038-.065-.065-.098-.096-.03.037-.077.07-.084.111-.014.094-.009.19-.013.346.067.126.134.313.258.454.055.061.238.055.346.026.072-.02.153-.13.163-.207M42.349 52.935q-.07.025-.14.052c.056.005.115.025.165.013q.624-.152 1.246-.315c.04-.01.07-.05.104-.076-.048-.009-.097-.026-.144-.023-.076.003-.15.02-.365.054zM35.883 39.685c-.016-.066-.033-.16-.06-.25-.014-.041-.047-.077-.072-.115-.036.026-.099.048-.104.078-.037.2-.085.404-.075.604.003.058.182.107.28.16.025-.08.06-.16.068-.242.006-.068-.02-.139-.037-.236M44.532 52.412l.143-.068c-.064-.006-.129-.021-.192-.016-.043.004-.082.035-.123.054zM38.439 53.653l.023.004.01.013.003-.013zM50.698 40.88l-.024.015.006.022.008-.012zM58.277 28.767l.092.055-.024-.1zM58.37 28.822l.005.023.029.029-.017-.041zM54.38 29.508l.086.101.027.02-.017-.031zM55.84 29.726l.05.058q-.003-.013-.008-.023c-.01-.015-.028-.023-.043-.035M55.89 29.784l.015.04.024.021-.014-.034zM56.732 28.2l-.024-.009.025.01.02.032-.01-.028zM40.67 20.208l.082.096.046.052-.035-.064zM37.973 20.407l.024.015.016.018-.01-.019zM17.952 37.495l.008-.007-.014-.009h-.003z"/><path fill="#29261f" d="M17.861 37.598c-.135.392.383 1.604.765 1.763.038.016.18-.082.19-.14.016-.084-.032-.186-.076-.27q-.392-.728-.788-1.456c-.033.033-.078.063-.091.102M21.38 42.446l.072.107.023.022-.013-.035z"/></svg>