<svg xmlns="http://www.w3.org/2000/svg" width="72" height="72" fill="none" viewBox="0 0 72 72">
  <path fill="#29261f" d="m35 62 4-2 6-2h1l2 1h3l4-1 3-2 1-4v-3l-2-4-1-2-4-4q-1-3-6-5l-3-1-2-1h-3l-4 1-2 1-3 3-2 4-1 2-2 4v6l1 5 2 3 1 1h1l4 1zm15-4h-1l1-1q0 2 0 0zm-15 2h1zm-3-1 1 1zm19-2q0-1 0 0m-14 3h1v1zm5-1h-1zm-3 0v1zm-3 0-1-1h2m10-1h-1zm-2-1v-1zm-2 0h-1zm-7 1v-1zq1 0 0 0m12 0q-1 0 0 0m7-1h-2zm2-2v-1q-1 0 0 0zm-1-1v-1zm2-3q0-1 0 0m-3-3v-2 1zm2-1-1-1zm0-2v1zm-1 0-1-2zm-2-4 1 2zm-1-1h-1zm0 2-1-2zm-6-6 2 1v1-1zm-5 1-1-1zm0-2h-1zm-10 2v1zm-2 3v1zm-1 4 2 4 1 1-1-1zl-1-1h2l1 3 1 1-1-1-1-4v-1l1 1v1l1 2v-1l-1-2v-1h1l1 3v1-2l-1-3v-1h-1l1-1v1l1 3 1 1-1-3v-2l-1-1 2 1 1 3v1-3l-1-1v-1h1l1 2v2h1l-2-3 1-1 1 2 1 2v1-1l-1-4q-1 0 0 0 0-1 0 0l2 2v1h1l-2-3v-1h1v1l1 1 1 2v2-5h1l1 1h1l1 1v-1l1 1v2l1 2v-3q-1 0 0 0v-1l-1-1h1v2l1 2v1-4 1l1 1v3h1l-1-1v-3 1l1 1v-1 1h1v1l1 1v3h1l-1-1 1-1v-1 2h1v1-1 1h-1v1l1 1h2l-1 1-1 1h-1 3l-1 1-2 2v-1l3-1h1v1h-1l-1 1-1 1h-2v1h1l-1 1h-1v-1 1h-1v-1 2h-1v-1h-1 1v1h-1l-1-1v-2 2h-1l-1-1v-1l-2 1h-1v1h1v1h-1l-1-2h-1l1 1 1 1h-2l-2-2h1l1 2v1l-2-2 1 2h-1v-1h-1l-2-3 1 3h1v1h-1l-1-1h1l-1-1-2-2-1-1-2-2v-1l-2-5zm16 11h-2zm-19-8q0 1 0 0m-1 2-1 2zm0 4v-2zm3 1h1zm-1 2-1-1h1zm1 0 1 1h-1zm-2 1q1 0 0 0m3 0v-1h-1v-1l2 3v1zm2 1v-1l-1-1-2-4v-1h-1l1-1 1 2 1 2h1l-3-5v-1l-1-1h2l1 4 1 1v-1l-3-5h1l2 3v2l2 2v1h1l2 3h-2l-2-3-1-1v1l3 3-1 1h-1l-1-3h-1v1l2 2zm-1 0h1v1h-1zm-1 2-1-1zm2 0v1zm3 2h1zm21-42-3 5v2l-1 3v3l1 2 1 2 2 2h5l2-1 3-7 1-2v-5l-1-2v-1h-1l-3-2h-4zm0 1v2zm0 1v2zm-1 1 1 1zm0 1v3zm-1 2 1 2zm1 4-1-2v-1zm0 2v1zm2 2q-1 0 0 0m-2 1v1zm7 0q1 0 0 0m-2 2q0-1 0 0m3-2q1 1 0 0m-6 0h1zm4-1q0-1 0 0m1-3 1 1v1l-1-1zm4 0v-1zm-3 0h1zm1-1q-2 0 0 0 0 1 0 0m1-1q0 1 0 0m1 0h-1zm0-1v1zm-6-5v-2l1 1v2h1l-1-2v-1l1 1 1 2v1-2l-1-1h1l1 2 1 3h-1v-1h-1v-1 1h1l1 2v2l-1-1-1-1v-1l1 2v1h-1l-1-2v1l1 1v1l-1-1-1-1v2l1 1h-1v-1l-1-1v1l2 2v1h-1v-1l-1-2h-1l1 1 1 2h-1v-1l-2-3v2l2 2v1q2 0 0 0v1l-1-1-2-3v1l1 2h1-1l-2-3h-1l1 1h-1v-4h1l-1-1h1v-1q1 0 0 0v-1h1v-2l1 1v-3 1l1 1v-1l-1-1 1-1v1zq1 0 0 0M23 34h2l5-2 1-2v-4l-1-3-1-2h-1v-1l-2-1-1-1 1 1v-1l-3-2h-7l-1 1-1 1-1 5 1 1v1l1 3 3 3 2 1zm5-3q0 1 0 0m2-1q0 1 0 0m-1-4v1l1 2h-1zm-4-6v1zm-9 0v1zm0 4v-2zm0 2h1zm1 0-1-3v-1l1 1 1 3zm1-2-1-1v-3l1 1 1 1v-1l-1-1v-1l1 1v1-3 1l1 1v1-3l1 1v1h1v-1l1 2v-1h1v1l1 2v-2 1l1 2v1h1l-1-2v-1 1l1 3v1h1l-1-3h1v1l1 4v2l-1-1v1h-1v-1h-2l-1-2 1 2h-1v-2h-1l1 2v1l-1-1-1-2v-1 2l-1-2v-1 4-1l-2-4v-1 1l1 5v-1l-1-1v-3zl1 3-1-1zm4 5v-1zm-1 0h-1zm-2-1h-1v-1zm-2-1v2zm1 3-1-1v-1 1zm1 1v-1l1 1zm1 0v1zm5 0q1 0 0 0m0 0v-1zm-4 2v-1q0-1 0 0zm1 0v-2zm11-14v4l1 2 1 2 1 2 1 1h5l1-1q3 0 4-3a14 14 0 0 0-1-13l-2-2-3-1h-1l-3 1h-1l-1 1-2 3zm1-3-1 1zm-1 1v3zm1 0v1zm0 5v-1 2m1 2v-2zv1l2 2h-1zm9 1-1-1zm-1 1h-1zm-4 1 1 1h-2m0 3h-1l-2-2v-1l1 1zm4-3q1 0 0 0m3 0 1-1zm-3-3-1-1zm0 0v1zm2-1-1-1zm-2-2 1 1zm3-1v-1zm1-3v1zm-4-2 1 2 1 1v1l-1-1-1-1v-1 2l1 1h-1v-1l-1-1v-1 1l1 3q2 0 0 0h-1v-1 1l1 1v1l1 1h-2l-1-2v-1l1 2v1h-1l-2-3v1l2 2v1h1-2l-2-3v-1l1 3 1 1 1 1h-1l-3-4v-1 1l1 1 2 3-1 1-2-3-1-1v1l2 2v1h-1l-2-5v-1 1-2h1l-1-1v-1h1v-2h1v1-2 1h1l-1-1 1-1 1 1v-2l1 1v-2 1h1v1-2l1 1v1h1l-1-1h1v2l1 1 1 2zm2 1-1-2v-1 1l1 1zm-1-4 1 1v2-1zm-1-1 1 2zM20 49l2-2 1-2v-2l-1-4h-1l-3-3-3-1h-1l-3-1-4 2H6l-2 2v3l1 1 1 2 1 1v1h1l2 1 4 2zM7 40v-2zq1 0 0 0m1-3v2l1 3v1l-1-2zm0 3v-2zl1 3 1 1H9v-1zm1 4q-1 0 0 0 0-1 0 0m4 0v-1l-3-5v-1 1l1 2zv-1l-2-4-1-2v-2l1 1v-1l1 1v-1q-1 0 0 0 0-1 0 0l1 1-1-1v-1l1 1 1 1v-1l1 2v-2l1 1v1h1-1v-1l1 1v-1h1v2-2h1l1 1 1 3v-1l-1-1v-1l1 1 1 2v-1l-1-1 1 2 1 1v1h-1 1v1l-1-1v-1 3l-1-1v-1 1l1 1v1h-1l-1-2v-1 2l1 1h-1l-1-1v-1h-1l1 1v1l-1-1-1-2v1l1 1v1h-1v-1l-1-2h-1l1 1v1h-1l-2-4v-1 1zh1v1h-1v-2m17-19v-1zm0-1"/>
  <path fill="#29261f" d="m29 22 1 1zm4 30-2-3v-1 1zm0-4-2-3v-1 1l1 1zm12-8-1-3h-1v1h1zm6 4q1 0 0 0v-3zm-6-4v-2h-1 1zm-2 0v-1l-1-2zm-4 0v-1zm1 0-1-2zm2 13h2-1zM18 38l1 1zm3 4"/>
</svg>