<svg xmlns="http://www.w3.org/2000/svg" width="70" height="52" fill="none" viewBox="0 0 70 52">
  <path fill="#29261f" fill-rule="evenodd" d="M4 12.4V14h.1v.1h.1l.1.2c.4.6 2 .2 2-.4V13s-.2-.5-.1-.6l-.3-1q.2-.1-.4-.5c-.6-.4-.2-.3-.7-.3h-.3q-.2 0 0 .2h-.2l-.1.3zm23.3.4c1.4 6.6 11 4.2 9.3-2-.5-2.2-3.1-3.1-4.3-2.4q.2 0 0 .1v.1l-.1.1c.2.4.7.2.8.4 3 1.3 2.1 5.9-1.4 5.3-1.5-.3-2.5-2-1.6-3.9q0-.2.3-.5l.3-.4.4-.3.5-.3.4-.3h.1q0-.2.2-.2-.7-.9-1.8-.6c-2.3.2-3.4 2.9-3.1 5m-20.9 23L6 34c0-.4-.7-.8-.9-.8h-.5l-.2.2-.1.3-.2.6-.2.7v.3l.1.9.1.4h.1l.1.2c.3.7 1.7.3 2-.1l.1-1m29-13.4c-.1-1.4-1.7-2.8-3.1-2v.3q-.2 0 0 .3l.3.2h.2l.4.6v.1c1 1.4-1.2 2.7-2 1.3l-.2-.5.2-1 .3-.4.3-.2.2-.3.2-.2q-.4-.8-1.2-.7c-1.6 0-2.5 1.7-2.4 3.2.5 4.4 7.2 3.8 6.8-.7M67.6 27c0-1.1-1-1.6-2.1-1.5-4.7 0-15.8 0-20-.3-1-.1-1.4.7-1.6.8-.6.4-.3 1.7-.5 2.4q1 1 1.1 2.3v7.5c-.2 2.4 1 5.7-1.3 7.3.4 1-.1 3 1 3.8 1 1 5.6 0 7.3.2 4.5-.2 10.3 0 14.8-.1 2.3-.2 1-5 1.3-6.5zm-25.1 3.7L42.3 43c0 .8-1.2.6-1.7.6H16.3c-1.2 0-.6-2.2-.8-3l-.2-4-.2-5.5c0-.4-.2-.8.2-1.3l.4-.5.6-.3c-1.9-.6-2.5 1.3-2.5 2.8q-.4 3.7-.5 7.3c-.4 5.6 0 7.4 6.2 7-.4 1.1.5 3.2-.8 3.7q-5.9 0-11.6-.2H2.8q-.5 0-.5-.7L2.5 20c3 1 6.6.2 9.8.2 2.2-.2 4.8.2 7-.8q-.1 4.8.5 9.3c-.3.1-4 .2-2.6.4 0 .1-.3.1 0 .2l-.9.1c4.5.6 9 .3 13.4.6h12q.7 0 .8.9M31 49q-.7-1.2-1-2.5v-.4h-2a9 9 0 0 1-1.2 3.3h4.6zM2.4 13.7V2.9q0-.4.4-.4h15.6q.5 0 .5.4l.3 15.4c-5-.4-10.6-.8-15.7-.2l-1 .2zm22.4 14.1c.4-7.6.3-17 .6-24.6.4-1 1.7-.6 2.5-.7h7.7c1 0 2.6-.3 2.6 1.1 0 8-.1 16.6.8 24.4-3 0-11.4 0-14.2.2zM70 48c-.1 5.2-6.4 3.6-9.7 3.9l-6.3-.1c-4.8-.4-13.7 1.7-11.5-6-3.7.4-7.6.1-11.4.3.7 1.2 2.3 3.3 3.8 3.4v.1c1.4.2 1 2.1-.4 2-2.4-.2-5.6.2-8.1.2H23c-1.3.1-1.7-2-.4-2.4 1.7-.5 2.8-1.9 3.8-3.3H20c0 1.7.9 5-2 4.9q-6.7.4-13.6.4c-5.9.8-3.8-4.6-4.2-8.3C.3 30.5.2 16.5 0 3.8-.2 2 1 0 3 .1c.6 0 16.7-.4 16.8.2 2.3 1.1 1.5 4.2 1.5 6.2-.1 7.3.3 15-1.3 22.1l4.3-.3c-1.1-8-.9-16.5-1-24.7.1-3.6 3-3.4 5.7-3.4h8c2.3-.2 3.8 2.1 3.5 4.3 0 7.6.5 16-1 23.4.9 0 2.4-.1 3.2.2-.7-4.3 2.8-4 5.9-4.3l7.1-.1h5.5c3 0 7.5-1.1 8.4 2.6.3 7.2.1 14.6.3 21.8m-5.6-10.6q0 1.5-.6 2.8l-.6-.4-.1-.1-2-1c.2-1.3 0-1.7 0-2.6q1.6-.5 2.8-1.5.5 1.3.5 2.8m-4 3.2c-3.5 3.5-9.5 1-8.6-4.2.6-3.7 5.7-4.9 8.3-2.4-1.9.5-1.3 1.7-1.2 3.2.2 1.4-.5 3 1.4 3.4m5.9-3.7c.6 9.9-12 14.6-18.2 7-4-4.7-2.4-13 3.4-15.3 1.5-.6 3.3-1 4.8-.2-16.5 4-3.8 26 7 13-1 0-1.3-.3-2.2-.5-3 6.9-13.3 1.7-11.6-5 .7-5.6 9.4-8 11.8-2.4.5-.2 1.5-.5 2-.4-1.8-2.9-3.8-3.7-7-4.4l.5-.1v-.2h-.2c5-1 9.5 3.6 9.7 8.5M64 17.7c-.1-1-1-1.7-1.8-2.2q-.2-.1-.2-.4v-.4c.1-.8-.7-1-1.2-.9s-.9 1-1 1.5c-.3 1.4.9 2.3 2 2.7.3.6.3 2 .2 2.5l.1.1v.1q0 .2.2.2h.3q1.7-1 1.4-3.2m-4.2 0c-.1-1-1-1.6-1.8-2.2q-.2-.1-.2-.4v-.2h.1v-.2c0-.8-.8-1-1.3-.9-1.3.5-1.3 2.7-.3 3.5s1.5.3 1.6 1.7q-.2.6 0 1.3l.1.4.1.2h.3c1.2-.5 1.5-1.9 1.4-3.2m-8.3 0c-.3-1.6-1.2-1.7-1.8-2.2l-.2-.3V15c.2-.8-.5-1.3-1.2-1-.6 0-.9.9-1 1.4-.3 1.4.9 2.3 2 2.7.3.6.3 2 .2 2.5l.1.1v.1h.1l.1.2h.3q1.7-1 1.4-3.2m-2.8-10c.3.4.3.1.6.2.5-.1.4 0 1 .1h.2c2.3.3 11 1 12.2-.6-1-2.3-5-1.3-7.1-1.4-2 .3-4.7-.2-6.6 1-.4.3 0 .2-.2.5zM43 9.6c.1 1.9 2 2.6 3.6 2.4 6.5 0 13.7.2 20.1-.3q2-.9 1.7-3c-.4-2.3 1-8-2.2-8.3-6 .2-15-.2-20 1.1q-.3.2 0 .2l-.7.1c6.6 1 14.2 0 20.6 1v5.7c0 .2 0 1-.2 1l-20.6.1-.2-.2-.1-6.8q-.1-.5.2-.7l.2-.2.3-.2c-1.4-.6-2 .7-2 2q-.4 2.9-.5 6M55.9 18q-.2-1.7-1.9-2.5v-.2l-.1-.1v-.5c.1-.8-.8-1-1.3-.9s-.8 1-1 1.5c-.2 1.5 1 2.2 2 2.7q.5 1 .3 2.3v.3l.2.1q-.1.3.2.3l.3-.2.2-.2c1-.5 1-1.6 1-2.6" clip-rule="evenodd"/>
</svg>