<svg xmlns="http://www.w3.org/2000/svg" width="72" height="72" fill="none" viewBox="0 0 72 72"><path fill="#bc8f35" stroke="#bc8f35" stroke-width=".5" d="M66.01 67.287c-.097.098-.272.098-.38 0a.277.277 0 0 1 0-.393l2.28-2.28c.108-.109.283-.109.38 0 .11.11.11.284 0 .382zm.623-2.869-1.08-1.08-.426.415a.284.284 0 0 1-.382 0 .277.277 0 0 1 0-.393l.415-.415-.622-.621a.276.276 0 0 1 0-.393c.11-.11.284-.11.393 0l.622.622 1.08-1.08a.264.264 0 0 1 .382 0 .276.276 0 0 1 0 .392l-1.08 1.08 1.09 1.08a.3.3 0 0 1 0 .393.3.3 0 0 1-.392 0ZM66.24 6.687a.264.264 0 0 1-.382 0l-.829-.829-.61.622c-.11.098-.284.098-.383 0a.277.277 0 0 1 0-.393l.611-.61-.785-.786a.264.264 0 0 1 0-.382.264.264 0 0 1 .382 0l.785.786.666-.666a.263.263 0 0 1 .381 0c.11.11.11.284 0 .382l-.654.665.818.83c.11.098.11.272 0 .381ZM52.396 10.8a.264.264 0 0 1 0-.382l.11-.109-.786-.774a.277.277 0 0 1 0-.393c.11-.098.284-.098.382 0l.785.785.917-.916c-.044-.098-.044-.207.043-.295.077-.076.186-.076.295-.032l1.898-1.899a.264.264 0 0 1 .382 0 .264.264 0 0 1 0 .382l-1.876 1.877 1.461 1.461c.11.11.11.284 0 .382a.264.264 0 0 1-.381 0l-1.462-1.462-.884.895.054.054c.11.11.11.284 0 .393-.098.098-.272.098-.381 0l-.066-.065-.098.098a.276.276 0 0 1-.393 0Z"/><path fill="#bc8f35" stroke="#bc8f35" stroke-width=".5" d="m52.81 7.713-1.92 1.92 1.08 1.08c.11.109.11.283 0 .392a.26.26 0 0 1-.184.077.26.26 0 0 1-.197-.077l-1.08-1.08-.785.775a.264.264 0 0 1-.382 0 .264.264 0 0 1 0-.382l.785-.785-.272-.273a.264.264 0 0 1 0-.382.264.264 0 0 1 .381 0l.273.273 1.92-1.92c.11-.11.273-.11.382 0 .109.098.109.273 0 .382ZM38.607 50.618l-2.53 2.52a.264.264 0 0 1-.382 0 .264.264 0 0 1 0-.382l2.52-2.52-1.375-1.385a.264.264 0 0 1 0-.382.277.277 0 0 1 .393 0l1.374 1.375 2.597-2.597-1.124-1.112a.284.284 0 0 1 0-.382c.11-.11.284-.11.393 0l1.113 1.112 1.44-1.44-.96-.96c-.099-.109-.099-.283 0-.381a.274.274 0 0 1 .392 0l.96.949 1.55-1.55-1.124-1.112a.284.284 0 0 1 0-.382.276.276 0 0 1 .392 0l1.113 1.113 1.167-1.167c.11-.11.273-.11.382 0 .11.109.11.283 0 .381l-1.167 1.168.654.654a.264.264 0 0 1 0 .382.264.264 0 0 1-.381 0l-.655-.644-1.549 1.55.218.218c.11.098.11.272 0 .381a.264.264 0 0 1-.382 0l-.218-.218-1.45 1.44.643.644a.277.277 0 0 1 0 .393.264.264 0 0 1-.382 0l-.643-.644-2.597 2.596 1.56 1.56c.11.099.11.273 0 .382a.264.264 0 0 1-.382 0zm-6.403-27.523 1.974-1.964-1.036-1.037a.276.276 0 0 1 0-.392.3.3 0 0 1 .098-.055.3.3 0 0 1 .295.055l1.025 1.036.556-.545a.264.264 0 0 1 .382 0c.11.109.11.283 0 .381l-.545.557.807.807 1.986-1.974-.12-.12a.264.264 0 0 1 0-.382.27.27 0 0 1 .185-.087.3.3 0 0 1 .196.087l.142.142c.11-.044.218-.055.306.032.076.088.076.197.032.306l3.251 3.24c.11.109.11.283 0 .393a.264.264 0 0 1-.382 0l-3.229-3.23-1.974 1.986.513.502a.3.3 0 0 1 0 .392.277.277 0 0 1-.393 0l-.557-.567c-.098 0-.152-.022-.207-.076a.22.22 0 0 1-.076-.207l-.873-.862-1.964 1.974a.277.277 0 0 1-.392 0 .277.277 0 0 1 0-.392ZM18.786 5.77v-.817a.27.27 0 0 1 .272-.273.27.27 0 0 1 .273.273v.818h2.858V4.92a.27.27 0 0 1 .273-.273.27.27 0 0 1 .273.273v.85h3.327v-.85c0-.142.12-.273.273-.273.141 0 .272.131.272.273v.85h4.026v-.948a.27.27 0 0 1 .273-.273.27.27 0 0 1 .272.273v.949h3.633V4.735c0-.142.12-.273.273-.273.141 0 .272.13.272.273V5.77h2.379a.27.27 0 0 1 .272.273.27.27 0 0 1-.272.272h-2.379v1.026c0 .153-.13.273-.272.273a.27.27 0 0 1-.273-.273V6.316h-3.633v.95a.27.27 0 0 1-.273.272.27.27 0 0 1-.272-.273v-.949h-4.026v.84c0 .153-.13.273-.272.273a.27.27 0 0 1-.273-.273v-.84h-3.327v.851a.27.27 0 0 1-.273.273.277.277 0 0 1-.273-.273v-.85h-2.858v.807a.27.27 0 0 1-.273.272.27.27 0 0 1-.273-.272v-.808h-3.032v.786a.277.277 0 0 1-.273.273.27.27 0 0 1-.273-.273v-.786H12.12a.277.277 0 0 1-.273-.272.27.27 0 0 1 .273-.273h3.087v-.796c0-.142.12-.273.273-.273.142 0 .273.13.273.273v.796zm-1.648 57.48h3.371v-.566a.27.27 0 0 1 .273-.273.27.27 0 0 1 .273.273v.567h2.727v-1.31a.27.27 0 0 1 .273-.272c.141 0 .272.12.272.273v1.309h2.433v-1.222a.27.27 0 0 1 .273-.273.27.27 0 0 1 .272.273v1.222h.786a.27.27 0 0 1 .273.273.277.277 0 0 1-.273.272h-.786v1.32a.27.27 0 0 1-.272.273.27.27 0 0 1-.273-.273v-1.32h-2.444v1.222c0 .142-.12.273-.272.273a.285.285 0 0 1-.273-.273v-1.222h-2.716v1.746c0 .142-.12.272-.273.272a.277.277 0 0 1-.273-.272v-1.746h-3.37v1.691c0 .142-.12.273-.273.273a.277.277 0 0 1-.273-.273v-1.69H13.69v2.061a.27.27 0 0 1-.273.273.27.27 0 0 1-.272-.273v-2.062h-2.717a.277.277 0 0 1-.273-.272c0-.153.131-.273.273-.273h2.717V62.4a.27.27 0 0 1 .272-.273.27.27 0 0 1 .273.273v.85h2.902v-1.035a.27.27 0 0 1 .273-.273.27.27 0 0 1 .272.273z"/><path fill="#bc8f35" stroke="#bc8f35" stroke-width=".5" d="M62.586 10.484c.076.109.076.25-.011.338-.033.022-.055.022-.088.043.971-.196 1.8-.436 2.673-.894a.22.22 0 0 1-.153-.066l-.905-.894-1.462 1.45c-.022.023-.033.012-.054.023Zm-50.87 48-.054-6.426-3.895.066c-.01 2.301-.043 4.603-.065 6.916 1.254-.37 2.705-.513 4.014-.556Zm1.375-28.255-5.106.055-.098 9.294 4.866.087zm33.84 38.99h.294l-.141-.143zm-6.807-50.597c3.13.796 6.01 2.52 8.083 4.898l.578-4.8zm-10.55 2.356.186.175.524-.524c-.24.11-.48.218-.71.35Zm-3.894 1.32c2.127-1.822 4.647-3.13 7.298-3.753l-7.265-.076zm34.735 7.953-.251 9.61 4.538.023c.033-3.23.022-6.47-.022-9.72zm-.12 36.436 1.45 1.451s0-.01.011-.01l1.266-1.277L61.57 65.4zm.447-58.069 1.494 1.484c.011 0 .011-.011.011-.022l1.462-1.462-1.484-1.483zm.01 49.79c1.037 0 2.303 0 3.36.163.12-2.182.208-4.375.295-6.546l-4.45-.087-.557 6.47zm-3.02-49.834 1.145 1.145 1.102-1.102-1.145-1.145zM22.68 27.633l.142-.142-.044-.044c-.032.066-.065.12-.098.186Zm2.367-3.208a16.6 16.6 0 0 0-1.974 2.553l.13.131 2.259-2.269zm-1.843 3.448-1.299 1.298a2 2 0 0 0-.087.207c-.087.197-.152.404-.218.611l1.91 1.91 1.82-1.834c.034-.021.066-.021.1-.032a.3.3 0 0 1-.11-.044zm-2.957 21.043.066 3.066a.26.26 0 0 1 .382 0l.207.207 1.69-1.68c-.021-.01-.054-.01-.065-.033l-1.92-1.909zm.088 3.84.185-.185-.196-.197zm.12-17.803 2.661-2.662-1.723-1.735a23.4 23.4 0 0 0-.993 4.342zm0 22.985.72-.72-.753-.753zm-.033-13.756-.284-.284c0 .022.011.415.011.556zM19.375 58.45l-.153-6.535-6.47.12.055 6.426h.71zm1.145-18.97-.404-.404s0-.01-.01-.01c0 .283-.011.567-.011.84zm-.218-3.6a40 40 0 0 0-.186 2.814.264.264 0 0 1 .382 0l.404.404 1.505-1.494c-.043-.022-.087-.022-.12-.055l-1.832-1.833zm-2.706-18.6a9.86 9.86 0 0 0-.032-5.16c-.011-.065-.022-.142-.011-.207-3.24-.033-9.393-.077-9.393-.077-.022 1.778-.033 3.557-.055 5.335zm7.026 1.167-16.527-.185-.099 10.93c.142 0 12.622-.13 12.775-.12.905-2.236 2.247-4.177 3.895-5.825-.12-.207-.055-4.527-.044-4.8Zm-5.978-6.523c.469 1.767.48 3.6.054 5.367l6.175.076a.48.48 0 0 1 .294-.098c.12 0 .218.044.306.098l10.036.12-.01-5.334c-6.208-.077-10.888-.153-16.855-.23Zm.36 27.861c.01-1.123.054-2.247.141-3.37 0-.033 0-.044.011-.077.175-2.094.546-4.178 1.222-6.185l-6.196.065-.338 9.47zm.196 11.04c-.164-7.396-.196-8.301-.196-9.949l-5.553-.109a.5.5 0 0 1-.175.033h-.021a.4.4 0 0 1-.164-.033l-5.215-.098-.098 10.364zm36.687 16.648-1.363 1.374c-.033.033-.077.033-.11.044.022.054.044.098.033.153.993-.022 1.997-.055 2.99-.077-.033-.022-.077-.022-.11-.054zm-1.396-49.778 9.862.12a300 300 0 0 0-.295-6.219c-2.694.83-5.803.698-9.753.688zm-2.585 33.01 7.276.131a.57.57 0 0 1 .327-.087q.148.017.262.098l4.669.087c.12-3.327.207-6.643.25-9.96l-12.457-.043c.022 3.262-.098 6.524-.327 9.774Zm1.309-38.421c-1.473-.011-11.444-.066-16.626-.12l.011 5.334 12.633.142a.45.45 0 0 1 .24-.033l.098.033 3.829.044zm-1.43-1.102c6.753.043 8.444.076 10.539-.295-.055-.01-.11-.022-.142-.065L60.36 9l-1.102 1.102.491.49c.11.11.11.284 0 .393-.109.099-.284.099-.382 0l-.687-.687-1.342-1.342-.992 1.004c-.099.098-.273.098-.382 0a.277.277 0 0 1 0-.393l.992-.992-.316-.317a.264.264 0 0 1 0-.382.277.277 0 0 1 .393 0l.316.317 2.695-2.706a.276.276 0 0 1 .392 0c.099.11.099.284 0 .382l-1.221 1.222 1.145 1.145 1.484-1.483-.186-.197a.264.264 0 0 1 0-.381.264.264 0 0 1 .382 0l.185.185 1.059-1.047a.264.264 0 0 1 .382 0 .264.264 0 0 1 0 .382l-1.048 1.058 1.484 1.483 1.418-1.429a.284.284 0 0 1 .382 0 .277.277 0 0 1 0 .393l-1.418 1.418.905.906c.087.087.087.196.033.305 1.462-.829 2.694-2.138 2.553-3.61-.164-1.659-2.019-2.914-3.786-3.426-2.782-.818-1.09-.622-52.778.382-1.931.043-3.927.087-5.553 1.047-1.44.85-2.574 2.825-1.942 4.385 1.08 2.695 1.07 2.302 47.87 2.575Zm-1.734 47.236a128.3 128.3 0 0 0 1.025-21.774c-.109-3-.349-6.459-1.745-9.448-2.018-4.352-6.6-7.385-11.51-7.887a13.8 13.8 0 0 0-2.77-.01c-.611.065-1.222.163-1.822.316-.545.12-1.102.283-1.647.48l-1.44 1.44 2.007 2.007 1.026 1.036c.109.098.109.273 0 .382a.264.264 0 0 1-.382 0l-3.033-3.033-1.462 1.462a.3.3 0 0 1-.392 0 .3.3 0 0 1 0-.393l1.461-1.461-.196-.197a.24.24 0 0 1-.055-.12 17 17 0 0 0-3.698 2.815l1.986 1.974 1.658-1.669c.109-.098.284-.098.382 0a.277.277 0 0 1 0 .393l-1.658 1.658 2.061 2.062 2.695-2.684a.264.264 0 0 1 .382 0 .264.264 0 0 1 0 .382l-2.695 2.695.066.065a.264.264 0 0 1 0 .382.264.264 0 0 1-.382 0l-.066-.066-.556.557a.264.264 0 0 1-.382 0 .264.264 0 0 1 0-.382l.556-.556-2.061-2.062-1.211 1.2a.264.264 0 0 1-.382 0 .264.264 0 0 1 0-.382l1.2-1.21-1.156-1.157-2.27 2.258 2.117 2.116c.109.098.109.273 0 .382-.022.022-.066.022-.087.033.032.01.076.022.109.054.098.098.098.273 0 .382l-1.822 1.833.163.164c.099.098.099.272 0 .381a.277.277 0 0 1-.392 0l-.164-.174-2.662 2.672 1.822 1.822c.044.044.055.099.066.142.098-.065.24-.065.327.022a.277.277 0 0 1 0 .393l-1.767 1.767 1.603 1.604c.11.109.11.283 0 .392a.264.264 0 0 1-.382 0l-1.614-1.614-.6.61a.26.26 0 0 1-.197.077c-.01 0-.01-.01-.021-.01 0 .872.021 1.723.032 2.563l.688.687 2.487-2.476a.264.264 0 0 1 .382 0 .263.263 0 0 1 0 .381l-2.477 2.488 1.222 1.222a.284.284 0 0 1 0 .381.276.276 0 0 1-.392 0l-1.222-1.221-.404.403c-.098.098-.153.077-.24.066l.055 2.476c.065 0 .13.022.185.076l.207.208 2.64-2.64c.11-.11.273-.11.382 0 .11.109.11.283 0 .382l-2.64 2.64 1.92 1.92c.022.021.011.043.033.065l.643-.655a.3.3 0 0 1 .393 0 .3.3 0 0 1 0 .393l-2.683 2.673 1.385 1.396c.11.098.11.273 0 .382a.264.264 0 0 1-.382 0l-1.385-1.385-.513.501c-.01.022-.033.011-.044.022l.044 2.193 1.156 1.156 2.259-2.258a.276.276 0 0 1 .392 0c.098.098.098.273 0 .382l-2.269 2.258c.11.11.11.284 0 .393a.26.26 0 0 1-.185.076.28.28 0 0 1-.197-.076l-.84.84zm1.102 10.702 1.363-.033c.448 0 .895-.022 1.342-.032l-1.429-1.43c-.098-.098-.087-.24-.01-.349l-1.484 1.484.152.142a.28.28 0 0 1 .066.218Zm1.385 1.058c-2.149.055-43.789 1.058-46.036.415-1.79-.502-3.186-1.648-3.84-3.12-1.222-2.782.556-6.164 3-7.582a7.5 7.5 0 0 1 .949-.458c.142-15.906.305-31.8.458-47.695-1.898-.24-3.502-1.058-4.167-2.716-.862-2.16.578-4.658 2.4-5.738 1.876-1.102 4.113-1.157 6.087-1.2C62.836 1.08 61.462.85 64.495 1.745c1.287.371 2.389.982 3.185 1.746.785.764 1.287 1.658 1.375 2.618.218 2.27-1.757 4.135-3.928 5.073.895 16.145.917 31.734.066 47.618.305.087.61.185.927.316 4.79 1.92 4.745 7.615.284 9.808-2.237 1.112-3.917 1.025-13.866 1.254Zm-1.276-40.833 13.407-.272a399 399 0 0 0-.273-10.168l-14.509-.163-.73 5.978c.447.644.84 1.31 1.156 2.018.403.84.698 1.724.949 2.607Zm-.71 39.022 3.524-3.523c.11-.11.284-.11.382 0 .11.109.11.272 0 .381l-1.985 1.997c.098-.077.25-.077.338.01l1.298 1.299c.011-.022 0-.055.022-.066l1.374-1.374-.621-.622a.264.264 0 0 1 0-.382.264.264 0 0 1 .382 0l.621.622 2.739-2.749a.3.3 0 0 1 .392 0 .3.3 0 0 1 0 .393l-.72.72-2.029 2.018 1.44 1.44c.12.12.131.338-.098.425.807-.022 3.262-.076 4.08-.12-.011 0-.022 0-.033-.01l-1.756-1.757-.764.753a.264.264 0 0 1-.382 0 .264.264 0 0 1 0-.382l.764-.764-1.102-1.09a.276.276 0 0 1 0-.393.284.284 0 0 1 .382 0l1.102 1.102 1.287-1.288c-.076-.109-.087-.262.011-.36s.25-.087.36-.01l.938-.939a.277.277 0 0 1 .393 0c.109.098.109.273 0 .382l-.938.938 1.45 1.451 1.419-1.418-.83-.83c-.097-.108-.097-.283 0-.381.11-.11.284-.11.393 0l.83.818.545-.545c.11-.11.284-.11.393 0 .109.098.109.272 0 .382l-.557.556.557.556a.264.264 0 0 1 0 .382.276.276 0 0 1-.393 0l-.545-.556-1.419 1.418.328.338a.264.264 0 0 1 0 .382.264.264 0 0 1-.382 0l-.338-.327-1.266 1.265c-.022.011-.043.011-.054.022.043.098.043.207-.033.294 1.32-.087 2.673-.283 3.873-.883 3.534-1.735 3.774-6.218-.219-7.822-1.527-.622-3.163-.622-4.952-.622l-47.237.055c-1.974 0-4.21 0-6.163.752a6 6 0 0 0-1.146.535c-2.029 1.178-3.534 3.938-2.542 6.185.513 1.179 1.67 2.106 3.142 2.52 1.8.524 38.248-.283 39.338-.305l.546-.545-.382-.393a.264.264 0 0 1 0-.382c.11-.11.284-.11.382 0l.393.382 3.36-3.36a.264.264 0 0 1 .381 0c.11.098.11.273 0 .382l-3.36 3.37.448.437c.01.022.01.043.022.065l1.974-.043a.25.25 0 0 1 .077-.219l.174-.174-.72-.73a.264.264 0 0 1 0-.383.264.264 0 0 1 .382 0zm.972-37.93c.447 2.094.567 4.221.643 6.163.044 1.08.033 2.16.055 3.23l6.85.032.252-9.59zm.305 21.36a148 148 0 0 1-.687 6.621l7.167-.01.556-6.48z"/></svg>