<svg xmlns="http://www.w3.org/2000/svg" width="536" height="743" fill="none" viewBox="0 0 536 743">
  <g fill="#b2b1ae" opacity=".5">
    <path d="M243 813c-1-2 4-8 4-10v-6q2-2 1-5 2-5 1-11 2-3 2-8 1-2 4 0v-1q1-2-1-4-1-2-5-2h-1l-3 6-1 9-5 21c-1 4-3 2-4 2v-1l-1-1 1-1-2-1q3-6 0-12 2-3-1-6 2-2 1-3l-1-2q3-3 2-7 4-9 3-18 2-6-3-7-8-2-9 6l-4 20q2 3-1 5-2 2 0 4 3-1 3-3l2-12 5-17q2 2 1 4t-1 6l-2 6q-2 3-2 7v4l1-1 1-3 1-8 3-6v-6q1-2 3-2l1 2 1 1-4 17q-3 4-1 8-2 2 0 2-2 1 0 4-3 2 1 5-3 6 0 12l1 2v2q0 3 3 5 4-1 4-4l1-5 3-10 1-5v5c1 0-1 2 2 2q-4 2-1 5l-3 4-3 12m12-15q4-12 2-26v1l-4 22-5 14v-1l-2 5 2-4m32 10 16-30 9-11q11 4 22 12 3 6 8 9 6 6 13 8 7 1 10-5 0-5-4-6l-9-7q-3-2 1-2l30 16 9 1 4-3 1-1q8-7-2-10l-8-1q-4-1-5-4c0-4 3-2 5-2l9-1q2-1 1-2c5 1 14-1 17-5v-1l-17 6v-1h-29l-2 1q0 2 2 3l26 10q6 1 1 6l-8-4-9-4q-7-1-14-6-3-4-8-5c1-2-2-2-1-4 0 0 4 0 1-2-4-3 0-2 1-3l2-1 2-1 3-1 2-2 3-1 1-2h2l9-6h-6l-2 4-3 1-2 1-3 2-2 1-3 1-2 1-2 1q-5 3-12 4-3-2-6 0-4-3-7 0h-4v-3l3-3q5 1 7-5 4 1 6-5 2 1 3-2 3 1 4-2 5-3 11-2l-7 7q-4 0-7 4-4 1-3 3 1 3 4 2h1q4 0 6-5l2 1 8-4 4-1 3-1h3l1-1 1 1q1-3 3-2 4-2 6-5-7 1-15 5l-3 1h-1l-3 1h-4l1-3 1-1q4-4-2-4-7-3-15 1l-2 1-5 3-10 6 1 2 10-7 5-2 2-1-1 3q-2-1-2 2-4 1-7 5-4 1-6 5-4 0-7 3t-7 1l8-7 5-2-1-2q-2 2-3-1 12-17 19-36 2-6 8-3 5 1 9 4 13 8 29 14c11 3 12 2 12-10q-2-4-8-6-2 0-3-3 2-2 5-1l9 2 28 4q6 1 7-6 2-5-5-8l-6-2q-3 0-3-2l2-2 17-6-1-1q-2-2 1-3 3 0 4-3 2 1 2-1h2l2-1h2l2-1q2 1 2-1-1-2-2 1h-2q-2-2-2 1-2-2-2 1-2-2-2 0-2-1-2 1l-7 1q-7 4-16 4h-2l-3 2-2 1c-2 1-5-1-6 2h-2q-2-1-2 1h-2l-2 1h-2l-3 1q-1-2 2-3l2-3q3 0 3-2l5-4-1-1-5 4-2 2q-9 7-19 10h-9l1 2h3l5-1 2 1q18-2 34 7l3-1q3 3 6 2 2 2 5 1l2 2q-1 2-3 1l-23-3-18-3q-9-1-18 2c8 5 18 5 26 12q-1 5-6 3-13-4-22-13-4-3-9-4l7 5 12 10 12 5q-8 0-13-3l-14-7q-8-6-18-9l21-6 6-1-1-2-5 1h-6l1-3v-2q-8 6-17 9c0-3 4-4 4-6q4-1 7-5l-1-2-7 7q-3-2 0-4l9-32 1-4-2 4-5 8q-2 2-3 0l1 2q-3 2 0 3-3 8-3 14l-6 19-2 6c-5 6-5 13-10 19l-9 14-14 20-7 12q0-5 4-9l3-7q4 0 4-4l8-13 9-14 7-12 2-8 3-5-1-2 1-1q1-2-1-2 3-2 1-5 2-1 0-3 3-5 1-8 3-18 9-35l11-38 2-7q2-2 3-7l1-3v-3l1-3 1-4q3-2 2-6l-3 6-1-1 2-7 9-59 5-13q-2-2-1-5v-1l1-5q4 2 3-2 1-3-1-5 3-5 3-12 1-6 4-10c-3-2 0-3 0-5l-2 1v-2q-1-4 1-6-2-3 1-4-2-6 1-12l1-5q-1-8 3-14l1-1c-4-4-1-8-1-11v-2l1-5 2 1q1-1-1-3l2-11c2-1 1-6 5-3q-1 13-6 25h2q-4 7-3 14 0 5-5 10 2 2-1 5 3 6-1 12 2 2 0 4 1 3-2 6l2 1q2 3 0 5v4l-3 23-3 12-7 28q-1 3 2 2v-1l1-1-1 3v10l-6 30-9 41v3h-1v5q1 5-2 11l-3 15v2h1v-1l4-12 16 3 6 4q9 6 19 8 3 3 8 1 9-2 8-9-2-5-6-5l-12-3-2-2 4-1q17 5 33 4 9 0 10-8v-4q-3-4-8-3-6 1-11-1l2-2q18-6 32-18 5-3 0-7-9-5-16 1-12 5-22 12v-3q3-3 2-6-3-4-8-3l-4 3-14 10q-2 3-6 2l5-7q3-4-2-6l-6 1q-8 2-12 8l-12 15-1-3 8-39c1-3 0-8 5-10q6 0 11 3l3 1q8 5 17 6l-1-3-1-1-5-4-3-1v2h-2l-15-6c-6-3-6-3-3-9l27-27c1 3-2 4-1 6l4-4q1-2 4-2c3 1 0 3 0 4l1 2c2-3 5-6 1-9q-4-5-9 0l-12 10q-7 10-15 17l2-20 3-23q0-5 6-4 7 1 13 4l32 7q4 2 6-4 2-5-3-8-3 0-5-4 17-1 33-5 8 0 6-8-3-3-7-3h-8l-4 2q-2-3 0-4h3l2-1 7-3 14-6q6-2 6-7-1-5-9-6l-2 1h-2l-2 1-2 1-21 11-2 1c-2-1-4 2-6 0l7-7q5-2 3-6-3-4-7-4-4 1-5 3l-18 18q-2 4-9 6 6-8 9-16-11-2-17 6-4 8-12 13v3l-1-1 1-2 1-15q0-9 7-13l4-1h1l2-1 5-2q10-8 21-5l8-1 18-5 11-7q3-1 1-4t-4-1l-6 2-2 1h-2q-4 1-2-2 5-4 12-5l19-4q9-5 7-15l-2-2q-4 0-6 4-1-2-4-1l-1 1-2 1-4 1 2-3v-1 1h1q1-2 2-1 3-5 8-8l12-11q5-3 5-9l-3-5q-3-1-4 2l-6 4q-12 7-21 18-2 3-8 5l5-9q2-3 0-5-3-2-7 0l-7 9c-5 12-16 21-25 31q-3 3-7 3l14-22q3-3 0-6t-7-2q-12 9-15 23l-3 5 2 1 3-7q3-10 12-16l-10 17-2 5q-1 2-3 1l-2-1q-4 7-13 12-1-6 1-12 3-13 4-27 0-4 5-4 9-1 17-6 13-8 28-7 6 0 11-4 6-4 0-9-2 1-1-2l3-1 23-9 4-5q2-7-6-5-3 0-3-3l3-2 13-14 2-3q2-2-1-3-2-2-3 1 0 3-4 5c0-3 4-3 4-5h-2l-16 9q-9 6-16 15-2 6-10 9l6-15-4-1q-4 1-7 6-8 12-21 19l-6 4-7 5-8 5c3-11 3-22 9-32l19-14-1-1-12 7q-4 2-6 5l-1-2-1-1v-4l3-4q12-13 30-19l3-1q-1 2-3 2l-1 3q-4-1-5 2-5 0-5 4-4-1-3 2-2-1-3 2-2-1-3 2-3 0-3 3-4 0-4 3-4 2-6 5l1 1q4-2 5-6l2 1 2-4q3 0 3-3 3 1 3-2 2 1 3-2 2 1 3-2 4 0 5-4 4 1 5-2 7-1 10-7 3 3 5-2 4 2 5-3 4 1 7-2l12-2-1 1-2 1-3 1q-11 9-26 14l-5 3-6 5 1 2 6-5 18-7q12-10 25-12l3-1q4-1 5-5-1-6-6-7-2-1-5 1-9 5-20 5l-11 5q-9 7-20 11-12 6-22 17-2 1-2-2l1-6q2-7 8-12 6-3 10-8 6-7 15-8l15-3q8-1 12-8 5-6-4-7-2 1-5-1l7-6q8-5 4-14l-2 1-3 3-1-1-3 4h-1q-6 10-15 15v2q2 3 6 4l11-4c2 3-3 3-1 5-2 5-7 4-11 5-7 2-14 1-20 5l1-4q3 0 4-2 6 0 6-7-7 3-10 9-6 2-8 6-3-1-3 2-3-1-3 2-1-2-2 0-2 0-3 2l-2 2c-3-3-1-6-2-8h-1 1l1-4v-3l-1-1 2-6-1-1q3-2 1-6 3-4 2-9 3-3 0-4 4-7 4-15l2-7q3-15 11-28-4-6 2-7l6-4 3-2 3-1q0-2 2-1l-2 2q-1 2-3 2l-2 2-3 3q-3 0-3 4 3-1 3-3l4-2q1-2 3-2 1-2 3-2l4-4c5 0 9-3 14-1l-4 4q-6 2-14 2l-3 1-2 3-11 13q-5 3-3 8-4 6-5 15-2 3 0 7 4 0 7-4l16-14q7-5 15-6l1 1-1 1-2 1q-2 0-2 2h3l6-2v1l-29 19-5 10-11 13-2 2-1 1-5 9h1l-1 5v5q2 5 7 1 3-2 4-6 3-6 9-7 14-3 20-16l11-9h1q2-2 5 0l2-1q0-4-4-3l-4 2q-9 3-13 10-7 11-20 14-7 2-10 8 0 3-4 5-2-3-1-7 1-6 5-10 7-6 13-14 2-7 8-11 10-8 22-14 5-2 6-8-2-5-10-5l-4 1q-7 2-12 6-10 7-18 15v-9q2-3 2-8l10-11q7-12 20-13h3q6-2 5-7-2-5-7-4l-9 1q-8 1-14 7-2 2-2-1 8-14 23-20l8-4q4-5 2-9-1-6-7-4l-11 7q-3 2-3-1c8-18 5-14 21-21l7-4q3-1 2-4 0-3-4-4l-9 1c-2 0-5 3-6 0q-1-4 2-7 1-3 4-4 13-5 22-14 7-4 6-13-1-5-5-3l-7 4-5 4c-3 1-1-2-2-3l5-7v-2l1-2q2-6 6-10 5-3 9-8 4-8 10-11 11-7 11-18 0-3-2-3-5 0-6 4l-2-1-2 4c-1-1-2 2-3 0q-1 4-3 3 0-2 3-3l3-5 5-8q3-3 4-8l-2-1-3 3q-3 1-2 4l-2 1q5-6 8-13v4l-1 1 2 1v-2q3-2 3-5l14-11 9-12-2-1-4 1-2 1v1l2-1c-1 8-2 8-8 9q-7 4-11 12l-2 1v1h-1q-1 2-5 2-1 6-4 10l-2 2-1 1v2l-5 10c-1-4 3-6 2-10l-11 21c3-1 2-4 6-6l-5 9-6 8c-1-2 2-4 0-6l-3 9-2 6q0 2-4 3-3 0-1-2h-1l-2-3q-1-4-4-4-4 0-6 6v3l1 6q1 12-2 23 1 4-3 3-1-6-6-13-1-3-4-4-4 1-5 6l-1 5 1 15c1 9-1 23-5 29l-3-6q-3-7-9-11-3-3-6-2-3 2-2 6 0 3 3 5l6 9h1l1-1 5 3 1-2q-2 0-1-2-3 0-4-2-2-4-6-5l-3-7q8 3 13 14 2 1 1 2l5 5 1 2c1 4-6 3-4 7q2 4-1 10l-2 7v1-1l-3-5v-1q6-6 2-11t-3-11l-2-3h-1v6q1 1-1 4l1 1-2-1-1-3-3-7q-2-4-6-5-5-2-7 4l4 8q9 7 16 18l1 5q3 5-2 8l-6-2c-5-4-6-11-11-16l-9-11q-4-7-9-8-6 2-3 7 0 12 9 17 7 6 8 15l4 2q0 3 2 3 2-3-1-3-3-11-10-18-6-5-9-11-2-3 1-3l-4-2 3-5 4 5 9 12-7-3 5 6q2 2 4-1l4 7q-2 1-1 3l8 9 1-2q4 3 8 1l5-3c1 4-3 6-2 9q-1 4-4 6-1-4-3-4 0 3 2 5v1l-1 4v1l-1 1-3 10v1l-3-1v2q3 6 1 12-1 7-4 12c-3 4 1 8-1 12l-1 8v4l-2 1v-1l-1-2-1-2v-7q1-9-4-16-5-8-17-5-9 5-13-5h21q11 5 18 14 2-5-5-8l-15-10q-6-3-6-11 13 9 27 16 1-7-3-13t-10-10c-10-6-13-17-17-27q0-2 3-1l3 2v-3h3l7 7 9 10v1q5 5 12 5-2-7-8-10l-1 1q-5-1-6-6-4-2-6-6-6-7-14-5-6 1-3 8l1 4q3 13 13 20 7 6 12 13 2 2 0 4-5-1-10-6-7-4-12-11-2-3-5-3-6-2-4 4l4 7q4 4 3 10h-10q-6 2-4 6 4 8 12 8l7-2q8-3 13 6 3 6 3 13l1 4v6q1 3-1 4-8-8-18-15l-5-2q-6 1-10 5-1 6 3 9l8 5q10 4 14 13 1 3 5 4 7 7 4 19-6-7-13-12-11-6-20-15l-6-4q-6-3-10 1-3 4 0 9 3 6 10 11 7 7 16 13 9 4 12 13l7 16q-1 3 3 5l1-3c-1-1 1-4-2-4l1-3q3-1 5-6 1 7-4 13v4l1 1-1 1-1 2v-2l1-2-1-1q-4 5-3 11l-3 9-3-5-1-3-1-1-3-7q-13-28-36-51l-4-3c-6-5-13-7-17-14h-3l-1 2 2 7 11 17q4 3 5 10l-7-4h-3v3l5 9q2 9 10 15l21 13 16 15 1-1q3 1 2 3 2 0 3 2 3 4 1 7l-2-1v-2 2q-1 3 2 4l-2 7-3 25q1 3-3 7l1-1h-1v1l-1 1v2-2l-1-1 2-1-1-6-3 2-10-6h-1q-3 1-5-2-3-3-6-1-3-3-4-1-2-3-4 0c-3-3-7-2-9-5h11q1-3-1-4l-1-2-20-22-11-16q-1-5 3-5l5 3q8 5 12 12l8 12q1 2 3 1 0 7 7 9c3-3-1-5 0-8l4 2h2l-3-7q5 1 7 5l4 4q-1 3 2 3-2 3 2 4l-2-4q1-3-2-3-1-7-6-10-3-4-8-2-4 2-4 6-1 2-3 1l-9-15q-5-8-13-14-6-4-11 0-3 4 1 9l1 2q7 12 16 20l13 15c-7 2-12-2-18-1q4 13 15 17l23 9 12 12q4 3 3 6l-6 31q1 4-3 6l-3-1q1-3-2-3 2-4-1-6l-1 1-3-1q-2-4-8-6l-6-9-1-2q1-1-2-3v-2l-1-2v-2 2l1 2v2q0 3 2 3l1 2v2l-1 3-4-2q-3-4-8-6l-16-9-4-4-4-1-9-8-9-14q-1-2 1-4 3-1 4 2l23 22q4 7 10 10 3 3 6 2 2-3 1-6l-1-4-4-14c3-1 2 4 5 4l1 3v-3q2-2 3 0 0 2 2 3l-1 1 1 1h-1q3 1 4 4l2 4 7 17h2c0-3-3-6 0-9l-1-1h2v1h-1q4 1 4 5l3 5v6l1 2-1-2v-6l1-1c3-3-1-6-1-9q1-3-3-4-4-3-9 2l-3-7-2-4-3-6-2-2q-2-6-8-8-7 0-5 5l5 14 1 3q0 4-3 3l-8-7q-12-14-26-27l-1-2q-6-2-7 3t2 9q10 16 25 26 9 9 0 15c-6 3-6 3-5 8l2-1 2-4 1 3h3q-1-4 3-4l5-2q2 0 3-2 2 2 3 0h3l2 1 2-1 11 5 6 4c-2 2-4 0-4 2q2 3 6 2l2 1 4 2q0 2 2 3c-2 2-4-1-6-1q-9-4-17 0l-10 2q-2 2-2-1h-1q-1 3-3 0v-3l5-3 2-1 4-1h4q0-7-6-5-1-2-4-1-6-1-10 2l-4 1-3 1h-3l-2 1q3 4 7 2 7-4 16-5h2l1-1q3 1 2 4l-2-1-2 2h-2q-7 1-8 10l-2 1q-10-1-7 7l2 5 2-4q-3-1 0-3l-1 1v-2h1q6-1 5 4l3 2q-1 3 2 5 0 3 2 2-2 3 1 4l1 2q-1 2 1 3-1 4 3 6v2q1 5 4 5 1 1 3-1 1-2-2-6 3-1 0-3v-3c2-3-2-6 0-9 2-1 1 4 4 1q2 0 3 2l5 5q-2-8-10-11-5-2-5 2-1 7 3 10-2 2 0 3v3q-1 6-4 2 1-1-1-2 1-4-3-7 2-1-1-2 2-1 0-2 1-2-2-4l-2-3q1-3-2-4c1-3-3-5-2-8q9 1 18-3 7-2 16-1 6 3 10 9l-6 30-2 13-1 2c-2 3 0 8-2 11l-1-1q-1-3-4-3l-1-7-1-1c-4 3-5-1-7-2l-4-3q-1-7-9-9 2-4-3-4 1-2-1-2v-2q0-4-3-5 2-3 0-6l-1-2v-2q2-1 0-3v-1 1q-2 2-1 3l1 2q-2 2 1 2-2 3 0 6 0 3 3 5-2 1 0 2l1 2c-4 1-5-3-7-4-4-3 0 2-1 2l-2 1-4-1h-5l-21-1 5 3q-5 1-9-2l3-2-3-2q-4-2-2-5 2 1 3-1 3 3 8 3 7 3 14 3l1 1v-5l-17-20q-6-5-6-8 0-8-6-11v-2 2q-3 1-4-2l-1 2 29 37q3 1 2 4-10-4-20-4-1-2-3 1-4-2-3 3 1 4 4 6c4 6 10 5 15 5l20 3q4 0 6 4c-2 1-5-2-7 1q-2-2-4-1 1 2 4 1l5 1q4 1 4 4h-7l-3-1-2 1h-3q-2-1-3 1-2-1-1-3l3-3q-3 0-4 3-2-1-2 3t4 4q9 3 19 3 17 2 30 14v4q-3 24-10 48v2h-1l-2 2c2 5-1 9-1 14q-6-5-13-7-13-4-23-13-3-2-5-6c4 1 8 6 12 5l-11-6q-2-1-2-3 2-2 4 0l7 4q2 2 3 1 2-2 1-4t-1-4l3 2q2 4 5 4l3 4 2 3 3 4-5-3v1q-5-3-11-3 4 3 10 4l13 7 2 4 2 1-1-2-2-4q-1-3-4-5v-3l-1 1-8-5q1-3-3-4 0-3-4-4c-1-4-5-6-3-11l-2-1c-3 1-3-3-6-4l-2 2q-9-3-15-10l7 5q4 3 8-2c-2-3-1-7-6-7l-1 1q3 2 2 7l-11-6q-5-1-5 5 0 4 3 4 1 3 5 5l14 7q5 2 6 7l-8-4q-3-2-6 0t-2 6l2 4q-8 0-8 7l1-1-1 1-1 3 1 2v2q-2 1-2-1l-1-2-2-5q-1-2-3-1 2 3 1 6 2 1 1 2 4 3 3 7 4 1 3 3c4 3 3-1 5-2q-3-7-4-15l2-2q6 8 2 17l1 3q-1 2 1 3l1-2-1-1c2-2-1-5 3-5l-1 6q1 14 9 25l3-11q1-6 4-11 2 3 6 4-1-6-6-4-6 2-6 9 1 3-2 6-5-10-5-22l-1-5c1-5-2-9-1-14q13 12 28 16 8 1 13 7l-12 40-3 7q-1 3-3 0 1-3-2-4 2-2 0-2 2-2-1-2 2-5-1-8l2-23q-2 2 0 2l-2 5q-3 8 0 16-2 4 1 8v2l1 2q-2 5 1 9c-1 2 2 4 0 7l-2-1h-1l1 1 1 2q1 5-5 6 2 5 0 9-7 18-17 33h-1q-2-4 1-9 3-15 3-30 1-3-2-4 2-2 0-2 2-2-1-2 1-2-1-3-2-6-9-3 4 2 4 6l2 1v-2c0-4 2-1 3-1q-1 1 1 2v2l1 2-4 37-1 8h-3q0-2-2-2v-6q1-5-4-4l-1-2c0-3-4-5-1-8q9-12 4-27l-2 14q1 5-3 10l-3-11v-2l-1-8-1-8q2-11 1-23v-1q-4-6-10-6-6 1-4 8v5l1 1 1 8v3l-1 3-1-2-4-7q-1-5-4-8 1-1-1-2 1-3-3-4 2-2 0-3v3q-1 4 3 4v2h-3l6 13 6 12q-1 1 1 2v-3l3-9 1-2-1-3-1-7-1-2v-5q-1-4 2-4 2 1 2 3l1 2q-1 4 2 6c-3 3-1 7-3 10v2l1 1q-2 2-1 5-2 1-1 4v4l-4-1v3l-7-4q-7-2-15-8v1l-15-9v-1q10 2 17 8h1l11 8q2-3 0-6l-16-29h-1q2-4-3-4 0 3 3 4-2 2 1 4l9 23-2-2h-1l-1-2-15-7q-3-1-6 2-3 4 1 7l1-1q-1-2 2-2l14 8 13 8q7 3 12 8l1 1q0 3 2 2 0 3 2 3l9 16 2 2q0 3-1 2-10-8-21-10-7-2-15-7-3-1 0-4l13 4 12 8q2-4-1-6-6-11-16-15l-15-8q-6-6-13-10l-1 1q6 7 14 10 6 6 14 8c3 4 9 5 10 10l-1 1h-2q-7-4-15-4-5 3-3 9 7 8 17 9 9 3 17 10l12 15 1-3-12-14c-2-4-8-4-10-8q-4 0-9-3-7-2-14-7 0-2 2-1l4 1q8 6 18 9 8 3 15 10l5 3q0 3 2 2 3 5-1 8l-1 3-7 10-27 37m119-97-1-1h3v1zm-34-39q2 0 1 2zm56-19-17-8-8-4-11-3q-3-1 0-3 8-1 14 2 11 8 22 12l8 3q-4 3-8 1m19-39 1-1 21-13c4 0 7-4 12-2 0 3-5 2-6 5q-2 0-2 2-3-1-3 2h-2q-3 0-3 2-3 0-3 2-1-2-2 1h-2l-2 1q-1-1-2 1h-2l-2 1h-3l-1 1-1-1zm-38-8v4q4-5 8-7l2 1v2l-6 7-2 4q0 3 2 3l6-3 12-9c3-2 6-1 8-5l7-1q0 4-2 5-5 4-4 10l-1 1-4 1-2 1-2 1-2 1v2l2-1 2-1 2-1 2-1h2l10-3 2-1 1-1q2 2 2-1 2 2 2-1 2 2 2 0l2-1q2 1 2-1l3-1q3 1 3-2 2 1 2-1 2 0 3-2 2 1 3-2h4l-1 1q-11 10-25 16l-6 2-4 1q-4 2-3 5l3 3 13 3q3 1 4-1 1 2 3 1v-2q-1-1-3 1l-7-3q-4 1-3-3c5 2 11 0 17 2q0 3-4 3v2l1 1h1l-1 1q-14 2-27 0l-10-2h-8q-4 1-3 3 0 4 3 4l12 2 7 2q2 1 2 3l-3 2-14-4-21-12q-2-1 0-3h2l2-1-1-2-4 2h-4l9-18c-6 6-9 16-16 21l-3 2c-1-7 9-20 21-29m13 32h-2v-1h2zm57-162 13-7 2-1 2-1h5c3-1 1 4 4 4l-3 3-12 5-3 2-2-1q0 3-3 2l-6 4-10 4-7 3q-2 3 1 4h2-2l-1 1-5 1q-1-2-3 0c-2-1-6-1-3-5q3 0 3-2h2l2-1q2 1 3-2 3 1 2-2 2 2 2 0 3 1 3-2 2 1 2-1 3 1 5-2 1 1 3-1l-2-1q1-3 5-4m-5 4-1 1-1-2zm-15-9q2-6 11-4l-3 4-8 8v4q2 2 4 1l1-1 4-2q2 1 0 3-1-1-2 1l-1-1-2 3-1-1-1 1-2 2q-3 0-3 2h-2l-2 1q-3 0-3 2h-5l3-5q5-5 7-10 1-2-1-2 4-2 6-6m-27 10q1-3 7-5l-8 13q-2 2-1 3 2 2 4 1 6-3 9-7 2-3 6-5l3-4q1 3-3 4 0 4-3 7l-8 10q7 2 13 1l3 1 1-1h9l3-2 2-2 4 2 1-4 11-1q5-1 9 1 0 5-4 3v-2l-2 1-3-1-2 1v1h2l3-1 1 1q0 3-3 2l-22 3q-4 2-9 1l-1 1h-2l-4 1q-5-2-11 3 5 2 11 2l12 2q4 0 3 3-1 2-4 1c-3 1-5-3-9-1l6 3-11-2-3-1h-4q-4 1-8-2l-12-4q-2-2 0-2 11 3 20 8-4-6-11-8c-2-1-5 1-4-3h-3l4-9zm-18 15q7-5 10-10 2-3 6-5l-6 13-6 11v1c-2-3-5 0-8 0-1-4 3-7 4-10m96-80 2 1q1 2-1 2h-5l1-3zm-10 5q-2 2-5 2 0-2 5-2m-6-6 4-1zm-42 21q11-8 18-18l4-8q4-8 12-12c-3 4-1 10-4 14v2h3l8-7 16-14 12-9c2 2-1 3 0 5h2l-1 1q-7 10-18 15l-3 3c-4-2-4 2-6 3l-1 1-4 2-2 2q2 1 2-1l2 1q-4 5 2 6l1 1-1 1h-2v1h2q9 0 18-4-2 5-7 5l-17 4q-12 3-18 12l-2 1h-2q-2-2-4 0h-9l-2-1q-1-3 1-6m-18 8q9-11 14-24l4-6 3-1v3l-9 13q-7 5-4 15l-1 1q-2 0-3 2-1-1-2 1-2-2-2 2-3-2-2 0-1-3 2-6m-3-1q-1 5-5 9l-2 4 3-3q3 0 5-3h2l2-2 2-1q3 1 3-2l10-1 2-1q3 2 6 0 1 2 3 0 2 2 4 0 2 2 2 0 3 2 5 1l6-2h2l2-1 5-1q-3 5-6 5-11 2-20 6h-7q-12-3-21 7l-5 3h-2l-2 1-3 1-6 1q5-4 0-7c3-7 11-8 15-14m82-136q3-1 4 2 1 2-2 3h-5l1-1c3-1 0-3 2-4m-37 13 2-1q5-4 11-6l-2 4q-4 0-5 3h-3l-2 2h-1q-2 3-5 2zm17-49q6 1 2 5-4 5-10 7v-1l5-8q3 0 3-3m-7 18q-2 3-5 2l5-4 1 1zm4 8h1zm-59-136c7 1 5 0 11 15q-12-8-11-15m0 48v2zm-31 17 1-1q5 1 4 8zm-43 82q-2 0-2-2-2-1-1-2l2 2zm54 76v-1zm4-2q-1 1-2-1l-6-11q-1-2-3-2v-2q0-2-2-3 1-1-1-2 0-3-4-5 1-2-1-2 1-4-3-4 1-2-2-2 1-4-2-3 1-5-5-6 0-5-4-6-1-3-4-4 0-4-3-4 1-2-2-2 0-3-4-4 1-2-2-3 0 3 2 3l1 2 2 2 2 2q1 3 4 4 0 4 4 4 1 4 4 6 1 4 5 6l2 3 2 2q1 4 3 4-1 1 1 2 0 5 4 5v3l2 2 1 2q-2 2-3 0l-11-6-2-2-2-1 1 2 3 1q1 4 3 4 4 1 7 5l4 3q-4 0-5-3l-4-2q-5-3-8-7-15-5-22-20 4-1 1-4l-2-1v-1l1-1 12 8q-4-12-10-19t-10-14l9 2q6 3 9 8 19 19 32 43l3 4q0 4 3 7v2l1 2zm69 2q0 5-5 5l-6 1q-14-1-26 6-9 5-19 7l1-4q3 0 3-3 2 1 2-1 4 1 4-3 1 1 2-1h2q2 1 3-2 1 1 2-1 8 0 12-7 2 2 2 0 2 1 2-1 2 1 2-1 2 1 3-2 1 2 2 0h1c1 3-3 4-1 6h7c2 2 5-1 7 1m-4-3-3 1q-2-1 0-3h6q-1 3-3 2m24-23-1 1v-1zm6-13q0 5-6 7l3-5q2 0 3-2m-8 0 6-2-1 4q-5 2-7 7-6 7-13 12l2 1q4-6 10-4h2l9-3q2 4-1 7l-9 2h-3q-1 2-2 1l-2 1h-2q-1 2-4 2l-1 1-8 3-1 1h-2q-2 1-4-1 3 0 5-4 3 0 5-2 2 0 1-1 0-2-2 0h-3q11-13 25-25m-28 12 1-1v3h-2zm-30 25 19-12h2v2l3-5q2 1 3-2l1-3-4 5q-1-4 3-6 1-1 1 1 3 2 0 4c0 2-4 5 2 5l3-1-2 3-1-1q-3 2-4 5-2-2-2 0-3 0-3 2-2-2-2 1h-2l-2 1v-3q-8 3-12 10-1-2-3 1-2-2-2 1-2-1-2 1-2-1-2 1-3 0-4 3-1-1-2 1-3 0-3 3-4-3-1-5zm-4-68q3 1 3-2h2q3 0 3-2 2 0 3-2 3-1 2 3-7 7-15 12-2 0-2-3l2-4q2 0 2-2m46-138 3 1q4 9-4 9l-2 1-16 10-2 3q-2-3 1-6l1-2v-2l4-3zm3-25q0-3 2-1 1-2 3-1l5 1q-2 4-6 6l-8 2q-5 2-8 6-2-4 3-8-3-1-1-2 3-4 10-4m-15 11v1zm21-69v1h-1v-1zm-4 7c-3 0-1-3-3-3v-2c5-1 3 2 3 5m-3-3-1-1zm-3-2-1-2 3 1q0 2-2 1m0 4q0-2 2-1 3 4-1 6-3-2-1-5m1 5q4 1 1 5-4-2-1-5m-2 8h3q0 5-4 7zm-6 13 1 3h-2v-3zm-15 30q4-16 1-33v-9q5-1 8 5l1 9 3 9-3 5q1 3-3 5l-1 1q-2 9-7 17-1-5 1-9m-7 41 1-5h1l4-21 2-5 9-18q3-3 2-6l2-4 7-14 10-15 11-23 9-16 11-20q4 0 1 3-5 5-8 12v3q3 0 3-2 5-1 7-7 4 0 4-3c1 1 3-2 5 0-2 3 1 7-3 10q-4 6-12 8-5 10-14 17l2-8-4 7-5 13q-4 4-4 10-3 8-4 17l5-8q2-4 5-5l7-5h3q2 1 1 3l-3 6-5 2-6 6q-4 4-8 4-3-1-5 1-8 9-12 20-2 2-2 6l3-5h2l-5 5q-3 4-3 10-3 2-3 5l-9 17 1 1zm-11 27q1-2 3-2v4q-3 4-4 9 0 4-3 4l1-5zm-3 20q5-8 6-18 2 0 1-4l10-25v-4l9-17q3 2 0 5l-2 9q-4 6-5 13l-3 8q-10 24-16 49l-3 12 1 3q-2 1 0 4-5 5-2 9-4 3-2 6l-2 4c-2-4 1-9 1-13 1-4-1-8 2-11q1-15 5-30m-34 33q12 8 22 19l-1 3q-3 2-4-1-8-11-19-17l-8-5q6-3 10 1m21 30q-4 3-4-2-7-3-8-11l-17-9q-5-2-4-7l9 4q3 4 6 5 5 3 6 7 7 4 9 10zm1 0v-8q3 2 4-1c2 1 0 3 2 3-3 2-1 5-2 7-4 1-1 3-1 5v6l-3 2zm-15 12v1q9 3 11 11 3 3-1 3h-2q-1-5-4-8-3-2-4-6l-4-2-11-6q8 2 15 7m-17-11-9-2h1l-2-2-3-1-4-5c8 0 11 7 17 10m27 45q-4-5-6-12-4-9-13-14-5-2-9-6-4-5-10-9-4-2-5-7 0-2 2 0l3 1 2 1q4 4 9 6l11 6 12 14 2 1q-1 1 1 2l3 8v3zm2 12 2-4 1-5 1 4q0 8-3 14 1 5-1 9-2 1-2-1l3-8c-2-3 1-6-1-9m-32 75q-9-9-23-11-7 0-10-8c4 0 8 4 12 3q3 2 5 1h4q13 6 22 18l2 1v1q3 3 1 5c-5-2-7-8-13-10m-30 35q-1-2-3 0h-4l-2 1h-5l2-1c3-5 3-5-2-9l-2-4q10 3 18 11v1q-2-1-2 1m11 40q1 0 0 0m-34 17q-2 1-3-2h9q6 0 12 6l10 7c-1 3 4 3 3 6-2 1-3-2-5 0-1-2-6-2-3-6l-3-3q-10-6-20-8m14 8 3 1v1q-2 1-3-2m21 17q-10-5-21-5-9 0-17-3v-2l2-1h12q2 2 3 0l12 3 15 7 4 3v2q3 2 1 4zm-57 33-2-5 8 5q4 3 9 3 6 3 8 9zm23 12 2 3q-3-1-2-3m-40 73v-1q-1-1 1-3l3 4-1 3q1 3-1 4l-1-1 1-2q0-3-3-4m2 46q2-3-1-3 0-2-2-3l-1-8q2-1 0-4 4-1 1-4 3-2 1-5c3-4 1-8 3-12q3 2 1 6l1 9v9l1 7 1 2c-1 4 2 7 1 10-3 0-2-4-6-4m-30 45 1-2v-2l1 2q1 3-1 5l1 5-3 4q-1-6 2-9zm36 17 26-39a168 168 0 0 0 20-51q0-2 3-3l1 5q-2 1 0 3-2 2-1 5l-1 1 1 2q-3 3-2 7l-9 16-21 35q-4 2-6 8-5 10-14 21-5 4-8 11l12-13 3-1q-5 11-12 21m95-33-2-2h2q2 0 2 2zm-32-23q4 0 1 3-3-1-1-3m8 0q-4 0-1-4h4q0 3-3 4m-33 13q3 2 5-2 2 2 4 0 3 2 6 0 4 3 7 0l12 7q3 4 7 6 4 4 10 6l14 4 6 4-1 2-10-2-38-20-3 1q-1 3 2 5l13 9 2 1c2 1 6 4 4 6-2 3-4-2-6-2q-3-4-8-6l-1-1v1q-1 1 1 1l7 5 3 4q-10-2-15-8l-8-9q-5-5-11-7-5-1-8-4-3 0-1-3zm91-65h2zm21 2q6 2 1 6-3-4-5-1-3-3-6-2l-9-5q1-2 3-1zm-10-6v1zm2-4q-10 1-18 6-3 2-5-1c-2-2 2-2 2-4h2l2-1 2-1h2l6-2q2 1 2-1 3 2 5 1l9-1q-5 4-9 4m-274 97q-10-22-16-45l-1-11-3-3v-1l-1-4q3 0 1-2l-2-3-3-10-1-8-2-4-1 2-1-2-1-5q-2 0-1-2-3-4-3-10-3-1-2-3h1-1q-3-6-2-11l-1-1c-4-1-3-5-5-8v-1l-1-3h1q1-2-1-3l-3-8c1-1-1-4 2-4l6 20h1l3 10q2 5 1 9l1 3q3 3 3 10 2 0 1 2 2 2 1 5h2q2 0 2 4l2 2 6 18 2 10 6 21 2 2v-2 2q4 2 4 7 5 11 7 23m21-101q2-6 6-10l1-1 1-1 1-2 2-1c2-1 3 3 5 1l-1 4-7 8-2 3v-1q0 2-2 3l-3 5-5 7-4 4q-1 3 2 2h1l-1 1v1l-3 2-3 1c-1 0-4 2-3-2q2 0 1-2l1-2q1 1 1-1 2 0 2-2 2 0 1-2l1-2q3 1 1-2 3 1 2-1 3-1 2-4 1 1 2-1h-2q0-3 2-5m-2 5v1l-1-1zm-14-1q0-4 6-7v4l-3 8q-1 3 2 4l3-1v-2l2-2q2 0 1 2l-1 1h-1v2h-1v1q-2 2-1 3-2 0-2 2l-1 1-1 2q-2 0-1 2l-4 2 1-5v-9q1-2-1-2 2-1 2-6m-15 17q-1-3 3-6l-1 12 1 3 3-2 4-8 2-5 1-4q1 2-1 4l1 6q-2 4-2 10l9-5h3v-1q2 1 3-2l3-1 1-2 1-3h4l-1-3 7-5q3-3 7-2 1 3-2 3l-1-1-1 1h-2l-1 2h2l1-2h2q0 2-2 3l-14 10-6 5-2 1-2 2q-4 1-7 6 5 1 8-2l10-4q2-1 3 2l-2 2-7 2h5l-8 3-3 1-3 1q-2 2-6 2l-10 1q-2 0 0-1 8-3 16-2-5-3-10-1-3 2-4-1l-2 1zm-7 17 3-11 2-5 1 11v10h1c-3-1-4 3-6 4q-3-4-1-9m38-92 2 1-1 1q-1 3-4 2v-2zm-6 8q0 2-2 3-1-2 2-3m-6-2 2-2zm-21 30 5-19v-7q0-7 4-13l2 11 1 2 2-1 3-8q2-9 6-16l6-11 1 4 1-1v1q-1 9-7 18l-1 3q-3 0-3 4v5q-1 4 3 3h1v1l-1 1v1l2-1q6-3 11-10 0 5-3 7l-11 9q-7 6-7 15l-2 1q-2 0-1 1-3-1-4 1l-1 1q-3 0-5 3h-1q-2-2-1-5m-11 13q3-12 2-23v-5l2-2 1 2-2 12q-3 7 3 12v2q-2 0-1 2-1-1-1 1-2 1-2 3-1-1-1 1zm-2 0q2 4 0 8v4l1-3 2-4 2-1 1-3 1-1 1-2q4-2 6-5 2 0 1-1 4 0 5-3 2 1 1-1 3 1 4-1 2 0 1-1 3 1 4-1l4-3 1-2 1-1 3-2q1 4-3 6l-11 11-5 2q-10 3-12 13l-3 4-1 1-1 1-2 2-3 3q1-4-3-5v1-1zm7-125q1-3 4-1 1 1-1 3l-2 1q0 2-1 1v-1c2-2-1-2 0-3m-21 23 1-3q2-4 6-7v3q-3 1-3 4l-2 1v2zl-3 3zm-6-41q4-1 3 2-1 6-5 9h1l-1-1 1-7zm2 15-3 3q0-3 2-4h1zm5 4v-1zm-92-73c6-2 4-2 13 6q-10-1-13-6m3 57v-2q5 0 6 4zm0 73h-2l-1-2 2 1zm60 31v-1h1zm8-1h-1l-9-5-2-1-1-1-3-1-1-1q-2-3-5-2 1-2-1-2-1-2-4-1 1-2-2-1 0-3-2-1l-6-3q-2-2-5-2-2-3-5-1-1-2-3-2l-3-1-3-1q-1-2-3-1l3 1 1 1h2q1 2 3 2l3 1q2 2 5 1 2 2 5 2 2 3 6 3l2 1 2 1 4 2q-1 1 1 1 2 3 5 2-1 1 1 1 0 3 2 2l2 1-2 1h-9q-1-2-3-1h-2l2 1h3q1 2 3 1l7 1h-4q-4 1-9-1-12 1-22-6 2-3-1-3h-2l-1-1 1-1 11 1-14-10q-7-1-12-6 4-2 7-1 5-1 9 1 21 7 39 19l3 1 5 4 1 1 1 2zq1 0 0 0m49-24q3 3-1 6l-4 2q-10 5-16 14-5 7-11 12l-1-3q3-1 2-4 1 1 1-1 2-2 1-3l1-1 1-2q2 0 2-2 1 1 1-1 6-3 6-10 1 1 1-1 1 1 1-1l1-1q2-1 2-3 1 1 1-1h1l1 4q2 1 5-3v1q3 0 5-2m-4-1-1 2q-3 0-1-2l2-1q0-2 2-1 1 2-2 2m9-25-1 1zm-1-11q2 4-1 7v-4zm-6 3 4-4v4q-2 3-2 7-1 7-5 13h3q0-5 5-6l2-1 5-5q3 2 2 5l-6 5h-1l-1 1-1 1-2 1-1 2-1 2-1 1-4 5-1 1-1 1-3 1c0-2 3-3 1-5q2 0 3-3l1-1h-2l-2 2zm-15 19 1-1 1 2-1 1zm-12 28q6-7 10-15-1-1 1-1l1 1v-4l1-2v-3l-1 5q-2-3 0-6l1 1q2 1 1 3c1 1 0 5 3 3l2-2v2h-1l-1 5q-2-1-1 1-3 1-2 3-1-1-1 1-1-1-1 1l-1 1-1-2q-5 5-5 12-2-1-2 1-2 0-1 2l-1 1-1 2q-2 1-1 3l-2 1-1 4q-3-1-2-4zm-27-46q2 0 1-2l1-1 2-2 1-3q3-2 2 1l-5 14q-1 2-3-1v-3zM59 481h2q6 4 0 7v2l-8 13-1 3v-5l-1-2-1-2 2-3zm-8-19q-1-2 1-2l1-1 5-2-3 7-5 5-3 7q-2-3-1-7l-2-1q2-4 6-7m-6 13 1 1-1 1 1-1zm-11-49q-2 0-3-2l-1-1q3-2 4 3m-9-3v-2zm3 2-2-2h3zm1 2 2-1q3 1 1 4-3 0-3-3m3 3q3 0 2 3-3 1-2-3m2 7q-1-2 1-1 3 3 0 6zm0 11 2 2-1 1zm1 27q-4-13-12-24l-3-6q4-2 7 1l4 5 6 6v9l-2 1q3 7 2 15-3-4-2-7m10 31-1-4-4-17-1-4v-15l-1-6-1-3v-12c2-5 0-10 2-15l-1-20v-32q3-1 2 1l-1 12 2 1 1-2q3-3 2-7 3-1 1-4l4-2 2 8q-1 6-6 11 1 9-3 16l-2-6v7l1 11 2 8q0 7 3 13l1-7q-1-3 1-5l3-7 2-1q3 0 2 2v5l-2 4-2 6-5 6q-2 0-3 3-2 9-1 18-1 2 1 4l1-4h1l-2 4 2 9-1 5v15h1zm3 23q-1-1 1-3-1 2 1 4l1 7-1 4-1-4zm4 15q1-8-2-14v-4l-3-21-1-3v-15q2 1 2 3l1 7 1 11 1 7q2 21 8 40l2 10 2 1q-2 2 1 3-2 5 2 7-1 3 1 5v4l-5-10-2-8zm-11 36q12 1 22 5l1 2q-2 3-3 1c-7-2-13-6-20-4l-7-1q4-5 7-3m26 13q-2 3-3 0-6 1-10-5H38q-3 1-5-3l8-1 6 2q4-1 7 2 6 1 10 4l3 1m1 0-3-6q3 0 2-2l3 1c-2 2 1 4 1 6q-2 2 1 4l2 4-1 2zm-7 13 1 1q8 0 12 4 3 1 0 3h-1l-6-4-5-3-3 1-10-1zm-15-1c-2 2-5 0-7 2l-2-1h-2l-5-2c6-2 11 1 16 1m35 22-8-6q-7-6-15-5l-8-2-10-2q-4 0-7-3l2-1h4l9 1h9l14 5h2q-1 1 1 1l5 4 1 3zm6 7v-3q-2-2-1-4l2 3 3 10 3 7h-2q-2-3-1-7-1-4-4-6m6 64q-11-2-20 1c-6 2-6 2-11-2l10-2 4-1q2 1 2-2 12-1 22 5h3l3 4zm-8 36q-2-1-3 1l-2 2q-2 0-1 2h-2l-2 1 1-1q2-6-4-6l-3-2q8-1 16 1l1 1q-2 0-1 1m64 71c-1-3-5-13-2-16q4-3 9-2h2l14-3-1-1h-2l-5-2-2 1 1 1-2 1-13 1q-5 2-4-5l8-28 1 4 2-4q0-4 2-4t1 4h2q2-4-3-6-4-2-6 4l-4 11-5 17-6-15-7-17q-2-3 3-5l11-2 25-7q3 0 3-5-1-3-5-4-3 1-5-1l20-16q5-3 2-7-3-2-6 0l-6 3-2 2q-2 0-1-2l2-1 1-2 3-5 8-9q4-3 2-7-3-3-8-1l-2 1-1 2-1 1-1 1-11 15-1 2-4 2 2-7q2-3 0-6-3-2-6 1l-3 3-6 20q0 3-4 7l1-14q-9 2-10 10l-3 14 1 1v1l-2-1 1-1-6-11q-3-6 1-12l2-2 1-1 1-1 3-4q4-8 12-11 5 0 6-3l10-11q4-3 6-8l-1-4q-3-1-4 1l-3 4-1 1-1 1q-2 3-2-1 2-4 6-7l12-11q5-7-1-12 0-2-2-1t-3 5q-2-1-2 1l-2 1-1 1-2 2v-3h1q0-2 1-1l3-9 4-12q2-4 0-8-1-2-4-2l-2 2-2 5-9 21q1 3-3 6v-8q1-3-2-3-3-1-4 2l-2 9q0 16-7 31 1 4-3 4l2-20q1-4-2-4-4-1-6 2-5 9-3 21l1 4h1v-6q-1-8 2-15v20l-2 1h-1q0 8-5 14l-4-9-7-20q-1-3 2-5l10-11q6-10 17-15 5-3 6-7 2-4-3-6l-2-1 1-2 14-15v-5q-1-5-5-1-3 1-3-1l1-2 4-15v-3l-2-2q-2 0-2 2 2 2-1 5c-1-2 2-3 1-5l-2 1-7 12q-4 8-5 17-1 5-4 9v-9q0-3-2-3-1-1-3 1l-2 6q-2 12-8 22l-3 5-3 6-3 6c-2-8-7-16-6-25l8-17-1-1q-4 4-6 9l-2 6q-2 1-2-1h-1l-1-3v-4q4-13 14-24l2-2-1 2v3q-3 0-3 3-3 2-2 5-3 0-1 2-2 1-2 3l-1 2-1 4q-3 1-1 3l-3 6h1q3-2 2-6h1v-3q3-1 1-4 3 0 2-2l1-3 1-2q3-1 2-5 4 0 3-3 5-3 5-9 3 0 2-3 3 0 3-4l4-4 4-3 1-1 1-1q1-2 2-1l-1 1-1 2-2 2-12 19-3 4-2 6 1 1 3-6 9-12q5-10 14-18l1-1q3-3 2-6-3-2-7-2l-3 2q-5 8-12 12-4 2-6 7-4 9-10 15-7 9-9 20h-2l-2-5q-1-6 2-11l3-10q2-7 8-11l10-8q4-3 5-9 0-7-6-4l-3 1 2-7q4-6-2-11l-1 1-1 4h-1l-1 3-1 1q0 9-4 16v1q3 2 6 0l6-6c2 1-1 3 2 4q-2 5-7 8-7 4-12 10l-1-3 3-3q4-3 1-7-4 4-4 10-3 3-3 7-3 0-1 3-2 0-2 2-1-1-1 1l-1 2-1 2q-3-1-4-5l-1 1 1-1-1-3-1-2h-1l-1-5h-1q1-2-2-5 1-3-2-7 1-2-1-3l-3-12-1-5q-4-12-3-24-4-2-1-5l3-5 1-3 1-2 2-1-1 2-1 2-1 3-1 3q-2 1-1 4 3-2 2-4h-1 1l2-2 1-3 1-2 2-4q3-4 9-6l-1 3q-4 5-10 7 1 2-1 2v3l-3 13q-3 4 0 7l2 12q1 4 3 5 4-1 4-5 2-9 6-16 2-6 8-10h1l-1 1v2l-1 2q1 1 2-1 0-3 4-4v1l-13 24v9l-4 13v11h1l1 4 1 3q5 3 6-1v-6q0-5 4-8 8-8 8-19l5-10v-1l4-2 1-1q-1-4-4-1l-3 3q-5 5-5 12 0 11-8 17-4 5-4 9l-2 6-3-5v-9q3-7 4-15-1-5 1-10c5-6 5-13 10-18q3-3 2-8h-9l-2 2-7 10q-4 8-6 17-3-3-4-7 1-3-2-6l3-12q1-9 10-16l2-1q3-4 1-7-3-3-7-1l-6 5q-5 4-7 10 0 2-2 0 1-12 9-23l4-5q2-5-2-8-3-3-6 1-4 4-5 9h-3c-1-16-2-11 7-23l3-5q2-1 1-3-2-3-5-2l-6 4q-1 3-4 3-2-3-1-6-1-3 1-4 7-8 10-18 4-6 0-11-2-3-5-1l-3 6-2 4q-3 2-2-1v-7l-1-1v-2q-1-5 1-9l3-9q0-7 3-12 5-9 1-16-1-2-3-2l-3 5h-1v4c-1-1-1 2-2 1q1 2-1 3-1-2 1-3v-5l1-7q1-4-1-7h-1l-1 3v4l-1 1c-1-4 2-8 1-12l1 3v1h1v-6l5-13 3-12h-2l-3 3-1 1 1 1 1-2q3 7-2 9-3 6-4 13v2h-1q0 3-3 3l2 9-2 2v1l1 2v9c-2-3 0-6-2-8v19l2-7v8l-2 8q0-3-2-4 0 4 2 7v5q2 2-1 4-2 1-2-1h-1l-2-1q-2-3-4-2-3 3-2 7l1 2 3 4q5 8 7 17 1 1-1 3l-9-7q-2-2-4-1-2 2-2 6l2 4 6 10c4 6 7 16 7 22l-4-3q-5-4-11-5l-4 1v5l4 3 8 4 1-1v-1h4v-1l-1-1h-4q-2-2-5-2l-5-3q7-2 14 5 2 0 1 1l6 1 1 1c3 3-3 5 0 7q3 3 3 7l1 7v-1l-4-3v-1q2-5-3-8-4-1-6-6l-2-2-1 1 2 4 1 3h1-2l-2-1-4-4-6-2q-6 2-4 6l5 4 19 6 2 4q4 2 2 6l-5 1-14-7-10-4q-4-4-10-3-2 4 1 7 4 8 13 8 7 2 11 7h4q0 3 2 1 0-2-2-1-5-6-14-9l-10-4q-2-1 0-3H2l1-4 4 2 11 5h-6l6 2q2 1 2-1l6 3v2l9 4q-2-2 0-2 4 0 6-3l2-3c2 2 0 5 2 7q1 3-1 5-1-2-4-1l4 3h1v3l1 1v1l1 8v1h-2v2q5 3 5 8l3 9c-1 4 3 6 3 9l2 6 2 4h-1v1-1h-1l-1-1-1-1-1-1q0-3-2-4-2-6-9-10-6-3-13 3-5 7-11 1l15-7q9-1 17 3-1-5-6-4l-14-1q-6 0-9-6l25 1q-2-5-7-8l-11-3q-13-3-21-12-2-2 1-3l3 1-1-2 2-1 8 2 10 4c3 0 6 3 10-1l-10-4v2q-3 1-6-2l-7-3q-6-2-11 2-4 4 0 7l3 2q6 8 17 10l13 4q2 1 2 3l-10-1q-6 1-12-3h-5q-5 1-2 4l6 3q4 2 5 6l-6 4q-3 3-1 6 6 4 11 1l4-4q5-4 12-1 4 3 7 9l2 2 1 2 1 1 1 1v3l-17-3h-5q-5 3-5 7 1 4 5 5l8 1q8-2 14 3 2 2 5 2 7 3 10 11l-13-3-20-3-6-1q-6 0-6 5-1 4 3 6 5 3 11 4c5 0 10 4 16 3q7 1 13 4l11 9q1 3 4 3v-3q-1-2-4-2v-2l2-6q3 4 2 10l1 3h1v1l-1 2v-3h-1q-1 5 2 8l1 8-4-3-1-1-1-1-5-3q-20-15-44-23h-4c-6-2-12 0-17-3h-2v2l3 4 14 8q5 1 8 5h-7q-2 0-2 2l1 2 7 4 1-1-1 1q5 5 13 6 9 3 20 2 8 1 16 5v-2l3 1 3 1 3 4h-2l-1-1 1 1 3 3 1 5 8 19v8-1l-2-1 2-1-3-4q-2 2-1 3c-3-2-7 1-10-1h-1q-1 2-4 1t-5 1q-2 0-2 2-3-2-4 1l-7-1 5-2 2-2q1-2-2-2l-2-1-22-8-13-7q-3-3 1-4l4-1q6 1 12 5l11 5h2q3 5 8 3 0-3-3-5h4l1-1q-2 0-5-4 4-2 7 1l5 1q0 3 2 1-1 4 3 3l-3-3-2-1q-3-4-8-5-4 0-7 2-2 3 0 6 1 3-2 2-5-5-12-7-6-4-14-5-6-1-8 3 0 5 4 6l2 2q8 5 18 8l15 6c-4 3-9 2-13 6q8 6 17 6 9-2 19-2l13 3q4 1 4 4l8 23q2 3 0 6h-2q-2-3-3-1 0-4-3-4v1h-3q-3-2-8-1l-8-5q-2-2-3-1l-1-1-1-2-1-1q-1 1 1 1l1 2 1 1 3 1 1 1 1 1v3h-4l-8-1-14-1-4-1-3 1-9-2-12-7q-2-2-1-3 1-2 4 0l24 7 10 3q4 1 6-1 1-2-2-5l-2-1-9-9c3-2 4 2 6 1l1 1-1-1q1-2 2-1l3 1v1h1-1l4 2 3 2 12 9h1q-3-3-3-7-2 0-1-1h1v1q3-1 4 2l4 3 1 1q-1 2 1 2l1 2-1-2q1-2-1-2l-1-1v-1q0-4-3-6-1-2-4-2-5 0-6 4l-4-3-3-2-4-3-3-1q-3-4-8-2-6 1-2 5l9 8 2 2q1 2-2 2-3 1-8-2l-28-9h-1q-5 0-4 5l5 5q12 7 27 9 9 3 5 10-5 5 0 7l1-1v-4l2 2 1-1q-1-1 1-3l3-4q2 0 1-2 2 1 3-1l2-2h1l1-1 10-1 6 1-3 3 5-1h6l2 1-4 1q-8 2-12 7l-6 5h-2v1h-1 1l-3 1-1-3 3-4 1-1q2-1 2-3l2-1q-1-4-6-1-2-1-2 1-4 1-7 5l-3 2q0 2-1 1 0 3-2 2l-1 1q3 3 6-1 3-5 9-9l1-1v-1q3 0 4 2h-2l-1 2-1 1q-5 4-2 10l1 2c2 0 9-5 12-9l11-7q6 0 10 3l7 23 3 10 1 2 2 8h-1l1 1c2 0 4 13 5 14m21-156-1-1zM56 525"/>
    <path d="M60 310q-7-5-13 2l-4 7q-4 12-3 27 4-2 4-6l1-1-1-1q-4 0-2-3l2-14q2-6 7-10 6-3 8 3l3-1zm0 177 1 1zm-35-84q1 6 6 9l1 2v2q2-2 0-2l-1-2q0-5-5-9v-5l-3-11q-1-3 2-2 0 5 3 11v-9q-1-2-3-2 0-4-4-3v4zm146 299-1-1zm1 82h8l6-1q5-3 1-8-3-3-8-1l-10 3h-3l2-4 2 1 23-10 15-6 1-2q2 1 2-1 1-5-3-8-3-2-6 0c-4 0-7 4-11 4l-2 1v-1l2-1 1-3 9-11q6-7 9-16 1-3-2-6-3-2-6 1-2-1-1 1-4 1-4 5-4 2-5 7-6 6-8 13c-3 0-3 4-6 4 0-5 3-10 1-15q-4 0-6 2l-2 3-10 23q-1 3-4 5l1-4q-4 2-3 6l1 2q4 0 5-4l3-7 6-13v-1c2 1-1 3 2 4-1-3 2-6 1-8q2-2 0-2v-2h4l1-2v2l-2 10q-2 6 4 3l3-3q1 2-1 3l-1 1-1 2 1 1 4-5q3-1 2-4l-2 2h-2l1-3q6-6 8-13 5-2 5-7 4-1 4-5l1-1c2 1 7 0 6 5q-5 11-11 18l-10 12-3 4q-3 2-1 4 1 1 4-2l2-1 15-7 3 1 2 7h-1l-34 13q-4 1-6 4l-2 1-3 3q2 3 5 2h2l8-3 9-1-1 1q3 3-2 5l-4 1-4-1h-7v2h1zm1-47v-1zm2 44c0 3-2 1-3 2zM99 609l1 1 4-6-1-1q-3 2-4 6m11 116q-1 3 1 3 0 2 2 2l-2-2q1-2-1-3m-23-67q0 2 2 1zm-1-1v-2h-3v1zm-1 19q0 2 2 2 0 4 3 1l-3-1zm20 46 2 2q0 2 3 1-1-3-3-1 0-2-2-2m16 17q3 1 2-1v-1z"/>
    <path d="M167 767q3-3 8-2-2-2-3-1-2 0-3-2-3-1-2 5m13-20 1 1zm14-10 1-2zl-3 4zm-42 21v5zm25 5h5zm-7-14v4zm9 31c-1 1-3-1-3 2zm4-2-3 1v1l4-2"/>
    <path d="M184 778q2 0 1-1zl-2 1h2m-5-26q1 1 2-2l-1-1q-2 2-1 3m17-20-1 2zm5-7-1 2zm3-5-1 1zm-2 2v-1zm0 2-1 1zm-12 15-1 1zm-1 1-1 1zm12 13-5 3zm-29 6 1-2 2-1v-2l-2 1-1 1zm10 2h2l5-3 6-2-7 1-4 3zm-28 14v2l1-1 2-1 1-1 1-1 1-2 1-1 2-1v-1h-1l-2 1-1 1-1 2-2 1v1z"/>
    <path d="M148 783q0 2 2 0l5-2c-1-2-5-1-4-5v-11l-2 10zm-67-96-4-1-5-1q3 3 5 2zh4zm-13-3q-1-2-3-2v1zm-11-5q-1-2-4-1zm18-3 3 2h1q1 2 2 1l-1-2h-1l-3-2-3-1-1 1zm-30-2q1 2 3 1zm41 15 1 1h1zm-22-7h-1l2 1v-1zm-5-2 2 1zl-2-1q0 2 2 1m-8-3 2 1q0-2-2-1m-2-2q0 3 2 2zm-5-2h-1l2 1zm38 8h2l-1-1h-1zm9 5h-2l1 1 1 1 1-1z"/>
    <path d="m93 688-1-1-1 1q0 2 2 1M43 400c-5 0-2-3-3-5l-1 1 1 8q3-1 3-4m4-13-1 5q-2 3 0 5l1-5zm0-2-1 1 1 1zm27 156 1-3 2-3 1-2 1-1 1-2h-2l-2 4-2 4zl-2 12-1 4q-3 3-4 7l-1 2h1v-2q4-2 4-7 2-1 1-3l3-5zm-18-16 1-2q-2 0-1 2M32 392l-1-17q-1-2 3-3v3l2 1v-1l-2-3q-3-5-2-10l-2-16 1-9v-5q3-8 8-15l-4 23q-1 8 1 16v7q2 0 2-2t-2-5l2-21 4-20 5-6q-2-3 1-5l2 1q6-3 12 2c1-3 2 0 4 1l-1 18q-1 4-6 1 5-6 3-14l-3 1h-2q-5 0-6 4-1 6 3 9 3 5 7 4 6 0 6-5l1-16-1-4q-7-5-15-5-5 0-8 4l-4 6q-8 9-11 21v13q-2 3-1 5c0 7 4 14 2 21l-1 14zl-2 6 4 5q1-6-1-11m23-68-1-1q-2-3 1-6 2-2 4 1c0 3-5 0-4 4l1 1q4 0 3 4-3 0-4-3m33 425 1-2 3-5q2 0 2-2-2 0-2 2-3 2-3 5-3 1-1 2m51-104-1 5v3q3-5 1-8m8 5q-3 2-2 3v2l1-1zv-3zm3 5-1 1q-2 0-1 1h2l1-2 2-1-1-1z"/>
    <path d="m154 654 1-1v-1l-2 1zm-20 23 1-2 1-2v-1 1l1-2 6-7 1-1q-3-2-2-3l-1 3h-2l-1 1 1-1v-9q-2 1-2 3v7l-1 7v1l-2 2-1 3zm21 54q3 1 4-1zq-2-1-2 2l2-1zm-20 43q-1 2 1 2v-1zm5 14-1-2zm-1-4 1 2zm-1-2v-1zm-4-11v-1zM34 532q1-1-1-1l-1-2h-2l-4-1q-1-2-4-1-1-3-4 0h4q2 2 4 1 1 2 4 2 2 2 3 1zq3 3 5 2 1 4 4 3v1h1l-1-1q-1-3-4-3-1-3-5-2m10 7h1l-1-1zm9-107h2l-1-2q-2 0-1 2-2 0-3 2h2zm-15 87h-3zm-7-61 2 5 1-1zm3 4 2 4 2-1zm-6-10 1 2h1zm3 5v1zm-1-3 1 1zm-3-4-1-1-1-2q-1 2 1 3zl1 1zm8 38-1-1h-1v1zm-3-2q1-1-1-1zm83 141v5zm-24-59-1 1q2 1 1-1 3 0 1-2-2 0-1 2m5 3 2-1 2-1 1-1-2-1zl-2 1zm-46 73-3-1q0 2 3 1m-4-1-3-1zm-6-2v-1zm9-172 1-1v-2zl-2 1zm-2 254 3 2 3 1q-3-4-6-3l-1-1zm51 14q2 1 2-1-2-1-2 1l-1 1q2 0 1-1M64 315l-1-1v2zm-3 167v4h-1v1l1-1q2-1 0-4m111 224q2 1 3-1zm2-16v-2l-1-1-3 5h1zm3-6v-1zl-1 2z"/>
    <path d="m175 686-2 1 1 1zm-77 41v-2l-1 1q0 2 1 1m185-326-2 3-1 3-4 6v1h-1l-1 1-1 1-3 1v-1l2-2 1-2 1-2v-2l1-2 1-1v-3h1v-1l1-5 1-1v-5h-2v5l-2 5v1h-1l-1 1h-1v1l-1 1-2 1 1-1 1-13-1-1-1 1v8l-2 5h-1l-1 1v1l-1 2-1 2-1 2 1 1-2 2h-1v2l-2 1h-3l-3 1 1-2 3-3 1-3 1-1 2-4v-1h-2l-2 4v1l-2 3-2 3-1 2-2 1v1-2l1-1h1v-1l2-3v-1h-1l-2 2-1 1-1-2 1-1v-1 1h2v-1l1-1v-1q0 1 0 0l1-1v-1h1v-2h-2v2l-1 1-1 1v1-2h1v-1l1-2q0-2-1-1l-2 2v1-1l3-5 1-1v-1l1-2 3-4 2-2 2-1 2-2 1-1 1-1 1-1 1-1 2-2v2l1 1 1-1v-6l1-2 1-3 1-2q0-2-2-1l-1 3v1l-1 2v1l-2 4-1 1-2 2-2 1-1 1-2 2-2 2h-1l-1-10v-4l1-3-1-2-1 1v3l-1 1-1 1-2 4h1l2-2v1l-1 5 1 1 1-1v9-4l-1-1-1 1v4l-1 1 1 1-1 2-1 1v-2l1-1-1-1h-1v2l-1 1v4l-2 4v-1l1-3-1-1-1 1v2l-1 2v-4l1-3 1-2v-4h-1l-1 3-1 3v3q-1-8 3-14l1-1v-1h-2l-4 9v6l-1-1-1-3-1-5v-2l-1-1 1-3 2-3v-1h-1l-2 3-2 5v1l-1 2-1 2v1l-1 2v1l-1 1-1 3-2 8q-2 6-1 13l-3-2-1-1-1-1-1-2v-1l-1-1v-6q0-2-1 0l-1 6 1 5-1 1v2l-1 10-2-2-1-1v-3l1-4-1-1-1 1-1 4v1l-1 6v1h1l1-3 3 3 12 12 4 9v7-6l-1-2q-1-1-1 1v7l-1 3v2l-2 2 1-1-1-3-1-4-1-3-1-2-1-1-1 1 2 3 1 3v4l1 2 1 1-1 2v-1l-1-2v-2l-1-2h-1l-1 1 1 1v1l1 2-1-1-1-2v-1h-1l-1-2-2-2v-1l-1-3-1-3-1-1-1 1 1 4-1-2-1-3-1-3v-9l-1-1v1-4l-2 1v14l-1 2v2l-1 1-1 2v4l-1 2v3l-1 1v-1l-1 1v1h-1v6l-1-1v-2l-1-4 1-4 1-4-1-1h-1l-1 5-1 4 1 4v2l1 3h3v3l1 1 3 6 1 2 3 3 4 3 2 2 1 1h-1v1l1 2v1l1 3 1 1 1-1v-1l1 1v1l1 1v6l-1 1-2 2v-5l-1-3v-2l-1-1-1 1v2l1 3v5l1 1h1l-2 3v-1h-1v-1l-1 1v4l-1 2-1 2v-1l-1-1-1 2v2l1 2-1 3-3-3-1-1v-4l-1-1-1 1v2-1l-6-4v-1l-3-5-1-4v-13l3-16v-2l-1 1-1-2-1-2v-1l-1-2-1-1v-1l-1-7 1-6q1-2-2 0v11h-1l1 2v3l-1 3v5l-1 2v5l-1 2v13l-1-2h-1l-1 1v9l1 1 1-2v-3l1 2v1l1 1v1l2 1v1l6 5 2 3h1l9 9 4 5h-1v1l-1 1 1 1v1h2v-1l1 4-3 4v-2l-1-4v-3l-1-3-2-1v2l1 3v3l1 3v3l1 1-3 6v-1h-1v1h-1v1l1 1v1l-1 4-1-4-1-5-2-4-2 1 2 4 1 4 2 6-1-3-2-2-1-2-1-1h1v-2l-1-2-1-2-1-3-1-2q-1-2-2 1l1 2 2 3 1 2v2l-1-2-2-2-2-3-1-2-1-1q1 1 1-1l-3-8v-2q-1-3-2-1v3l3 8-2-2-1-4-1-3v-17l-1-1-1 1v8-1q-1-3-2 0v2l-1 2v16l1 1h1v-5l2 2 2 1v1l2 1 2 2 1 2 4 5 1 2 2 2 1 2 1 1v1l2 5 1 4v2l1 6v1l-3 11 1 1-1 1v2l-1-1 1-1-3-5-2-5q-2-2-2 0l3 6 2 5-7-3v-2l-2-4-2-5-1-1-1 2 4 9v-1l-5-3v-1l-1-1q-4-4-5-9l-1-3v-10l1-8v12h2v-13q1-2-1-1v-2h-2l-2 20 1 6q2 6 5 9l2 2v1l1 2 1 2 2 2 1 2 2 1 2 1 2 2 1 1 1 1h1v1-1h1l-2 1h4v3l-1 3v4l-1 3-1 5h-1v4l-1 3-1 3v16l-1 14-1 1v1-21l1-2h-1v-7l1-1v-7h1l1-3h-1v1l-1-1h1l-1-3 1-2v3-5l1-2q0-1 0 0v-3 1-1l-1 1 1-3v1-3 2l-1 5v3h-1v1-1 5l-1 1-1 7v8l-1 11h1v1l-1 1v-6 5q0-1 0 0v3-1 3l-1-3v5l1-2v3-1 4-2h-1v2h1l-1 4c1-1 1 3 1 1l1 2h-1v-1l-1 3 1 1-1 1 1 1-1 2v-1 1l1 1v2-2l-1 2 1 1h-1l1 2v2-2 9l1 1h-1v2l1 1v4-1l1 2 1 1c0 3 0-1-1 0v1l-1-1v1q0-1 0 0v2-1l1 3q0 1 0 0v5l2 9v4q0-1 0 0v1l1 4h-1l1 2v3q0 1 0 0l1 6v-1l1 1h-1l2 9v1l1 6 1 2v3l1 3v2l1 3q0-1 0 0v1-1l1 2v1-1 4l1 2v-2 2-1 2l1 2v4l2 4v1-1 1l2 9 1 1v3l1-1 1 4-1-1 1 5q1-1 1 1l1 2v1h2-1l2 1 2-1 2-1 2-1 1-1v-1l-1-2v-1l-1-1-1-2v-1l-1-1v-2l-1-2q0 1 0 0v-1 1-2l-1-2-2-4-1-3q2 0 0 0v-2l-1-1q1-1 0 0l-2-7 1 1-2-5-1-3h1l-1-1-1-3v1-4l-1-1-1-3h1l-2-4v-2l-1-1q0-1 0 0v-1l1 1-1-6-1-2v-4l-1-3-1-6v-2l-1-4v1-4q0-1 0 0l-1-3q0-1 0 0v-5l-1-10-1-5v-6 1-9l-1-3 1 1-1-4v-4l-1-15h1v-8l-1-1 1-1v-3q0-1 0 0v-4l1-11v-2l1-8v-1l1-4 1-5 1-6h1l5-1 2-1 1-1 2-1 4-5 2-3 1-3 2-2v-1h1l1-1v-1l1-2v-1h1v-1l1-2 1-2v-1l1-2 1-3 1-2-1-1-2 1-1 1 2-4 1-1h1v-1h2l1-1 1-1 2-1 2-2q1-2-1-2l-2 2-2 1-2 1v1h-2l1-1v-1l2-2 2-3 1-2v-1l1-2 1-2v-1l1-1v-1l1-1 1-1 1-2-1-1h-1v1l-1 1-1 1-2 3-2 1-1 1 2-3 4-14v-1l6-5v-1l-1-1-5 4q4-4 7-12l-1-1h-1v1l-9 14-1 1h-2l-3 2 2-2v-1l-1-1-3 3-1 1-2 1-1 1 1 1-7 4 2-2 2-2 4-4v-2h-1l-5 4-2 3-2 3 1 1-3 3v-4l2-2 1-2 1-1v-1l-1-1-2 2-1 1-1 3-1-2h1v-1h1v-2h-1l-1 1-1 1v-1l1-1 1-1v-1h1v-1l2-3v-1h-1l-2 3-1 2h-1v1-2l1-1v-2l1-3v-1l1 1h1l1-2 1-1 2-2 5-3v-1l1-1h-1l-9 6-1 1h1l1-3 4-5 1-1 1-1 2-1 4-2h2l3-1h4l3-1h1l2-1 4-3v7l1-1 1-7 1-1v-1l1-2v-2h1v-1l-2-1-1 3v2l-1 1-1 1-2 1-2 2-2 1h-1l1-1 2-2 1-1 1-2 2-3 2-4 1-4 1-4 1-2v-6l1-4h-1l1-2 2-2 6-10 1-5 3-5 1-1 2-2 3-1v-2h-1l-3 1-3 3-1 1-2 1-2 1 1-1h1l1-2 1-1 2-2 1-1 4-3v-1h-1l-4 2v-1h-2v2l-1 1h-1l-2 2h-2l-5 2-1 1v1h1l8-3-1 1-1 1v1l-1 1-1-1-5 2-5 2-1 1v1h-2l-2 1h-2l-2 1h1l1-1v-1h-3v1l-2 1h-1l-1 1-1 2v-7h1l1-1 2-2 1-1 1-1 1-1-2-1-3 3-1 1-1 1v1-1l-1-2 1-1 1-1h1v-1h1v-1l-1-1h-1q1 0 0 0v1-1l2-2 2-1 1-2 1-1 1-1h2l1-1h6l5-1h5l8-2v1l1 1 1-1v-1l1-2v-1l1-1 1-1 3-6 2-2v-2h-1l-2 3-2 3-2 3h-1v1l-1 2-2 1-5 1q6-3 9-9l-1-1v-1l-1 1q-4 6-10 10v-1h-2l-1 1v1h-4l-3 1 1-1h-1v-1h-2v2h-2l-1 1h-3l-1 1v-2l-1-1h1l1-1v-1l1-1h1l1-1-1-1h-1l-1 1h-1l-1 1-1 1-1-2 1-1v-1h1l1-1 4-3 2-2h2l1-1q2-1-1-2l-1 1-1 1-3 1-1 1 1-1 1-1h1l2-2 5-1 2-1 3-1v2h2v-2h8l2-1h3l2-2-1 3v1h2l2-5 1-4 1-1v-1l1-1 3-7zm-78 73v-1zm-8 14v1-3zm-4 27v1zl-1-4 1 2 1 1zm0-4v-12l-1-1 1-5v-4 5q1 2 2 0v-4 6h1l-1 6v-2l-1-1-1 1v7l1 1h1v4zm2 9v1zm-9 24v-7l1 3v1l1 6zm13 166v3zm4 33 1 3zm3 13q0-1 0 0l-1-3v-2l-1-4v1l1 1zv3zm9 29 3 7v-1l1 3v3h1l1 3q-1 0 0 0v4l1 2 1 2 2 5 1 2h-1v1h-1l-2 1q1 0 0 0h-1l-1-2-1-3-2-7v-2l-2-6-1-5-5-18v-3l-1-6-1-1q0-1 0 0l3 13 1 1v4l1 2 1 1v-2l-1-1v-4l-1-1-1-9v2l2 5h1zm-13-69 1 10 3 19 6 25-1-1-2-4h1v-1l-1-1v-2l-1-2v-2l-1-2-2-8-1-7h-1v1-4l-1-3-1-5v-2l-1-5 1 1v6l1 3h1l-1-3v-6l-1-4v-4l1-3v-1zm-2-36v1zv8l1 7v10l1 4h-1v2l-1 3v6l-1-7h1v-6l-1-2v-7l-1-2v-13 5h1l-1-10-1-7h1v-3l1-5v-15l1-3v-7l1-2v-4 9l-1 19-1 9v5zm4-75-1 1v-2zm-2 3-1-1-2-2-2-1-2-1-1-2-2-1-1-2 2 2 8 3v1l1 3zm5 1-1-1 2-1v1l1 1zm26-31-1 2v1l-1 2-1 2v1l-1 1 1-1v-3l1-4 1-1zm0-7-4 5-2 7v3l-1 3v1l-1 2-1 3-1 3-2 2-3 5h-2l-1 1-1 1-1 1h-3 1l1-1h1v-2h-2v1h-1l-1 1 1-1 3-3 3-4 2-5v-1h-2l-2 5-2 3-3 3-4 2 1-1v-1l1 1 1-1 2-2 3-4v-2l-2 1-3 3-1 2v1q0-1 0 0h-1l1-1 1-2-1-1h1l1-1 1-2 3-4 2-3 2-4v-1h-2l-2 4-2 3-2 4-1 1v1-5h2v-1l1-1v-1l1-1v-1h-2q3-6 9-11 2-3 5-3h-2l-2 2-3 2-2 3v1h2l2-2 2-2 3-2 2-2v-1l1-1zm6-15 1-1zl-1 2-1 2-1 1v-1l-1 1-1 1-1 1-1 1-2 1v2h1l2-1-1 1-1 1-4 1 2-3q4-3 6-8l1-1zm-15-10 10-6 5-2 1-1-2 3q0 3 1 2l2-2-1 3-3 8 1-1-1-1h-1v2l-1 1-1 1v1h2v-1h1l-2 3-1 2-2 3-1-1h-1l-1 1v1l-1 1v2h1l-6 5v-1h-1l-4 4v1l-7 7-2 4v-1l1-1v-1l1-2 2-3 2-2 1-1 3-3v-2h-1l-3 3-2 2-1 2-1 1-1 1-1 2v1-2l1-2 1-1 8-11 1-2 3-2-1-1h-1l-1 1-3 3-8 11v-2h1v-1l1-1 1-2 1-2 1-2v-1h-1l-1 2-2 2v1l1-6q4-11 13-17m11-149v2zm-13 105v-6l-1-1-1 1v4l-1-2h-1l-1-1-4-3v-2l-3-6v-3h-1l-1 1 1 2v3l1 2v-1l-3-4v-2l-1-2v-4l1-3v-1 4h2v-12l1-1v-2q1-2-1-2l1-2 1-1v-1l1 1v-1l2 3 1 2 1 1 3 4 2 1 1 2 1 2 1 1 1 2v2h1v2l1 2 1 1 1 3v5l-2 2-1 3-1 1-2-10-1-4-2 1 1 2 1 1v3l1 7 1 1zm32-20v4l-1 2v3-1l-2 1-1 2-1 1-1 4-5 6q0 2 2 2l4-7 2-3-1 1-1 4-1 1-1 2-1 1-1 1-2 2-1 1-1 1h-1v1h-1 1v-1h1l1-2v-1h-1l-2 1v1h-1v1h-1l-1 1-2 1v-1h1v-1l-1-1v1h-2v2h1-2l-5 2v-1h1v-1l2-4v-1l-1 1h-1v1l-1 2-1-1 1-1 2-3 2-2 2-3 1-2 1-1-1-1h-1l-2 3-2 2-2 3-1 3-1-1 1-1v-1h1l1-2v-1h-2l-1 1v1-1l1-3h2v-1l2-3 1-1 1-1v-2h-1v1h-1l1-1 1-1 1-1 1-1 1-1 1-1 4-3 4-2 4-2 4-1 1-1 1 1-1 1-3 4v1h2zv-1zm-24 2 1-1h1zm25-27 6-2-4 1-5 2zm-10 5 9-2 5-2 4-1 2-2v1l-1 1-1 5-1 2-2 3-1 1v-1l-1 1h-3v1h-1l-1 1h-1v1h-1v1l1 1 1-1 2-1 2-1-1 2-1 2-1 1-2 1-3 1-2 1-2 1h-2l-2 2-2 1-2 1-4 3-1 2-1 1v-3l3-3 3-2 4-2 4-2 1-1h-2l-4 1-7 5v-1l-1-1-1 1h-1v1l-1-2 1-1v-1h2v-1l1-1-2-1v1h-1l-1 1-1 1v-2h1l2-2 3-2 2-1 3-2q1-1-1-1l-3 1-3 2-2 2-1 1 2-4q6-7 14-8m-6-24v3l-2 3v-1l-1-2-1-1v-2l-1-2h-2v1l1 2 1 1v2l1 2h1v1l-2 2v-1l-1-2-1-3-2-1v2l1 1v2l1 2v3l-1-1v-1l-2-5-1-2-2-3-1 2 1 2 1 2-8-8v-1l-1-7 1-2v-1l1-1v-1l1-1 1 1 3 2 2 2 3 2h2v2l1 2 1 1 1 1 1 3zm8-17-1 1-1 1h-1v-3h1v-5q-2-2-2 0v7h-1v3l-1 2-2 2v1l-1 1v1l-2-2-1-5v-6l-1-2-1 1v9l-3-1v-9l1-7 1-3-1 15q1 2 2-1v-11l2-11v1l2-1v-5l1 1 1 5 2 4 3 3 1 2v1l1 2 1 4zm21-5v1-2h-2v2h-2l5-9h1l1-1 2-1 1-1-1 2-1 1-1 2h1v1l-1 2-1 1z"/>
  </g>
</svg>