<svg xmlns="http://www.w3.org/2000/svg" width="50" height="61" fill="none" viewBox="0 0 50 61">
  <path fill="#ad3c05" fill-rule="evenodd" d="M13 46v1l-4 2c-2-1 4-6 5-3m5-1h-1v-2h1q1-1 1 1m15-16q2 0 3 2v1q1 0 0 0t-2-1q-2 1-2-2M15 17l-1 1h-1v1-1q-2-1 1-2zm11 42c33-1 4-28-18-15q-7 5-3 12 10 5 21 3M13 36q4 4 10 3c5 0 15 1 17-5s-7-8-12-10l-6 1c-5 2-13 6-9 11m3-13c4 1 18 1 11-6-4-3-5-1-8-3l-6 2q-7 6 3 7m33 37-11-1c10-6 3-16-5-18 16-2 10-18-4-17 4-2 2-8-2-9 10-2 5-10-2-8h-1c9 1 9 6 0 6-6 0-10-4-1-6h1c4-2 2-8-3-6h1q-1 0 0 0h-1 1q5 4-1 4-4-1 0-4c-3-3-7 4-3 6q-5 3-1 6C6 13 4 26 17 25c-6 2-11 11-3 14q-7 1-11 8-4 9 6 12l-8 1q-1 0 0 0H0q24 2 50 0z" clip-rule="evenodd"/>
</svg>
