<svg xmlns="http://www.w3.org/2000/svg" width="806" height="788" fill="none" viewBox="0 0 806 788">
  <path fill="currentColor" d="m347 760 14-22 8 2-5 27-2 17-8-2 3-16 3-17-12 19-8-1-3-23-4 17-3 17-8-2 4-15 6-28 11 1zm62 28-3-13-15-1-4 12-9-1 7-15 10-28h12l7 28 4 17zm-8-38h-1l-7 17 12 1zm40-8v28l2 17h-9v-15l-2-28zm20 30q6 6 12 4l4-2 2-3-3-4-5-1-7-2-5-3-3-6q0-6 3-11 5-5 11-6l12 1-3 10-5-2h-6l-4 2-1 3 3 3 5 2 6 1 6 3 3 6-3 12q-5 5-11 6l-9-1-5-3-1-1zm49-42q8-3 14 2 6 4 9 13 2 12-1 20-4 8-13 10-8 3-14-2-6-4-9-13-2-11 1-19 4-9 13-11m15 21q-4-16-15-13-4 2-6 6v11q1 7 6 11 5 3 9 2 5-1 6-6zm45-43 10 26 7 14-7 5-30-21 6 13 7 15-7 3-6-15-12-26 7-3 30 21-12-28zm60-8 6 7 10 2-1 7-8-1a16 16 0 0 1-6 11q-6 3-10 2-5 0-8-4-3-5 0-14-7-1-10-5v-8q0-6 6-8l9-4h2l1 8h-5l-5 2-2 3v3l4 2 10 2 6 1-7-7v-1l12-8 3 5zm-13 11 1 7 5 3 6-2q3-2 3-5zm50-64-10 9 8 10 9-9 4 6-9 8 2 1 12 12-7 6-10-12-21-21 18-16zm14-27q4-6 13-6 8 0 14 6 9 8 10 17 2 9-4 16-6 6-13 6t-15-6q-8-7-10-16-1-9 5-17m24 9q-12-10-19-2-4 3-3 8l7 10q5 5 11 5 6 2 9-3 3-4 2-8-1-6-7-10m40-18q-3 5-8 6-6 2-10-1l-27-17 4-8 23 16 7 2q3 0 6-4t1-7q0-3-6-6l-22-13 4-9 24 16q6 5 7 11 2 7-3 14m8-52-1 4 16 6-4 8-14-7-26-12 5-13q3-5 8-7h9q4 2 7 6l2 7 19-3 1 9zm-19-9-1 3 13 7 2-4v-6l-4-4q-6-2-10 4m17-63 26 9 15 4v8l-36 9 13 4 17 5-3 7-14-5-28-8 2-8 36-8-30-9zm5-24 27 7 17 2-2 9-15-4-28-4zm47-10-16-2-27-3-1-9 28 4 11 1v-14l8 2zM96 418q-1-6-16-7l-62-4q-14-2-16 5l-2-1 2-26 2 1q1 6 15 6l71 5q6 0 7-6l1-12q3-19-14-28l1-2 17 3-4 66zm15-117-23-6c15 8 26 22 22 36q-5 16-23 13c-14-4-15-20-15-38l-1-16q-19-4-23 12-3 11 5 26l-1 1q-12-17-7-35 6-24 32-17l26 7q13 5 17-1l1 1-3 13q-2 6-7 4m-9 20c3-13-13-26-25-29l-4-1v15c0 7 1 21 13 24 8 3 14-3 16-9m43-89q3-6-9-14l-50-38q-11-8-16-5l-1-1 17-23c19-26 36-22 45-15 14 10 19 29 1 52l-4 5 17 13q11 9 16 5l2 1-16 21zm-15-45q15-22-5-37c-10-7-27-12-40 6l-2 3 44 33zm60-12q4-5-7-15l-51-53q-7-8-12-5l-1-1 7-19h2l66 68q9 10 15 7l1 2-18 17zm59-53-13-19c6 15 5 33-6 41q-15 9-27-4c-8-12 1-25 13-39l10-13q-13-15-26-5-11 7-12 23h-2q1-20 17-32 20-13 35 8l16 22q7 12 13 10l1 1-11 8q-5 3-8-1m-20 10c12-8 7-29 0-39l-2-3-10 12c-4 5-12 17-6 26q10 10 18 4m40-20q5-4-1-17l-13-29q-4-10-10-9l-1-1 14-15h2l5 11q6-14 21-23 18-8 29 13l12 28q5 13 11 12l1 2-23 10-1-2q5-3-1-17l-11-25q-8-18-23-12-8 4-14 16l15 35q5 14 11 13l1 2-24 10zm66-60c-4-21 8-41 32-45q14-2 23 4l5-8 1-1 16 89q3 14 8 14l1 2-25 5-1-2q7-2 3-17l-6-31q-6 14-21 18c-18 3-33-11-36-28m43 18q9-2 14-11l-6-30c-2-10-13-20-25-18-15 3-16 16-14 27 2 13 11 36 31 32m42-24 1-25c0-9-2-10-5-12V7l19-7 1 1-2 44q-2 22 12 23 11 0 21-10l1-35c1-9-1-10-5-12V9l19-7 1 1-2 52q-1 16 5 16v2h-14q-6 0-6-6l1-6q-14 11-27 12-22-1-20-27m78-3c6-23 28-33 45-28 18 5 25 20 22 32l-51-14-2 4c-4 18 3 34 20 38q15 4 27-5v2c-8 8-22 16-38 12-15-4-29-19-23-41m54-2q1-19-14-25c-11-3-19 5-24 15zM336 625l-1-1zM697 36l-3 1h-2v1h2q-2 7-7 5l-11 8-1 2-1-1q-1 3-4 2l-4 8h-3l-1 1 1 2-6 7 3-8-12 16 6-4-5 6-6 6c-1-2 2-3 1-5q-3 3-3 7l-2 4q-1 2-4 2t-1-2h-1v-2l-3-4q-4 0-6 4v2l-1 6q0 9-4 18 1 2-3 1l-2-11-3-3q-3 1-5 4l-1 4-1 12c-1 7-4 18-8 22l-2-5q-1-6-6-10-1-2-4-2l-2 4 1 5 4 8-1 4v4l-1-1-1-3-2-5q-1-4-3-5-5-3-6 2-1 4 1 7l11 16v4q2 4-3 7l-4-3-7-14-6-10q-1-5-6-7-4 1-3 5-1 9 5 15 5 6 5 13l3 2q-1 2 1 2 2-2-1-2 0-9-6-16-4-3-5-10-1-2 1-2l-3-2 3-3 3 4 5 11-5-4 4 5q1 2 3 1l2 5q-2 1-1 3l5 8 1-2q3 2 7 2l4-2c0 3-4 5-3 7l-4 4q0-2-2-3l1 4v1l-1 3-1 1v1q-3 3-4 7v1l-2-1-1 1q2 5-1 10-1 5-4 9c-3 2 0 6-2 9l-2 6-1 4h-1v-1l-1-1v-4l1-3q2-7-1-14-4-6-13-5-8 2-10-6c3-1 15 1 17 3q7 5 12 13 2-5-3-8-6-4-10-9-5-3-4-9l19 15q2-6 0-10l-7-10q-9-9-10-23 0-2 2-1l3 3v-3l2 1 5 6 6 9v1q3 5 8 5 0-6-5-9l-1 1q-4-1-3-5l-5-6q-3-5-9-6-7 1-5 6l1 4q0 10 8 17 5 5 8 12v3q-5-2-7-6-6-4-9-10-1-3-4-3-4-3-3 2l2 6 2 5a354 354 0 0 0-86-28l-34-1a281 281 0 0 0-62 9l-30 12-27 21h-1l-2 2q-3 3 0-1l-18 16-18 16-3 3-3 4v-1l-8 8-3 4-5 4a168 168 0 0 0-28 41l-6 16q-9 31-10 64l-1 16-1 49q2 17 6 33l3 9 2 3v2l1 2 9 15q6 10 15 19l5 6 5 8c1 0 3 3 3 1l5 8h1c8 8-2-1 7 10a216 216 0 0 0 51 41l5 3-3-1 21 12 21 9c-2 0 3 2 4 3 6 1 14 6 22 7h-1l33 8a146 146 0 0 0 35-1q20-2 40-8l2-1h2l23-7 2-2 15-5 15-7 2-2 6-3h2l17-11 8-6 5-4 6-5 2-3 5-5-1 2 18-19q10-12 16-24l1-1 13-23 11-24 8-15 3-13 3-4q4-12 5-22h1v-23l-1-5v-6l1 3a154 154 0 0 0-10-44q-1-9-7-23l-3-8q-1-6-4-8l1-1-14-27-3-3 1-1-4-3-2-2-4-6 6 6-5-6-3-6-2-1 2-3q1-4-3-6h-4l-1 1-3-4 1 2-4-2 3 3-6-6c0-2 4 2 2 0l-3-3q5-4-2-6-2 1-3-2l6-3q6-4 4-11 2-3-2-3l-4 1q-7 1-11 7-7 8-18 8-6 2-8 5-2 4-5 4v-6l6-7q7-4 12-10l7-7c7-2 12-8 20-9q4 0 5-5 0-4-7-5h-3l-11 3-15 10q-1-4 1-7t2-6q4-5 9-8 7-9 18-7l2-1q5 0 5-4t-5-5h-7q-7 1-12 4-2 2-2-1 9-10 21-13l7-2q4-3 3-7t-6-4q-5 1-9 5-2 1-2-2c8-13 5-10 19-14l6-3q2 1 2-2t-3-3q-3-2-7-1-2 1-5-1 0-3 2-5l4-3q11-2 19-8 7-3 7-10 0-3-4-2l-6 2-4 2q-2 0-1-2l4-6 1-1 1-1q2-5 6-8 4-1 7-5l10-8q9-4 11-13l-1-2q-4-1-6 2l-1-1-2 3h-2q-1 3-3 2l2-2 4-4 5-5 4-6v-1l3-4 12-7 9-9zM575 143c6 2 4 1 7 13q-8-8-7-13m-6 38v1zm62-79c-3 0-1-3-2-3v-1c4 0 2 2 2 4m-2-5-1-5q4 2 1 5m-3 3h2q1 4-2 4zm2-2v1zm-2-3 2 2-1 1zm0 9q3 1 0 4-3-1 0-4m-2 7h2q0 5-4 5zm-8 9h1v3h-1zm-14 22q4-12 4-26l1-7q5 0 6 5v7l1 8-2 3-3 4h-2q-2 7-8 13zm-16-3-1-6q6 4 8 13v2q4 1 4 4v1c1 4-5 2-4 6q1 4-1 7l-3 6v1-1l-2-4 1-2q5-3 2-7-3-6-1-10l-1-2 1-1 3 3 1-1v-2l-3-3q-1-3-4-4m-11 62 4-7q1-2 3-2-2 1-1 4l-4 6q-1 3-3 3zm-17 51q1 1 3-1l1 3-2 5c-3 0-1 2-2 4l-1 5-2 1 2-11zm2 17 2-2 2-2q1 1 3-1h1l3-1 2-1c1 0 4 0 1 2q-5 5-13 8zm-4 22 2-3q12-9 27-11h2q0 2-2 1l-2 2q-3-1-4 1-3 0-5 3-2-2-2 1-2-1-3 1-1-1-2 1-3 0-3 3-3-1-3 2-4 0-6 3zm-20-55q-4-1-3-6l7 5 5 5q3 2 4 6l5 9 2 3q-3 1-3-2-5-4-5-10zm22 13-1 2q-2 2-3-1-5-9-13-16l-6-5q6-1 8 2 8 8 15 18m-15-59h1q4 1 2 7zM310 600l-2 1-1-1-4-31 1-8-2-2v-4l1-2-1-2v-13l-1-3q0 2-1 1v-4l-1-2-1-7v-3q-2-4 0-8l-1-1q-2-2-2-6v-3h1l-1-2v-6q-1-2 1-2l2 14 1 8-1 6v3q3 3 1 7 2 0 1 2v3h1q2 2 1 3l1 2 1 13 1 7 1 16q0 2 1 1v-1 1l1 6zm-13-70-9-4q-6-2-14-2-4 1-7-3h10l2-1 15 6 1 1q2 1 2 3m-3-54 1 2v8l1 5h-1v-5l-1-5zm-31-21-2-1-3-2q7 0 11 3l-5 1v-1zm-2 1h3l6 2 6 1 9 6h2v1l3 4 1 2-1 3-4-5q-4-4-10-6l-5-2-7-3q-3 0-4-3zm24-11q2 1 2-1l1 1v5q-1 1 1 2v4l-1 1-2-7zm-3-36-1 2v-8l1-2 1 3zm-3-25-1-1q3-4 0-6-3-1-4-6l-1-1v-1l3 1v-2h-3l-4-2-2-3q5 0 9 5l1 1 3 2 1 1c1 2-3 3-1 4l1 6v5-1zm10-51 2-14 3-10 3-3q3-2 3-5l1-2 3-1c-1 2 2 4 0 6l-5 6-5 11v-4l-1 4-1 8v16l2-5 2-4 3-4h1l1 1-1 4-2 2-2 4-4 3q-3 0-2 2l-4 12v4l1-4 1 1-2 3v6l-1 3-2 11h1l-1 3v-3l-1-13v-3l2-10v-4l1-3 1-8zm11-48v3l-1 3-1 2v1zm-5 72q-1-1 1-1l3-1-3 5-4 2-3 5v-5l-1-1 5-4zm-8 8v2zm1 19v-3l1-2 7-8h2q3 5-1 6l-1 1-7 7-1 2zm-3-43v-4l1-1q2 3-1 5m2-12-2-1-1-1q3 0 3 2m-3-2-1 1-1-1zm0 2q2 1 0 3l-1-2zm0 3q2 0 2 3-2-1-2-3m0 14v-2zm0 5-1 3v4l-2-3 1 3q1 6-1 10l-1-5q0-9-5-18l-1-4q3-2 5 1l2 5zm-1 53v-3l1-15v-2l2-11q2 1 1 3v5l-1 8v5q-2 14-1 28l1 7v2l1 2q-2 3 0 5v6q-2-3-2-7l-1-6-2-17q2-6 1-10m1 41q0 2-2 0-6-4-13-6l-5-1q3-3 6-1l14 7zm-15-5 4 2q3 0 4 3 5 0 6 4l2 1q-1 2-2-1-4 0-6-4l-11-3q-2 0-3-3zm19 25h-1l-4-4-3-2h-2l-7-2 9 1v1q5 1 8 4zm2-16v-2l-1-1-1-1v-3q0-1 0 0 1-3-1-4v-5q1-2-1-2v-13q0-9 2-17-3-2 0-4l2-3 1-1 2-1 1-1-1 1-1 2-1 1-1 2q-2 1-1 3l1-2 2-2 1-1 2-2 1-3q4-3 7-2l-1 2-7 3-2 2v1l-4 9q-2 2-1 5v9l1 3q3 1 3-3l7-10 7-5h1l-1 1-1 1-1 1q1 1 2-1l3-2v1l-12 14-2 7-4 8v2l-1 1-1 5h1v3l1 3q1 3 4-1l1-4q0-3 3-5 7-4 9-12l4-6h1q1-2 3-1l-2 2-1 2-1 1-5 10v1l4 1 5-4v3q-1 3-5 5-5 1-10 5v-2l2-2q3-1 2-4-3 2-4 6l-4 4-1 2-1 1-1 1-1 1-1 1q-2-1-2-4m22-20 1-5q2 0 1-2 4 0 2 2zm2 2-3 2q0-3 2-3zm-22 23 1-2 1-1 1-1 1-1q2 0 1-2 2-1 2 1-2 5-6 9-1 1-1-1h-1zm12 8q-2 0-2 2l-1 1-1 3-2 2-2 4-1-3 1-2q5-10 13-15l2-1-1 1-1 2-2 2q-2 1-2 3-2 0-1 1m13 11-1 3q-1-1 1-4zq2 0 1 2t2 3q0-2 1-1v1h-1l-2 3-1 1-1 1-1 1q-1-1-1 1h-1v-1q-4 3-5 7l-1 1q-2 0-1 1-1-1-1 1h-1q-2 1-2 3h-1l-1 3q-2-1-1-3l6-9 9-9 1-1v1l1-3 1-1zm0-3 1-1v2q0 1 0 0zm6 7 1-1h-1l-2 1 9-18 4-2v3l-3 4-5 9h1q2-3 5-4h1l5-3v4l-5 2v1h-1l-1 1h-1l-1 1-2 2h-1l-3 3-1 1h-3q3-1 2-3zm10-14 1-3 1-2q1 2-2 5m-33 37q2-1 1-3h1q2-1 2-3h1l1-1 1-1 1-1q5-1 5-6h1l1-1 1-1 2-1 1-1 1 4 3-2h4q1 3-2 4l-3 1q-7 2-13 7l-9 7zm24-18-1 1v-2h2l1-1zm-17 46-1 3 1-2 3-2 1-1 1-1 1-1 1-1 5-3h1l3-1q2 0 1-1h3l1-1h3l3-2 1-1h1l2-2-2 4-10 6-4 1q-6 1-10 7l-4 4-2 1-2 2q1-3-2-4l6-10zm2-13q0-5 4-10l-2 11-1 3-1 1zm5 6v1q-2 1-1 2-1-1-1 1l-2 1-1 1 1-4 4-15 1-4 1-1 1 2-3 8q-3 5 0 8m16-23 1 1h1l4-5q0-5 4-8l4-6 1 3h1-1q-1 5-4 8l-1 2-3 3-2 2-1 1 1 1v-1h1q0 4 2 3h1v1h-1l-1 1-2 1h-1l-1 1h1l1-1 2-1h2l9-6q0 4-3 4l-9 5q-5 3-7 9l-1 1-1 1h-4l-3 1h-1q-2-1-1-3l7-13 1-5q0-5 4-8zm9 4 2-2q0 2-2 2m5-4 1-2h3l-1 1q-1 2-3 1m-37 56 4-7 2-4-1 8-1 7v1c-2-2-3 1-4 1zm8-4 3-1 3-5 3-3-1 4-2 6 7-1h1l1-1 2-1h2l2-2q0-2 1-1h2v-2l11-3q1 3-2 2l-1-1v1h-2l-1 1h1l2-1h1l-2 2-11 5-5 2v1h-1l-2 1-6 3h6l7-1 2 1-2 1-5 1 4 1-6 1-2-1-2 1h-12v-1q6-1 12 1-3-3-7-2-2 0-3-2l-1 1v-6l2-8 3-3-2 8zm14-10h3v-1l2-2v2l-1 1-1 1h-1v1l-1 1-1 2h-1l-1 1-1 1-3 1 1-3 2-6q0-2-1-1l3-5q0-3 4-3v2l-3 6zm8-3 1-1zq0-2 2-3h1l5-6 1-1h1l1-1h2c1-1 1 2 3 1l-1 2-6 5-1 1h-2q1 1-1 2l-3 3-5 4-3 2q-1 2 1 2h1l-1 1-2 1-2 1q-2 0-2-2l1-2q1 1 1-1h1l1-2q2 0 1-1 1 1 1-1 2 0 1-1l1-1q3 0 3-2m-13 4 1-3zm44 91-3-2-5-2c1 0-5-1-7-3l1 1-12-5 3 1-14-7-3-1-7-5-5-2h2l-7-4q0-4 2-6l6-1 2 1h10l-1-1h-1l-3-2h-2v1h-1l-9-1q-4 1-2-4l10-18v3l1-3 2-2q2 1 1 3h1q1-2-1-5-2-1-5 2l-4 7-6 11-2-11-2-12q-1-3 2-4h8q9 1 18-1 3 0 3-3 0-2-3-3-2 0-3-2l16-8q4-1 2-5h-4l-4 1-2 1v-1l1-1 1-1 3-3 7-5q3-3 2-5t-6-1h-1l-1 1-1 1-10 9-1 1-3 1 2-4q2-3 1-5h-4q-2 0-3 2l-6 13-4 4 2-10q-6 2-8 6l-4 9v2l-1-1v-1l-1-8q-2-5 2-8l1-1 1-1h1l2-3q4-5 11-6l4-1 9-6 5-5v-3q-1-1-3 1l-3 2-1 1h-1q-2 1-1-1l5-4 10-6q4-4 2-9h-2q-2 0-3 2l-1 1h-1l-1 1-2 1v-2h2l3-6 2-5q2-2 1-5l-3-3-1 2-1 3q-5 4-7 10l-4 4 2-6-1-2q-3-2-4 1l-2 5q-2 12-9 21l-3 3 4-14q1-2-1-3-2-2-4 0-5 6-5 14v3q-1 6-6 9l-1-6-2-16q-1-2 2-3 5-1 8-6 6-6 14-8 4 0 6-4 2-3-2-4l-1-1 1-1 12-8 1-4q0-4-4-2-2 1-2-1l1-1 5-10 1-2-1-1q-2-2-2 1l-1 3 1-3h-1l-7 8q-4 4-6 10l-4 6 1-6-1-3-2 1-2 4q-3 7-9 13l-2 4-4 3-3 4v-18l8-11 3-3v-1l-4 3-5 6-3 4v-1l1-4h1l1-2q2-1 1-3 2 1 1-1l2-1 1-2q2 0 2-3 2 0 2-2 4-1 5-5 2 1 2-2 3 0 2-2l4-3 3-1 1-1h1l1-1v1l-1 1-2 1-11 12-3 2-2 4v1l3-4 8-7q5-7 12-10l2-1q2-1 1-4l-4-2-2 1q-4 5-10 6l-6 4q-3 6-8 9-6 6-9 13l-2-1-1-3q0-5 3-8l4-6q2-5 7-6l8-4 5-6q1-4-4-4h-2l3-4q3-4-1-8 0-2-2-1l-2 2q-4 3-6 7-2 7-8 11l-4 5q0 3-2 4l-1-4 1-6 5-10q0-4 2-6 5-7 10-11 3-2 2-6-2-2-6-1l-2 1-6 6-7 10-1-4-1-5 4-8q2-7 9-9l1-1q3-2 2-5-2-2-4-1l-5 2q-4 2-6 6h-2q3-9 10-15l3-3v-5q-2-3-5-1t-4 6h-2c1-12 0-9 8-15l3-4v-2l-2-1-5 1q-1 3-4 2-1-2 1-4l1-3 10-11q3-4 1-8-1-3-3-1l-3 4-2 2q-2 1-2-1l2-5-1-1 1-1 1-6 4-6 4-8q4-5 2-11l-1-1-3 3h-1v2l-2 1q1 1-1 2l1-2 1-4 2-4v-6l1-4 5-8 4-8h-2l-2 1-1 1 1 1 1-1h-1 1q1 5-3 6l-5 8v1l-1 1q1 2-2 1v7l-2 1v1l1 1-2 6v-6l-3 13q2-1 2-4l-1 6-2 5-1-3v8l-1 3-2-1-1-1-3-2q-3 1-2 4v2l1 3q3 7 3 13l-1 2-5-6-3-2-2 4v3l3 8q3 9 2 16l-3-3q-2-3-6-4h-4v3l2 3 5 4 1 3v2h1-1l-1-1-3-4-4-2q-3 0-3 4l3 3 12 7 1 3q2 2 0 5h-4l-8-7-7-5-6-3q-2 2 0 5 2 6 8 8l6 6 3 1 1 1q1-2-1-1-2-6-8-8l-7-5q-1-1 1-2h-3l1-3 3 2 7 5-5-1 4 2h2l3 2v2l6 4v-2h5q0-2 2-2v5l-1 3-3-1 2 2 1 1v10h-2q3 3 2 7l1 7c-2 2 1 4 1 7v4l1 2-1 1-1-1-1-1v-1l-1-3q0-5-4-8t-10 0-8-1l11-3q7 1 12 5 0-3-4-4l-9-3q-5 0-5-5 7 4 16 4 0-4-3-6l-7-4q-9-4-13-11-1-2 1-2l2 1-1-1 2-1 5 2 7 5c2 0 4 3 6 1q-2-4-5-4h-1v1l-4-3-4-2q-4-3-8-1-3 2-1 5l2 2q3 7 10 9l8 5q2 1 1 2-3 1-6-2-5 0-8-3l-4-1q-3 0-1 2l3 3 3 5-5 2q-3 1-1 4 3 3 7 2l3-2q6-2 8 1l4 7 1 2 1 1v1l1 1v2l-12-5h-4q-3 0-4 4 0 3 3 4l5 2q6 0 9 4l4 2q5 3 5 9l-9-4-13-5-4-1q-4-1-5 2t1 5q4 4 7 4l11 5q5 0 9 5l6 7 2 3v-2q0-3-2-2l1-2 1-4q2 4 0 8l1 2v2-2h-1v11l-2-2-1-1-1-1-2-3q-12-13-28-22l-3-1-11-4-1-1-1 2 2 3 9 8 4 4-4-1-2 1 1 2 3 3h1-1q3 5 8 7l14 4 11 5q2-1 2 1h2l1 4h-1l-1-1 1 1 2 2v3l2 15v3l-1 2q2 0 0 0l-1-1 2-1-2-3q-2 1-1 2-3-2-7-2l-1-1q-1 1 1 1h-7q-2-1-2 1h-2l-6-2h5l1-1q1-2-1-2l-1-1-14-9-8-6q-2-3 1-3h3l8 5 6 5h2q1 3 5 4l-1-4h2l2 2 2 1 1 1h1v-1l-1-1-2-1-2-1-3-4q4 0 5 2l3 1 1 2 2 2-2-2-1-2-5-4h-5l-1 4-1 1-7-6q-4-4-10-6-3-1-5 2t1 4l1 1 12 9 9 6c-3 2-6 0-9 2q4 6 10 7 8-1 14 1l9 4 2 3 2 17q1 3-1 5l-2-1-1-1q1-3-2-3v1l-2-1-6-2-6-5-1-1v-1l-1-1 1 1v1l1 1 1 1 1 1 1 1-1 1h-2l-5-2-11-2-2-1-2-1-6-2-7-7-1-2q2-2 3 1l15 8 7 4h4q1-3-1-4v-1l-5-8 4 2v1-1l1-1 2 2v1l2 1 2 2 7 8 1 1v-1c0-2-3-3-1-5l-1-1h1v1l3 2q0 2 2 2v1l1 2v1-1l-1-2v-1q1-3-2-5l-2-2-4 2-3-3-2-1q0-2-2-3l-2-1q-2-3-5-3-4 1-2 3l5 7 1 2q1 2-2 2l-5-3q-8-6-18-10l-1-1q-4-1-3 3l2 4q8 7 18 10 6 4 2 8-4 3-1 5 2 2 4 0l7-5h2v-1l2 2h-2l-1 1q-4 3-3 7l1 1q3 0 9-4 4-3 8-3l7 3q2 8 2 17l1 7v8h-1l1 1 1 5-7-5-4-3-3-2-1-1-5-3h1l-5-5-2-2-2-1-5-4q-2-3 1-1l-4-4-4-4 2 2-2-2v-1l-2-1h1l-5-5-16-19-4-4-3-5h-1l-12-18 2 1-5-7-4-7 1 1-2-6-2-4c0 3 0 0 1 2 0 3-2-2-3-4v-1l-2-8q0-1 0 0l1 1-2-10-1-2v-4l-1-4-1-4s1-3 1-1l-1-8-1-6v-11 2l1-3c0 4 1-1 1 2l1-18c-1 4 0-7-1-7 0-7 1-3 2-6l1-19v1l1-20q1-1 1 1c1-6-2-1 0-8v2l2-13 1 1 2-11 2-8 2-3 1-5 2-5 3-3q7-15 18-28l22-25c3-2-3 4-1 3q-1-1 7-8l6-5q5-3 6-6l3-1 6-6 10-8 7-8 1 1a221 221 0 0 1 42-28v1l6-3 4-1 3-1 12-4 2-1h4l5-2 4-1v1l13-2h-1 35l17 1 8 1h7c5 1 2 2 4 2q14 1 29 7l26 9 15 4-1 4q-4-2-8-1-4 0-3 4 1 7 8 7h5q8-1 10 6 3 6 1 11v8l-1 3-13-14-4-2q-5 0-8 3-2 4 1 7l6 5q7 4 9 12l3 4q5 6 2 15l-9-11-14-14-5-4q-4-4-7 0-4 2-2 7t7 10l11 12q5 5 8 12l3 13q0 3 2 4l1-2c-1-1 2-3-1-4l1-1q3-1 5-4-1 5-4 9l-1 3v2l-2 1 1-1 1-2h-1l-4 7-3 8-2-5v-2l-1-1-1-6q-8-24-23-45l-3-3q-6-5-11-13l-2-1-2 2 1 6 7 14 3 9-6-4h-2l-1 2 3 8 1-1-1 1q1 7 6 13l16 13 10 14 1-1q2 1 1 3 2 0 3 2 1 3-1 5l-1-1v-1 1l1 4-2 5-6 20q1 3-3 4h1-1l-1 2v1-1l-1-2h2v-5q-3 0-2 2l-7-7h-1l-4-2q-2-2-5-2-2-2-3-1-1-3-3-1-4-2-6-5l6 2h2q2-3 0-4l-1-1-13-20-6-14q-2-4 3-3l3 2 8 11 5 11 2 1q0 5 5 8 2-3 0-6l4 2h1l-1-6q3 1 5 5l2 3 1 3q-2 3 2 4l-1-4q1-1-2-3 1-5-3-8-2-3-6-3t-4 4q-2 2-3 1-1-7-5-13-3-7-9-12-4-5-8-2t-1 7l1 2q3 10 10 18l8 13c-5 1-9-3-14-2q3 10 10 14 10 5 17 11l9 11q2 2 1 5l-8 23q0 4-4 5 0-2-2-1 1-3-1-3 3-3-1-5v1l-2-2q-2-4-6-6l-3-3v-2l-1-2v-2l-1-2v-2l-1-1v-2 2l1 1v2q-1 2 1 2v4l-1 2-9-8-11-9-3-3-3-2-6-7-5-13q-1-1 1-3 2 0 3 2l15 21 7 9q2 2 5 2 2-2 1-5v-2l-2-13c3 0 2 4 4 4v3-3l3 1q-1 2 1 2v2h-1l2 3 2 4 3 15h2c1-3-2-6 1-8v-1h1v1h-1l3 5 1 4v6-6h1c3-3 0-5 1-7l-2-4q-4-3-7 0l-2-6-1-3-2-5-1-2q-1-5-6-7-4-2-4 3l2 12v2q1 3-2 2l-6-6q-7-13-17-25l-1-1q-4-3-6 1l1 7q6 14 17 24 5 8-3 12-5 2-4 5 2 5 6 3l12-2h2l1-1q2 1 1 4l-2-1-3 1q-6 1-7 7l-2 1q-8-3-7 5l1 4 2-4h1q-3 0-1-2v-1l1 1q4-1 4 3l1 2q0 3 2 4-2 2 1 2-2 3 0 4l1 2v1l2 6v2q-1 3 2 4l2-1v-5q3 0 0-2v-2l1-8c2 0 1 4 4 2l2 2 3 4q-1-7-6-10-5-1-5 1-1 5 1 9v4q0 5-4 2v-2q1-3-2-6v-3q1-2-1-4l-1-2q1-3-1-4c1-2-2-4-1-7q8 2 14 1 7-2 13 1 5 3 7 8l-8 23-4 10v2l-3 8-1-1q0-2-2-3l-1-5q0-2-1-1c-3 2-3-2-4-3l-4-3q0-6-5-8 0-3-2-4l-1-1v-2l-1-4v-11l1-1-2-1 1 2-1 3 1 2v1q-2 2 0 5-1 2 1 4v3q-3 0-4-3c-3-3-1 1-2 1h-1l-3-1h-4q-9-1-17-4l4 3q-4 0-7-2l3-1-3-3q-3-1 0-4h2l6 3q5 3 11 4v1l1-4-11-18q-4-4-4-7 2-7-3-9v-2 1q-2 1-3-2l-1 2q8 17 19 33 2 2 0 3-7-4-15-5h-2q-4-2-3 2l2 6q5 6 12 6l15 4q3 0 4 4c-2 1-4-2-6-1h-3q2 2 3 1l4 2q4 0 3 3l-3-1h-2l-3-1h-6q-2 0-1-2l3-2q-3 0-3 2-3-1-3 2t3 3l15 6q13 2 22 14v4l-15 36v2l-2 1q0 5-3 11-4-5-9-7-10-5-17-13l-3-6q4 4 9 6l-8-7q-2 0-2-2h3l6 5 2 1 1-4v-3l2 2q1 4 4 4 0 3 2 3-1 2 1 3l1 4-3-3-9-3 8 4 9 8 2 3 1 1v-2l-2-4-2-4v-2l-1 1q-2-4-5-6 0-2-2-3l-3-4q-2-4-2-9l-1-1-4-4-2 2q-6-4-11-10l6 4q3 4 6 0 0-4-4-6l-1 1q2 2 1 5l-8-6q-4-1-5 4l2 3q1 3 4 4l10 8 4 6-6-4q-2-2-4-1-3 2-3 5l1 3q-7-1-7 4l-1 3v4l-2-2v-1l-1-4-2-2v7q3 2 2 6 3 1 2 3 3 1 4-2l-1-12 1-2q5 8 0 14l1 3q-2 2 0 2l1-1v-1c1-1-1-4 2-4l-1 5q-1 11 4 21l3-9 5-7 4 3q0-5-4-3-5 1-6 6l-2 4-2-17 1-5v-11q8 10 21 16 5 2 9 8l-15 29-3 6q-1 2-2-1 1-2-1-3v-4q2-3 0-6l4-18v2q-3 1-2 3-3 7-2 13-3 3 0 6v4q-2 3 0 7l-1 5h-1l-2-1 1 1 1 2q0 5-5 4 1 4-1 8l-18 23v1q-2-4 1-7 5-12 6-24 2-2 0-4 2-1-1-2 2 0 0-1v-2q-1-5-7-3 3 1 2 4 0 2 2 1v-2h3v5q-2 15-7 29l-2 7-2-1-1-2v-5q1-3-2-4l-1-1c0-2-3-4 0-6q8-9 6-21l-2 10q0 5-4 8l-1-9v-8l1-7 3-17v-1q-2-6-7-6-4-1-5 6v13l-1 3-1-2-2-7q0-3-3-6 2-1 0-1 2-3-1-5v-2 2q-2 3 1 5v1h-2l3 10 3 10q-1 1 1 3v-3l4-7v-15q0-3 2-3l2 3v1q-1 3 1 5-3 4-3 8l-1 2h1q-2 1-1 4-2 1-2 4l-1 3-2-2-1 2v1-1l-5-3-11-8-11-9 1-1 12 9 9 7v-4l-9-25h-1q2-4-1-3-1 2 1 3v3l6 17q2 3-1 3l-2-2v-1l-1-1q-5-5-11-7-2-2-5 0l-1 2v-12l-1 1v-1q0-1 0 0l1-8h-1l1-6-1-1 1-1v-10 1-2 1-5 1-4l1-1v-6q0 1 0 0v-1 1-1l2-7v-4 1-4 1l1-3 1-1h3l1-1h2l2-2 3-4 2-2 1-3 1-3h1l1-1v-1l1-2h1v-2l1-2v-1l1-1 1-2 1-2 1-2q0-2-2-1l-1 1-1 1 2-4h1v-1l1-1h1l1-1 1-1 2-1 2-1q1-2-1-2l-2 2-2 1-1 1h-1l-1 1h-1l1-1 1-1 1-2 2-2 1-2v-1l1-2 1-2v-1l1-1v-1l1-1 1-2v-1h-1l-1 1v1l-1 1-2 2-1 1-1 1 1-2 3-13 1-1 2-2 3-2v-1l-1-1-4 4 5-11v-1h-1a33 33 0 0 1-8 14h-2l-4 2 3-2v-1h-1l-4 2v1l-2 1v1l-6 4 2-2 1-2 4-3 1-1-2-1-4 4-2 2-1 3v1l-2 2-1-2v-1l2-2 1-1v-1h1v-2h-1l-1 2-1 1-2 2v-1l1-1v-2h-1l-1 1v-1h1l1-1v-2l2-2v-1h-1l-2 2-1 2v1-3l1-2 1-3v1h1l1-2 1-1 2-2 4-3 1-1h-1l-7 5-1 1v1-1l1-3 5-5v-1l3-1 2-1h2l1-1h6l2-1h2l1-1 2-1 2-1v2l-1 3 1 1 1-1 1-6-1-1 1-1 1-1v-1l1-1v-2l-1-1-1 3-1 1-1 2v1l-2 1-2 1-1 1h-2l2-1 1-1 1-2 1-1 2-3 1-3 1-4 1-3 1-2v-6l1-3-1-1 1-1 2-2 5-9 1-4 3-5v-1h1l2-1 2-1v-2h-1l-2 1-2 2-1 1h-1v1h-2l-1 1 1-1 1-1 1-1v-1l2-1 1-1 3-2v-2h-1l-3 2v1-1h-1v-1l-1 1v1l-1 1h-1l-2 1-2 1-4 2-1 1 2 1 6-3-1 1v1h-1v1l-1-1-5 2-5 2v2h-3l-2 1-2 1v-1h1v-1l-1-1-1 1-2 1v1h-1l-1 1v1h-1v-6h2v-1h1l1-2 1-1h1v-2h-1l-2 2h-1v1h-1l-1 2v-1l-1-2h1l1-1 1-1h1v-1l-1-1-1 1v-1l2-1 1-2 3-2v-1h3l1-1h1l4-1h9l7-2-1 1 1 1 1-1v-1l1-1 1-2 1-1 3-5 2-3v-1h-1l-2 3-2 2-2 3-2 2-1 2-4 1h-1q5-4 8-9v-1h-1l-1 1q-2 5-8 8v-1h-2v1h-1v1h-4l-2 1v-2h-1l-1 1v1h-2l-1 1h-2l-1 1-1-2v-1h1v-1l1-1h1v-1l1-1h-1l-2 1-1 1-1 1v-1l-1-1v-1l1-1 1-1h1l3-3 2-1 1-1h2q1-2-1-2l-1 1h-1l-3 2 1-1 1-1 2-1 4-1 2-1h3-1l1 1h2v-1h-1v-1h10l2-1 1-1 1-1-1 3v1h1l2-4 2-4v-2l1-1 3-6h-2l-1 3-2 2-3 5v1l-1 1-1 1h-1l-2 1h-1l1-1 1-1 1-2 1-2v-1l1-1v-1l1-1v-1l1-2v-1l1-5v-1l1-1v-2q0-3-2-1v5l-2 4v1h-1l-1 1h-1v1l-2 2v-1l2-11-1-2-1 1v6l-1 1v5l-1-1-1 1v1l-1 1v1l-1 2-1 2v1h1l-2 2v-1h-1v3h-4l-3 1 1-1 2-4 2-2v-1l2-3v-2l-1 1-2 3-1 1-1 2-2 4-1 1-2 1v1-2h1v-1l1-1 2-2v-1h-2l-1 2-1 1v-1l-1-1 1-1v-1 1h2v-1l1-1v-1l1-1v-2h-1l-1 1v1l-1 1v1-1l1-1v-1l1-1-1-2-2 2v1-1l3-4v-1l1-1 1-2 3-3 1-2 2-1 1-1 2-2 1-1 2-1 1-2v2l1 1 1-1v-6l1-1v-3l1-2q0-2-1 0l-1 2-1 1v2l-2 4-1 1-2 2-1 1-2 1-1 1-2 2-1 1-1-10v-1l1-3v-2l-1-1h-1v4h-1l-2 3v1h1l1-1v6l1-1 1 6-1 1v-3l-1-1v2l-1 1v3h1l-2 2v1-1l1-2-1-1-1 1v1l-1 2v3l-2 3 1-1v-2l-1-1-1 1v4-6l1-3 1-3-1-1-1 1-1 3v2l-1 3q0-7 3-12l1-1v-2l-1 1-4 8-1 5v-1l-1-2-1-5v-5l2-3v-1h-1l-2 3-1 4v1h-1v2l-1 1-1 2v1l-1 1v1l-1 3-2 6-1 12-3-1-1-1v-1l-1-1v-2l-1-1v-5h-1l-1 5 1 5v1l-1 1-1 9-1-2-1-1v-1l1-5-1-1-1 1-1 5-1 5v1h1l1-3v1l3 2 11 11 3 7v7-6l-1-1q-1-2-1 1v6l-1 3v1l-1 2v-4l-1-3-1-2-1-2v-1h-1l-1 1 1 2 1 3 1 3v3h2l-1 2v-1l-1-2-1-1v-2h-1l-1 1 1 1v2-1l-1-1v-1l-1-1-1-1-1-2v-1l-1-2-1-3-1-1-1 1 1 3-1-1-1-3-1-2v-8l-1-1v-3l-1 1-1 12v2l-1 1v2l-1 1-1 4v3l-1 2-1 1q0-1 0 0l-1 1v4l-1-1v-8l1-4-1-1-1 1-1 3v8l1 2 1 2v1h1v-1h1v3l1 1 1 3 1 2 1 2 3 3 4 3 1 1 1 1-1 1 1 2 1 1 1 2 1 1v-2l1 1v2l1 3v2l-1 1-2 2v-5l-1-2v-2l-1-1-1 1 1 2v7h2l-2 3v-1h-1l-1 1v4l-1 1v2-1l-1-1-1 1v3l1 1-1 3-3-3v-4l-1-1-1 1v2l-1-1-4-4-1-1-2-4-1-4-1-11 4-15-1-1h-1v-1l-1-1v-2l-1-1-1-2-1-6 1-6h-1l-1 6v8l-1 3v6l-1 2v6l-1 4v6-2h-2v9l1 1 1-1v-3l1 2v1l1 1 1 1v1l6 5 1 2h1l8 8 3 5h-1v1l1 2h1v-1l1 4-2 3v-2l-1-3v-3l-1-3h-1l-1 1 1 3 1 2v6l1 1-3 5h-1v3h1l-1 3-1-3-1-4-2-4q-1-1-1 1l1 3 1 4 1 5-1-2-1-2-1-2-1-1h1v-1l-1-2-1-3v-2l-1-2q-2-1-2 1l1 2 1 2 1 3 1 1-2-2-2-2-1-2-1-1-1-1 1-2-2-6-1-3h-1v3l2 7-1-2-2-4v-18l-1-1-1 1v8-2h-2v2l-1 2v14l1 2 1-1v-4l2 1 1 1 1 1 1 1 2 2 1 2 3 4 2 2 1 1 1 2v1h1v1l2 5v3l1 1h-1l1 1v5l1 1q-3 5-3 10v3h-1v-1l-2-5-2-4h-1l2 5 2 5-6-3v-2l-2-3-2-5h-1v1l3 8-4-3v-1l-1-1q-4-3-5-8v-3l-1-3v-5l1-8v5l1 6h1v-12l-1-1v-2l-1 1a49 49 0 0 0-1 23l4 8 1 2h1l1 3 1 1 1 2 1 1 2 1 1 2 2 1 1 1v4l-1 1v4l-1 2q0-1 0 0v3l-1 6v3q0 1 0 0v6h-1l1 4h-1l1 3-1-1 1 1v3l-1-1v26l1 5h-1l1 2v16h-5q-3 0-3 3-4 0-4 4-5 3-8 8l-5 2q3-6 3-10h-4l-2 2-10 14-3 4v-4q-2 1-2 4v2l4-2 3-5 6-8h1v2l2-5q2 0 1-1v-1h2l1-1v1l-3 7q-2 4 3 3l2-2q1 1-1 2h-1l-1 2-1 1h2l3-3q2-1 2-3l-2 1h-1l1-2q5-2 8-8 3 0 4-4 3 0 3-3h1q4 0 4 4l-11 11-8 7-3 2-1 3 3-1 2-1 11-2 2 1v5q0-1 0 0l-26 4-4 2h-2q-2 0-2 2t3 2h1l6-1 6 1q0 3-3 3l-3 1-2-2h-1l-4-1v2h1l1 1 5 1h4q5-1 3-5-3-3-6-2l-7 1-2-1 2-2h1l17-3 11-2q2 0 1-1 2 1 2-1 1-3-1-5t-4-2l-8 2h-2v-1h1l2-2 8-6 8-9 1 9-1-1v3l1 2v5l1 3v3l2 13 2 7v4l1 3 3 17v1l2 7-7-2zm-57-179 2-3 1-1 5-5-1 3-2 2h-2v2h-1zm20-16h2v2l-2 1h-1v-1zm-59-59q-8-3-8-7c4 0 3 0 8 7m-11 36-4-3 1-1q3 1 3 4m22 73h-1l-1-1-1-1-1-1q0-2-3-3v-1l-3-1-1-1-2-1q-1-3-3-3-1-3-3-2l-3-2-3-1-1-1-3-2q1-1-1-1l1 1 1 1 2 1 1 1 2 1q1 3 4 2 0 2 3 2l3 3 2 1 1 1 2 2 1 1 3 2 1 1 1 1 1 1-2 1-7-2-1-1h-1q-1 1 1 1h1l2 1 5 2 3 1q-3 1-3-1h-3l-5-3q-9 0-15-7v-2l-1-1h-1l1-1 7 3-8-9q-5-2-8-6h6l6 2 24 19 2 1 2 4 1 1 1 1v1l1 1-1-1zm2 5v-1zm-38-30-1-1-1-1 1 1zm31 99h-2v-1l2-3 1-1 2-1h2q-1-4-4-2h-2l-6 2-2 2-1 1-2 1 1-3 1 1h1q0-2 2-3l2-2 1-1h2l2-1h8l4 2-2 1h5l3 1 1 1h-3l-10 3-4 3zm0-11h-2l-2 1q-2 0-1 1h-2l-1 1 1-1q2-3-2-5l-2-2 11 3zq-2 0-1 1m246-300-2-1-3-5 13 11-7-3zm-3 0 2 2h2q2 5 6 7l8 5 8 13 1 1q-1 1 1 2l1 6v3l-3 4-3-9q-2-9-9-14l-6-5-7-8q-3-3-3-7zm28 29-1-1q0-4-2-7-2-2-2-5l-3-2-8-6q6 2 10 7l1 1q6 3 7 10 1 2-2 3m-4 39q-2 0-1-2l3-6c-1-2 2-4 1-7l1-3q0-2 2-3v3l-4 10zm30-5q1-2 2-1v2l3-3 2-1 1-3-3 4q-1-4 3-5v1q2 2 0 3c-1 2-4 4 0 5q2-2 3-1l-1 2-1-1-4 3q-1-1-2 1-2-2-2 1-2-2-2 0h-2l-1 1v-3q-6 2-11 7h-2q-2-2-2 1h-4l-3 3q0-2-1 0-3 0-4 2-2-3 1-4l13-8q9-2 17-6m10-9 1-1v2h-1zm4 12q2 0 1-1 0-2-1-1h-3l23-17h5l-1 3q-4 1-7 4-4 5-12 8l2 1q4-3 9-2h9q1 2-2 5h-12l-1 1h-2l-3 1h-1l-7 2h-2q-2 1-3-1 3 0 4-3 2 2 4 0m27-18q-1 4-6 5l3-3zm-37 26h6c1 3 3 1 5 2q0 4-5 4l-4-1q-12-1-22 2-7 3-16 3 0-2 2-3 2 1 3-2h1q3 0 3-2 2 1 2-1h2q2 2 2-1h2q6 1 11-4h1q1 1 2-1h2l2-1h3q-2 2-2 5m6-3 3 1h2q-1 2-3 1l-2 1q-2-2 0-3m-55-16-1-1v-2l-2-2v-2q0-3-2-5 1-1-1-2 1-2-2-3 2-2-1-2 1-2-1-3 0-3-3-5 0-4-3-5 0-3-3-4 1-3-2-3 1-2-1-3l-2-3-2-2 2 2v2l2 1q-1 2 1 3 0 2 2 3 0 4 3 4 0 3 3 5 0 3 3 5-1 2 1 3l1 2q0 3 2 3-1 2 1 2-1 3 2 5v2l1 2 1 2q-2 1-3-1l-8-6q1-2-1-2-1-2-2-1l1 2 2 1q0 3 2 3l5 5 3 3q-3 0-4-3l-2-2q-4-2-6-6-11-7-15-19 3 0 1-3l-1-1v-1h1q4 2 8 7-1-9-6-16l-6-13q5 1 7 4 4 2 7 7 12 17 20 38l1 3 2 6v7l-1-1zm0 7-1-1v-1l1 1zm-31-62-2-1v-2l1 1zm23 119q-4-6-9-10-6-8-17-12c-5-2-5-2-7-8q4 3 10 4 2 2 3 1 1 2 3 1 10 7 15 17l2 1zm-43 29q-2 2-3 0l1-3 4-2h2l3-1 3 1q0-5-4-5l-3-1h-9l-3 1h-5l3-3v3q1-2 2 0l3-3 4-1q1 1 3-1 0 2 2 1h3l1 1 2-1 8 5 4 5h-3q0 3 4 2l2 2 3 2 1 3-5-2q-7-4-13-2l-8 1q-2 0-2-2m-4-24-1-4q7 5 12 11l1 2q-2-2-2 0-2-3-3-1h-2q-2-1-3 1l-2-1h-2 2c3-4 3-4 0-8m13 41v1zm-15 15q3 5 7 7c-1 2 3 3 2 5-1 1-2-2-4 0q-3-2-2-6l-2-2q-6-7-14-9-3 1-2-2h1l3 1h2q6 2 9 6m-3 3 2 1v1zm8 9 11 7 2 3 1 1v4l-8-8q-8-5-15-7-8 0-14-4v-2h6q2 2 3 1h2q2 2 3 1zm-27 39-16-13-1-4 6 5q3 3 7 4 4 2 4 8m0 0 2 2zm3 75v3q-2 2-1 3l-1 1v2q-2 2-2 5l-9 12-21 25q-4 2-6 5-6 9-13 15l3-7 25-28a135 135 0 0 0 22-38l3-2zm-75 79-1-3-1-8-1-4 1 1 2 11v1zm-5-31v-2l-1-7-1-3v-4h-1v-6l-1-3v-13h-1v5-6l-1-2v-10l-1-8v-1h1l-1-8v-12l1-4v-20l1-3v-5l1-3v-3 10l-1 4v11q0 1 0 0l-1 7h1v23l1 3-1-1 1 7v8l1 6 1 7v5l1 3v1l1 6 1 6v2l2 11 1 6 1 5 2 6v3l1 1 1 2-1-2v4l1 2q0 1 0 0l1 2v1-1l1 1h-1l-1 2-2-1v-1l-1-2v-1l-2-9 1 2 2 5h1l-2-6-2-4v-4l-1-1v-3l-1-2zm1 7-1-4v-1zm-8-122v-4l1-1v-4l1-1v-2l2-9 1 1v1l-1 6v1l-1 6v2h-1l-1 4-1 3v4l-1 4v20-31m2-27 1 2h-1v1l-2-1-1-1-2-1-1-2-1-1-1-2 2 2zm1 10v-4h1l-1 1zm15 163-1-4v1l-1-3v-1l1 1-1-3-1-1 1-1-2-6-1-4v-2l-1-6v1l-1-4v-2l1 1v4l1-1-1-3h-1v-3 1-2l1 2v-1l-1-2v-1 1l-1-2q1-1 0 0v-2 1h1l-1-1q0-1 0 0v-3s-1-3-1-1l-1-2h1v-1 1l1-2-1-1v-1q0 1 0 0v-2 1-1l-1-1v-1l1 1v-2h-1 1l-1-2v-2 2-1l-1-2 1-1-1-1v-3q0-1 0 0v-3q-1 0 0 0l-1-1v-2 1-2l-1-1c0-2 0 1 0 0v-1l1 1v-1 1-2q0-1 0 0v-2q0-1 0 0v-1l-1-11v-3l1 2q4 6 10 10l10 8 7 9h-3q-5-4-11-5-4 1-4 7 5 6 13 9l12 10 7 14 2-2-8-13c-1-4-6-4-7-8l-6-3-11-7 1-2 3 2q7 6 14 9l11 10 3 3q-1 3 2 2 0 4-2 7l-2 2-6 7zm21-67q-1 2 1 2l5 14 1 2s0 3-1 1q-6-7-15-10l-11-8v-3l10 5 9 7q1-3-1-4-2-9-10-14l-11-8-9-10q0-2 2-1l10 8 9 8q6 3 8 8h2q-1 2 1 3m-1-9q2-2 1-3 3-1 2-4l1-4q3-4 4-9v5l-1 7-1 7v16c-2 0-1-4-4-4q2-2-1-2 1-2-1-3zm6-26 1-1q2 1 2 3l-1 3q1 1-1 2l-1-1 1-1-2-4m-36-70 1-1 1-1 3-4v-1h-1l-3 3-1 2-1 1 1-1v-3h1l1-1 1-1 2-4 2-3 1-3v-1h-1l-2 3-1 3-2 3-1 2h-1l1-4h1v-1l1-1 1-1v-2l-1 1q2-6 7-11l5-2h-2l-2 2-2 2-2 2v1h1l2-2 2-2 2-1h1l2-2v-1h-1l2-1 5-1v1q-3 2-3 5l-2 6-1 2v3l-1 2v1l-1 2-1 3-2 2-3 4-1 1-1 1h-1l-1 1h-2v1-1h1l1-1v-1h-2l-1 1q0-1 0 0h-1 1l3-4 3-3 2-4-1-1h-1l-2 4-2 3zh-2l1-1m14-40h-2v1l-3 3-7 10v-3h1v-1l1-1 1-2 1-2v-1h-1l-1 2-1 2h-1l2-5q3-9 11-15l9-5 5-3-2 3q0 2 2 1l1-2-1 3-2 8v-2h-1l-1 1v1l-1 1v1h2v-1l-1 3-1 1-2 4v-1h-2l-1 1v1l-1 1v1h1l-5 5v-2h-1l-3 4v1l-8 10v-2q0 1 0 0l1-1v-2l2-2h1l1-2 1-1 2-3v-1h-1l-3 2-1 2-2 3-1 2-1 1 1-2 1-1v-1l8-10 1-2 2-1zm7 6 1 1 2-1v-1l-1 1v1l-1 1h-4zl5-7v-1l2-1 1-1h1l-1 1-1 2-1 2h-1l-1 1-1 1-1 1zm0 11 2-1-1 1-1 2v2l-1 2-1 1v2-4l1-3v-1zm-9-70-2-1v-1l-1-1-4-3v-1l-2-4v-2l-1-2h-1v3l1 2 1 2-1-1-2-3-1-2v-6l1-2v-1 4q1 2 2-1l-1-9 1-1v-1l1-2-1-1v-1l1-1v-2l1 1 1-1 1 2 1 2 1 1 3 3 1 2 1 1 1 2 1 1v2l1 2 1 1 1 2v1l1 3v4l-1 2-1 2-1 2-2-10-1-3q-1-1-1 1v2l1 1v3l1 6h1l-1 5-1-2v-3l-1-1-1 1zm16-29-3 1-3 2-2 2-1 1 2-4q6-5 12-7h1l8-2 4-1 3-2 2-1v2l-2 4v2l-2 3-1 1v-1h-1v1l-1-1-1 1h-1l-1 1h-1v1h-1v1l1 1 1-1 1-1h1l1-1v2l-1 2-2 1-1 1-2 1h-2l-3 1-1 1-2 1-2 1-1 1h-1l-3 3-1 1-1 1v-2l3-3 3-2 3-2 4-1v-1l-1-1-4 2-6 4v-1h-2l-1 1-1-2h1l1-1v-1h1l1-1-2-1v1h-1l-1 1h-1v-1h1l2-2 2-2 3-1 2-1zm-6-17-2-5-1-2-1-2q-2-1-1 1l1 2 1 2-8-7v-9l1-2 1-1 1 1 2 1 3 2 3 2h1v2l1 1 1 2 2 3q1 1 1-1l1 1v3l-2 2v-2l-1-2-1-1-1-2h-1v1l1 2v1l1 1 1 2h1l-1 1-1 2h-1v-2l-1-4h-1l-1 1 1 2v1l1 2zv1l-1 1zm-1-24q1 2 2 0v-10l1-5 1-4 1-1 1-1v-4 1l1 5 2 4 2 3 1 1 1 1v1l2 4v2l-1 3-1 1-1 1v-8h-1v5l-1 1v3l-1 2-1 1-1 1-1 1v1l-2-1v-5l-1-5v-1h-1v8l-2-1h-1v-8l1-6 1-3zm4-20 1-1zm15 53 3-1 5-2-4 1zm-19 23h1zm-6 20v-1l1-1v-1h-1l-1 1 1-3h1v-1h1l1-2 1-1 1-1v-2h-1v1-1l1-1 1-1h1l1-2 1-1 3-2 3-2 4-2 4-1h1v1l-3 3v2h2l2-4 1-1v4l-1 1v4l-1 1h-1l-1 2v1l-6 9q0 2 1 1l4-6 2-2h-1l-1 4-1 1-1 1-1 2-1 1-1 1v1h-1l-1 1h-1v1-1l1-1 1-1v-1h-1l-1 1-1 1-1 1h-1v1h-2l1-1-1-1-1 1h-1v1l1 1h-2l-4 2v-1l1-1v-1l2-2-1-2-1 1-1 1-1 1v1-1l1-1 1-2 2-3 2-2 1-2q1-2-1-2l-2 3-1 2-2 3-1 2h-1zm41-86-1 2-1 1-1 1-1 1v-2h-1v1h-1v1h-2l2-2 3-6h1l1-1 2-1v1l-1 2zm-65 68v3zm-3 22-1-5v-15l1 5h1v-4l1 5-1 5v-1l-1-1-1 1v3l1 3v1h1v3zm0 3-1 1v-4 2zm2 5-1-1zm-7 24-2-3v-6l1 3v1zm-19 152q-1-1 1-1m-6 31q0 2-2 1zm62 46 4-10 5-5h3zm71 0-8 2v1h-5l2-1-4 1h-5 4-2l-4 1h-12l5 1h-5 1c-1 0-6 0-3 1l-3-1h-8c0-1 2-1-3-2h-4l-3-1h-8l-2-1h-3l17-21 8-9q9 6 16 13 1 5 6 8 3 6 9 8 6 1 8-3 1-3-2-5l-6-6q-2-3 1-2l19 15zm9-2-28-21-2 1q-2 2 1 4l9 9 1 1q4 2 3 5c-2 2-3-2-5-3l-5-5v-1h-1l1 2 5 5 1 3q-7-2-10-8l-6-8q-3-5-8-7l-6-4q-1-2 1-2l4 2q3 2 5-1h3q2 2 5 1 2 3 5 1l9 7 5 5q2 5 7 6l10 5 2 2zm-25-42h1v2q-2-1-3 1-3 0-5 3-4 1-6 4c-2-2-4 1-6 1q-3 2-6 0l7-5 5-1 9-4zm172-328q3-1 3 2v1l-1-1zm-1 2 2 2h-1zm0 1-1-1zm1 4 2-1h1l3 4h-1l2 3-2-1 4 4 3 5c3 5 0-1 2 2s0 2 1 5l11 19 7 14 1 4-1 1 1 3 1 1 10 34 1-2 2 4q-2 0-1 6l-2-6-3-7-1-6c-3-5 1 3 0 3l4 12s0-3 1 0q2 8 1 9l-1-3 1 5 1 4-1-3-1-4v3l2 8-1-1 1 4v-5l1 3 1 6v-3l2 6-1 5v-4c-1-6-1 2-2-2v5l1 1h1v6l-1 6c2-2 1 9 3 4v6c-1-2-1 3-1 0l-1 2v-4l-3 9v3l-1 3c1-4 1 0 1 3l-2 4-1 1 1-3-2 3 1 4-2 5 1-4c-2 5-2 1-3 6v1l-1 1-1 4h-1l-2 8 3-6-1 4-4 8-2 3v1l-4 8q0-3-1 0c2-2-1 5 0 4-3 5-1-2-2-1l-3 8c2-4 0 1 0 1-2 5 0 0-2 2v2l-4 9 1-2 1-2-2 5-2 4q3-2 1 4c-4 6 1-3-1-1l-1 2q-2 2-1-2 2-4 0-3l-1 3q0-2-1-1c1 1-3 6-3 6l1-1q0 4-4 8c1-2-2 1-1 0l-2 3-12 16-12 15-10 8-1 2-3 1-2 2-2 2-5 4h-1l-3 3-2 1v1l-5 3h-2q-2 2 0 1l-12 7-4 2h2l-3 2c0-1-3 0 0-1l-27 11-2 1-20 7-4 2q-3 2-4 0l-4-2-6-3q-3 0-3-3 1-3 4-1h7l2-1q8 3 14-2v-1l-14 3-1-1-23-3h-1q-1 2 1 3l19 11 2 1-4 1-3-1-7-4-10-7-6-5v-3c0-1 3 0 1-2-3-2 0-2 1-2l2-1h1l3-1 1-1h3l1-1 2-1 8-3-2-1h-3l-2 3h-3l-1 1-3 1-2 1h-2l-2 1h-1q-6 3-10 2-3-2-6-1-2-2-5-1l-3-1v-1l3-2q4 0 6-4 4 1 5-3 2 1 3-1l4-1q4-2 9 0l-7 4-6 2q-3 0-3 3 1 2 3 1h1q4 1 6-2h1l6-2h4l2-1 3 1 1-1 1 1q0-2 2-1l5-3-12 2h-4l-2 1q-2 1-3-1l1-2h1q3-3-1-4-6-3-12-1l-2 1-4 1-9 4q-2 1-2-2 11-11 19-26 3-4 7-1l7 4q9 8 21 14c8 4 9 4 11-5q-2-4-5-6-3-1-3-3h4l7 2 22 7q5 2 6-3 2-5-3-8l-5-2-2-2 3-2 13-2v-1q-1-2 1-2t4-2h1l2-1h5l2-1q-2-2-2 1h-5q-1-2-2 1 0-2-1 0h-6q-6 2-13 1h-2l-2 1h-2l-5 1h-4l-1 1h-2l-2-1-2 1q0-2 2-2l2-2 3-1 4-3v-1l-5 2-2 2q-7 4-16 5h-12l-2-1h-2l1-2v-2q-6 4-14 5 1-3 4-4 3 0 6-4l-1-1q-2 3-6 4-2-1 0-3l11-23q2-1 1-4l-2 3-4 6q-2 2-2 0v1q-2 1-1 3l-4 11-7 14-2 4-10 14-9 10-14 14-7 9 4-7 4-5q3 1 4-3l8-9 8-10 7-9 3-6 3-3-1-2 1-1v-2q3-1 1-3 2-1 1-3 2-3 1-6l11-27 14-28 3-5q2-2 2-6l2-2v-2l2-2 1-4h-1 1q2-1 2-4l-3 4-1-1 2-5 15-46 6-9-1-4 1-1 1-4q2 2 3-1 1-2-1-4l5-9 3-8 1-4-2 1 1-2q0-3 2-5v-2l3-10 2-4q-1-7 4-10v-1c-3-3 0-6 1-9v-1l1-4 2 1v-3l3-8c1-1 1-5 4-2q-3 10-8 19l1 1q-3 4-3 10-1 5-5 7 1 3-2 4 1 5-3 10 2 2 0 2 0 4-2 5l1 1q2 3 0 4 1 2-1 3l-5 18-4 10-9 21q-1 2 1 2l1-2-1 2q1 4-1 8l-8 24-12 30-1 3-1 3-3 9-4 12-1 1h1v-1c3-2 2-5 5-8l12 4 4 4 14 9 7 2q6 0 8-7-1-3-5-4l-9-4q-2-1-1-2h3q12 5 26 7 6 1 8-5l1-3q-2-3-6-4-4 1-9-2l2-1q15-2 28-11 4-2 0-5-6-5-13-1-9 2-18 7v-3q3-1 2-5-2-2-5-2l-4 1-12 6q-2 3-5 1l4-5q3-2 0-5h-5q-6 1-11 5l-11 10v-2q4-15 11-30c1-2 1-7 5-7q5 0 9 3l1 2 13 7v-3l-1-1-3-4-3-1v2h-1l-12-7q-6-3 0-7 11-10 24-18l-2 4 4-3 4-1-1 4v1q6-3 2-7-2-3-7-1l-10 7-15 11 5-16 5-17q0-4 5-3l10 5 24 9q4 2 6-2 1-3-2-6-3-1-3-4h26q6 1 6-6-2-3-5-3l-6-1-4 1q-1-2 1-3h3l7-2 12-3q4-1 5-5 0-3-6-5h-7l-18 6-2 1h-4q2-3 6-5 4-1 4-5-2-3-6-3-3-1-4 1l-17 13q-2 2-8 3 6-6 9-12-8-2-14 3-4 5-11 9v3l-1-2 1-1 3-12q0-7 7-9h4l2-1 4-1q9-5 18-2 3 2 6 1l15-2 9-4q3-1 2-3t-4-2l-5 2h-3q-3 1-1-2l10-3 15-1q9-2 8-10l-1-2q-3-1-6 2-1-2-2-1h-2l-2 1h-2l1-2h3q2-4 7-6l11-7q4-2 5-6t-2-4q-1-1-3 1l-5 2q-11 5-20 12-1 2-6 3l5-11q-2-2-5-1l-7 6q-9 14-24 22-2 2-5 1l13-15q4-2 1-5-1-3-5-2-11 5-15 16l-3 3q-4 7-12 9l3-10q4-10 6-21 1-2 5-3 8 1 14-2 11-5 23-2 6 0 10-2 4-3 0-7l-1-1 3-1 19-4 4-4q3-5-3-5-3 0-2-2l2-1 12-10 2-2v-3q-2-2-3 1 0 3-3 3l3-3-2-1q-6 4-13 6-9 4-15 10-2 3-9 5l6-7v-4l-3-1-5 4q-8 8-20 13l-5 2-6 3q-3 3-7 3c4-8 5-17 11-24l17-9v-1l-11 4-6 3v-1l5-4h1l2-2q3 0 3-2 2 1 3-2 1 1 2-1 2 1 2-1 3 0 5-2 3 1 4-2 6 0 9-4 3 2 4-1 3 2 5-1l6-1 5-1h3l2 1h-2l-1 1h-3q-10 6-22 8l-4 2-6 3v2l6-3 15-4q10-5 22-6M475 627h-2l-1-2h2zm-17-21q-4-1-1-4l3 1q0 2-2 3m-6 1q-3-1-1-3 3 1 1 3m74-31q5 1 0 4-1-3-4-1-1-3-4-2l-7-5q1-2 3 0zm-20-7q-3 1-4-1 0-2 2-3h3l2-1h2q2 1 5-1 1 2 2 0 1 2 4 1l7 1-8 2c-5 1-11-1-15 2m5 3h-1v-1zm5 5h2q1 3 4 2 1 2 4 1l1 2-2 1-18-5-14-5h-14q10 5 19 12-2 4-5 2-9-5-16-13l-7-5 6 5q3 6 8 9l8 6q-6-1-9-4l-10-8-14-9 18-2h7l4 1h1q15 2 27 10m-26-1h-2v-2l2 1zm-24-36q2 0 1 2zm81-183q4-7 11-11l-9 13-3 3h-2zm10-7 4-4h2v2l-9 9c-3 3-7 6-4 11l-1 1-3 1q-1-1-2 1-2-2-2 1h-2q0-3 3-5zm-21 23q-2 0-2 3zl4-2h2l3-1 1-1q2 1 3-1h9l5 1h2l4 1h1q2 2 4 1h5l2-1h5q-2 4-5 3l-16 2h-6q-9-4-18 2l-4 2h-3l-3 1h-4q3-2 0-5 6-6 14-10zm49-24 2 1 7-5 15-9 11-5c1 2-2 2-1 4h1l-1 1q-7 6-16 9-1 2-3 2-2-1-5 2h-1l-3 1-2 2h3q-3 3 1 5l1 1-1 1h-2v1h2l15-1q-3 4-6 3l-15 1q-9 1-15 7l-2 1q-1-2-1 0-1-3-4-1h-2q-2-3-5-1l-1-1q-1-2 2-5l16-12 4-6q4-5 11-8c-3 3-2 8-5 11zm13 8q-2 2-4 1zm5-1 1-2h3l1 2-1 1q-2 1-4-1m-82 50 9-7 5-3-6 10-6 8h-6c-1-4 3-6 4-8m13-1q1 2 3 1l8-4 5-3q0 3-3 5t-7 7l10 2 2 1h5l3 1 2-1 3-2q0 2 3 2-1-2 1-3l9 1 6 2q0 3-3 1v-1h-1l-2-1-3 1 2 1 3-1 1 1q-1 3-4 1h-25v1h-2v-1h-3q-4-1-9 2 4 3 8 2l10 3q2 1 1 4h-3q-3-2-7-2l4 3-8-3-3-1-2-1q-4 1-6-2l-10-5q-1-1 1-2l14 9q-2-5-7-7-3-1-3-3l-2-1 4-6 8-9q2-4 6-3l-8 9q-2 0-1 2m20-7v-2q3 0 6-4 2-5 9-2l-3 3-7 5q-2 1-1 4l3 1 1-1 4-1-1 2h-2l-2 2-1-1-1 1-2 1-2 1h-2l-2 1q-2-1-2 1l-4-1 3-3zm-4 1q1-3 4-3 0 2-4 3m19 3h3l-2-1q2-2 5-2v-1l1 1 10-5h4l1-1 3 1c2 0 0 3 3 3l-3 3-10 2-2 1h-2v-1q-1 3-3 2l-5 2-9 2-5 1q-3 2 0 4l1-1v1h-1l-1 1-4-1h-3c-1-1-4-2-1-4q2 1 2-1h2l2-1q2 1 2-1 2 2 2-1h2l3-1 1-1q4 2 4-1m0-2 1 1-1 1zm-59 91 2 1-1 1-5 6q-2 0-3 3l2 2 5-2 11-5q4 0 6-3h6l-2 4q-5 3-5 7l-1 1h-3l-3 1-2 1v1h4l1-1 4-1 7-1 2-1h2q1 2 1-1 2 3 2 0h3l2-1q2 1 2-1 3 2 3-1h2l2-1 2-1h4l-1 1q-10 6-22 9l-5 1h-3q-3 1-3 4t2 2l10 5q2 1 3-1 0 2 2 2h2l-1 1-21-3-8-3-7-1-3 2q0 3 3 4l9 3 5 2q2 1 1 3l-2 1-10-5-16-12v-2h3v-2h-7l10-13-15 15-3 1c0-5 10-15 20-20v3zm22 13 2-1q8-5 18-8h9c0 3-4 1-5 3q-2-1-2 2-2-2-2 1h-2l-3 1q-2-1-2 1-1-2-2 1 0-2-1 0h-5l-2 1-1-1zm2 11c4 2 9 0 13 3q0 3-3 2h-3l-5-3q-2 0-2-2m-24 4-2-1v-1zm9 14-7-1-12-9-5-3-9-4q-2-2 0-3 6 0 11 4l16 12zm68-256q2-3 4-2l3-1q4-3 9-3l-2 3q-2-1-5 1h-2l-2 1h-1q-1 2-4 1m22-19 2 2h-1l7 7-13 1-10 2-16 6q-12 3-20 11-2 0-1-1l1-6q3-5 8-8l9-5q6-6 13-5h12q6 0 9-4m-4-1h1zm7-15q-3 3-9 4v-1l5-5q3 0 3-2 4 1 1 4m-8 9-4 1q2-3 4-2zm-8-62 2-2h3l2-1q0 2-2 1l-2 2zl-2 2q-2 0-3 3 2 0 3-2l3-1q1-2 3-1 1-2 2-1l4-3q6-2 11 1l-3 2h-12l-2 1-2 2-10 8q-4 2-4 7-4 4-6 10v6q3 1 6-2l14-9q6-4 12-3l1 1h-1l-1 1q-2 0-3 2 2 1 3-1h5v1l-25 11-6 8-10 8-1 2h-1l-6 7h1l-2 4v4q2 4 5 2l4-4q3-5 8-5 10-1 16-8l2 2-2-2 2-2 10-6h5l-3 3-1-1-2 2-2 1q-5 6-13 10v1l4 4 8-1h1-1l1-1v1l-1 3c-2 4-6 2-10 3q-8-1-16 1l1-3 4-1q5 1 5-5-6 1-9 6-4 1-7 4-2-2-2 1-2-2-3 1h-1q-2-1-3 1l-2 1v-6l1-3v-3l2-5-1-1q3-1 2-4l2-8q3 0 1-3l5-11 2-5q5-12 12-21-1-5 3-5zm-2-10-3 6q-11 18-19 37l-3 9v2q-2 2-1 3-4 2-2 8-4 1-2 4l-3 3 2-11 3-7 8-24q5-6 7-13l2-3 10-19 1-3 9-13q2 3 0 4l-3 7zm24-17 2 1q1 8-5 6l-1 1-15 6-2 2q-1-3 2-4l2-2v-2l3-2zm-8-12-1 1zm12-8q1-3 1-1h2l5 1-6 4-7 1-7 4q0-4 3-6v-2q4-3 8-2m42-74-8 9v2l3-1q4-1 6-5 3 1 3-2l4 1q0 4-3 7-5 5-11 6-5 7-12 11l2-6-4 5-6 10q-3 3-4 7l-6 13 6-6 4-3 7-3h2v3l-3 4-4 2-5 3q-5 3-8 2-2-1-4 1-7 6-11 14-3 1-3 4l3-3h1l-4 3-4 8-3 4-9 12 1 1-3 3 2-4 6-16 2-4 9-13 3-5 2-3 7-9 10-11 11-17 10-11 10-15q4 0 1 2m10-12q-1 2-3 2t-2 3h-1l8-9zm-1 356v2zm-18-76-1-3z"/>
  <path fill="currentColor" d="m654 335 1 4v1zm-97 281-3 1zm96-285-1-1 2 2zm8 23-3-8zm5 23-1-2zm1 1 1 3zm5 48c-1-1 0 4-1 5l1-2zm-3 24v-2l-1 1q0 2 1 1M351 625l-2-1zM217 498l1 2zm124-2h1zm-36-228 4-9q2-4 6-6t5 3h2v-3q-5-5-10 0l-4 4q-4 7-6 18l4-3 1-1-1-1q-2-1-1-2m-19 32q1-2-2-2l-1 2 1 12q0 5 2 8l1 1v1-1l-1-1c2-3-1-5-1-8v-3l-1-8q0-3 2-1l1 8 1-6q0-2-2-2m56 240-1-1zm-45 10-1-2q-1 1 1 2m-7-53 1 2zm-1-1-1-1zh1zm-2 15q-1 3 2 2zl-1-1zm7 35q0 2 2 1zq1-1-1-1zm8 13 1-1 1-1-2 1zm34 25-2-1q-2 0-2-2-2-1-3 3zm-15-8v3zm19 8-3-1zm-5-12-1 3zm1 23h-2zm3 0h1l1-1h-2l-3 1zm16-30-2 1zm4-4-1 1zm-3 3q0 1 0 0m0 0-1 1zm-6 5 2-2h1-1zl-1 1zm5 12q-3-2-4 1zm-21 0 1-1 1-1 1-1-1 1h-1zm8 3 4-2h5l-6-1-3 2zm-16 2-1 1h-2l-1 1-1 1-1 1-1 1h1l1-1 1-1h1l1-1z"/>
  <path fill="currentColor" d="M317 588q2-3 2-7zl-1 5-1 1h5q-2-2-2-5m-36-72-3-1q-1-2-3-2 2 3 3 2zq2 2 3 1zm-10-6-2-1v1zl2 1zm-8-5q0 2 2 2zm-5-3 2 1zm9 6-2-1zm-6-4 2 1zm-1-1 1 1zm22 8h1l-1-1zm5 6h1zm2 1h-1zm6-206c-3-1 0-3 0-4h-2v6zm5-9-2 3q-2 2 0 3l1-3zm1 0h-1zm-4 111 1-2 2-2 1-1 1-1v-1h-1l-2 2-2 3zl-3 8-1 2-4 5-1 1h1v-1l4-4 1-2 3-4zm-10-14 1-1zm6-109v-7l1-12q2-2 2-5l1-3q3-6 8-10l-6 15-2 12-1 5 1-2v-3l4-15 6-13 5-4q-2-1 1-3l1 1q5-1 8 3 2-1 2 1l-2 13q-2 2-5 0 4-4 4-9h-2l-1-1q-4 0-5 2v7q2 4 5 4t5-3l3-10-1-4q-4-4-9-5-3-2-6 1l-4 4q-7 5-10 13l-1 3-1 6q-2 2-1 3 0 8-2 15l-3 9 1 6-3 3 2 4 1-7 2-12q0-2 2-2v2l1 2v-1zm22-30q-2-2 0-4l4 1c-1 2-4 0-4 3q3 0 2 3zm-9-8h-1zm-29 307 1-1 3-4h2-2l-3 4zm51-65-2 3v2q2-2 2-5m4 5-2 2v1l1-1zl1-1-1-1zm-4 5-2 2h-1v1-1l1-6-2 2v5l-2 4v1l-2 1-1 1v2-1l1-1 2-2 1-1 5-4zm-2 52h2zl-2 1zm-20 26 1 1v-2m0 11v1zm0-2 1 2zm-33-187q-1-2-3-2l-1-1-1-1-1-1-2-1-3-1q-2-3-3-1l3 1 2 1 3 2 2 1q-1 1 1 1 0 3 3 2-1 3 2 2v1q0 1 0 0v-1zm2 4h1zm22-73v-2zq-2 0-2 2h1zm-23 59-2-1zm5-44 1 4zm-2-4v2h1v-1zm-1-2-1-1zl1 1zm0 28v-1l-1-1zm36 107-1 3zm11-5v-1zm-19-39 1-1q-2-1-1 1l-1 1q1 1 1-1m3 3 1-1h2v-1h-1zl-2 1zm-43 43-2-1q0 3 2 1m-4-1h2zm29-120-1 1zm-38 176-1-1zl2 1 2 1zm33 17 2-1zm11-182v3h-1 1zm45 171h2zm3-11 1-1v-1l-4 3h1zm3-3 1-1zl-1 1v1zm-1 1-1 1v1zm67-255 1-1v-1l1-2v-2l-1-1-1 1v4h-1zm-24 76v3l1 1v5q1 2 2-1l-1-6-1-2v-1l-1-2h-2zm21-23 2-1v-2l-4 2h-1l-2 1-3 3-1 1-1 1h-1q0 2 2 1l1-1 1-1 3-2zm-57 113v4l1 1 1-1v-1l-1-1v-1zm42-57h-3v1h-1v1h4zm9 3h1l1-1v-1h-3l-1 1zm-48 45 1 9h1v-17h-1l-1 4zm52-40-1 2-2 2-3 3q-1 2 1 2l3-4 4-3zm-31 4v3l1 1 1-1v-6l-1-6-1-1-1 1 1 6zm44-105-1 1-1 1-1 1v2l2-1v-1l1-1zm0-17-2 2-4 6v1h1l1-1 4-5 1-2q1-2-1-1m-39 55v-2l-1-5v-7h-1l1 13zm-16 42v16l1 1 1-1v-4l-1-4v-4l1-3v-1l-1-1zm13-36v1h2zm-22 82v-2h-1v1q-1 0 0 0zm56-89h-1l-1 1h-2q0 2 0 0v1h-1v2l1-1h2l1-1h1zm-45 117v2l1 2q2 2 2-1l-1-2-1-2v-1l-1-5h-1zm31-143h1v1h1v-9l-1-1-1 1v7m0 48-1 1-1 1h2l3-2 3-1 1-1-1-1-4 2zm-11-40-1-2v-1h-1q0-1 0 0l-1 1 1 1 1 2 2 2 1 1v-2zm20-11v-2l-1-1v1h-1v2zm22-9h-2v2l-1 1v1h1l1-2h1zm-18 59h2v-2h-3v2m12-27q0-1 0 0h-1v1h1v1l1-1zm-3-12-3 2-3 1v1l1 1 3-2 3-1v-1zm-6-1-7 5h-1l-1 1 1 2 1-1 1-1 2-2 5-2q1-2-1-2m-34 305v-1zm-16-117q-1 0 0 0m15 114v-2zm-1-8q0-1 0 0m0-1q0 1 0 0m-2-14v2zm-13-62"/>
</svg>
