<svg xmlns="http://www.w3.org/2000/svg" width="72" height="73" fill="none" viewBox="0 0 72 73"><path fill="#ad3c05" stroke="#ad3c05" stroke-width=".5" d="M16.423 11.097c2.093 2.624 2.85 5.472 2.884 5.517l.153 7.242c-10.844 7.02-11.484 7.266-12.49 8.67-2.049 2.85-.214 6.052 3.214 5.822 1.637-.11 3.11-.937 5.003-1.946a66 66 0 0 0-.003 3.196c.021 1.068.042 2.076.011 3.06l-.457 15.663q-.113 3.703-.218 7.407c-.39.01-.78.018-1.168.035-4.598.195-4.867 4.263-.427 4.697 19.613 1.943 46.177 2.366 48.912.966 2.663-1.362 2.984-5.522-2.344-5.747.785-12.248 1.055-26.93.742-30.396 1.22.98 3.569 3.063 5.8 2.074 1.825-.81 2.273-3.277 1.465-5.025-.772-1.677-2.36-2.79-3.636-3.685l-4.626-3.241c.14-3.616.055-6.692.335-9.985a.56.56 0 0 0-.578-.61l-7.048.21a.56.56 0 0 0-.547.564l.016 4.337c-10.076-7.085-13.247-8.176-22.057-2.477l-8.788 5.692-.14-6.692c.541-1.945 1.504-3.762 2.77-5.347 4.944 2.546 12.153-1.291 12.308-9.794a.56.56 0 0 0-.375-.54C30.886-.735 22.47.677 22.708 9.94a17 17 0 0 0-2.339 3.546l-.065-3.118c-.016-.742-1.142-.72-1.126.024l.064 3.06a16.8 16.8 0 0 0-2.324-3.513C17.153.738 8.788-.75 4.492.762a.56.56 0 0 0-.378.542c.156 8.506 7.37 12.337 12.31 9.793Zm6.424 20.738c.368-.247.729-.5 1.092-.752l.316.314-1.859 1.856-.684-.684q.188-.12.374-.242c.252-.165.508-.325.76-.492Zm8.58-6.49c.009.01.005.026.015.035l.711.71-1.859 1.854-.166-.166a.28.28 0 0 0-.081-.201.27.27 0 0 0-.202-.081l-.45-.449a61 61 0 0 0 2.033-1.702ZM28.956 27.4l.435.434-1.94 1.935-.402-.402c.062-.108.065-.24-.027-.333-.038-.037-.087-.043-.134-.055a89 89 0 0 0 2.068-1.579Zm-2.866 2.166L24.653 31l-.243-.241c.185-.13.374-.254.558-.385.386-.274.755-.542 1.12-.807Zm-5.415 3.671.554-.356.77.768-.199.197a.282.282 0 0 0 .399.398l.198-.197.162.161a.282.282 0 0 0 .4-.398l-.163-.161 1.859-1.856.85.848a.282.282 0 0 0 .398-.398l-.85-.848 1.617-1.613.384.383-.81.81a.282.282 0 0 0 .399.398l.81-.81.363.362a.282.282 0 0 0 .399-.398l-.363-.362 1.939-1.935.109.11-.314.313a.282.282 0 0 0 .399.398l.314-.314.175.176a.282.282 0 0 0 .4-.398l-.175-.175 1.858-1.855.627.625a.282.282 0 0 0 .399-.398l-.627-.625.838-.837a.282.282 0 0 0-.399-.398l-.838.837-.71-.71a50 50 0 0 0 1.625-1.524l1.234 1.231-.548.546a.282.282 0 0 0 .399.398l.548-.546.067.067a.282.282 0 0 0 .399-.398l-.068-.067 1.295-1.292.783.782a.282.282 0 0 0 .398-.398l-.782-.782.787-.786a.282.282 0 0 0-.399-.398l-.787.786-1.034-1.032c1.214-.649 2.396-.52 4.155.323l-1.572 1.57a.282.282 0 0 0 .399.398l1.67-1.668c.013-.013.01-.03.018-.043.095.05.177.084.275.137 6.343 3.404 12.588 7.542 18.283 12.005.705 4.562-.167 24.385-.615 31.375q-6.396.071-12.792.148a54 54 0 0 0-.948-15.144c-.036-.178-.055-.397-.077-.63-.19-1.995-.615-3.012-3.949-2.664-.313.031-.61.063-.874.065q-2.703.035-5.405.06c-3.06.028-4.904.494-4.798 4.876q.104 3.89.197 7.78l.008.324q.044 1.819.093 3.633c.004.134-.072 1.41-.079 1.808-4.571-.082-9.807-.3-14.096-.222q.104-3.673.215-7.347l.035-1.188.536-.535c.218.217.4.452.625.227.227-.226-.01-.41-.227-.624l1.253-1.25a.282.282 0 0 0-.399-.398l-1.253 1.25-.483-.483.024-.798.003-.001.309-.308.604.603a.282.282 0 0 0 .4-.397l-.606-.604 1.594-1.591a.282.282 0 0 0-.399-.398l-1.593 1.59-.272-.27.045-1.536.206-.206.769.767a.282.282 0 0 0 .398-.398l-.768-.767c.072-.072 1.026-1.023 1.096-1.096h.004a.28.28 0 0 0 .199-.48l-1.129-1.126 1.985-1.981a.282.282 0 0 0-.399-.398l-.31.31-.64-.636L19.01 44.1a.28.28 0 0 0 .045-.339l-.232-.402a.28.28 0 0 0-.384-.104.28.28 0 0 0-.104.384l.124.216-1.38 1.376-.801-.8.035-1.186.28-.28.393.393a.282.282 0 0 0 .4-.398l-.394-.393 2.05-2.046a.282.282 0 0 0-.399-.398l-2.05 2.046-.257-.257q.007-.754-.005-1.515l.94-.939.336.335a.282.282 0 0 0 .399-.398l-.336-.335 1.397-1.394a.282.282 0 0 0-.399-.398l-1.397 1.394-.765-.763.57-.568.349.349a.282.282 0 0 0 .398-.398l-.349-.35 1.778-1.773.96.958a.282.282 0 0 0 .398-.398l-.96-.958.208-.207a.282.282 0 0 0-.399-.398l-.207.207-.166-.166q.359-.214.713-.433c.287-.17.583-.345.875-.527ZM35.26 21.869 36.392 23l-1.294 1.292-1.23-1.226.005-.005a10 10 0 0 1 1.387-1.19Zm-3.506 30.288-1.01 1.009-.075-.075-.019-.742c-.01-.417-.01-.85.027-1.266zm-.507-1.3c.137.097.263.079.359-.018l.74-.739.734.734-.927.925zm-.11 11.852-.228-.227q-.028-1.013-.052-2.028l-.007-.268 1.237 1.234-.933.93c-.1.1-.097.25-.017.36Zm-.313-3.558-.055-2.19 1.125 1.123zm.04-2.889-.116-.116-.056-2.215c.006 0 .011-.005.017-.006l1.24 1.238-1.071 1.069c-.01.008-.007.02-.014.03Zm.067 7.035.796.795-.809.808c.02-.315.038-.603.033-.816zm13.529 2.53c-11.932.14-10.422.142-13.596.104l.01-.192 1.251-1.249.538.539a.282.282 0 0 0 .4-.398l-.54-.539 2.051-2.046a.282.282 0 0 0-.399-.398l-2.05 2.046-.933-.93c.138.098.264.078.36-.016l.932-.931.384.383a.282.282 0 0 0 .4-.398l-.385-.383 1.674-1.671a.282.282 0 0 0-.399-.398l-1.674 1.67-1.37-1.366 1.177-1.174.69.69a.282.282 0 0 0 .399-.398l-.69-.69 1.384-1.381a.282.282 0 0 0-.399-.398l-1.384 1.382-1.048-1.046c.009-.007.022-.005.03-.013l1.072-1.069.48.48a.282.282 0 0 0 .398-.399l-.48-.479 1.63-1.626a.282.282 0 0 0-.399-.398l-1.63 1.626-1.203-1.2 1.011-1.01.974.973a.282.282 0 0 0 .4-.398l-.975-.972.927-.926.658.657a.282.282 0 0 0 .399-.398l-.658-.657.189-.189a.282.282 0 0 0-.399-.398l-.189.19-.735-.734.992-.99c.007.01.004.023.012.031l1.513 1.51-.408.407a.282.282 0 0 0 .399.398l.408-.407.577.576a.282.282 0 0 0 .399-.398l-.577-.576.955-.953.982.98-.05.05a.282.282 0 0 0 .399.398l.05-.05.298.297a.282.282 0 0 0 .398-.398l-.297-.297 1.397-1.394.68.678-.326.325a.282.282 0 0 0 .399.398l.325-.325.327.326a.282.282 0 0 0 .399-.398l-.327-.326.514-.513.49.49a.282.282 0 0 0 .4-.398l-.492-.49.052-.052c.022-.021.02-.053.033-.078.686.222.693.827.768 1.622.026.276.052.535.096.748a53.1 53.1 0 0 1 .932 14.936ZM41.555 48.43l.227.226-.514.512-.665-.663.114-.011c.276-.028.559-.05.838-.064Zm-3.16 1.455-.982-.98.006-.007c.085-.085.084-.204.037-.308.753-.007 1.51-.014 2.262-.024zm-2.08-1.282.302.301-.956.954-1.237-1.234zm-3.968.703-.408-.407c.308-.13.664-.192 1.042-.227zm-.902-.105.503.503-.74.738c-.1.1-.096.249-.017.358l-.404-.404c.114-.475.313-.896.658-1.195Zm-15.018-2.922c.11.11.288.11.398 0l.248-.248.639.638-1.276 1.274-.26-.259.073-2.475.425.425-.247.248a.28.28 0 0 0 0 .397Zm-.497 9.847.107.107-.114.114zm.165-5.653.049-1.645c.146.034.186.015.293-.091l.87.869-1.04 1.038zm.215-10.897c-.006-.355-.01-.718-.015-1.08l.57.57-.555.555zm-.019-2.256c.001-.248.01-.495.015-.742l.364.363zm2.17-2.742.123-.072.262.262-1.777 1.775-.747-.746v-.007c.399-.218.792-.448 1.188-.674.317-.179.636-.353.951-.538Zm42.862 35.848c-2.402 1.229-28.679.857-48.286-1.085-3.18-.31-2.682-2.326.366-2.454a73 73 0 0 1 1.68-.05h.006s10.055.284 43.812-.05c4.449-.142 4.348 2.654 2.422 3.64Zm-2.921-54.472c-.21 2.912-.173 5.762-.26 8.681l-5.597-3.922-.016-4.585zm-28.43 2.434c10.512-6.798 11.86-3.81 33.244 11.179 1.443 1.012 4.363 2.972 3.357 5.642-1.841 4.865-6.424-3.76-25.339-13.913-3.64-1.958-5.473-1.74-8.164.973-2.279 2.291-4.98 4.508-8.758 7.191a87 87 0 0 1-3.588 2.407c-.028.014-.06.012-.083.035-.007.007-.005.018-.011.026a87 87 0 0 1-5.123 3.028l-.066.043q-1.037.563-2.079 1.098c-5.594 2.856-7.139-.605-5.478-2.913.867-1.212.306-.695 22.088-14.796Zm4.396-16.69c-.364 7.22-6.25 10.404-10.414 8.516 2.13-2.31 4.936-4.007 7.99-4.69.718-.16.487-1.258-.247-1.097-2.94.656-5.662 2.192-7.842 4.29.542-7.237 7.288-7.956 10.513-7.018Zm-18.6 7.018c-2.18-2.097-4.903-3.633-7.842-4.29a.561.561 0 1 0-.247 1.097c3.054.684 5.859 2.381 7.99 4.69C11.5 12.099 5.618 8.922 5.253 1.7c3.153-.914 9.966-.3 10.513 7.017Z"/><path fill="#ad3c05" stroke="#ad3c05" stroke-width=".5" d="M19.822 39.736c.024.38.047.74.027 1.043-.067 1.023.154 1.806.657 2.327.723.749 1.854.771 2.531.785l2.746.055.208.002c.642 0 1.335-.077 1.834-.588.493-.505.559-1.238.593-1.633.086-.986.114-1.987.08-2.974-.029-.849-.148-1.806-.815-2.462-.692-.682-1.709-.795-2.582-.767-.163.004-.35-.002-.543-.006-4.326-.067-4.928 1.085-4.736 4.218Zm1.82 1.942-.67-.67c.001-.052-.002-.1.001-.155.013-.188.01-.4.001-.621l1.06 1.057zm-.458.457a1.3 1.3 0 0 1-.098-.217l.158.158zm6.19-3.343c.03.942.005 1.897-.077 2.837-.032.352-.082.745-.278.946-.24.246-.73.26-1.267.246l-2.691-.054c-.537-.011-1.075-.048-1.462-.248l.055-.055c.137.104.27.08.363-.014.1-.1.099-.254.014-.363l.401-.4.139.138a.282.282 0 0 0 .398-.398l-.138-.14.6-.599c.262-.26-.134-.66-.398-.398l-.6.6-1.5-1.497c-.036-.638-.048-1.292.125-1.759l.687.686-.565.564a.282.282 0 0 0 .399.398l.565-.564.88.878a.282.282 0 0 0 .398-.398l-.88-.878.497-.496.51.509c-.055.205.075.384.32.32l.262.26a.282.282 0 0 0 .399-.397l-.223-.223.759-.758 1.143 1.142a.282.282 0 0 0 .4-.398l-1.144-1.142.067-.067a.28.28 0 0 0 0-.398c-.006-.007-.017-.005-.024-.01.545.027 1.066.112 1.387.43.382.378.456 1.042.478 1.7Zm-5.246-1.875.511.51-.495.495-.754-.752c.187-.152.43-.258.704-.335.012.027.01.06.034.082Zm2.98-.268.074.003c-.016.01-.037.006-.05.021l-.068.067-.093-.092zm-.943-.01.5.5-.76.757-.47-.468.102-.102a.282.282 0 0 0-.399-.398l-.102.103-.323-.323c.393-.05.805-.07 1.204-.07zm8.54 4.141c-.066 1.023.154 1.805.657 2.326.723.749 1.854.771 2.531.785l2.746.055.208.002c.642 0 1.334-.077 1.835-.588.494-.505.559-1.238.593-1.633a24 24 0 0 0 .08-2.974c-.028-.849-.148-1.806-.815-2.462-.691-.682-1.71-.795-2.582-.767-.163.004-.349-.002-.543-.006-1.284-.02-3.053-.053-4.04.895-.85.818-.766 2.205-.698 3.32.025.383.047.744.028 1.046Zm1.207 1.048a2 2 0 0 1-.075-.403l.24.24zm-.08-1.205q.004-.44-.03-.956l-.006-.135 1.207 1.207-.528.527zm6.397-1.83c.032.94.006 1.894-.076 2.836-.032.352-.081.745-.277.945-.241.247-.733.26-1.269.246l-2.691-.054c-.67-.013-1.349-.06-1.722-.426l.28-.28.23.228a.28.28 0 0 0 .199.082.28.28 0 0 0 .2-.48l-.23-.227 1.597-1.593a.282.282 0 0 0-.399-.398l-.67.669-1.63-1.628c0-.546.073-1.036.305-1.354l.483.482-.304.304a.28.28 0 0 0 .2.48.28.28 0 0 0 .2-.082l.303-.304.872.87a.28.28 0 0 0 .2.083.28.28 0 0 0 .199-.48l-.872-.87.489-.489.629.628-.084.083a.28.28 0 0 0 .2.48.28.28 0 0 0 .199-.082l.217-.217c.032-.014.067-.012.093-.038s.025-.061.038-.093l.723-.721.91.907a.28.28 0 0 0 .199.082.28.28 0 0 0 .2-.48l-.91-.907.228-.227c.027-.028.026-.065.04-.097.486.036.933.134 1.221.42.385.38.458 1.043.48 1.701Zm-4.986-2.039.204.204-.489.488-.444-.444a2.7 2.7 0 0 1 .73-.248Zm1.531-.117c.115 0 .22.002.33.003l.359.358-.59.588-.63-.628.316-.315q.109-.005.215-.006Zm8.572 4.143c-.066 1.023.155 1.805.657 2.326.724.749 1.854.771 2.531.785l2.746.055.208.002c.642 0 1.335-.077 1.835-.588.494-.505.559-1.238.593-1.633a24 24 0 0 0 .08-2.974c-.028-.849-.148-1.806-.815-2.462-.691-.682-1.694-.795-2.58-.767-.164.004-.35-.002-.544-.006-1.29-.02-3.053-.051-4.04.895-.85.818-.766 2.205-.698 3.32.024.383.047.744.027 1.046Zm1.097-1.114-.02-.401 1.183 1.18c.005.005.011.003.015.007l-.654.652-.495-.495a13 13 0 0 0-.029-.943Zm.127 1.836-.07.07q-.014-.08-.023-.163zm6.3-2.71c.032.94.006 1.895-.076 2.837-.032.352-.081.745-.277.946-.24.245-.736.26-1.215.247l-2.745-.055c-.68-.013-1.373-.058-1.743-.44-.044-.045-.077-.105-.111-.161l.265-.266.113.113a.28.28 0 0 0 .399 0 .28.28 0 0 0 0-.398l-.113-.113 1.343-1.34a.282.282 0 0 0-.399-.398l-.3.299c-.003-.005-.002-.011-.006-.015l-1.588-1.584c.022-.516.11-.978.381-1.239.014-.012.035-.018.049-.03l.306.306-.607.606a.28.28 0 0 0 .2.48.28.28 0 0 0 .199-.082l.607-.606.872.87a.28.28 0 0 0 .2.082.28.28 0 0 0 .199-.48l-.872-.87.548-.548.75.749-.284.284a.28.28 0 0 0 .199.48.28.28 0 0 0 .2-.082l.325-.325c.021.005.038.025.06.025a.28.28 0 0 0 .2-.082c.072-.072.08-.168.058-.259l.528-.527.71.71a.28.28 0 0 0 .2.082.28.28 0 0 0 .2-.48l-.711-.71.15-.15c.51.03 1.005.125 1.308.425.383.377.456 1.04.478 1.7Zm-5.52-1.89q.257-.1.56-.155l-.358.357zm2.612-.26.174.175-.488.487-.657-.657c.143-.004.286-.011.426-.011q.282.001.545.007ZM27.685 48.571c-.691-.681-1.696-.781-2.582-.767-.163.005-.35-.002-.543-.005-1.292-.021-3.053-.053-4.038.895-.852.817-.768 2.206-.699 3.322.024.38.047.741.027 1.044-.066 1.023.154 1.806.657 2.326.723.75 1.854.772 2.584.786l2.693.054q.114.003.249.004c.54 0 1.278-.062 1.794-.59.494-.505.559-1.238.593-1.631a24 24 0 0 0 .08-2.975c-.03-.85-.149-1.807-.815-2.463Zm-2.008.696-.33-.328q.314.012.606.052zm-1.37-.347-.327.327-.325-.324c.087 0 .175-.007.26-.007.137 0 .264.003.393.004Zm-3.335 4.428.309.308-.268.267a3 3 0 0 1-.04-.575Zm.006-.79q-.01-.294-.032-.61l-.013-.279a.3.3 0 0 0 .181.075c.056 0 .107-.03.154-.064l.996.994-.586.585zm-.053-2.016c.032-.384.133-.706.315-.936l.667.665-.627.627zm6.372 3.367c-.032.352-.082.744-.278.944-.24.246-.73.26-1.214.248l-2.745-.056c-.68-.013-1.375-.058-1.743-.441-.03-.032-.052-.076-.079-.113l.44-.438.192.192a.28.28 0 0 0 .2.082.28.28 0 0 0 .199-.48l-.193-.191 1.104-1.102a.282.282 0 0 0-.399-.398l-.12.119-.983-.981.628-.627.303.303a.28.28 0 0 0 .2.082.28.28 0 0 0 .199-.48l-.304-.303.223-.222a.282.282 0 0 0-.399-.398l-.223.222-.614-.613c.337-.163.757-.252 1.21-.295l.68.679-.491.49a.28.28 0 0 0 .2.48.28.28 0 0 0 .199-.082l.491-.49.096.095a.28.28 0 1 0 .399-.398l-.096-.095.44-.439.507.507c-.011.085.002.17.068.235a.28.28 0 0 0 .2.082.28.28 0 0 0 .199-.082l.617-.616.158.158a.28.28 0 0 0 .2.082.28.28 0 0 0 .198-.082l.005-.01c.309.387.384.986.404 1.593a24 24 0 0 1-.078 2.839Zm18.049-.85c-.153 2.346 1.112 3.07 3.188 3.11l2.747.056c1.658.036 2.482-.461 2.636-2.218.087-.988.114-1.988.08-2.974-.077-2.27-.971-3.244-3.395-3.23-.164.005-.35-.002-.543-.005-1.291-.023-3.054-.053-4.04.895-.85.817-.766 2.205-.699 3.32.023.382.047.742.026 1.046Zm1.662-3.685q.278-.182.654-.28l-.466.467zm.605 1.399-.69.69-.492-.491c-.005-.005-.012-.004-.018-.007.002-.455.06-.865.215-1.174zm-1.088 1.086-.082.08-.009-.17zm-.052.657c.019.003.034.021.053.021a.28.28 0 0 0 .2-.082l.197-.198.796.794-.543.542-.702-.7c0-.123.003-.245-.001-.377Zm.303 1.474-.196.195a2 2 0 0 1-.103-.493zm6.018-.081c-.09.994-.264 1.224-1.493 1.192l-2.745-.056c-.637-.012-1.275-.064-1.659-.383l.276-.275.105.104a.282.282 0 0 0 .399-.398l-.105-.104.543-.542.052.051a.282.282 0 0 0 .399-.398l-.052-.051.507-.506a.282.282 0 0 0-.399-.398l-.507.506-.795-.794.69-.69.18.18a.282.282 0 0 0 .4-.398l-.18-.18.093-.093a.282.282 0 0 0-.399-.398l-.093.093-.419-.417.92-.918 1.026 1.023-.073.073a.282.282 0 0 0 .399.398l.073-.073.312.311a.282.282 0 0 0 .399-.398l-.312-.311.627-.626.272.27-.388.387a.282.282 0 0 0 .399.398l.387-.386.263.262a.282.282 0 0 0 .399-.398l-.263-.263c.115-.114.243-.235.337-.35.43.399.483 1.13.504 1.716.03.943.004 1.898-.08 2.84ZM51.399 49c.006-.006.004-.014.008-.02q.24.033.453.102l-.228.227-.271-.271zm-1.362-.078c.149.004.282.004.416.005l.111.111-.627.626-.745-.743c.283-.004-.014-.013.845.001Zm-37.33-15.635 1.94-1.32c.224.415.55.656.927.66h.003a.28.28 0 0 0 .003-.563c-.194-.002-.351-.193-.46-.418l3.343-2.274c.212.18.443.335.706.437a.282.282 0 1 0 .202-.525 2 2 0 0 1-.431-.235l2.888-1.966.471.526a.281.281 0 1 0 .42-.374l-.42-.471 1.9-1.294.25.607a.281.281 0 0 0 .522-.212l-.295-.718 3.132-2.13a.28.28 0 1 0-.317-.465l-3.032 2.063-.2-.487a.281.281 0 0 0-.522.212l.246.599-2.061 1.402-.614-.686a.282.282 0 0 0-.42.374l.564.631-2.918 1.985a1.95 1.95 0 0 1-.382-.78.285.285 0 0 0-.334-.215.28.28 0 0 0-.215.334c.077.36.247.688.467.978l-3.135 2.133c-.11-.391-.252-.807-.64-1.048a.281.281 0 1 0-.297.477c.24.15.333.488.43.845l.017.06-2.052 1.395a.28.28 0 0 0 .314.463Z"/></svg>