<svg xmlns="http://www.w3.org/2000/svg" width="72" height="72" fill="none" viewBox="0 0 72 72"><g clip-path="url(#a)"><path fill="#29261f" d="M31.49 50.009c-.959.615-2.012.783-3.109.767-.65-.01-1.301-.007-1.952-.014-.123-.001-.274.016-.334-.12-.061-.139.075-.223.151-.314a.92.92 0 0 1 .588-.32c1.55-.26 3.098-.157 4.655 0m-19.013 8.046c-.957-.156-1.922-.056-2.884-.083-.66-.019-1.15.243-1.588.761q.117.07.25.1c1.111.008 2.222.017 3.332.003q.438-.022.862-.134c.23-.054.475-.181.478-.432.001-.26-.294-.19-.45-.215m17.735-4.614c-.79-.253-1.53-.471-2.404-.297-.883.177-1.827.031-2.744.057-.203.006-.539.024-.541.292-.002.229.323.213.513.273.986.312 1.992-.225 3.006.115.737.246 1.449-.251 2.17-.44m.183 1.329c-.943-.164-1.892-.373-2.835 0-.12.048-.31.049-.271.274a.35.35 0 0 0 .274.308c.425.11.844.262 1.34.207.444.098.901-.165 1.39-.123.184.016.41.02.456-.224.047-.254-.142-.405-.354-.442m-4.8-23.078c.876.094 1.771.296 2.565-.436-.8-.3-1.666-.376-2.506-.221-.145.023-.333.1-.293.333.025.148.053.304.234.324m.398-1.542a5.4 5.4 0 0 0 2.675-.371c-.883-.233-1.768-.45-2.682-.2-.138.037-.314.08-.322.247a.34.34 0 0 0 .329.324m29.042 6.052c-.014.141.107.154.202.19.36.138.74.09 1.112.085.311 0 .624.017.934-.006a.313.313 0 0 0 .303-.336c-.002-.247-.19-.218-.356-.238-.653-.077-1.286.406-1.956.065-.078-.04-.224.097-.239.24m-13.832-15.9c-.021.23.305.258.486.272.699.055 1.402.085 2.144-.242-.707-.35-1.4-.284-2.077-.33-.246-.016-.532.073-.553.3m3.538 22.195a.172.172 0 0 0-.159.221c.04.142.105.294.269.312.648.069 1.321.229 1.93-.505a9.4 9.4 0 0 0-2.04-.028M11.527 66.19h-.25c-.34.003-.824.033-.816.381.008.412.506.092.711.211.153 0 .257.004.36 0 .225-.009.53.024.545-.267.019-.348-.298-.327-.55-.326m29.795.147a.174.174 0 0 0 .009.22q.027.03.064.045c.377.092.745.086 1.013-.265.009-.012 0-.04-.004-.117-.366-.015-.745-.177-1.083.117m29.073.331q.226.888.31 1.8c.15 1.466-.439 2.366-1.844 2.835-1.25.418-2.554.506-3.86.547-2.105.068-4.207-.062-6.302-.229a78 78 0 0 0-14.926.263 17.4 17.4 0 0 1-6.264-.413c-.632-.16-1.343.017-2.003-.073a7.2 7.2 0 0 0-2.479.079c-1.611.332-3.266.29-4.904.317-6.857.112-13.714.177-20.565-.2-1.657-.09-3.309-.287-4.964-.428-.827-.07-1.128-.688-1.324-1.339-.471-1.566-.251-3.124.177-4.664.093-.3.13-.614.11-.926-.553-6.588-.87-13.183-.433-19.792a32.8 32.8 0 0 1 1.653-8.394c1.65-4.878 4.812-8.26 9.675-10.017.317-.114.629-.241.945-.354.296-.105.594-.199.932-.311a1.6 1.6 0 0 0-.202-.21c-1.91-1.29-3.115-3.099-3.815-5.262-.131-.404-.29-.54-.743-.524-2.255.079-4.72-1.849-5.422-4.289-.805-2.798.06-5.155 2.17-7.055.665-.6 1.14-1.219 1.391-2.088a7.5 7.5 0 0 1 1.754-3.034c1.736-1.864 4.14-2.284 6.372-1.06.478.26.798.24 1.238-.05A10.6 10.6 0 0 1 21.319.11c4.415-.685 7.883 1.844 8.416 6.269.156 1.3.444 2.34 1.49 3.262 1.175 1.036 1.722 2.526 1.938 4.086.471 3.41-1.85 6.212-5.39 6.496-.481.039-.734.173-.922.642a9.7 9.7 0 0 1-2.276 3.301c-.159.155-.381.265-.455.557.61.16 1.224.3 1.778.589.337.175.396-.101.505-.286a16 16 0 0 1 2.61-3.39c1.908-1.842 4.167-2.803 6.845-2.675.864.043 1.711.25 2.498.61.737.335.735.334.746-.51.037-2.776.4-5.499 1.403-8.103 1.738-4.514 4.745-7.745 9.46-9.188 1.896-.58 3.846-.68 5.811-.448 2.724.324 4.804 1.678 6.293 3.963 1.708 2.62 2.644 5.526 3.162 8.583.544 3.205.631 6.443.672 9.685.025 1.976.014 3.955.196 5.927.028.298.07.572.276.815 2.796 3.287 4.106 7.17 4.391 11.404.508 7.526.515 15.051-.487 22.547a6.1 6.1 0 0 0 .116 2.422m-21.68-62.23a6 6 0 0 1 .803-.047c.61.001 1.234-.042 1.85.041.285.039.618.067.867-.042.748-.327 1.412-.2 2.06.31-2.085.061-4.167.416-6.394.171q-.819.472-1.548 1.075c1.103-.053 2.208.093 3.313.035a.64.64 0 0 1 .5.148c-.577.412-1.192.444-1.861.451-.852.01-1.705.166-2.566.132q-.1-.004-.215-.005c-.215.218-.437.43-.637.667.501-.003 1.002-.008 1.502.001q.282.026.542.132a.31.31 0 0 1 .23.334c-.017.17-.152.218-.306.26-.596.162-1.203.115-1.806.13h-.808q-.313.443-.595.92a4.5 4.5 0 0 1 2.104.298c-.872.38-1.67.31-2.448.284-.152.283-.29.582-.428.88.611.02 1.369.147 1.742.331-.35.416-1.443.675-2.143.588-.085.215-.139.436-.214.652a4.1 4.1 0 0 1 1.715.175.38.38 0 0 1 .264.328c.006.196-.178.187-.311.233-.407.14-.829.081-1.244.109-.23 0-.46.005-.69-.001h-.012c-.088.303-.186.606-.258.912.829-.04 1.658.04 2.464.24-.93.26-1.741.259-2.553.232q-.068.33-.125.66c.812-.175 1.596-.008 2.372.226a.276.276 0 0 1 .215.275c-.014.142-.181.171-.284.189-.41.07-.824.11-1.257.165-.351-.043-.723-.085-1.094-.134-.03-.004-.054-.018-.084-.024-.05.35-.075.703-.108 1.055.857-.172 1.698-.168 2.54.237a4.2 4.2 0 0 1-2.578.241c-.026.35-.072.695-.085 1.046a.86.86 0 0 1 .454-.089q.72.002 1.432.11c.286.04.352.316.46.564-.645.05-1.266.108-1.889.143a.73.73 0 0 1-.457-.088c-.008.591-.017 1.183.003 1.778q.006.454.097.9c1.03-.108 1.99.01 2.95.05-.614.485-2.168.522-2.88.128.163.433.497.636 1.314.898a7.78 7.78 0 0 1 3.764 2.531c.608.748.6.731 1.405.23.323-.2.355-.312.057-.574a8.5 8.5 0 0 1-2.125-2.87c-1.514-3.318-1.454-6.727-.526-10.173.12-.446.44-.662.893-.785.792-.216 1.59-.03 2.381-.11 2.212-.222 4.022-1.238 5.636-2.71.935-.852 1.768-.87 2.621-.051.98.94 2.09 1.695 3.235 2.399.58.35 1.01.899 1.21 1.544.74 2.153.89 4.353.6 6.598-.316 2.45-1.097 4.663-3.09 6.287-.035.028-.03.107-.048.18 1.873.6 3.64 1.491 5.233 2.643 0-1.297.008-2.508-.002-3.718-.031-3.576-.089-7.153-.78-10.678-.527-2.684-1.396-5.24-3.012-7.49a6.8 6.8 0 0 0-1.139-1.21l-1.739-.099a1.3 1.3 0 0 1-.309-.04c-.174-.054-.422-.08-.407-.316.014-.239.247-.239.436-.24q.345-.004.692-.002c.12.026.245.018.367.034a6 6 0 0 0-1.693-.65 12 12 0 0 0-1.863-.216l-1.557.031a12 12 0 0 0-1.465.22c-.93.208-1.832.52-2.69.931m6.513 30.116c.23.024.462.011.687-.036a5.8 5.8 0 0 0-1.378.017c.118.026.243.049.35.082a8.6 8.6 0 0 1-2.493.419 13 13 0 0 0-2.48 1.06c.988-.024 1.99.249 2.962-.15.152-.062.312-.048.344.144.031.186-.127.263-.278.267-1.279.03-2.553.307-3.84.249q-.71.473-1.347 1.04.789.007 1.578.019c.14.002.301-.04.41.147-.058.046-.112.123-.178.137-.846.183-1.69.387-2.554.39-.225.239-.421.508-.627.768.541.018 1.124.122 1.344.3a.24.24 0 0 1 .096.274.32.32 0 0 1-.29.203c-.355.016-.71.006-1.065.006v.008q-.343 0-.687-.002-.321.513-.586 1.056 1.014-.028 2.02.104l.02.194c-.76.047-1.52.099-2.28.133-.276.6-.502 1.223-.675 1.86-.517 1.912-.565 3.864-.536 5.824q.023 1.455-.02 2.91c.63-.412 1.63-.417 2.496.022-.621.38-1.836.402-2.497.073-.014.423-.06.845-.086 1.268a.73.73 0 0 1 .4-.147c.651-.069 1.285.135 1.932.129.11-.002.233.05.223.16-.008.079-.11.176-.194.216-.502.242-1.056.22-1.642.312-.095-.012-.24-.024-.382-.052a.56.56 0 0 1-.363-.242c-.032.45-.044.9-.093 1.35a.4.4 0 0 1 .095-.086c.226-.133 1.18-.053 1.81.15A23 23 0 0 1 49 53.527c-.197-.13-.299-.2-.405-.265a6.15 6.15 0 0 1-2.453-2.744c-.002.007.004.013.002.02a.33.33 0 0 1-.23.168c-.308.038-.62.046-.791.056-.35 0-.558.002-.767 0-.226 0-.526 0-.576-.225-.045-.205.25-.313.431-.388.596-.248 1.185-.079 1.765.09.01.004.017.017.028.022a7.6 7.6 0 0 1-.378-1.24c-.413.038-.826.082-1.24.092-.24.006-.563-.092-.55-.385.012-.219.324-.228.523-.22.397.015.799-.011 1.198-.002a8 8 0 0 1-.095-.968c-.18.027-.363.02-.54-.022a1.7 1.7 0 0 1-.74-.015c-.147-.037-.322-.056-.341-.214a.355.355 0 0 1 .262-.383c.459-.109.93-.152 1.401-.129.02-.264.036-.529.081-.792-.5.1-1.017.057-1.493-.123.504-.18 1.01-.147 1.515-.09q.126-.57.32-1.12a3.2 3.2 0 0 1-1.71-.223c.386-.33 1.2-.417 1.862-.276.985-2.55 3.035-4.769 5.54-5.597a1.6 1.6 0 0 1 1.682.435c1.624 1.628 3.546 2.23 5.807 1.962 1.416-.169 2.051.334 2.354 1.75.269 1.365.329 2.763.178 4.146-.236 2.598-1.257 4.778-3.418 6.342a1.7 1.7 0 0 0-.202.224c1.088.3 2.151.684 3.18 1.149 1.061.5 2.065 1.114 2.992 1.833-.101-4.087.482-7.958.273-11.852a11 11 0 0 0-.297-1.995c-.3-1.26-.975-2.244-2.151-2.806-.927-.444-1.495-1.142-1.92-2.066-.718-1.558-1.885-2.59-3.331-2.995-.515.069-1.04.026-1.537-.125m3.961 14.124c.383-1.063.483-2.168.518-3.29-.05-.607-.11-1.213-.143-1.82-.026-.464-.187-.637-.703-.581-2.451.263-4.611-.453-6.456-2.078-.307-.27-.525-.3-.87-.105-2.08 1.168-3.414 2.911-3.927 5.226-.661 2.976.667 5.216 3.565 6.171a8.5 8.5 0 0 0 1.782.386 5.924 5.924 0 0 0 6.234-3.91m-5.72 5.979c-.59-.185-.724.159-.623.733.014.081-.002.17.02.249.108.388-.077.99.55 1.036.696.051.722-.557.833-1.041a2 2 0 0 0 .023-.187c.078-.786.078-.786-.803-.79m-2.733.825q-.482.035-.962-.03a19.4 19.4 0 0 0-2.928 1.192h4.138a4 4 0 0 1-.115-.535 2.6 2.6 0 0 0-.133-.627m-8.698-11.638c-.773.506-1.608.91-2.485 1.2-.459.152-.245.563-.315.863-.069.291.112.397.356.488q.885.328 1.752.703c.26.112.387.094.39-.225.009-.965.149-1.919.302-3.029m1.28-5.742c.078-.582.103-1.171.132-1.524-.047-1.63-.153-3.01-.768-4.296-.11-.233-.204-.423-.546-.395-2.843.236-5.214-.867-7.316-2.662-.298-.255-.507-.266-.824-.092-.797.437-1.583.906-2.21 1.557-2.169 2.247-3.468 4.862-2.733 8.047.553 2.398 1.953 4.232 4.512 4.748a10 10 0 0 0 6.403-.806c1.908-.916 3.068-2.444 3.35-4.577m-16.361 9.111q.172-.018.337-.062c1.595-.663 3.223-1.193 4.969-1.254.184-.006.327-.047.334-.276.005-.215-.13-.287-.3-.34a6.4 6.4 0 0 1-2.376-1.372c-.352-.315-.686-.648-1.102-1.043-.144 1.683-.7 3.097-1.862 4.347m2.433 1.306a13.7 13.7 0 0 1 3.526-.128c-.009-.022-.023-.036-.032-.059-.138-.342-.32-.422-.662-.399-.965.073-1.917.27-2.831.586zm6.39-.215c.469.054.742-.208.938-.593.282-.551.388-1.149.475-1.753.04-.275-.053-.383-.34-.358-.501.044-1.01.12-1.507.077-.636-.055-.845.19-.744.669-.002.312.028.625.09.931.012.01.032.014.042.025q-.017.004-.034.008.022.136.061.267c.178.462.547.673 1.018.727m7.6 8.02c.502-.335 1.014-.597 1.521-.889q-.611.002-1.225-.001a.24.24 0 0 1-.188-.08zm6.387-28.35c-.014-.363.229-.923-.068-1.045-.387-.159-.783.285-1.16.503-.45.258-.562.549-.347 1.076.722 1.768.769 3.593.301 5.44-.05.196-.166.387-.087.667q1.21-.675 2.484-1.213c1.211-.492 1.261-.591 1.124-1.874a.42.42 0 0 0-.298-.417c-1.473-.53-1.895-1.711-1.949-3.136zm3.676.912a2.1 2.1 0 0 0 .63-1.713c-.052-.386-.615-.047-.934-.14a1 1 0 0 0-.187-.002c-.316.136-.824-.352-1.069.109-.195.367-.096.861-.034 1.299q.021.156.074.304a.61.61 0 0 0 .364.409 1.05 1.05 0 0 0 1.157-.265m5.77-7.973c.479-1.276.605-2.615.677-3.962a11.7 11.7 0 0 0-.58-3.972c-.09-.3-.29-.556-.561-.716-1.007-.648-2.04-1.27-2.902-2.11-.309-.301-.471-.305-.795-.016-2.154 1.926-4.664 2.965-7.58 2.898-.422-.01-.53.162-.597.524a15 15 0 0 0-.266 3.638c.114 1.947.566 3.79 1.802 5.352 1.421 1.797 3.273 2.728 5.574 2.375 2.436-.375 4.318-1.591 5.227-4.011m-26.354.569q2.332.007 4.665.017c.03 0 .06.009.09.01-1.042-.512-2.21-.661-3.496-.412a7 7 0 0 0-1.26.385zm-7.752 13.73c.248.917.688 1.785 1.6 2.294a.6.6 0 0 0 .07-.14c.011-.105.008-.21.017-.315.017-.191.055-.368.077-.555-.182 0-.365.004-.547-.002-.185-.005-.33-.09-.314-.303a.284.284 0 0 1 .3-.264c.165-.026.333-.012.49.042.048.024.092.019.14.04q.091-.601.23-1.172-.674.03-1.346-.03c-.126-.004-.316-.108-.305-.268.014-.199.24-.25.383-.257q.7-.025 1.393.075.153-.538.35-1.045c-.584-.058-1.16.025-1.74.03-.255.003-.576-.006-.58-.31-.004-.318.268-.296.571-.341.67-.1 1.284.164 1.924.178 1.054-2.44 2.88-4.363 5.582-5.696 1.207-.596 1.619-.485 2.6.388 1.814 1.614 3.864 2.597 6.378 2.267.744-.098 1.308.214 1.713.831.465.729.804 1.53 1.003 2.371.216.854.287 1.729.392 2.788a7.4 7.4 0 0 0 1.011-2.284c.938-3.467-1.007-7.634-4.16-8.72a6.7 6.7 0 0 1-3.036-2.025q-.4-.451-.889-.805c-.804.192-1.603.127-2.39.133-1.453.011-2.906 0-4.358-.008a7.7 7.7 0 0 0-1.094.855c.27-.009.544.012.808-.003.464-.04.931.04 1.355.235a.7.7 0 0 1-.569.515c-.764.104-1.531.28-2.305.053-.26.295-.527.585-.76.9.191-.083.397-.127.605-.129.596-.021 1.19.14 1.791.005.25-.056.391.115.414.36.028.286-.172.371-.397.362a8.5 8.5 0 0 0-1.77.144c-.37-.06-.9.084-.917-.343-.001-.04.023-.067.031-.102q-.456.686-.836 1.417c1.112-.211 2.227-.322 3.384.023a1.11 1.11 0 0 1-.854.478c-.868.09-1.75-.043-2.617.14a.43.43 0 0 1-.276-.026l-.011.018a6 6 0 0 1-.586.949c.74-.042 1.48-.071 2.22-.073.163 0 .279.195.25.384-.033.206-.227.134-.357.167-.494.127-.998.097-1.501.127-.273 0-.546.01-.818-.004q-.146.003-.292-.01c-1.904 1.895-2.121 4.196-1.457 6.66m.685 7.655c.179.569.272 1.164.435 1.881.282-.5.458-1.054.515-1.626.23-1.89-.554-3.35-1.95-4.54-.687-.586-1.393-1.138-1.877-1.932a4.58 4.58 0 0 0-2.08-1.878c-1.797.28-3.614.4-5.432.358q-.856.39-1.645.9a56 56 0 0 1 1.748-.009c.397.016.794-.035 1.174-.151a1 1 0 0 1 .296-.088c.235.009.582-.088.635.222.049.285-.283.396-.513.462a4 4 0 0 1-.746.069c-1.165.11-2.33.24-3.499.165a7 7 0 0 0-.907.914q.887-.037 1.775-.067c.187-.005.418.026.483.206.068.19-.179.245-.294.35-.21.216-.489.355-.789.393a5.6 5.6 0 0 0-1.771-.042 7 7 0 0 0-.377.663c.604.011 1.204-.11 1.803-.026.153.021.333.096.316.324a.4.4 0 0 1-.253.393c-.383.173-.8.258-1.22.248-.317-.035-.636-.067-.953-.105q-.16.5-.248 1.017c.78-.16 1.59-.102 2.339.17-.76.322-1.603.386-2.402.183q-.063.546-.045 1.097l.624-.091c.393.05.766.098 1.138.142.046.005.093.017.14.027a6.75 6.75 0 0 1 3.299-3.54c1.222-.615 1.788-.55 2.742.377 1.538 1.497 3.315 2.312 5.514 2.125 1.092-.093 1.696.364 2.025 1.409m-2.024 6.14a11 11 0 0 0 .423-3.048 13 13 0 0 0-.195-2.004c-.064-.348-.195-.496-.58-.473-2.458.15-4.52-.776-6.27-2.434-.397-.376-.666-.327-1.078-.084-1.598.945-2.221 2.457-2.48 4.181-.326 2.167-.099 4.215 1.492 5.884 2.912 3.055 7.459 1.988 8.688-2.022m-5.107 5.733c-.253.039-.643-.24-.66.343-.021.755.198 1.28.642 1.242.686-.058.549-.681.652-1.112.143-.595-.35-.4-.634-.473m-7.762 1.784c.121-.002.244-.007.36-.01 1.628-.046 3.264-.182 4.888.092a.4.4 0 0 1 .11.07 4 4 0 0 1-.275-1.323v-.008c-.934.14-1.87.34-2.903.123q-1.126.454-2.18 1.056m5.08-1.229c-.029-.691-.062-.74-.781-.54-.326.09-.624.211-.938.314a4.8 4.8 0 0 1 1.718.226m-3.94-12.243c-.557.166-1.119.125-1.68.046q.056.508.183 1.002a8.4 8.4 0 0 1 1.174.032c.007-.034.01-.07.018-.105q.123-.496.304-.975m-1.277 1.639c.074.195.127.395.219.585.101.209.145.488.439.561.072-.425.144-.838.217-1.254-.273-.001-.568.085-.875.107M9.242 7.547c.41-.164.853-.23 1.293-.191.6.064 1.192.202 1.802.148.176-.015.349.018.353.25a.36.36 0 0 1-.261.365c-.62.285-1.27.216-1.911.203-.528-.011-1.055-.05-1.582-.082a4.2 4.2 0 0 1-.814.864q.518-.01 1.033.046c.739.079 1.487.075 2.236.24-1.008.26-2.043.406-3.084.436a8 8 0 0 1-.892-.067q-.38.361-.678.792c.096-.003.19-.005.314-.014a7 7 0 0 1 1.534.225c.144.04.398-.047.388.195a.47.47 0 0 1-.359.4c-.603.157-1.21.309-1.843.235-.144-.017-.286-.07-.43-.076-.039-.002-.066-.016-.103-.02a5 5 0 0 0-.212.665c.763-.18 1.517-.026 2.26.183a.39.39 0 0 1 .267.39c-.03.18-.25.245-.397.257-.394.033-.79.012-1.187.012v.034c-.354 0-.707.007-1.06-.003l-.012-.002q-.018.462.064.918c.912-.017 1.828-.118 2.731.099.07.017.125.096.187.146l-.021.176c-.926.046-1.852.103-2.781.004q.098.34.25.66a.33.33 0 0 1 .23-.069c.993.102 2.028-.026 2.982.304 0-.148-.008-.296.002-.443.085-1.282.389-1.64 1.636-1.945a5 5 0 0 0 1.846-.925 10.9 10.9 0 0 0 2.869-3.315c.546-.96 2.075-1.056 2.704-.163.772 1.097 1.83 1.699 3.134 1.92.819.14 1.631.082 2.45.007 1.202-.11 1.631.175 2.039 1.31.2.557.39 1.12.909 1.475.437.3.605.72.653 1.23.088 1.112.055 2.23-.099 3.335-.03.24-.097.483.309.405 1.434-.275 3.304-1.34 3.2-3.617-.078-1.712-.783-3.136-2.12-4.202a3 3 0 0 1-1.196-2.384 9.3 9.3 0 0 0-.386-2.486c-.586-1.851-1.82-2.99-3.741-3.334-1.366-.244-2.632-.025-3.823.46 1.123.004 2.247-.009 3.37-.015a3.54 3.54 0 0 1 1.657.35q-3.224.267-6.453.39c-.118.074-.243.13-.36.209-1.106.747-2.085.838-3.256.118a3.2 3.2 0 0 0-.718-.293c-.601 0-1.2.024-1.802.013-.56.194-1.061.526-1.457.966-.012.013-.018.028-.03.042.929-.002 1.858-.014 2.785.016a.6.6 0 0 1 .566.309 1.42 1.42 0 0 1-.85.253c-.88-.01-1.76-.003-2.64-.011-.08 0-.176.014-.262.006q-.353.497-.603 1.053.01-.007.022-.012c.311-.16.647-.14.982-.142.626 0 1.238.189 1.87.146a.39.39 0 0 1 .318.151c.063.155-.087.301-.212.335-.97.265-1.954.412-2.956.201a.3.3 0 0 1-.209-.2c-.06.17-.148.325-.194.5a4 4 0 0 1-.25.564M7.974 16.87a8.2 8.2 0 0 1 1.62-.09v-.001a7 7 0 0 1-.075-.88h.018v-.034c-.913.13-1.843.11-2.75-.064a4.1 4.1 0 0 0 1.187 1.07m15.654 5.35c1.56-1.77 2.09-3.886 2.164-6.314.091-.59.04-1.26-.6-1.792a2.1 2.1 0 0 1-.63-1.078c-.139-.512-.412-.59-.913-.553-2.296.177-4.39-.313-6.055-2.035-.331-.343-.405-.01-.536.17-1.36 1.863-2.912 3.487-5.205 4.181-.31.094-.305.308-.302.538.03 2.347.579 4.557 1.974 6.466 2.662 3.638 7.128 3.792 10.103.417m-4.472 4.453c-.084.003-.169 0-.252 0v.014c-.315-.017-.63-.03-.943-.055-.199-.015-.33.028-.319.262.033.651.068 1.305.38 1.898a.95.95 0 0 0 .872.524c.399.01.619-.247.755-.567q.21-.493.333-1.014c.252-1.093.243-1.095-.827-1.062zm-7.993 2.18q-.665.344-1.283.768.506-.119 1.025-.105c1.384.083 2.767.041 4.15.07.221.005.468-.058.69.214-.633.269-1.278.509-1.92.498-1.364-.024-2.712.25-4.074.148-.125-.009-.252.003-.377-.007a.7.7 0 0 1-.41-.144q-.456.352-.873.75.266-.054.538-.056c.775.037 1.547.13 2.325.116.263-.005.615.002.621.365.006.323-.344.298-.57.364-.76.22-1.54.105-2.313.128l-1.397-.001c-.178.218-.373.418-.536.65q.1-.028.204-.037c.728.042 1.454.112 2.18.169.148.011.325.003.354.18.029.176-.15.233-.277.289-.556.242-1.114.48-1.744.371-.434.142-.847.016-1.263-.068-.15.256-.315.498-.451.768q.483-.042.97-.011v-.036c.354.028.708.042 1.059.088.442.057.42.283.123.503-.665.492-1.446.41-2.202.357a1.6 1.6 0 0 1-.337-.048c-.134.298-.267.597-.388.9q.4-.09.808-.12c.397-.022.796-.006 1.195 0a.4.4 0 0 1 .423.381c.025.254-.217.306-.382.319-.395.031-.793.01-1.19.01v.007h-.944c-.05 0-.102-.006-.154-.009-.113.307-.197.622-.297.932.405-.074.82-.094 1.232-.137.32-.024.624.065.933.113.18.028.356.103.383.27.029.175-.162.273-.299.355a1.63 1.63 0 0 1-.886.255c-.436-.006-.86-.145-1.305-.085-.1.015-.2-.01-.283-.067-.078.272-.156.544-.225.818.02-.008.028-.023.05-.03.79-.238 1.574-.094 2.354.048a.33.33 0 0 1 .27.368.43.43 0 0 1-.37.437 3.7 3.7 0 0 1-1.124.122c-.454-.001-.786.037-1.116-.073a1 1 0 0 1-.232-.112c-.083.379-.182.753-.249 1.136a.4.4 0 0 1 .18-.12c.915-.237 1.814-.216 2.68.284a3.95 3.95 0 0 1-2.724.257.5.5 0 0 1-.18-.095c-.06.37-.105.746-.15 1.12.019-.012.026-.031.049-.04.133-.062.278-.095.425-.098.623.033 1.248.01 1.867-.067.252-.032.495.064.548.314.06.283-.151.445-.409.545-.441.174-.91.113-1.379.188-.318-.018-.652-.028-.983-.058a.33.33 0 0 1-.211-.098c-.005.045-.014.09-.019.135-.027.284-.033.568-.056.852a.45.45 0 0 1 .33-.208 9 9 0 0 1 2.07.033.44.44 0 0 1 .392.426c.006.262-.238.33-.444.347-.313.026-.63.007-.944.007v.017c-.335 0-.673.02-1.006-.008a.53.53 0 0 1-.424-.218q-.048.64-.085 1.28a.42.42 0 0 1 .263-.158c.753-.184 1.5.007 2.25.015a.264.264 0 0 1 .276.21c.021.188-.15.235-.293.249-.458.046-.918.076-1.457.118-.211-.028-.501-.067-.792-.104a.31.31 0 0 1-.258-.157c-.017.309-.049.618-.062.927a.45.45 0 0 1 .406-.244c.647-.008 1.28.175 1.932.113.28-.027.425.181.44.431.016.298-.254.316-.441.303-.549-.038-1.077.118-1.556.143-.287-.025-.513.034-.73-.109-.041-.027-.05-.06-.076-.09-.014.386-.01.771-.019 1.157a.33.33 0 0 1 .202-.12c.91-.055 1.835-.217 2.78.216-.384.397-.79.437-1.208.437-.458 0-.918.019-1.375-.008a.48.48 0 0 1-.403-.263c-.01.533-.025 1.067-.026 1.6-.006-.222.074-.43.312-.462a7.1 7.1 0 0 1 2.23.02c.225.04.3.175.29.4a.34.34 0 0 1-.354.354c-.374.02-.75.006-1.125.006v.015h-.938c-.19-.001-.378-.03-.417-.25q0 .69.006 1.38a.47.47 0 0 1 .445-.38c.247-.046.5-.052.749-.016.464.113.906.303 1.397.294a.233.233 0 0 1 .266.208c0 .114-.119.157-.229.172l-1.627.22q-.272.017-.543-.003c-.203-.038-.395-.13-.455-.327.006.44.018.882.028 1.322.094-.267.502-.201.78-.203.544-.004 1.088 0 1.63.033.176.01.442.074.447.27.005.207-.184.33-.436.352-.456.041-.908.13-1.23.18-.24 0-.36.035-.444-.006-.256-.123-.656-.155-.743-.422.011.428.013.856.027 1.284a.35.35 0 0 1 .247-.15c.767-.079 1.54-.095 2.28.172a.55.55 0 0 1 .305.37c.03.225-.236.216-.37.235-.411.057-.83.064-1.245.09l-.001-.026q-.44.002-.877 0a.53.53 0 0 1-.317-.09c.014.35.033.702.048 1.053a1 1 0 0 1 .097-.05c.83-.258 1.653-.093 2.475.039.133.021.33.115.306.26a.41.41 0 0 1-.366.296c-.433.063-.86.184-1.285.123a2.6 2.6 0 0 1-1.13-.134 1 1 0 0 1-.073-.04q.021.489.044.979.187-.03.376-.014c.25-.011.501-.003.752-.003l.001-.022c.416.03.833.055 1.247.097a.4.4 0 0 1 .155.056 19.4 19.4 0 0 1 8.354-5.217c-.588-.603-1.092-1.163-1.474-1.822a8 8 0 0 1-.872-2.155.56.56 0 0 0-.364-.395c-.988-.45-1.617-1.254-2.1-2.186-2.025-3.911-.816-8.998 2.746-11.575a13.9 13.9 0 0 1 3.626-1.882c1.858-.64 3.736-.813 5.624-.134.488.175.95.424 1.454.653a1.6 1.6 0 0 0 .05-.255c.039-2.146.537-4.124 2.081-5.72.24-.249.106-.344-.136-.433a9 9 0 0 0-2.034-.417c-.355-.043-.487.076-.513.43a7.1 7.1 0 0 1-.567 2.445c-.53 1.166-1.371 1.905-2.718 1.894-1.28-.011-2.35-.791-2.834-2.046a5.4 5.4 0 0 1-.243-.812 9.3 9.3 0 0 1-3.772-.018c1.248-.322 2.492-.545 3.74-.23a5 5 0 0 1-.07-.537c-.018-.452-.195-.514-.59-.41-1.371.36-2.654.936-3.92 1.558zM5.17 58.714c-.544-.002-1.087.004-1.63-.014a.56.56 0 0 1-.351-.14l.022.495c.031.58.08 1.158.135 1.932a24 24 0 0 1 1.824-2.273m18.967 10.657c-.049-.858-.035-1.718-.177-2.57-.205-1.226-.848-1.59-2.014-1.142a1.4 1.4 0 0 0-.9.974c-.146.514-.134 1.037-.116 1.561.056 1.647.058 1.647 1.67 1.637.355 0 .713-.016 1.068.005.348.02.49-.098.469-.465m8.849-4.186c-2.085-5.28-5.964-8.627-11.27-10.438-.35-.12-.344.058-.359.281a5.2 5.2 0 0 1-.426 1.897c-.563 1.207-1.78 1.734-3.05 1.323a2.5 2.5 0 0 1-1.607-1.535c-.207.318-.52.313-.786.341-1.793.19-3.594.148-5.393.14a1 1 0 0 1-.252-.01A15.6 15.6 0 0 0 6.88 59.76c.361-.075.735-.053 1.08-.101.755-.107 1.54-.02 2.312.015.202.009.535-.04.543.276.005.246-.283.252-.479.294-1.135.245-2.286.055-3.428.107a1 1 0 0 1-.475-.104c-.281.343-.534.717-.79 1.087.885-.07 1.766-.259 2.66-.107.116.02.28.029.315.166.049.184-.14.223-.25.3-.276.19-.559.371-1.084.269-.464-.298-1.151.233-1.781-.099-.06-.031-.124-.056-.178-.09-.192.298-.357.625-.533.94q.15-.038.307-.044c.647.023 1.294.08 1.94.117.202.011.385.04.42.284.037.267-.138.37-.354.436-.57.175-1.16.137-1.743.133H4.29l-.01-.002c-.121.249-.22.521-.332.78q.581-.084 1.168-.104.563.027 1.118.112a.37.37 0 0 1 .36.293c.022.17-.193.196-.315.256-.549.272-1.138.205-1.72.177H3.68c-.011 0-.022-.004-.033-.004-.08.204-.175.392-.249.602-.026.075-.028.154-.051.228q.016-.002.033-.005a14 14 0 0 1 1.509-.002q.279.03.552.094c.156.024.387-.026.38.203a.37.37 0 0 1-.34.39c-.479.026-.937.244-1.366.133h-.692a.8.8 0 0 1-.25-.047q-.086.481-.096.97c.7-.232 1.81-.085 2.364.396-.806.334-1.588.208-2.358.182.008.13-.013.256.003.386.036.3.113.508.477.537l.17.016c.152-.003.307.03.458.042 1.11.094 2.22.192 3.328.306.375.038.475-.112.473-.457-.003-.567.021-1.136.052-1.703.034-.65.439-1.066 1.01-1.065.592 0 1.008.452 1.01 1.129 0 .096-.008.192-.008.288q.196-.108.41-.173c.101-.03.208-.036.311-.014.75.171 1.517.262 2.287.272a.56.56 0 0 1 .46.255c-.44.288-.91.17-1.361.203-.518.037-1.04-.046-1.557.094a.77.77 0 0 1-.567-.08c-.007.244 0 .488-.023.73q-.018.153.002.307c.19-.102.403-.156.62-.155.775-.001 1.536.217 2.316.144.157-.014.37.013.368.232a.2.2 0 0 1-.072.131c.426.002.851-.004 1.277-.004v.127c1.304 0 2.608-.02 3.911.01.48.011.602-.106.542-.602-.139-1.15-.206-2.311.198-3.433.722-2.003 3.406-2.988 5.257-1.933 1.015.578 1.35 1.56 1.532 2.627.157.915.16 1.842.19 2.767.01.281 0 .548.422.533 1.955-.068 3.91-.063 5.86-.259.435-.043.619-.28.727-.652a5.6 5.6 0 0 0-.182-3.713m2.592 3.728a10 10 0 0 1 .59-2.959 19.2 19.2 0 0 1 4.445-7.254c.155-.16.347-.288.384-.553.288-2.038.723-4.059.682-5.777.118-2.918-.008-3.103-2.45-3.955a1 1 0 0 1-.12-.042c-.293-.155-.44-.035-.579.242-.566 1.136-1.472 1.79-2.768 1.72-1.103-.058-1.964-.523-2.53-1.385-1.527.1-3.476.053-4.518-.164q-1.04.41-2.023.945c-.77.422-1.427.931-1.823 1.73l.003-.001a8.3 8.3 0 0 1 1.816-.017c.902.126 1.784-.235 2.678-.035.12.027.253.014.37.05a.466.466 0 0 1 .353.463c-.01.187-.23.19-.387.237-.885.26-1.789.054-2.536.12-.857 0-1.568.005-2.28-.004q-.222 0-.43-.08-.216.297-.485.545c-.446.41-.262.522.18.725a23.5 23.5 0 0 1 4.689 2.822 1.97 1.97 0 0 1 1.506.057c.304.129.605.216.912.107.389-.137.628.042.853.371-.829-.011-1.657.127-2.487.13.36.313.712.634 1.048.972l.249-.016c.366.023.866.042 1.364.09.15.014.366.044.398.214.037.196-.167.29-.32.33a3.7 3.7 0 0 1-1.005.108c.256.288.499.59.738.894.59.137 1.142.455 1.75.52a5.2 5.2 0 0 0-1.27.1c.289.403.557.827.818 1.26l.065.017c-.017.008-.03.007-.047.013q.674 1.103 1.194 2.285c.718 1.664 1.03 3.37.662 5.17-.03.146-.162.374.1.408.332.044.207-.252.211-.403m6.933.824a2.8 2.8 0 0 1-.875.2c.166.002.33.017.497.016a.36.36 0 0 0 .378-.217m2.455.014a2 2 0 0 1-.3-.144c.042.098.13.146.3.144m23.72-1.153c-.148-.763-.24-1.542-.451-2.287-1.637-5.765-5.23-9.56-11.136-11.028-.595-.148-.785-.057-.85.59-.114 1.153-.55 2.17-1.74 2.642-1.578.624-2.93-.05-3.45-1.592-1.45.092-2.901.267-4.357-.038l-.002-.156c-.897.462-1.752 1-2.556 1.61 1.7-.548 4.64-.463 5.36.33-1.99.253-3.894.21-5.884.099q-.713.563-1.363 1.198c1.406-.42 4.389-.407 5.17.142-1.844.305-3.591.193-5.427.15q-.464.489-.897 1.02c1.429-.001 2.862-.105 4.283.234-.826.163-1.61.44-2.5.287-.599-.103-1.252.133-1.887.004a3 3 0 0 0-.327-.036c-.02.027-.045.047-.065.074-.23.307-.432.627-.642.944a7 7 0 0 1 1.49 0c.73.055 1.459.11 2.186.184.16.015.388.061.4.247.018.254-.27.25-.416.27q-.502.043-1.006.016c-.92.017-1.835.238-2.757.112-.115-.015-.271-.01-.404-.03-.164.278-.312.564-.458.852.359-.061.73.015 1.086-.029.419.067.844-.08 1.245.108.112.053.249.109.243.245-.005.144-.166.221-.27.224-.875.028-1.741.231-2.62.14-.006 0-.014-.006-.02-.007-.139.311-.257.633-.373.954q.456-.003.911-.002c.497.005 1.005-.082 1.488.104.089.035.231.009.22.157-.008.121-.112.166-.223.178-.88.094-1.76.199-2.642.272-.096.32-.166.65-.238.98.343.026.685.052 1.027.094.245.03.485.104.727.159a7.6 7.6 0 0 1-1.882.279q-.004.018-.01.036c-.106.632-.067.894.246 1.072.34.05.688.037 1.024-.037a.41.41 0 0 1 .485.168.64.64 0 0 1-.422.161q1.116.204 2.252.231a2.6 2.6 0 0 1-1.343-.458 4.7 4.7 0 0 1 2.68-.136c.011-.398.037-.797.065-1.195-.942.187-1.885.302-2.822-.069.946-.457 1.887-.3 2.828-.038.008-.115.009-.23.018-.345.063-.737.491-1.16 1.098-1.117.618.042.965.514.923 1.256l-.007.118c.728-.188 1.698-.12 2.14.188-.716.209-1.409.132-2.156.098q-.025.396-.046.793c-.008.165-.011.28-.009.382.763-.257 1.463.07 2.158.102l-.397.129c2.709-.25 5.42-.451 8.145-.246 2.12.11 4.24.21 6.36.341.457.028.58-.108.548-.555a30 30 0 0 1-.055-2.206c.003-.788.403-1.238 1.043-1.222.612.015.97.458.986 1.214q.024 1.198.057 2.396c.006.23-.007.48.342.48 1.474-.004 2.944-.025 4.377-.439.419-.12.58-.374.499-.795m.165-25.5c-.108-2.127-.378-4.238-1.092-6.26-1.846-5.228-5.385-8.622-10.826-9.954-.552-.135-.72-.001-.796.556-.157 1.162-.462 2.322-1.464 3.044-.552.396-.665.808-.642 1.416.017.456.1.612.6.586 3.511-.184 5.956 1.412 7.426 4.56.145.35.411.635.75.803 2.005.994 3.08 2.658 3.466 4.823.407 2.28.282 4.57.165 6.86-.143 2.794-.324 5.587-.18 8.387.015.273.018.54.216.77q1.142 1.35 2.084 2.849c.047-.341.077-.5.09-.66.496-5.922.505-11.85.203-17.78m-32.222-4.273a2.44 2.44 0 0 1-1.626-.301.977.977 0 0 0-1.356.39 1.013 1.013 0 0 0 .375 1.369 4 4 0 0 0 2.182.628q.387-.031.767-.11a.986.986 0 0 0 .767-1.184.965.965 0 0 0-1.11-.792m-1.743-3.73c-.065-.547-.501-.9-1.1-.891-.42.007-.834.095-1.22.261-.497.238-.7.647-.566 1.188a.99.99 0 0 0 1.157.725c.288-.045.574-.105.86-.164.58-.12.934-.578.869-1.12m3.118-.851c-.84.026-1.364.442-1.363 1.08a1.02 1.02 0 0 0 1.062 1.01c.892-.017 1.422-.42 1.42-1.085-.002-.602-.474-1.026-1.12-1.005m16.804-18.905a1.014 1.014 0 0 0-1.032 1.04c.033.584.407.897.928 1.054q.22.053.444.058c.886.031 1.37-.347 1.379-.982.01-.715-.657-1.169-1.72-1.17m-3.092.295c-.298-.338-.692-.36-1.085-.342-.4-.042-.773-.037-1.075.261a1.015 1.015 0 0 0-.031 1.42c.42.446 1.66.492 2.112.08a1.01 1.01 0 0 0 .08-1.419m1.3 4.363a8 8 0 0 0-.377.024c-.733.064-1.163.482-1.123 1.09.04.611.52.972 1.25.941.126-.01.252-.017.378-.029.72-.07 1.15-.511 1.09-1.116-.059-.587-.527-.938-1.217-.91m-37.683 1.25c.683-.203 1.207-.669 1.757-1.086.503-.382 1.027-.45 1.588-.18.371.179.742.205 1.073-.042.371-.276.692-.2 1.038.029q.39.266.812.479c.814.396 1.629.387 2.402-.099.472-.295.613-.752.39-1.259s-.678-.771-1.18-.551c-.503.22-.839.048-1.214-.201-.568-.378-1.174-.713-1.874-.616-.737.1-1.459.37-2.06.038-.908.013-1.56.331-2.17.764-.476.337-.918.709-1.501.896-.556.178-.746.853-.48 1.369.25.487.765.654 1.418.46zm5.04-5.074c.83-.009 1.308-.387 1.298-1.029-.01-.629-.499-1.019-1.26-1.004-.769.015-1.24.413-1.232 1.04.008.615.47 1 1.194.993m-4.276-.221c.861.01 1.47-.466 1.46-1.142a1.015 1.015 0 0 0-1.065-.999c-.844.033-1.407.495-1.398 1.146a1 1 0 0 0 1.003.995m37.655 32.392c-.35-.069-.697-.147-1.048-.205a1.01 1.01 0 0 0-.548 1.938c.431.173.894.219 1.351.281.596.032 1.055-.313 1.136-.855.085-.572-.271-1.035-.891-1.159M52.35 45.56a1.012 1.012 0 1 0-2.02-.113 1.012 1.012 0 0 0 2.02.113m2.61-1.003a1 1 0 0 0-.974 1.027 1.013 1.013 0 0 0 1.011.996 1.025 1.025 0 0 0 1.01-1.002 1.01 1.01 0 0 0-1.046-1.02m-35.939 3.908a3.26 3.26 0 0 0-1.43.018.91.91 0 0 0-.732.969.94.94 0 0 0 .805.976q.3.044.606.038.353.005.705-.041c.514-.104.81-.44.822-.963.013-.522-.264-.89-.776-.997m-1.546-3.109c-.014-.594-.489-1.003-1.144-.987-.84.021-1.352.44-1.337 1.093a1.016 1.016 0 0 0 1.078.99c.898-.025 1.42-.432 1.404-1.096m2.947-1.13c-.826-.003-1.43.454-1.445 1.095a1.016 1.016 0 0 0 .97 1.035c.849.04 1.488-.423 1.505-1.092a1.015 1.015 0 0 0-1.03-1.039"/></g><defs><clipPath id="a"><path fill="#fff" d="M0 0h72v72H0z"/></clipPath></defs></svg>