<svg xmlns="http://www.w3.org/2000/svg" width="72" height="72" fill="none" viewBox="0 0 72 72"><path fill="#1f4839" stroke="#1f4839" stroke-width=".5" d="M48.66 53.435c-6.073-1.04-8.704-7.965-8.779-10.678-.043-1.555.766-2.634 2.28-3.037 1.622-.432 10.236-.862 12.762-.863h.007c1.639 0 3.453.18 4.522 1.5 1.517 1.875.925 7.004-.019 8.829-1.403 2.716-4.422 3.732-6.097 4.096A.554.554 0 1 1 53.1 52.2c2.526-.55 4.476-1.832 5.348-3.521.856-1.655 1.232-6.278.142-7.625-.775-.958-2.285-1.088-3.66-1.088h-.008c-2.725 0-11.037.443-12.476.826-1.01.27-1.487.902-1.457 1.936.065 2.366 2.498 8.699 7.857 9.617a.555.555 0 0 1 .453.64.554.554 0 0 1-.64.45Z"/><path fill="#1f4839" stroke="#1f4839" stroke-width=".5" d="M48.866 67.518c-3.908 0-6.191-.838-7.758-5.23-2.146-6.01-1.728-12.601-1.036-18.256a.554.554 0 1 1 1.1.134c-.676 5.526-1.088 11.956.979 17.75 1.391 3.893 3.18 4.548 6.863 4.493 9.056-.048 10.863-3.324 11.03-9.352.096-3.485.196-7.089-.947-10.412a.553.553 0 1 1 1.047-.36c1.21 3.514 1.102 7.386 1.008 10.803-.19 6.82-2.688 10.43-12.286 10.43ZM20.87 53.029a.556.556 0 0 1 .485-.615 8.4 8.4 0 0 0 2.776-.806c3.55-1.776 5.517-6.726 5.577-8.882.058-2.034-1.777-2.176-4.73-2.304-5.404-.234-11.32-1.285-12.87.63-.612.755-.652 1.897-.641 3.002.027 2.811.066 6.662 5.833 8.074.297.073.48.372.405.67a.55.55 0 0 1-.669.407c-6.602-1.617-6.648-6.326-6.676-9.14-.013-1.307.045-2.67.888-3.71 1.995-2.46 7.552-1.31 13.78-1.04 2.56.111 5.88.172 5.79 3.44-.07 2.456-2.195 7.844-6.19 9.844a9.5 9.5 0 0 1-3.142.915.553.553 0 0 1-.616-.485Z"/><path fill="#1f4839" stroke="#1f4839" stroke-width=".5" d="M21.1 67.573c-1.4 0-2.885-.15-4.296-.494-2.947-.72-5.08-2.17-6.166-4.192-1.672-3.11-1.477-12.55-.083-16.6a.554.554 0 0 1 1.048.36c-1.384 4.026-1.378 13.132.012 15.715 1.18 2.195 3.618 3.191 5.453 3.641 3.764.92 7.926.309 9.139-.515 1.25-.852 1.909-2.356 2.342-3.571 2.067-5.794 1.654-12.224.979-17.75a.553.553 0 0 1 .483-.617c.294-.046.578.178.617.483.692 5.655 1.11 12.246-1.036 18.256-.45 1.266-1.23 3.07-2.761 4.114-1.025.695-3.242 1.17-5.73 1.17Zm12.332-34.455h-.024c-5.422-.23-9.729-2.33-12.453-6.07-3.576-4.91-3.595-11.204-2.422-15.456a.555.555 0 0 1 .504-.405 269 269 0 0 1 33.453.261.55.55 0 0 1 .508.46c.917 5.454 1.498 10.681-1.44 14.684-2.414 3.288-6.93 5.35-13.809 6.302a.554.554 0 0 1-.15-1.097c6.566-.909 10.84-2.826 13.066-5.86 2.61-3.554 2.147-8.361 1.312-13.416a268 268 0 0 0-32.476-.251c-1.242 4.935-.336 10.438 2.35 14.125 2.518 3.458 6.53 5.4 11.606 5.616a.556.556 0 0 1 .53.577.557.557 0 0 1-.555.53Z"/><path fill="#1f4839" stroke="#1f4839" stroke-width=".5" d="M58.427 40.607c.703-7.132.718-15.99-5.433-21.205a.556.556 0 0 1-.065-.78.556.556 0 0 1 .78-.065c6.545 5.55 6.548 14.757 5.822 22.159-.072.735-1.173.62-1.104-.11Zm-45.907-.112a.554.554 0 0 1-.555-.548c-.14-12.739 1.199-14.428 5.945-23.045a.554.554 0 1 1 .972.533c-4.755 8.639-5.946 10.058-5.809 22.5a.554.554 0 0 1-.547.56zm1.437 29.935c-1.015-.077-2.548-.193-3.335-1.318-1.012-1.443-.745-3.996-.55-5.86.067-.623.133-1.268.093-1.473a.554.554 0 0 1 1.089-.21c.071.368.008.968-.079 1.799-.583 5.551.376 5.767 2.867 5.957 10.492.794 34.126 1.355 40.843.743 2.25-.204 5.553-.638 5.661-5.023.038-1.472-.347-2.958-.72-4.393a.554.554 0 0 1 1.072-.278c.392 1.51.797 3.07.756 4.699-.107 4.246-2.74 5.74-6.67 6.099-7.463.678-31.529-.024-41.027-.743Z"/><path fill="#1f4839" stroke="#1f4839" stroke-width=".5" d="M64.266 70.267c-1.64-.116-3.042-1.102-4.17-1.895a.554.554 0 0 1 .637-.907c1.069.751 2.278 1.602 3.61 1.696 1.651.108 3.368-1.067 4.056-2.816 2.276-5.789-5.23-10.731-8.13-14.231a.554.554 0 0 1 .851-.708c2.83 3.416 10.891 8.78 8.308 15.345-.894 2.278-3.135 3.67-5.162 3.515ZM8.908 68.728c-3.644 0-6.87-2.985-6.841-6.9.035-4.882 4.642-7.866 7.396-9.647l.235-.153a.553.553 0 0 1 .765.163c.273.421-.028.68-.398.92-2.566 1.661-6.858 4.44-6.89 8.726-.028 3.775 3.579 6.572 7.237 5.583.705-.196.998.878.29 1.069a7 7 0 0 1-1.794.239Zm34.188-56.857a.56.56 0 0 1-.512-.341c-3.337-8.029-3.531-8.927-4.646-9.575-.656-.381-1.553-.395-2.342-.039-2.867 1.296-3.42 6.85-3.526 9.179-.013.303-.225.55-.578.528a.554.554 0 0 1-.529-.578C31.104 7.9 31.835 2.4 35.138.907c1.11-.503 2.395-.467 3.355.09 1.51.876 1.72 1.955 5.113 10.107a.554.554 0 0 1-.51.767Zm7.98 48.817c-1.256 0-2.599-.669-2.735-1.948-.27-2.532-.276-6.975.323-11.196.216-1.522 1.04-2.505 2.102-2.505.933 0 2.12.867 2.4 3.313.327 2.867.485 5.763.638 8.563.043.791.116 2.116-.707 2.995-.462.495-1.198.778-2.021.778Zm-.31-14.543c-.377 0-.853.487-1.004 1.554-.67 4.716-.516 9.085-.319 10.922.064.6.88.958 1.634.958.517 0 .96-.156 1.214-.427.46-.492.455-1.345.41-2.177-.153-2.785-.31-5.665-.634-8.5-.175-1.529-.786-2.33-1.3-2.33ZM19.092 60.688c-.822 0-1.56-.283-2.022-.779-.76-.811-.764-1.971-.707-2.994l.065-1.204c.278-5.105.461-8.478 1.249-9.63.44-.644 1.103-1.028 1.773-1.028.399 0 1.727.18 2.055 2.491.598 4.219.592 8.663.322 11.196-.136 1.28-1.479 1.948-2.735 1.948Zm.357-14.527c-.295 0-.632.214-.859.546-.612.897-.817 4.682-1.055 9.065l-.067 1.204c-.045.831-.05 1.684.41 2.177.254.273.697.428 1.214.428.754 0 1.57-.36 1.634-.959.194-1.816.51-12.461-1.277-12.461Z"/><path fill="#1f4839" stroke="#1f4839" stroke-width=".5" d="M51.2 56.628q-1.232 0-2.454-.127a.553.553 0 1 1 .115-1.1c1.408.145 2.84.16 4.25.039.275-.032.572.2.598.505a.555.555 0 0 1-.505.6q-.999.082-2.004.082Zm-34.649-.942a.554.554 0 0 1 .436-.651 12.1 12.1 0 0 1 4.441-.058.555.555 0 0 1 .452.64.56.56 0 0 1-.64.452 11 11 0 0 0-4.036.052.555.555 0 0 1-.653-.435Zm18.626-9.168c-1.344 0-2.446-1.062-2.347-2.928.14-2.65.064-5.412.082-8.059.047-7.034-1.407-8.116-.128-10.35a3.43 3.43 0 0 1 3.018-1.746c.992 0 1.935.418 2.588 1.147 3.051 3.407-1.988 7.253-.86 17.84.11 1.024.243 2.266-.478 3.202-.433.559-1.133.893-1.875.893Zm.624-21.975c-.862 0-1.63.444-2.056 1.188-1.014 1.773.32 2.833.275 9.807-.018 2.648.057 5.418-.085 8.11-.032.618.104 1.106.393 1.412.47.494 1.442.412 1.845-.113.45-.584.352-1.498.258-2.38a30.1 30.1 0 0 1 1.081-11.729c.484-1.586 1.401-4.012.053-5.517a2.37 2.37 0 0 0-1.764-.778Zm13.164 3.242-4.763-4.762a.277.277 0 1 1 .393-.392l4.762 4.762a.277.277 0 0 1-.392.392Zm1.133-1.42-3.995-3.994a.277.277 0 1 1 .392-.392l3.995 3.994a.277.277 0 1 1-.392.392Zm1.232-2.731-2.837-2.837a.277.277 0 1 1 .392-.392l2.837 2.837a.277.277 0 1 1-.393.392Zm1.269-2.484a.28.28 0 0 1-.196-.08l-1.956-1.957a.277.277 0 0 1 .392-.391l1.956 1.956a.275.275 0 0 1-.196.472Zm-.074-2.139a.28.28 0 0 1-.197-.08L51.1 17.7a.275.275 0 0 1 0-.391.28.28 0 0 1 .392 0l1.229 1.23a.277.277 0 0 1-.196.471Zm-5.872 9.829-3.699-3.699a.277.277 0 1 1 .392-.392l3.699 3.699a.275.275 0 0 1 0 .39.277.277 0 0 1-.392.002Zm-2.465 1.337-2.375-2.375a.277.277 0 1 1 .392-.392l2.375 2.375a.277.277 0 1 1-.392.392Zm-2.178.589-1.824-1.824a.277.277 0 1 1 .392-.392l1.823 1.824a.277.277 0 1 1-.392.392Z"/><path fill="#1f4839" stroke="#1f4839" stroke-width=".5" d="M39.858 31.494a.277.277 0 0 1 0-.392l3.992-3.992a.277.277 0 1 1 .392.392l-3.992 3.992a.277.277 0 0 1-.392 0Zm3.586-.814a.277.277 0 0 1 0-.392l4.699-4.7a.277.277 0 1 1 .392.393l-4.7 4.699a.28.28 0 0 1-.391 0Zm.814-5.376a.276.276 0 0 1 0-.39l3.316-3.318a.277.277 0 1 1 .391.392l-3.316 3.317a.277.277 0 0 1-.391 0Zm4.18-1.575a.277.277 0 0 1 0-.392l3.312-3.313a.276.276 0 0 1 .391 0 .275.275 0 0 1 0 .39l-3.312 3.314a.276.276 0 0 1-.39.001Zm1.792-4.236a.277.277 0 0 1 0-.392l1.983-1.983a.277.277 0 1 1 .391.392l-1.982 1.983a.276.276 0 0 1-.391 0Zm7.01 44.729-3.203-3.204a.277.277 0 1 1 .392-.392l3.203 3.204a.277.277 0 1 1-.392.392Zm.958-.93-2.66-2.66a.277.277 0 1 1 .393-.392l2.66 2.66a.277.277 0 1 1-.393.392Zm1.294-1.452-2.194-2.194a.277.277 0 1 1 .392-.392l2.194 2.194a.277.277 0 1 1-.392.392Zm.065-1.992-1.36-1.36a.277.277 0 1 1 .392-.391l1.36 1.358a.277.277 0 1 1-.392.392Zm-4.145 4.778-2.62-2.62a.277.277 0 1 1 .393-.392l2.62 2.62c.26.261-.138.646-.393.392Zm-2.327 1.061-2.095-2.094a.277.277 0 1 1 .392-.393l2.095 2.095c.262.262-.138.646-.392.392Zm-2.44.391-1.884-1.885a.277.277 0 1 1 .392-.392l1.884 1.885a.277.277 0 1 1-.392.392Zm-2.427.49-1.475-1.474a.277.277 0 1 1 .392-.393l1.474 1.475a.277.277 0 1 1-.391.392Z"/><path fill="#1f4839" stroke="#1f4839" stroke-width=".5" d="M45.713 66.467a.277.277 0 0 1 0-.392l2.331-2.33a.277.277 0 1 1 .392.392l-2.33 2.33a.28.28 0 0 1-.393 0Zm2.875.3a.277.277 0 0 1 0-.392l3.919-3.92a.277.277 0 1 1 .392.392l-3.92 3.92a.28.28 0 0 1-.391 0Zm2.961.043a.277.277 0 0 1 0-.392l4.462-4.462a.277.277 0 1 1 .392.393L51.94 66.81a.28.28 0 0 1-.392 0Zm3.861-2.059a.277.277 0 0 1 0-.392l2.619-2.62a.277.277 0 1 1 .392.393l-2.62 2.62a.28.28 0 0 1-.392 0Zm1.373-4.033a.277.277 0 0 1 0-.392l1.986-1.986c.257-.257.651.132.39.392l-1.985 1.986a.276.276 0 0 1-.391 0Zm-3.047 1.502a.277.277 0 0 1 0-.392l1.742-1.74a.278.278 0 0 1 .392.392l-1.742 1.74a.28.28 0 0 1-.392 0Zm5.404-4.076a.277.277 0 0 1 0-.392l.969-.968a.277.277 0 1 1 .392.392l-.968.968a.277.277 0 0 1-.392 0ZM26.514 65.62l-3.86-3.86a.277.277 0 1 1 .392-.392l3.86 3.86a.277.277 0 1 1-.392.393Zm1.73-1.141-3.758-3.758a.277.277 0 1 1 .392-.392l3.758 3.758a.277.277 0 1 1-.392.392Zm.934-2.366-3.287-3.286a.277.277 0 0 1 .391-.392l3.287 3.286a.277.277 0 1 1-.391.392Zm.178-3.365-1.57-1.571a.277.277 0 1 1 .391-.392l1.571 1.57a.277.277 0 1 1-.392.393Zm-.638-3.63a.266.266 0 0 1-.277-.277c0-.272.315-.35.465-.2a.276.276 0 0 1-.188.477Zm-4.855 11.15-3.226-3.225a.277.277 0 0 1 .392-.391l3.226 3.225a.277.277 0 1 1-.392.39Zm-2.733-.288-2.326-2.328a.277.277 0 1 1 .392-.392l2.326 2.328a.277.277 0 1 1-.392.392Zm-2.29.397-2.05-2.052a.277.277 0 1 1 .391-.392l2.052 2.052a.277.277 0 1 1-.392.392Zm-2.534-.397-1.289-1.288a.277.277 0 1 1 .392-.392l1.29 1.289a.277.277 0 1 1-.393.392Z"/><path fill="#1f4839" stroke="#1f4839" stroke-width=".5" d="M15.2 66.281a.277.277 0 0 1 0-.392l3.27-3.271a.277.277 0 1 1 .393.392l-3.27 3.271a.28.28 0 0 1-.392 0Zm2.566 1.099a.276.276 0 0 1 0-.391l4.372-4.372a.277.277 0 1 1 .392.392l-4.372 4.372a.28.28 0 0 1-.392-.001Zm3.483-.122a.277.277 0 0 1 0-.392l4.105-4.105a.277.277 0 1 1 .392.392l-4.105 4.105a.28.28 0 0 1-.392 0Zm3.481-5.988a.277.277 0 0 1 0-.391l2.513-2.511a.277.277 0 1 1 .392.392l-2.513 2.51a.28.28 0 0 1-.392 0Zm2.261 2.26a.276.276 0 0 1 0-.39l2.313-2.312a.277.277 0 1 1 .392.392l-2.313 2.312a.28.28 0 0 1-.392-.001Z"/><path fill="#1f4839" stroke="#1f4839" stroke-width=".5" d="M27.54 58.46a.277.277 0 0 1 0-.392l1.285-1.284a.277.277 0 1 1 .393.392l-1.285 1.285a.28.28 0 0 1-.392 0Zm1.76-37.725-5.358-5.358a.277.277 0 1 1 .39-.392l5.359 5.358a.277.277 0 1 1-.391.392Zm2.224-1.055-4.388-4.387a.277.277 0 1 1 .392-.392l4.388 4.387a.277.277 0 1 1-.392.392Z"/><path fill="#1f4839" stroke="#1f4839" stroke-width=".5" d="m25.286 19.44 4.578-4.577a.277.277 0 1 1 .393.391l-4.579 4.577c-.26.26-.649-.133-.392-.391Z"/></svg>