<svg xmlns="http://www.w3.org/2000/svg" width="72" height="72" fill="none" viewBox="0 0 72 72"><path fill="#29261f" d="M46.513 5.627c-.74-.174-1.48-.322-2.222-.456l.02-.11a.27.27 0 0 0-.22-.317.265.265 0 0 0-.317.22l-.02.114c-.401-.069-.804-.122-1.205-.179l.039-.391a.27.27 0 0 0-.245-.298c-.143-.02-.284.096-.298.245l-.036.365a44 44 0 0 0-2.341-.238l.007-.224a.274.274 0 0 0-.263-.282.263.263 0 0 0-.282.263l-.007.193a44 44 0 0 0-2.768-.082c-.018-.134-.122-.242-.26-.242a.27.27 0 0 0-.264.253q-1.21.012-2.413.092l-.009-.279c-.005-.151-.122-.275-.281-.264a.274.274 0 0 0-.264.282l.01.303q-2.206.173-4.375.566l-.069-.34a.27.27 0 0 0-.32-.213.27.27 0 0 0-.214.32l.065.332q-1.158.226-2.304.513l-.004-.022a.27.27 0 0 0-.319-.218.27.27 0 0 0-.218.319l.01.053a44 44 0 0 0-3.986 1.269l-.383-.689a.274.274 0 0 0-.372-.105.276.276 0 0 0-.106.372l.341.613c-.852.328-1.696.678-2.53 1.06a2.5 2.5 0 0 1-.143-.548.28.28 0 0 0-.306-.235.274.274 0 0 0-.236.305c.031.242.103.477.192.705a44 44 0 0 0-3.71 1.992 1.7 1.7 0 0 1-.204-.59c-.017-.146-.142-.249-.303-.236a.274.274 0 0 0-.237.305c.036.283.141.546.275.795q-.954.589-1.882 1.23l-.391-.613a.275.275 0 0 0-.378-.083.274.274 0 0 0-.083.378l.406.635c-.575.407-1.147.82-1.706 1.257a.275.275 0 0 0-.047.383c.094.118.263.14.384.047a44 44 0 0 1 1.665-1.226l.357.558c.195.303.655.01.46-.294l-.372-.58q.934-.646 1.896-1.238c.244.277.543.508.893.643a.272.272 0 0 0 .197-.51 1.8 1.8 0 0 1-.603-.416 43 43 0 0 1 3.627-1.944c.164.27.362.523.602.729a.274.274 0 0 0 .357-.414 2.5 2.5 0 0 1-.459-.544 43 43 0 0 1 2.551-1.066l.47.845c.05.09.143.14.24.14.207 0 .338-.223.238-.404l-.429-.772a43 43 0 0 1 3.818-1.213l.211 1.125a.273.273 0 0 0 .537-.1l-.218-1.16a43 43 0 0 1 2.308-.515l.17.865a.27.27 0 0 0 .223.216l.383.063a.27.27 0 0 0 .313-.223.27.27 0 0 0-.224-.313l-.196-.033-.134-.676a43 43 0 0 1 4.287-.556l.035 1.068a.27.27 0 0 0 .272.263h.01a.27.27 0 0 0 .263-.282l-.036-1.09q1.19-.08 2.387-.093v1.191a.273.273 0 0 0 .545 0v-1.2c.911 0 1.823.022 2.737.081l-.037 1.045a.274.274 0 0 0 .263.283h.01a.273.273 0 0 0 .273-.263l.036-1.015q1.152.088 2.306.236l-.107 1.073a.27.27 0 0 0 .246.298l.026.001a.274.274 0 0 0 .271-.246l.105-1.048c.389.056.777.107 1.165.173l-.154.87a.27.27 0 0 0 .269.32c.13 0 .245-.093.268-.226l.155-.87c.732.133 1.464.279 2.194.45a.267.267 0 0 0 .327-.205.273.273 0 0 0-.205-.326M44.547 21.071l-.134 1.33a.27.27 0 0 0 .245.3h.027a.274.274 0 0 0 .271-.245l.131-1.302q.969.17 1.924.395a.27.27 0 0 0 .328-.203.27.27 0 0 0-.202-.329 36 36 0 0 0-2.007-.41c-.003-.136-.097-.255-.235-.268-.145-.014-.235.074-.272.19q-.75-.123-1.506-.215l.061-.377a.274.274 0 0 0-.226-.313.27.27 0 0 0-.313.226l-.065.408a38 38 0 0 0-2.763-.193c-.004-.06-.015-.119-.015-.178a.273.273 0 0 0-.272-.27h-.004a.273.273 0 0 0-.27.277c.002.057.012.111.014.168q-1.23-.017-2.463.047l-.111-.515a.274.274 0 0 0-.325-.209.27.27 0 0 0-.208.324l.092.426c-.916.059-1.828.156-2.736.28l-.032-.238a.275.275 0 0 0-.306-.234.275.275 0 0 0-.235.306l.033.244q-1.922.289-3.804.768l-.173-.72a.27.27 0 0 0-.328-.202.273.273 0 0 0-.203.328l.172.724c-.892.24-1.771.523-2.642.828-.06-.096-.161-.162-.279-.132a.27.27 0 0 0-.196.299q-1.454.53-2.853 1.175l-.178-.557a.275.275 0 0 0-.342-.177.273.273 0 0 0-.177.344l.2.624c-.728.348-1.447.712-2.147 1.107l-.311-.686a.27.27 0 0 0-.361-.135.27.27 0 0 0-.136.36l.336.743c-.385.224-.77.448-1.145.688a.274.274 0 0 0-.083.378c.08.124.247.164.377.082.354-.224.717-.435 1.08-.648l.298.66a.273.273 0 0 0 .497-.225l-.325-.717a35 35 0 0 1 2.087-1.082l.288.902a.273.273 0 0 0 .52-.166l-.309-.969a37 37 0 0 1 2.803-1.164l.224.93a.273.273 0 0 0 .532-.129l-.238-.983c.86-.301 1.728-.581 2.61-.82l.096.409a.272.272 0 1 0 .53-.127l-.098-.412a38 38 0 0 1 3.75-.758l.138 1.045a.274.274 0 0 0 .27.237q.018 0 .037-.003a.274.274 0 0 0 .234-.306l-.14-1.05a39 39 0 0 1 2.783-.281l.184.854a.272.272 0 1 0 .532-.116l-.164-.764a38 38 0 0 1 2.408-.042c.099.54.293 1.06.588 1.528a.27.27 0 0 0 .377.084.273.273 0 0 0 .084-.377 3.8 3.8 0 0 1-.488-1.226c.87.027 1.737.093 2.6.182l-.19 1.172a.274.274 0 0 0 .27.316.27.27 0 0 0 .27-.229l.194-1.203q.759.093 1.515.217M28.69 36.542c-1.162 3.002.07 6.63 2.75 8.09 4.217 2.295 11.483-.372 12.299-5.45.326-2.018-.516-4.254-2.144-5.699-4.013-3.556-10.987-1.897-12.904 3.06m3.903 7.413.182-.182.35.349a6 6 0 0 1-.532-.167m.78.236c.052-.01.106-.021.146-.06a.27.27 0 0 0 0-.387l-.358-.357.944-.944 1.098 1.097c-.234.234-.526.446-.293.679.233.232.45-.063.679-.292l.382.381c-.906.106-1.79.07-2.598-.117m2.01-3.026 1.098 1.097-.892.892-1.098-1.096zm1.256-1.256c.038-.038.047-.09.058-.14l1.138 1.138-.97.97-1.097-1.098zm-.665 3.631.892-.892 1.174 1.174a9.4 9.4 0 0 1-1.465.392c-.045-.159-.487-.56-.601-.674m2.55.077c-.034-.163-1.155-1.237-1.272-1.355l.97-.97 1.124 1.124-.395.395a.273.273 0 0 0 .193.465c.168 0 .458-.344.588-.475l.121.12c-.709.457-.886.506-1.329.696m.083-2.71.995-.995 1.123 1.123-.995.995zm1.701 1.702-.193-.193 1.021-1.022c.278.118.422-.124.332-.332l.808-.81c-.404.885-1.076 1.69-1.968 2.357m2.19-5.735-.363-.363.175-.175q.108.264.188.538m-.435-1.064-.313.313-.42-.42a.273.273 0 1 0-.386.385l.42.422-.83.83c-.034.035-.038.08-.051.125l-.023-.023a.273.273 0 1 0-.387.385l1.74 1.74c.253.253.642-.13.386-.387l-1.403-1.403c.043-.012.09-.017.125-.051l.83-.83.437.437c.113.114.305.129.413-.066.216 1.008.12 1.772-.148 2.542-.102-.212-.305-.197-.42-.082l-.922.921-1.123-1.122.353-.353a.273.273 0 1 0-.386-.386l-.353.353-.574-.574a.273.273 0 1 0-.386.386l.574.574-.995.995-1.187-1.187a.273.273 0 0 0-.386 0 .27.27 0 0 0-.069.165c-.103-.063-.234-.066-.326.025l-.876.876a.27.27 0 0 0-.365.007.267.267 0 0 0-.008.366l-.899.898-.395-.395a.272.272 0 1 0-.386.386l.395.395-.944.943-.804-.804a.273.273 0 1 0-.386.387l.804.804-.33.329c-.031-.016-.067-.027-.098-.044-2.177-1.185-3.209-4.27-2.253-6.737 1.624-4.2 7.708-5.701 11.162-2.637.489.433.889.951 1.193 1.512"/><path fill="#29261f" d="M51.916 31.324c.993 0 1.986-.325 2.943-1.16 2.264-1.978 1.937-5.673.211-7.884-1.849-2.37-4.896-3.412-7.026-3.986-15.315-4.143-30.316 2.69-32.656 7.032-.886 1.643-.811 4.065.845 5.272 2.153 1.565 4.698.183 6.736-1.225 6.599-4.573 14.696-4.796 20.9-1.886 2.223 1.04 5.124 3.837 8.047 3.837m.733-6.215 1.09 1.09-1.2 1.198-1.072-1.072 1.16-1.159c.015-.015.011-.038.022-.056m.84 3.24-.565-.566 1.2-1.199.61.61c-.166.026-1.118 1.028-1.245 1.154m-2.408-1.638 1.072 1.072-1.199 1.2-1.072-1.073zm-.513 2.656-.124.125a.273.273 0 1 0 .386.386l.124-.125.439.438c-.897-.116-1.816-.526-2.737-1.054l.84-.841zm1.498.85c.005-.186-.587-.711-.726-.85l1.2-1.199.564.566c-.281.28-.77.624-.505.89.266.266.609-.224.89-.504.255.253.64-.13.386-.385l1.092-1.091c.067-.07.076-.16.057-.247.082.014.13.032.226-.058-.382 1.836-1.8 2.806-3.184 2.878m2.836-6.036-.01-.012.004-.004q.002.007.006.016m-32.551 4.296c-1.091.752-3.61 2.595-5.476 1.24-1.16-.843-1.175-2.667-.524-3.872 1.994-3.703 16.323-10.579 31.409-6.498 1.98.536 4.802 1.492 6.45 3.606q.246.317.443.683l-.149.148-1.012-1.011a.273.273 0 1 0-.387.386l1.013 1.011-.569.569a.273.273 0 1 0 .387.386l.568-.569c.221.222.379.474.625.283.207.732.287 1.503.181 2.234-.045-.157-2.526-2.598-2.642-2.714a.273.273 0 1 0-.386.386l.014.014c-.019.011-.041.008-.057.023l-2.743 2.744-.378-.378a.273.273 0 1 0-.386.387l.377.377-.94.94c-1.371-.837-2.638-1.788-3.837-2.35-6.54-3.07-15.038-2.832-21.981 1.975"/><path fill="#29261f" d="M65.987 20.219c2.414-1.48 2.709-4.895 1.6-7.21-1.147-2.389-3.4-3.949-5.453-5.16C45.02-2.258 23.057-1.055 7.072 11.538c-6.807 5.36-1.616 10.14 3.016 8.664 2.202-.704 3.863-2.386 5.55-3.758 10.215-8.34 27.449-9.12 40.607.907 1.655 1.284 5.973 5.183 9.742 2.867m-6.304-1.68c.006-.005.016-.003.023-.01l.535-.535 1.572 1.572c-.794-.237-1.389-.551-2.13-1.027m2.523.65-1.58-1.58.787-.787 1.58 1.58zm.06.499c.013-.009.028-.006.04-.017q0-.003.002-.007c.02.004.036.024.057.024a.27.27 0 0 0 .193-.08l.822-.821.93.93a4.9 4.9 0 0 1-2.043-.03m3.973-4.147a.273.273 0 0 0-.386 0l-.731.731-.502-.502 1.104-1.104 1.216 1.217c.045.044.103.06.162.066a5 5 0 0 1-.093.837.27.27 0 0 0-.07-.17.27.27 0 0 0-.387 0l-.544.543-.502-.502.73-.73a.27.27 0 0 0 .003-.386m-.615 2.004-1.359 1.358-.501-.501 1.358-1.359zm-.737 2.002c-.008-.012-.005-.027-.015-.038l-.22-.22 1.427-1.425c.148-.01.24-.103.25-.25l.611-.612c.028-.027.028-.066.042-.1-.269 1.224-.937 2.191-2.095 2.645m-7.983-3.062c-13.563-10.338-31.357-9.537-41.959-.887-1.724 1.41-3.232 2.94-5.191 3.564-3.425 1.1-7.886-2.134-2.007-6.767C23.4.063 44.877-1.075 61.58 8.787c1.91 1.128 4.003 2.568 5.022 4.693.258.536.41 1.143.47 1.762l-.962-.962.429-.429a.273.273 0 1 0-.386-.386l-.429.429-.632-.63a.273.273 0 1 0-.386.385l.632.63-1.104 1.104-.472-.472a.273.273 0 1 0-.387.386l.473.472-.917.917a.27.27 0 0 0 0 .385.274.274 0 0 0 .387 0l.916-.917.502.502-1.359 1.358-1.58-1.58 1.466-1.464a.273.273 0 1 0-.386-.387l-1.465 1.466-.504-.505a.273.273 0 1 0-.386.386l.503.504-.786.786-.916-.916a.273.273 0 1 0-.386.386l.916.916-.536.536c-.036.036-.041.083-.053.129-.683-.472-1.268-.942-2.36-1.786M59.255 66.057c.256-1.454-.537-2.868-1.41-3.457-.945-.651-2.033-.634-2.909-.62-7.564.09-5.684.069-9.266.11-1.237-1.527-3.26-1.822-6.734-2.095-.062-4.187.256-6.102-.815-7.093-.996-.92-3.844-.758-4.724.29-.767.916-.56 2.352-.669 6.507-2.598-.095-4.897-.616-6.618.777-.58.465-1.002 1.108-1.297 1.926-6.741.06-10.753.024-12.332-.115-1.188-.1-2.668-.22-3.189 1.584-.553 1.962 1.031 3.846 2.885 4.533 1.789.662 2.9.473 12.418.422.876 1.647 2.693 1.86 4.55 1.888 14.112.205 15.638.84 17.183-2.052l9.234-.065c1.82-.02 3.335-.543 3.693-2.54m-5.418-2.647-.323-.323.654-.007zm-1.905.023-.323-.323.653-.007zm-3.07-.29 1.45-.017-.732.733zm-2.258.027.895-.01-.453.452zm.213 4.398h-.027c.011-.04.012-.083.022-.123q.112-.431.158-.878.005-.025.01-.053l.42.42-.548.547c-.023.025-.021.057-.035.087M45.2 63.3c.192.326.345.673.461 1.033l-.747-.747zm.237 1.685c.037-.038.045-.087.056-.135.017.004.03.02.048.02.154 0 .184-.07.227-.162a5.1 5.1 0 0 1-.005 2.447c-.008-.054-.02-.11-.063-.151l-1.14-1.141zm-21.399 1.606-.062-.062.14-.14c-.002.068.004.137.003.206-.001.27 0 .078-.08-.004m-.154-2.213.532-.531c-.057.3-.1.61-.143.92zm-13.542-.21c.282-.978.984-.885 2.135-.79 1.479.133 5.163.169 11.516.12l-.495.495c-.22-.22-.406-.464-.627-.242a.273.273 0 0 0 0 .386l1.05 1.05a.27.27 0 0 0 .192.08c.036 0 .066-.027.1-.041a19 19 0 0 0-.064.615c-.099-.043-.211-.044-.292.038l-.266.266-.393-.392.019-.019a.273.273 0 1 0-.387-.386l-.018.018-.197-.196a.273.273 0 1 0-.385.386l.197.197-.392.391-.15-.15a.273.273 0 1 0-.385.386l.15.15-.746.747c-.036.036-.043.085-.055.13-.013-.039-.015-.081-.047-.113l-.533-.533 1.335-1.336a.272.272 0 1 0-.385-.386l-1.335 1.335-.105-.104a.273.273 0 1 0-.386.386l.105.105-.6.599-.39-.392.655-.656a.273.273 0 1 0-.386-.386l-.656.656-.22-.22a.273.273 0 1 0-.385.386l.219.22-.575.575c-.106-.106-.582-.587-.695-.684l.952-.953a.273.273 0 1 0-.385-.386l-2.251 2.252c-.749-.035-1.51-.126-2.225-.39-1.14-.425-2.63-1.739-2.214-3.213m12.863 2.362-.392.392-.393-.393.392-.391zm-4.66 1.244-.854.006.43-.43zm-3.017.019.562-.562c.097.113.44.45.545.557-.479.002-.673.006-1.107.005m4.293-.028-.563.005.625-.626.532.534a.273.273 0 0 0 .386 0c.036-.036.043-.084.055-.13.013.038.015.08.047.112a.272.272 0 0 0 .386 0l.746-.746.393.393-.288.288a.26.26 0 0 0-.063.154zm2.99-.072.052.052h-.102zm.818.046-.432-.432.392-.392.062.063a.27.27 0 0 0 .462-.186c.005.24.083.888.094.944zm4.988 1.869a13 13 0 0 1-.464-.026c.056-.104.059-.23-.028-.317l-.34-.34.474-.475.576.576-.212.212a.27.27 0 0 0-.006.37m-1.012-.09a5 5 0 0 1-.35-.063l.143-.144zm1.408.1.212-.212c.05.044.11.072.175.072a.268.268 0 0 0 .2-.446l.912-.911.65.651-.667.668a.27.27 0 0 0-.077.2l-1.258-.018zm2.688-.307a.272.272 0 1 0 .386-.386l-.153-.153.55-.55.652.653-.768.768c-.006.006-.004.016-.01.023q-.65-.009-1.3-.018l.49-.49zm2.036.165a.271.271 0 0 0 .386 0 .273.273 0 0 0 0-.386l-.215-.216 1.032-1.032.727.727-.87.87c-.07.07-.076.167-.053.257l-1.637-.022.415-.415zm6.453-2.838c.01.016.007.036.02.05l.82.819-1.209 1.207-.854-.854zm-.754 2.463-.44.44a.27.27 0 0 0-.071.212l-1.677-.023a.26.26 0 0 0 .054-.204l1.28-1.28zm.385.386.283.282-.558-.007zm-2.859-.392-.525-.525 1.234-1.233.525.524zm-.193.58.051.05-1.517-.02.748-.749zm4.117.105-.678-.678 1.208-1.208.88.88-.668.667c-.096.096-.094.242-.015.349h-.118zm1.162.01.633-.633.537.538a7 7 0 0 1-1.17.095m1.652-.203c.016-.086.006-.174-.06-.241l-.574-.574 1.402-1.402c.253-.253-.13-.641-.387-.386l-1.401 1.402-.88-.88 1.398-1.396a.273.273 0 1 0-.387-.386l-1.397 1.398-.82-.82c-.07-.07-.166-.076-.257-.053-.013-.035-.014-.074-.042-.103a.273.273 0 0 0-.386 0l-1.33 1.33-.525-.526.112-.112a.273.273 0 1 0-.386-.386l-.112.113-.313-.313a.273.273 0 1 0-.386.386l.313.314-1.234 1.233-.728-.727.258-.258a.273.273 0 1 0-.386-.386l-.258.258-.263-.263a.273.273 0 1 0-.386.386l.263.263-1.032 1.032-.653-.653.842-.84a.273.273 0 1 0-.387-.387l-.84.841-.187-.186a.273.273 0 1 0-.386.386l.186.186-.55.55-.65-.651.523-.524a.273.273 0 1 0-.387-.386l-.552.552c-.099-.041-.211-.043-.292.038s-.08.193-.038.293l-.933.932-.576-.576.859-.858a.273.273 0 1 0-.386-.386l-.859.858-.06-.06a.273.273 0 1 0-.386.386l.06.06-.476.476-.667-.668a.273.273 0 0 0-.387 0c-.286.286.36.745.668 1.053l-.346.346c-.586-.237-1.008-.602-1.23-1.2-.486-1.194-.065-3.884.285-4.976.234-.798.584-1.379 1.073-1.771 1.286-1.04 2.914-.636 6.446-.517a.56.56 0 0 0 .392-.148.55.55 0 0 0 .171-.383c.125-4.781.009-5.882.43-6.386.463-.552 2.616-.682 3.147-.19.586.543.401 1.986.476 6.805a.545.545 0 0 0 .507.538c4.465.314 5.676.706 6.524 1.797l-.36.358c-.215-.216-.4-.46-.622-.238a.273.273 0 0 0 0 .386l.243.243a.267.267 0 0 0 .202.443c.061 0 .121-.03.171-.07l.603.603c-.024.013-.053.01-.074.03l-.878.878-.388-.388a.273.273 0 1 0-.387.385l.389.389-.136.136a.273.273 0 0 0 .193.466c.146 0 .22-.108.33-.216l1.14 1.14a.27.27 0 0 0 .385 0c.008-.007.006-.019.012-.026-.308 1.049-.952 1.907-2 2.227m14.481-3.722c-.276 1.541-1.545 1.628-2.638 1.64l-8 .056.243-.242c.28.28.664-.107.386-.385l.3-.3a.272.272 0 1 0-.385-.386l-.3.3-.785-.785q-.007-.157-.02-.316-.01-.115-.024-.23c-.075-.65-.142-.83-.248-1.17l.034.034c.022.142.073.196.217.217l.416.416-.21.21a.273.273 0 0 0 0 .387c.218.218.386 0 .596-.21l.202.201a.27.27 0 0 0 .193.08.27.27 0 0 0 .193-.08c.215-.215.002-.384-.202-.587.228-.228.509-.433.278-.663a.27.27 0 0 0-.385 0l-.278.278-.331-.332.757-.757 1.057 1.056c-.01.159.1.293.281.282.1.098.163.186.3.186.232 0 .406-.252.138-.52.113-.114.906-.893.99-1.017.29.29 1.049 1.22 1.327.942.093-.093.09-.23.02-.335l.593-.594.567.568c.025.025.06.024.09.037.006.06.023.12.068.166a.272.272 0 0 0 .386 0l.704-.704.19.19c-.156.242.088.528.356.355.288.288.7-.07.35-.42.014-.177-.11-.3-.285-.285l-.076-.077c.802-.003 1.438.055 1.986.43.6.405 1.12 1.4.95 2.364"/></svg>