<svg xmlns="http://www.w3.org/2000/svg" width="72" height="72" fill="none" viewBox="0 0 72 72">
  <path fill="#29261f" d="m47 6-3-1h-1l-1-1v1h-2V4h-1v1l-3-1-3 1V4v1h-5l-2 1h-1l-4 1V6h-1v1h1l-3 1h-1l1 1-4 2v-1h-1v1l-1 1h-1v-1 1l-2 2h1l1-1h1q0 1 0 0l2-2 1 1-1-1 4-2v1l1-1h-1l3-1v1l1-1h-1l4-2v2l1-1V6h2v1h1V6l4-1v1-1h3v1-1h3v1h1V5h2v2-2l2 1v1-1zm-2 15-1 1 1 1zl2 1v-1zl-2-1h-6l-1-1v1h-3l-4 1v-1l-1 1h1l-3 1-3 2-1-1v1l-2 1v-1h-1l1 1-2 1h3l-1-1 2-1 1 1v-1l3-1v1-1l3-1 4-1v1h1v-1h2l1 1v-1h2l1 1v-1h2v1h1v-1zM29 37q-1 5 2 8c5 2 12-1 13-6l-2-6c-4-3-11-1-13 4m4 7 1-1 1 2h1zm2-3 1 1v1l-2-1zm2-1-1 1-1-1zm-1 4 1-1 1 1zm3 0-2-2 1-1 1 1v1h1zm0-3 1-1 1 1-1 1zm1 2 1-1q1 1 0 0l1-1zm2-7h-1v1l2 2v-1l-1-1zh1l-1 3-1 1-1-1v-1h-1v1l-1 1-1-2-1 1h-1v1l-1 1v-1l-1 1h1l-1 1-1-1v2q-3-3-2-7 3-7 11-3z"/>
  <path fill="#29261f" d="m52 31 3-1q3-4 0-8l-7-4c-15-4-30 3-33 7l1 6q4 1 7-2 11-5 21-2 3 4 8 4m1-6 1 1-1 1-2-1zm0 3 1-1h1zm-2-1 1 1-1 1-1-1zm0 2-2-1v-1zm1 1 2-1v2-1h1l1-1v-1q-1 3-3 3m-30-2q-2 2-5 2l-1-4c2-4 17-11 32-7q4 1 6 4l1 1-2-1 1 1v1h1v2l-2-3-1 1-3 3v-1 1l-1 1-4-2q-10-6-22 1"/>
  <path fill="#29261f" d="M66 20q3-3 2-7l-6-5C45-2 23-1 7 12c-7 5-2 10 3 8l6-4c10-8 27-9 40 1 2 2 6 6 10 3m-6-1v-1l2 2zm2 0-1-1v-1zm0 1v-1l1 1zm4-4 1-1zv1h-1zm0 2-2 1v-1zm-1 2 1-1 1-1zm-8-4a34 34 0 0 0-42 0l-5 3c-4 1-8-2-2-7C23 0 45-1 62 9l5 4v2l-1-1h1l-1-1v1l-1-1v1l-1 1h-1l1 1-1 1 1-1 1 1-2 1-1-2 1-1-2 1-1 1-1-1v1l1 1h-1zm2 50q1-2-1-3l-3-1h-9l-7-2-1-7h-5v7h-7l-1 2H12q-1-1-3 2 0 4 3 4l13 1 4 2c14 0 16 1 17-2h10q2 0 3-3m-10-3h1zm-4 0 1 1zm0 2v2zm-35-1 2-1h12l-1 1 1 1v1h-1v-1l-1 1v1h-2l2-2h-1l-1 1-1 1v-1l-1 1v-1 1l-1 1-1-1 1-1-2 2-2-1q-3 0-3-3m9 4h-1zm1 0 1-1v1zm4 0h1zm5 2v-1zm0 0 1-1v1zv1zm3-1 1 1zm2 0 1-1 1 1zm6-2 1 1-1 1-1-1zm-1 2h-2zm-2 0 2-2v1zm0 1h-2l1-1zm4 0 1-1 1 1zm1 0v1zm2 0h-1l1-2q1 0 0 0l-1 1h-1l1-2-2 1v-1h-1l-1 1h-1v-1 1l-1-1v1l-1 1-1-1h1-2 1l-1 1h-1l1-1h-2v1h-1v-1h-1v1l-1 1v-2l-1 1-1 1v-1h-1l1 1-2-1 1-5 1-2h7v-7h3l1 7q6 0 7 2h-1v1h1v1h-2l1 1 1 1h1zm14-4-2 2h-8v-1q0 1 0 0v-1 1l-1-1v-2 1h1q1 0 0 0v-1h-1l1-1 1 1 1 1v-1l1-1 1 1 1-1v1h1l1-1v1l1-1h-1l2 1z"/>
</svg>